<svg width="20" height="22" viewBox="0 0 20 22" fill="none" xmlns="http://www.w3.org/2000/svg">
<path d="M11.1471 20.197L12.8171 19.029C14.9521 17.5344 16.6047 15.4493 17.5722 13.0293C18.5398 10.6093 18.7802 7.95961 18.2641 5.405C18.2386 5.27911 18.1845 5.16078 18.1059 5.05916C18.0274 4.95755 17.9265 4.87537 17.8111 4.819L10.0001 1L2.19008 4.819C2.07448 4.87525 1.9734 4.95738 1.89467 5.059C1.81593 5.16062 1.76167 5.27902 1.73608 5.405C1.22006 7.9597 1.46065 10.6095 2.42836 13.0294C3.39607 15.4494 5.04885 17.5345 7.18408 19.029L8.85408 20.197C9.19016 20.4321 9.59041 20.5582 10.0006 20.5582C10.4107 20.5582 10.811 20.4321 11.1471 20.197V20.197Z" stroke="black" stroke-width="2" stroke-linecap="round" stroke-linejoin="round"/>
</svg>
