<svg width="12" height="15" viewBox="0 0 12 15" fill="none" xmlns="http://www.w3.org/2000/svg">
<path d="M8 0.666016H4V1.99935H8V0.666016ZM5.33333 9.33268H6.66667V5.33268H5.33333V9.33268ZM10.6867 4.92602L11.6333 3.97935C11.3467 3.63935 11.0333 3.31935 10.6933 3.03935L9.74667 3.98602C8.71333 3.15935 7.41333 2.66602 6 2.66602C2.68667 2.66602 0 5.35268 0 8.66602C0 11.9793 2.68 14.666 6 14.666C9.32 14.666 12 11.9793 12 8.66602C12 7.25268 11.5067 5.95268 10.6867 4.92602ZM6 13.3327C3.42 13.3327 1.33333 11.246 1.33333 8.66602C1.33333 6.08602 3.42 3.99935 6 3.99935C8.58 3.99935 10.6667 6.08602 10.6667 8.66602C10.6667 11.246 8.58 13.3327 6 13.3327Z" fill="#747474"/>
</svg>
