<svg width="120" height="120" viewBox="0 0 120 120" fill="none" xmlns="http://www.w3.org/2000/svg">
<path d="M38.5229 97.8187V108.381C38.5229 110.592 40.3154 112.385 42.527 112.385H42.5317C44.7428 112.385 46.5353 110.592 46.5353 108.381V81.0117H38.5229V90.9319V97.8187Z" fill="#FFAD94"/>
<path d="M42.5312 113.087C39.9311 113.087 37.8193 110.976 37.8193 108.38V97.8187C37.8193 97.4302 38.1343 97.1156 38.5225 97.1156C38.9106 97.1156 39.2256 97.4302 39.2256 97.8187V108.381C39.2256 110.201 40.7064 111.682 42.5265 111.682C44.3514 111.682 45.8317 110.201 45.8317 108.381V81.7148H39.2261V90.9319C39.2261 91.3205 38.9111 91.635 38.5229 91.635C38.1348 91.635 37.8198 91.3205 37.8198 90.9319V81.0117C37.8198 80.6231 38.1348 80.3086 38.5229 80.3086H46.5353C46.9234 80.3086 47.2384 80.6231 47.2384 81.0117V108.381C47.2379 110.976 45.1267 113.087 42.5312 113.087Z" fill="#3A312A"/>
<path d="M54.5414 81.0117V108.381C54.5414 110.594 52.7503 112.385 50.5378 112.385C49.4339 112.385 48.434 111.939 47.7093 111.214C46.9842 110.489 46.5342 109.485 46.5342 108.381V81.0117H54.5414Z" fill="#FFAD94"/>
<path d="M50.5373 113.088C49.2796 113.088 48.0988 112.599 47.2115 111.712C46.3209 110.821 45.8306 109.639 45.8306 108.381V81.0117C45.8306 80.6231 46.1456 80.3086 46.5337 80.3086H54.5409C54.929 80.3086 55.244 80.6231 55.244 81.0117V108.381C55.244 110.977 53.1332 113.088 50.5373 113.088ZM47.2368 81.7153V108.382C47.2368 109.263 47.5809 110.093 48.2057 110.717C48.8273 111.34 49.6556 111.682 50.5373 111.682C52.3574 111.682 53.8377 110.201 53.8377 108.382V81.7153H47.2368Z" fill="#3A312A"/>
<path d="M62.2968 52.873C62.2452 52.6012 62.1796 52.3387 62.0999 52.0809C61.1905 49.1606 58.4671 47.0418 55.2468 47.0418H50.5265V42.2559H50.5077H42.5577V47.0418H37.8187C34.5983 47.0418 31.8749 49.1606 30.9655 52.0809C30.8858 52.3387 30.8202 52.6012 30.7687 52.873C30.6843 53.309 30.6421 53.7543 30.6421 54.2137V77.4027C30.6421 79.0152 31.9499 80.3231 33.5624 80.3231C34.3687 80.3231 35.0952 79.9949 35.6249 79.4652C36.1499 78.9402 36.478 78.209 36.478 77.4027V74.3981H56.5874V77.4027C56.5874 78.209 56.9155 78.9402 57.4405 79.4652C57.9702 79.9949 58.6968 80.3231 59.503 80.3231C61.1155 80.3231 62.4233 79.0152 62.4233 77.4027V54.2137C62.4233 53.7543 62.3811 53.309 62.2968 52.873Z" fill="#FFAD94"/>
<path d="M59.503 81.0266C58.5383 81.0266 57.6294 80.6488 56.9436 79.9631C56.2607 79.2801 55.8843 78.3712 55.8843 77.4032V75.1016H37.1811V77.4032C37.1811 78.3707 36.8047 79.2801 36.1218 79.9631C35.436 80.6488 34.5271 81.0266 33.5624 81.0266C31.5641 81.0266 29.9385 79.401 29.9385 77.4032V54.2141C29.9385 53.7154 29.9858 53.2195 30.0782 52.7399C30.133 52.4488 30.2038 52.1643 30.2933 51.8737C31.3241 48.5624 34.348 46.3387 37.8186 46.3387H41.8541V42.2559C41.8541 41.8673 42.1691 41.5527 42.5572 41.5527H50.5072C50.8954 41.5527 51.2291 41.8673 51.2291 42.2559V46.3387H55.2463C58.7164 46.3387 61.7404 48.5624 62.7711 51.8718C62.8611 52.1638 62.9319 52.4479 62.9872 52.7409C63.0796 53.2176 63.1265 53.7126 63.1265 54.2137V77.4027C63.1269 79.401 61.5013 81.0266 59.503 81.0266ZM36.478 73.6954H56.5874C56.9755 73.6954 57.2905 74.0099 57.2905 74.3985V77.4032C57.2905 77.9952 57.5202 78.5512 57.9379 78.9688C58.3579 79.3888 58.9138 79.6204 59.503 79.6204C60.7255 79.6204 61.7202 78.6257 61.7202 77.4032V54.2141C61.7202 53.8026 61.6818 53.3966 61.6063 53.0076C61.6063 53.0062 61.6058 53.0052 61.6058 53.0038C61.5599 52.7624 61.5018 52.5285 61.4277 52.2885C60.5821 49.5716 58.0977 47.7454 55.2463 47.7454H50.526C50.1379 47.7454 49.8229 47.4309 49.8229 47.0423V42.9595H43.2604V47.0423C43.2604 47.4309 42.9454 47.7454 42.5572 47.7454H37.8191C34.9677 47.7454 32.4833 49.5716 31.6372 52.2904C31.5636 52.5285 31.5055 52.7624 31.4596 53.0038C31.3836 53.3985 31.3452 53.8049 31.3452 54.2141V77.4032C31.3452 78.6257 32.3399 79.6204 33.5624 79.6204C34.1516 79.6204 34.7071 79.3888 35.1275 78.9688C35.5452 78.5512 35.7749 77.9952 35.7749 77.4032V74.3985C35.7749 74.0099 36.0899 73.6954 36.478 73.6954Z" fill="#3A312A"/>
<path d="M56.5874 47.1656V74.3953H36.478V47.1656C36.914 47.0813 37.3593 47.0391 37.8187 47.0391H40.8796C41.7796 49.2797 43.9733 50.8594 46.5327 50.8594C49.0921 50.8594 51.2858 49.2797 52.1858 47.0391H55.2468C55.7061 47.0391 56.1515 47.0813 56.5874 47.1656Z" fill="#FA6142"/>
<path d="M56.5874 75.0984H36.478C36.0899 75.0984 35.7749 74.7839 35.7749 74.3953V47.1656C35.7749 46.8291 36.014 46.5394 36.3444 46.4752C36.8221 46.3828 37.3176 46.3359 37.8191 46.3359H40.8801C41.1669 46.3359 41.4257 46.5108 41.5326 46.777C42.3576 48.8297 44.3197 50.1563 46.5332 50.1563C48.7466 50.1563 50.7088 48.8297 51.5338 46.777C51.6407 46.5108 51.899 46.3359 52.1863 46.3359H55.2472C55.7483 46.3359 56.2443 46.3828 56.7219 46.4752C57.0524 46.5394 57.2915 46.8286 57.2915 47.1656V74.3953C57.2905 74.7839 56.9755 75.0984 56.5874 75.0984ZM37.1807 73.6922H55.8838V47.7731C55.6738 47.7525 55.461 47.7422 55.2463 47.7422H52.6424C51.5094 50.0784 49.161 51.5625 46.5322 51.5625C43.9035 51.5625 41.5551 50.0784 40.4221 47.7422H37.8187C37.604 47.7422 37.3912 47.7525 37.1812 47.7731V73.6922H37.1807Z" fill="#3A312A"/>
<path d="M46.5318 74.3984H36.4785V84.8455H46.5318V74.3984Z" fill="#3984FF"/>
<path d="M46.5323 85.5486H36.4785C36.0904 85.5486 35.7754 85.2341 35.7754 84.8455V74.3984C35.7754 74.0098 36.0904 73.6953 36.4785 73.6953H46.5318C46.9199 73.6953 47.2349 74.0098 47.2349 74.3984V84.8455C47.2354 85.2341 46.9204 85.5486 46.5323 85.5486ZM37.1816 84.1423H45.8287V75.1016H37.1816V84.1423Z" fill="#3A312A"/>
<path d="M56.5855 74.3984H46.5322V84.8455H56.5855V74.3984Z" fill="#3984FF"/>
<path d="M56.5855 85.5486H46.5322C46.1441 85.5486 45.8291 85.2341 45.8291 84.8455V74.3984C45.8291 74.0098 46.1441 73.6953 46.5322 73.6953H56.5855C56.9736 73.6953 57.2886 74.0098 57.2886 74.3984V84.8455C57.2886 85.2341 56.9736 85.5486 56.5855 85.5486ZM47.2354 84.1423H55.8824V75.1016H47.2354V84.1423Z" fill="#3A312A"/>
<path fill-rule="evenodd" clip-rule="evenodd" d="M37.0417 29.2481C37.0417 30.8067 35.7779 32.0705 34.2193 32.0705C32.6607 32.0705 31.397 30.8067 31.397 29.2481C31.397 27.6895 32.6607 26.4258 34.2193 26.4258C35.7779 26.4258 37.0417 27.6895 37.0417 29.2481Z" fill="#F4E0C4"/>
<path d="M34.2193 32.7736C32.2754 32.7736 30.6938 31.192 30.6938 29.2481C30.6938 27.3042 32.2754 25.7227 34.2193 25.7227C36.1632 25.7227 37.7448 27.3042 37.7448 29.2481C37.7448 31.192 36.1632 32.7736 34.2193 32.7736ZM34.2193 27.1289C33.0512 27.1289 32.1001 28.0795 32.1001 29.2481C32.1001 30.4167 33.0507 31.3673 34.2193 31.3673C35.3879 31.3673 36.3385 30.4167 36.3385 29.2481C36.3385 28.0795 35.3879 27.1289 34.2193 27.1289Z" fill="#3A312A"/>
<path fill-rule="evenodd" clip-rule="evenodd" d="M61.6745 29.2481C61.6745 30.8067 60.4112 32.0705 58.8521 32.0705C57.2935 32.0705 56.0298 30.8067 56.0298 29.2481C56.0298 27.6895 57.2935 26.4258 58.8521 26.4258C60.4112 26.4258 61.6745 27.6895 61.6745 29.2481Z" fill="#F4E0C4"/>
<path d="M58.8526 32.7736C56.9087 32.7736 55.3271 31.192 55.3271 29.2481C55.3271 27.3042 56.9087 25.7227 58.8526 25.7227C60.7961 25.7227 62.3776 27.3042 62.3776 29.2481C62.3776 31.192 60.7961 32.7736 58.8526 32.7736ZM58.8526 27.1289C57.6845 27.1289 56.7334 28.0795 56.7334 29.2481C56.7334 30.4167 57.684 31.3673 58.8526 31.3673C60.0207 31.3673 60.9714 30.4167 60.9714 29.2481C60.9714 28.0795 60.0207 27.1289 58.8526 27.1289Z" fill="#3A312A"/>
<path d="M59.1703 26.7698C59.1131 26.7913 59.0395 26.8152 59.0062 26.8602C58.7447 23.6193 57.2479 20.7257 54.9825 18.6557C54.5301 18.2418 54.1448 17.7707 53.8354 17.2565C55.3251 16.3476 56.2294 15.1485 56.2294 13.8346C56.2294 13.447 56.1581 13.0541 56.0226 12.666C58.2572 14.8935 59.6301 17.9127 59.6301 21.2395C59.6297 21.6679 59.7056 26.5748 59.1703 26.7698Z" fill="#2E353D"/>
<path d="M59.0063 27.5625C58.9421 27.5625 58.8779 27.5536 58.8137 27.5358C58.5315 27.4557 58.3295 27.2086 58.3055 26.9161C58.0651 23.9419 56.7165 21.1927 54.5082 19.1743C54.0076 18.7158 53.5787 18.1922 53.2327 17.6185C53.033 17.2871 53.139 16.8572 53.469 16.6557C54.7951 15.8461 55.5259 14.8444 55.5259 13.8343C55.5259 13.5315 55.4696 13.216 55.3585 12.8977C55.2507 12.5883 55.3702 12.2452 55.6477 12.0708C55.9266 11.896 56.2871 11.9372 56.5187 12.1679C58.9787 14.6199 60.3334 17.8416 60.3334 21.2391L60.3343 21.3877C60.3751 27.0286 59.9363 27.2377 59.4254 27.4247C59.304 27.5138 59.1568 27.5625 59.0063 27.5625ZM59.5721 27.2766C59.5721 27.2766 59.5716 27.2771 59.5716 27.2775C59.5716 27.2771 59.5721 27.2766 59.5721 27.2766ZM54.8157 17.4427C55.0088 17.6897 55.223 17.9218 55.457 18.136C57.0184 19.5629 58.1959 21.3169 58.9191 23.2547C58.929 22.7288 58.9323 22.1147 58.9276 21.3975L58.9266 21.2386C58.9266 18.8808 58.1916 16.6168 56.8262 14.6972C56.5754 15.7069 55.8863 16.6505 54.8157 17.4427Z" fill="#3A312A"/>
<path d="M54.9823 18.6523C54.5299 18.2408 54.1446 17.7697 53.8352 17.2578C52.0934 18.3237 49.5471 18.9973 46.7107 18.9973C46.0371 18.9973 45.3804 18.9594 44.7452 18.8853C40.1862 18.3664 35.8151 21.0866 34.3704 25.4431C34.2298 25.8622 34.1323 26.2639 34.0873 26.6375C34.0802 26.69 34.0755 26.742 34.0704 26.7945C34.0418 27.1512 34.0254 27.5131 34.0254 27.8797C34.0254 34.7872 40.9451 45.3955 46.5368 45.3955C52.3929 45.3955 59.0459 34.7877 59.0459 27.8797C59.0463 24.2248 57.4807 20.9389 54.9823 18.6523Z" fill="#FFAD94"/>
<path d="M46.5373 46.0985C43.7027 46.0985 40.4473 43.7398 37.6057 39.6274C34.9634 35.8034 33.3223 31.302 33.3223 27.8796C33.3223 27.5126 33.3382 27.1287 33.3701 26.7378C33.3762 26.6707 33.3818 26.6084 33.3902 26.546C33.439 26.1415 33.5449 25.6929 33.7043 25.219C35.2395 20.5868 39.9105 17.6262 44.8254 18.1863C45.4395 18.2576 46.0737 18.2937 46.7107 18.2937C49.3062 18.2937 51.7695 17.6974 53.4682 16.6578C53.6285 16.5603 53.8207 16.5307 54.0021 16.5743C54.184 16.6188 54.3405 16.7337 54.4376 16.894C54.7146 17.3529 55.0573 17.7692 55.4557 18.132C55.4562 18.1324 55.4566 18.1329 55.4571 18.1334C58.1852 20.6304 59.7499 24.1826 59.7499 27.8796C59.7499 35.239 52.7899 46.0985 46.5373 46.0985ZM43.6348 19.5251C39.776 19.5251 36.259 21.9828 35.0384 25.6643C34.909 26.0506 34.8241 26.4059 34.7857 26.7223C34.7791 26.771 34.7749 26.8132 34.7716 26.8559C34.7435 27.2046 34.729 27.5506 34.729 27.8801C34.729 34.2682 41.3257 44.6928 46.5373 44.6928C51.8974 44.6928 58.3437 34.3667 58.3437 27.8801C58.3437 24.5768 56.9459 21.4024 54.5074 19.1707C54.1788 18.8712 53.8798 18.5426 53.6154 18.1882C51.7507 19.1543 49.2785 19.7004 46.7107 19.7004C46.0193 19.7004 45.3312 19.6615 44.6646 19.5837C44.3196 19.5443 43.9755 19.5251 43.6348 19.5251Z" fill="#292F33"/>
<path d="M43.3401 27.7387C43.3401 28.4132 42.7936 28.9598 42.119 28.9598C41.4445 28.9598 40.8979 28.4132 40.8979 27.7387C40.8979 27.0641 41.4445 26.5176 42.119 26.5176C42.7936 26.5176 43.3401 27.0646 43.3401 27.7387Z" fill="#3A312A"/>
<path d="M52.1746 27.7387C52.1746 28.4132 51.628 28.9598 50.9535 28.9598C50.279 28.9598 49.7324 28.4132 49.7324 27.7387C49.7324 27.0641 50.279 26.5176 50.9535 26.5176C51.628 26.5176 52.1746 27.0646 52.1746 27.7387Z" fill="#3A312A"/>
<path d="M41.7817 31.3676C41.7817 32.2362 40.84 32.9402 39.678 32.9402C38.5164 32.9402 37.5747 32.2362 37.5747 31.3676C37.5747 30.499 38.5164 29.7949 39.678 29.7949C40.84 29.7954 41.7817 30.499 41.7817 31.3676Z" fill="#F59689"/>
<path d="M55.4975 31.3676C55.4975 32.2362 54.5558 32.9402 53.3938 32.9402C52.2322 32.9402 51.29 32.2362 51.29 31.3676C51.29 30.499 52.2318 29.7949 53.3938 29.7949C54.5558 29.7954 55.4975 30.499 55.4975 31.3676Z" fill="#F59689"/>
<path d="M46.5356 38.7296C44.6273 38.7296 43.2501 37.8709 42.4439 36.1773C42.277 35.8267 42.4261 35.4071 42.7767 35.2403C43.1273 35.0734 43.5473 35.2224 43.7137 35.5731C44.2823 36.7674 45.1795 37.3238 46.5361 37.3238C48.1237 37.3238 49.0795 36.3099 49.3345 35.6288C49.4704 35.2651 49.875 35.0809 50.2401 35.2168C50.6034 35.3532 50.7881 35.7582 50.6522 36.122C50.1811 37.3777 48.6923 38.7296 46.5356 38.7296Z" fill="#3A312A"/>
<path d="M47.7203 7.64132C43.4889 7.37695 39.745 9.33351 37.9145 11.1021C35.1513 13.3723 33.7305 17.4823 33.7305 21.2384C33.7305 21.9246 33.8514 25.8298 34.0708 26.7959C34.1064 26.3787 34.2128 25.9226 34.3717 25.443C35.815 21.0874 40.1875 18.3663 44.7466 18.8862C45.3803 18.9584 46.0375 18.9963 46.7111 18.9963C51.9677 18.9963 56.2286 16.6854 56.2286 13.8345C56.2286 10.9835 52.3347 7.92961 47.7203 7.64132Z" fill="#292F33"/>
<path d="M34.0708 27.4986C33.745 27.4986 33.4586 27.2732 33.3855 26.9511C33.1375 25.8585 33.0273 21.7368 33.0273 21.238C33.0273 16.9124 34.72 12.8305 37.4463 10.5763C39.5345 8.57146 43.5264 6.67443 47.7644 6.93881C52.6478 7.24396 56.9322 10.4662 56.9322 13.8337C56.9322 17.1224 52.4425 19.6986 46.7111 19.6986C46.0234 19.6986 45.3353 19.6602 44.6669 19.5838C40.4205 19.0982 36.3672 21.6557 35.0392 25.6635C34.8916 26.1097 34.8016 26.5105 34.772 26.8551C34.7425 27.2005 34.4659 27.4724 34.12 27.4968C34.1031 27.4982 34.0867 27.4986 34.0708 27.4986ZM46.9525 8.31974C43.405 8.31974 40.1458 9.92334 38.403 11.6071C38.3898 11.6202 38.3753 11.6329 38.3608 11.6451C35.9748 13.6049 34.4336 17.3704 34.4336 21.238C34.4336 21.5685 34.4575 22.454 34.5002 23.4243C36.52 19.8449 40.5864 17.7036 44.8258 18.1879C45.4412 18.2577 46.0759 18.2933 46.7106 18.2933C51.4886 18.2933 55.5255 16.2515 55.5255 13.8346C55.5255 11.5218 52.0966 8.61928 47.6763 8.34318C47.4339 8.32724 47.193 8.31974 46.9525 8.31974Z" fill="#292F33"/>
<path d="M22.2225 12.127C22.2225 12.127 23.821 18.0609 28.4236 18.336C28.4236 18.336 22.2797 20.4571 22.1761 24.9932C22.1761 24.9932 20.9668 18.6313 16.1143 18.403C16.1143 18.4035 21.766 17.5476 22.2225 12.127Z" fill="#D7E057"/>
<path d="M22.1757 25.6958C21.8415 25.6958 21.5499 25.4586 21.4852 25.1254C21.474 25.0672 20.3157 19.3044 16.0815 19.1052C15.7201 19.0879 15.4308 18.8001 15.4121 18.4391C15.3933 18.0777 15.6516 17.7618 16.0088 17.7074C16.216 17.6751 21.1182 16.8557 21.5218 12.0669C21.5504 11.7271 21.8194 11.4571 22.1588 11.4261C22.5024 11.399 22.8118 11.6132 22.9013 11.9422C22.9158 11.9966 24.4299 17.3924 28.4654 17.6333C28.8001 17.6535 29.0738 17.9071 29.1193 18.239C29.1652 18.5708 28.9702 18.8896 28.6533 18.9997C28.5966 19.0194 22.9697 21.0205 22.8788 25.0086C22.8704 25.3682 22.5929 25.663 22.2343 25.6926C22.2151 25.6949 22.1954 25.6958 22.1757 25.6958ZM18.5447 18.3224C20.364 19.2458 21.4665 21.0168 22.103 22.4844C23.0532 20.5991 24.8897 19.3021 26.3002 18.5333C24.361 17.6694 23.1188 15.8835 22.3913 14.444C21.5508 16.4877 19.9196 17.6638 18.5447 18.3224Z" fill="#3A312A"/>
<path d="M12.0461 20.0859C12.0461 20.0859 13.1767 24.2831 16.4321 24.4781C16.4321 24.4781 12.0864 25.9786 12.0132 29.1867C12.0132 29.1867 11.1578 24.6867 7.72559 24.5255C7.72559 24.5255 11.7231 23.9203 12.0461 20.0859Z" fill="#D7E057"/>
<path d="M12.0128 29.89C11.6781 29.89 11.3861 29.6523 11.3223 29.3181C11.3148 29.2797 10.5231 25.3609 7.69231 25.2278C7.3309 25.2104 7.04168 24.9226 7.02293 24.5617C7.00418 24.2003 7.26246 23.8843 7.61965 23.83C7.7584 23.8079 11.0734 23.2473 11.3448 20.0265C11.3739 19.6862 11.6429 19.4157 11.9828 19.3853C12.3193 19.3572 12.6353 19.5723 12.7239 19.9018C12.7346 19.9389 13.7692 23.6139 16.4734 23.7761C16.8081 23.7962 17.0823 24.0498 17.1282 24.3822C17.1737 24.7145 16.9782 25.0328 16.6609 25.1425C16.6234 25.1556 12.7768 26.5267 12.7159 29.2028C12.7079 29.5623 12.4295 29.8576 12.0709 29.8876C12.0517 29.8895 12.032 29.89 12.0128 29.89ZM9.89262 24.4862C10.8812 25.1111 11.5454 26.0781 11.9786 26.9617C12.624 25.915 13.6276 25.1462 14.4948 24.6301C13.4223 24.0348 12.6728 23.0593 12.1773 22.1809C11.6275 23.2534 10.7636 23.9982 9.89262 24.4862Z" fill="#3A312A"/>
<path d="M12.0461 7.58984C12.0461 7.58984 13.1767 11.787 16.4321 11.982C16.4321 11.982 12.0864 13.4825 12.0132 16.6906C12.0132 16.6906 11.1578 12.1906 7.72559 12.0294C7.72559 12.0294 11.7231 11.4238 12.0461 7.58984Z" fill="#D7E057"/>
<path d="M12.0128 17.3939C11.6781 17.3939 11.3861 17.1562 11.3223 16.822C11.3148 16.7836 10.5231 12.8648 7.69231 12.7317C7.3309 12.7143 7.04168 12.4265 7.02293 12.0656C7.00418 11.7042 7.26246 11.3882 7.61965 11.3339C7.7584 11.3118 11.0734 10.7512 11.3448 7.53043C11.3739 7.19012 11.6429 6.91965 11.9828 6.88918C12.3193 6.86106 12.6353 7.07621 12.7239 7.40575C12.7346 7.44278 13.7692 11.1178 16.4734 11.28C16.8081 11.3001 17.0823 11.5537 17.1282 11.8861C17.1737 12.2184 16.9782 12.5367 16.6609 12.6464C16.6229 12.6595 12.7768 14.0306 12.7159 16.7067C12.7079 17.0662 12.4295 17.3615 12.0709 17.3915C12.0517 17.3934 12.032 17.3939 12.0128 17.3939ZM9.89262 11.9901C10.8812 12.615 11.5454 13.5815 11.9786 14.4656C12.624 13.4189 13.6276 12.6501 14.4948 12.134C13.4223 11.5387 12.6728 10.5632 12.1773 9.68481C11.6275 10.7573 10.7636 11.5022 9.89262 11.9901Z" fill="#3A312A"/>
<path d="M100.949 27.8639V36.683H79.8843V27.8639C79.8843 25.4166 81.8633 23.4375 84.3055 23.4375H96.5277C98.9704 23.4375 100.949 25.4166 100.949 27.8639Z" fill="#87796F"/>
<path d="M100.949 37.3861H79.8838C79.4957 37.3861 79.1807 37.0716 79.1807 36.683V27.8639C79.1807 25.0355 81.4794 22.7344 84.3055 22.7344H96.5272C99.3528 22.7344 101.652 25.0355 101.652 27.8639V36.683C101.652 37.0711 101.338 37.3861 100.949 37.3861ZM80.5874 35.9798H100.246V27.8639C100.246 25.8108 98.578 24.1406 96.5277 24.1406H84.306C82.2557 24.1406 80.5874 25.8108 80.5874 27.8639V35.9798Z" fill="#3A312A"/>
<path d="M88.5128 112.261H105.912C109.428 112.261 112.273 109.416 112.273 105.9V74.5312H68.5576V105.9C68.5576 109.416 71.4076 112.261 74.9186 112.261H82.015H88.5128Z" fill="#FA6142"/>
<path d="M105.912 112.964H88.5127C88.1246 112.964 87.8096 112.65 87.8096 112.261C87.8096 111.872 88.1246 111.558 88.5127 111.558H105.912C109.032 111.558 111.57 109.02 111.57 105.9V75.2344H69.2603V105.9C69.2603 109.02 71.7985 111.558 74.9181 111.558H82.0145C82.4026 111.558 82.7176 111.872 82.7176 112.261C82.7176 112.65 82.4026 112.964 82.0145 112.964H74.9181C71.0227 112.964 67.854 109.795 67.854 105.9V74.5312C67.854 74.1427 68.169 73.8281 68.5571 73.8281H112.273C112.661 73.8281 112.976 74.1427 112.976 74.5312V105.9C112.977 109.795 109.808 112.964 105.912 112.964Z" fill="#3A312A"/>
<path d="M112.275 74.5313V43.0435C112.275 39.5302 109.427 36.6816 105.913 36.6816H74.921C71.4077 36.6816 68.5591 39.5298 68.5591 43.0435V74.5313H112.275Z" fill="#3984FF"/>
<path d="M112.275 75.2359H68.5596C68.1714 75.2359 67.8564 74.9214 67.8564 74.5328V43.045C67.8564 39.1492 71.0257 35.9805 74.921 35.9805H105.913C109.809 35.9805 112.978 39.1497 112.978 43.045V74.5328C112.978 74.9214 112.663 75.2359 112.275 75.2359ZM69.2627 73.8297H111.572V43.045C111.572 39.925 109.033 37.3867 105.913 37.3867H74.9214C71.8014 37.3867 69.2632 39.925 69.2632 43.045V73.8297H69.2627Z" fill="#3A312A"/>
<path d="M94.3551 52.8115V46.2949H87.5976V52.8115H81.0811V59.5695H87.5976V66.0855H94.3551V59.5695H100.872V52.8115H94.3551Z" fill="#FAE6CA"/>
<path d="M94.3551 66.7887H87.5976C87.2095 66.7887 86.8945 66.4741 86.8945 66.0855V60.2721H81.0811C80.6929 60.2721 80.3779 59.9576 80.3779 59.569V52.8115C80.3779 52.4229 80.6929 52.1084 81.0811 52.1084H86.8945V46.2949C86.8945 45.9063 87.2095 45.5918 87.5976 45.5918H94.3551C94.7432 45.5918 95.0582 45.9063 95.0582 46.2949V52.1084H100.872C101.26 52.1084 101.575 52.4229 101.575 52.8115V59.569C101.575 59.9576 101.26 60.2721 100.872 60.2721H95.0582V66.0855C95.0582 66.4741 94.7432 66.7887 94.3551 66.7887ZM88.3007 65.3824H93.652V59.569C93.652 59.1804 93.967 58.8659 94.3551 58.8659H100.169V53.5146H94.3551C93.967 53.5146 93.652 53.2001 93.652 52.8115V46.998H88.3007V52.8115C88.3007 53.2001 87.9857 53.5146 87.5976 53.5146H81.7842V58.8659H87.5976C87.9857 58.8659 88.3007 59.1804 88.3007 59.569V65.3824Z" fill="#3A312A"/>
<path d="M100.872 89.7988H81.0811V96.5568H100.872V89.7988Z" fill="#FAE6CA"/>
<path d="M100.872 97.2599H81.0806C80.6924 97.2599 80.3774 96.9454 80.3774 96.5568V89.7988C80.3774 89.4102 80.6924 89.0957 81.0806 89.0957H100.872C101.26 89.0957 101.575 89.4102 101.575 89.7988V96.5568C101.575 96.9454 101.26 97.2599 100.872 97.2599ZM81.7842 95.8537H100.169V90.502H81.7842V95.8537Z" fill="#3A312A"/>
<path d="M104.07 75.2344V105.9C104.07 109.022 101.534 111.558 98.4121 111.558H105.912C109.034 111.558 111.57 109.022 111.57 105.9V75.2344H104.07Z" fill="#EE340F"/>
<path d="M105.912 37.3828H98.4121C101.534 37.3828 104.07 39.9234 104.07 43.0453V73.8281H111.57V43.0453C111.57 39.9234 109.034 37.3828 105.912 37.3828Z" fill="#1A67E7"/>
</svg>
