<svg width="24" height="24" viewBox="0 0 24 24" fill="none" xmlns="http://www.w3.org/2000/svg">
<path d="M11.5 6H12.5V12.5H11.5V6Z" fill="white"/>
<path d="M15.6426 15.327L14.8301 16.14L11.5781 12.888L12.3911 12.0745L15.6426 15.327Z" fill="white"/>
<path d="M12 13.5C12.5523 13.5 13 13.0523 13 12.5C13 11.9477 12.5523 11.5 12 11.5C11.4477 11.5 11 11.9477 11 12.5C11 13.0523 11.4477 13.5 12 13.5Z" fill="white"/>
<path d="M12 13C12.2761 13 12.5 12.7761 12.5 12.5C12.5 12.2239 12.2761 12 12 12C11.7239 12 11.5 12.2239 11.5 12.5C11.5 12.7761 11.7239 13 12 13Z" fill="white"/>
<path d="M20 12C20 16.4183 16.4183 20 12 20C7.58172 20 4 16.4183 4 12C4 7.58172 7.58172 4 12 4C16.4183 4 20 7.58172 20 12ZM5.09498 12C5.09498 15.8135 8.18646 18.905 12 18.905C15.8135 18.905 18.905 15.8135 18.905 12C18.905 8.18646 15.8135 5.09498 12 5.09498C8.18646 5.09498 5.09498 8.18646 5.09498 12Z" fill="white"/>
</svg>
