<svg width="87" height="87" viewBox="0 0 87 87" fill="none" xmlns="http://www.w3.org/2000/svg">
<g opacity="0.12">
<path d="M39.0774 58.7248C38.7192 58.7328 38.3633 58.6661 38.0327 58.5287C37.7017 58.3913 37.4034 58.1865 37.1561 57.9273L28.9999 49.9161C28.7434 49.6663 28.5396 49.3672 28.4004 49.0374C28.2612 48.7075 28.1895 48.353 28.1895 47.9948C28.1895 47.6367 28.2612 47.2821 28.4004 46.9523C28.5396 46.6224 28.7434 46.3233 28.9999 46.0736L46.0736 28.9998C46.3209 28.7405 46.6192 28.5356 46.9502 28.3983C47.2808 28.261 47.6367 28.1942 47.9949 28.2023C48.353 28.1942 48.709 28.261 49.0396 28.3983C49.3706 28.5356 49.6689 28.7405 49.9161 28.9998L57.9999 37.1561C58.2565 37.4058 58.4603 37.7049 58.5995 38.0348C58.7387 38.3646 58.8104 38.7192 58.8104 39.0773C58.8104 39.4355 58.7387 39.79 58.5995 40.1199C58.4603 40.4497 58.2565 40.7488 57.9999 40.9986L40.9986 57.9998C40.7453 58.246 40.444 58.4374 40.1134 58.5621C39.7828 58.6871 39.4301 58.7422 39.0774 58.7248ZM34.9086 47.8498L39.0774 52.0186L52.1636 38.9323L47.9949 34.9086L34.9086 47.8498Z" fill="white" stroke="#222222"/>
<path d="M39.1863 73.8777C37.0026 73.8752 34.9071 73.0161 33.3501 71.4852L15.2251 53.3602C14.4568 52.5986 13.8469 51.6924 13.4308 50.6937C13.0146 49.695 12.8003 48.6238 12.8003 47.5421C12.8003 46.4604 13.0146 45.3892 13.4308 44.3905C13.8469 43.3919 14.4568 42.4856 15.2251 41.724L16.0588 40.854C17.6128 39.3177 19.7099 38.4561 21.8951 38.4561C24.0803 38.4561 26.1774 39.3177 27.7313 40.854L45.8563 58.979C46.6245 59.7406 47.2346 60.6469 47.6507 61.6455C48.0669 62.6442 48.2811 63.7154 48.2811 64.7971C48.2811 65.8788 48.0669 66.95 47.6507 67.9487C47.2346 68.9474 46.6245 69.8536 45.8563 70.6152L45.0226 71.4852C43.4657 73.0161 41.37 73.8752 39.1863 73.8777ZM21.9313 43.899C21.5683 43.8946 21.2081 43.9628 20.8719 44.0998C20.5357 44.2368 20.2303 44.4395 19.9738 44.6965L19.1038 45.5665C18.8441 45.8257 18.638 46.1338 18.4974 46.4727C18.3568 46.8117 18.2844 47.1749 18.2844 47.5421C18.2844 47.909 18.3568 48.2726 18.4974 48.6115C18.638 48.9504 18.8441 49.2586 19.1038 49.5177L37.2288 67.6427C37.7585 68.1695 38.4755 68.4653 39.2226 68.4653C39.9697 68.4653 40.6864 68.1695 41.2163 67.6427L42.0501 66.7727C42.3162 66.5139 42.5275 66.2036 42.6707 65.8611C42.8139 65.5185 42.8864 65.1502 42.8838 64.779C42.8857 64.4132 42.8128 64.0507 42.6692 63.714C42.5261 63.3772 42.3151 63.0738 42.0501 62.8215L23.9251 44.6965C23.6619 44.4384 23.3502 44.235 23.008 44.0984C22.6658 43.9613 22.2999 43.8936 21.9313 43.899Z" fill="white" stroke="#222222"/>
<path d="M64.96 48.4661C62.7719 48.4501 60.677 47.5783 59.1237 46.0373L40.9987 27.9123C39.4538 26.363 38.5859 24.2642 38.5859 22.0761C38.5859 19.888 39.4538 17.7892 40.9987 16.2398L41.8687 15.3698C43.4166 13.8358 45.5075 12.9751 47.6869 12.9751C49.8662 12.9751 51.9571 13.8358 53.505 15.3698L71.63 33.4948C73.1641 35.0427 74.0247 37.1336 74.0247 39.313C74.0247 41.4923 73.1641 43.5832 71.63 45.1311L70.76 46.0011C69.2215 47.5468 67.1404 48.4309 64.96 48.4661ZM47.705 18.4511C47.3389 18.447 46.9756 18.5191 46.6389 18.6626C46.3018 18.8061 45.9983 19.018 45.7475 19.2848L44.8775 20.1186C44.3508 20.6484 44.055 21.3652 44.055 22.1123C44.055 22.8595 44.3508 23.5763 44.8775 24.1061L63.0025 42.2311C63.5321 42.7578 64.2491 43.0536 64.9962 43.0536C65.7434 43.0536 66.46 42.7578 66.99 42.2311L67.8237 41.3611C68.0887 41.1088 68.2997 40.805 68.4429 40.4686C68.5864 40.1319 68.6593 39.7694 68.6575 39.4036C68.66 39.0324 68.5875 38.6641 68.4443 38.3215C68.3012 37.979 68.0898 37.6687 67.8237 37.4098L49.6987 19.2848C49.4385 19.0203 49.1282 18.8104 48.786 18.6672C48.4434 18.524 48.0762 18.4506 47.705 18.4511Z" fill="white" stroke="#222222"/>
<path d="M70.8688 37.0113C68.6851 37.0088 66.5895 36.1498 65.0326 34.6188L52.6713 22.2213C51.9032 21.4596 51.2931 20.5534 50.877 19.5548C50.4608 18.5562 50.2466 17.485 50.2466 16.4032C50.2466 15.3213 50.4608 14.2502 50.877 13.2516C51.2931 12.253 51.9032 11.3467 52.6713 10.585L53.5051 9.71505C55.0544 8.16993 57.1533 7.30225 59.3413 7.30225C61.5294 7.30225 63.6283 8.16993 65.1776 9.71505L77.5751 22.0763C79.1114 23.6303 79.973 25.7274 79.973 27.9125C79.973 30.0978 79.1114 32.1948 77.5751 33.7488L76.7051 34.6188C75.1482 36.1498 73.0525 37.0088 70.8688 37.0113ZM59.3413 12.7238C58.5942 12.7345 57.8801 13.0332 57.3476 13.5575L56.5138 14.5C56.2539 14.7593 56.048 15.0673 55.9074 15.4063C55.7667 15.7453 55.6942 16.1087 55.6942 16.4757C55.6942 16.8427 55.7667 17.2061 55.9074 17.5451C56.048 17.8841 56.2539 18.192 56.5138 18.4513L68.8751 30.7763C69.4051 31.3032 70.1217 31.5989 70.8688 31.5989C71.616 31.5989 72.3326 31.3032 72.8626 30.7763L73.6963 29.9063C73.9617 29.6464 74.1723 29.3362 74.3162 28.9938C74.4601 28.6515 74.5341 28.2839 74.5341 27.9125C74.5341 27.5412 74.4601 27.1736 74.3162 26.8312C74.1723 26.4889 73.9617 26.1787 73.6963 25.9188L61.3351 13.5575C60.8073 13.0266 60.0903 12.7268 59.3413 12.7238Z" fill="white" stroke="#222222"/>
<path d="M27.6588 79.7501C26.5585 79.7591 25.4679 79.5453 24.4524 79.1215C23.437 78.6981 22.5177 78.0732 21.75 77.2851L9.46129 64.9238C8.69188 64.159 8.08125 63.2498 7.6646 62.2482C7.24794 61.2466 7.03345 60.1725 7.03345 59.0876C7.03345 58.0026 7.24794 56.9285 7.6646 55.9269C8.08125 54.9254 8.69188 54.0162 9.46129 53.2513L10.295 52.3813C11.849 50.8451 13.9461 49.9834 16.1313 49.9834C18.3165 49.9834 20.4135 50.8451 21.9675 52.3813L34.3288 64.7788C35.0971 65.5405 35.7069 66.4467 36.1231 67.4454C36.5393 68.4441 36.7536 69.5153 36.7536 70.597C36.7536 71.6787 36.5393 72.7499 36.1231 73.7485C35.7069 74.7472 35.0971 75.6535 34.3288 76.4151L33.495 77.2851C32.7346 78.063 31.8269 78.6814 30.8248 79.1045C29.8228 79.5279 28.7465 79.7472 27.6588 79.7501ZM16.1313 55.4626C15.7628 55.4571 15.3968 55.5249 15.0546 55.662C14.7124 55.799 14.4008 56.002 14.1375 56.2601L13.3038 57.1301C13.0385 57.39 12.8278 57.7003 12.684 58.0425C12.5401 58.3851 12.466 58.7526 12.466 59.1238C12.466 59.495 12.5401 59.863 12.684 60.2052C12.8278 60.5474 13.0385 60.8577 13.3038 61.1176L25.665 73.4788C25.9243 73.7388 26.2322 73.9446 26.5713 74.0853C26.9102 74.2259 27.2736 74.2984 27.6407 74.2984C28.0077 74.2984 28.3711 74.2259 28.7101 74.0853C29.0491 73.9446 29.357 73.7388 29.6163 73.4788L30.4863 72.5001C30.7461 72.2409 30.9521 71.9328 31.0928 71.5938C31.2334 71.2549 31.3057 70.8913 31.3057 70.5245C31.3057 70.1576 31.2334 69.794 31.0928 69.4551C30.9521 69.1161 30.7461 68.808 30.4863 68.5488L18.125 56.2238C17.8618 55.9657 17.5501 55.7627 17.2079 55.6257C16.8657 55.4887 16.4998 55.4209 16.1313 55.4263V55.4626Z" fill="white" stroke="#222222"/>
</g>
</svg>
