<svg width="16" height="19" viewBox="0 0 16 19" fill="none" xmlns="http://www.w3.org/2000/svg">
<path d="M14.8189 9.67419C14.5666 10.7407 13.6074 11.5346 12.4651 11.5346C11.3223 11.5346 10.3637 10.7402 10.1114 9.67419H0.55803C0.249686 9.67419 0 9.42451 0 9.11616C0 8.80782 0.249686 8.55814 0.55803 8.55814H10.1114C10.3637 7.49163 11.3227 6.69768 12.4651 6.69768C13.6081 6.69768 14.5666 7.49216 14.8189 8.55814H15.4418C15.7502 8.55814 15.9999 8.80782 15.9999 9.11616C15.9999 9.42451 15.7502 9.67419 15.4418 9.67419H14.8189ZM12.4651 7.81374C11.7471 7.81374 11.1629 8.39773 11.1629 9.11619C11.1629 9.83413 11.7466 10.4186 12.4651 10.4186C13.183 10.4186 13.7675 9.83465 13.7675 9.11619C13.7675 8.39826 13.1835 7.81374 12.4651 7.81374ZM5.88855 2.97677C5.63627 4.04301 4.67727 4.83722 3.53495 4.83722C2.3919 4.83722 1.43337 4.04247 1.18108 2.97677H0.558162C0.249819 2.97677 0.000132816 2.72682 0.000132816 2.41848C0.000132816 2.1104 0.249819 1.86045 0.558162 1.86045H1.18108C1.43337 0.793948 2.39263 0 3.53495 0C4.67773 0 5.63626 0.794479 5.88855 1.86045H15.442C15.7503 1.86045 16 2.1104 16 2.41848C16 2.72682 15.7503 2.97677 15.442 2.97677H5.88855ZM3.53495 1.11632C2.81702 1.11632 2.2325 1.70005 2.2325 2.4185C2.2325 3.13644 2.81649 3.72095 3.53495 3.72095C4.25289 3.72095 4.83713 3.13696 4.83713 2.4185C4.83713 1.70057 4.2534 1.11632 3.53495 1.11632V1.11632ZM9.2375 16.372C8.98521 17.4385 8.02595 18.2325 6.88363 18.2325C5.74085 18.2325 4.78232 17.438 4.53003 16.372H0.558162C0.249819 16.372 0.000132816 16.1221 0.000132816 15.814C0.000132816 15.5056 0.249819 15.2557 0.558162 15.2557H4.53003C4.78231 14.1895 5.74131 13.3953 6.88363 13.3953C8.02668 13.3953 8.98521 14.19 9.2375 15.2557H15.4418C15.7501 15.2557 15.9998 15.5056 15.9998 15.814C15.9998 16.1221 15.7501 16.372 15.4418 16.372H9.2375ZM6.88363 14.5116C6.16569 14.5116 5.58145 15.0956 5.58145 15.814C5.58145 16.532 6.16518 17.1162 6.88363 17.1162C7.60156 17.1162 8.18608 16.5325 8.18608 15.814C8.18608 15.0961 7.60209 14.5116 6.88363 14.5116Z" fill="white"/>
</svg>
