<svg width="360" height="200" viewBox="0 0 360 200" fill="none" xmlns="http://www.w3.org/2000/svg">
<path d="M134.281 68.0277C137.401 71.1478 143.028 88.5476 135.41 87.1444C127.381 85.6656 132.049 71.1492 129.933 67.3037C127.864 63.545 121.477 61.6559 116.419 60.8507C124.915 69.3469 124.121 78.1441 120.382 77.3753C112.25 75.6948 120.329 62.5017 102.737 60.3283C99.4911 59.9278 96.0041 60.9837 92.3154 61.6727C97.3106 61.6727 110.287 71.2752 105.727 73.9682C97.6621 78.7295 87.802 67.2533 87.802 62.6684C68.9583 67.6286 63.7628 80.4828 68.5186 90.4578C71.9117 87.0646 81.8125 82.1744 83.5182 85.2007C85.3135 88.388 78.8479 92.6592 71.4538 92.6592C72.8542 96.4403 75.7866 99.066 77.7276 99.9146C91.7049 106.027 110.717 88.4944 115.222 92.2307C118.153 94.6618 115.331 98.5548 93.9749 105.715C96.6497 108.17 99.8328 110.016 103.402 109.776C114.533 109.006 123.827 98.244 128.077 102.035C132.011 105.546 127.748 108.324 116.888 110.178C119.549 119.685 143.486 109.255 154.385 125.056C154.385 125.049 158.14 85.4696 134.281 68.0277ZM83.6106 75.2215C82.6569 76.6499 75.9547 74.3939 77.6029 71.8522C79.1854 69.4113 84.8556 73.3534 83.6106 75.2215ZM83.2073 68.9197C85.9311 65.2269 94.1304 73.6433 91.0495 74.9414C87.8902 76.2662 81.6683 71.0077 83.2073 68.9211V68.9197ZM89.404 91.8526C87.3553 88.3516 103.738 82.1142 106.489 86.3574C109.239 90.6006 91.5592 95.53 89.404 91.8526Z" fill="#6F8137"/>
<path d="M134.281 68.0271C138.079 71.5491 144.892 88.7921 137.272 87.3889C129.245 85.9115 133.096 70.3126 130.979 66.4671C128.909 62.7098 122.529 61.2744 116.415 60.8501C125.331 67.8353 125.036 78.4124 121.302 77.638C113.17 75.9575 121.375 61.6581 103.779 59.4847C100.534 59.0842 95.9368 60.367 92.3126 61.6651C97.3078 61.6651 112.089 70.4764 107.529 73.168C99.4658 77.9293 88.841 66.4111 88.841 61.8248C70.0043 66.792 64.8173 79.5706 69.573 89.5413C72.9662 86.1482 84.2771 81.3448 85.9912 84.3739C87.7851 87.5612 78.8492 92.6572 71.4537 92.6572C72.6239 94.2257 74.0024 95.6273 75.5513 96.8234C76.5792 97.623 77.544 98.5935 78.7722 99.0836C90.9892 103.957 112.967 87.2937 117.472 91.03C120.406 93.4624 115.338 98.5543 93.9748 105.714C97.3596 106.724 100.796 108.472 104.366 108.225C115.496 107.455 124.873 97.4004 129.122 101.191C133.057 104.702 127.748 108.316 116.888 110.171C134.144 112.327 149.062 112.589 149.87 117.693L154.385 125.048C154.385 125.048 158.139 85.469 134.281 68.0271ZM83.6105 75.2209C82.6569 76.6493 75.442 74.0488 77.0903 71.5071C78.6728 69.0662 84.8555 73.3528 83.6105 75.2209ZM82.6947 68.373C85.4184 64.6802 94.1289 73.6441 91.0452 74.9409C87.8901 76.2656 81.1556 70.4596 82.6947 68.373ZM89.404 91.852C87.3552 88.351 104.677 81.5717 107.424 85.8149C110.172 90.0581 91.5592 95.5294 89.404 91.852Z" fill="#ABBD43"/>
<path d="M153.735 117.689C138.611 78.493 88.9207 74.9962 68.3629 78.6176C67.4723 82.302 67.9274 86.0915 69.5729 89.5407C72.966 86.1475 84.277 81.3442 85.9911 84.3732C87.785 87.5605 78.8491 92.6565 71.4536 92.6565C72.6238 94.225 74.0023 95.6267 75.5511 96.8227C76.579 97.6223 77.5439 98.5928 78.772 99.0829C90.9891 103.956 112.967 87.293 117.472 91.0293C120.406 93.4618 115.338 98.5536 93.9747 105.714C97.1634 107.565 100.796 108.471 104.366 108.225C115.496 107.454 124.873 97.3997 129.122 101.191C133.057 104.701 127.748 108.316 116.888 110.17C120.609 116.542 143.417 109.486 154.385 125.048C154.385 125.048 154.585 123.367 154.701 120.54C154.44 119.637 154.118 118.687 153.735 117.689ZM89.4038 91.8513C87.355 88.3503 104.676 81.571 107.424 85.8142C110.172 90.0574 91.559 95.5287 89.4038 91.8513Z" fill="#ABBD43"/>
<path d="M110.057 74.5996C110.057 74.5996 110.136 74.7915 110.281 75.122C110.427 75.4525 110.648 75.9216 110.946 76.4649C111.286 77.0823 111.663 77.6786 112.075 78.2504C112.302 78.5613 112.543 78.8792 112.803 79.1873C113.064 79.4954 113.338 79.8007 113.624 80.0947C113.764 80.2348 113.904 80.386 114.062 80.5233L114.284 80.7305L114.512 80.9294C114.814 81.1941 115.125 81.4377 115.432 81.6646C115.584 81.7794 115.741 81.8817 115.89 81.9881C116.038 82.0945 116.195 82.1841 116.342 82.2794C116.639 82.46 116.925 82.6253 117.195 82.7639L117.391 82.8689L117.579 82.96L117.933 83.1294C118.161 83.2246 118.353 83.3115 118.521 83.3759L119.041 83.5705H119.056C119.152 83.6066 119.229 83.6791 119.271 83.7722C119.313 83.8653 119.317 83.9713 119.281 84.067C119.245 84.1626 119.172 84.24 119.079 84.2822C118.986 84.3243 118.88 84.3278 118.784 84.2917L118.765 84.2833L118.23 84.0467C118.06 83.9682 117.86 83.8646 117.628 83.7512L117.266 83.5537C117.203 83.5173 117.138 83.4823 117.072 83.4459L116.871 83.3241C116.591 83.163 116.311 82.9726 116.012 82.7639C115.865 82.6561 115.712 82.5496 115.561 82.4334C115.409 82.3172 115.255 82.1981 115.104 82.0707C114.8 81.8172 114.494 81.5484 114.198 81.2571L113.977 81.0386L113.76 80.8117C113.62 80.6619 113.48 80.5023 113.34 80.3468C113.06 80.0289 112.801 79.704 112.557 79.3665C112.313 79.0291 112.084 78.7014 111.872 78.3723C111.491 77.7756 111.146 77.1564 110.84 76.5181C110.571 75.958 110.378 75.4735 110.25 75.1332C110.123 74.7929 110.057 74.5996 110.057 74.5996Z" fill="#6F8137"/>
<path d="M92.3711 84.7473L92.6372 84.6199C92.724 84.5779 92.8304 84.5247 92.9579 84.4687L93.4004 84.2838C93.7351 84.1438 94.144 84.0037 94.6229 83.8469C95.1019 83.69 95.6438 83.5402 96.2418 83.3875C96.5401 83.3105 96.8552 83.2475 97.1786 83.1663C97.5021 83.0851 97.8396 83.0263 98.1869 82.9604C98.5342 82.8946 98.8871 82.8204 99.2582 82.7686L99.8184 82.6761L100.379 82.5935C101.142 82.4815 101.933 82.3863 102.74 82.3036C103.546 82.221 104.367 82.1538 105.189 82.1048C105.599 82.0768 106.011 82.0628 106.421 82.0418C106.832 82.0208 107.239 82.0096 107.645 82.0054C108.456 81.9858 109.256 81.99 110.026 82.0054C110.796 82.0208 111.548 82.0558 112.257 82.109L112.78 82.1482L113.289 82.1972C113.622 82.2266 113.944 82.27 114.254 82.3065C114.563 82.3429 114.857 82.3961 115.139 82.4367L115.936 82.5837C116.183 82.6397 116.417 82.6888 116.636 82.742L117.225 82.9002C117.58 83.0136 117.857 83.1019 118.043 83.1803L118.332 83.2923C118.382 83.3082 118.428 83.3342 118.468 83.3688C118.508 83.4034 118.54 83.4458 118.563 83.4934C118.586 83.541 118.599 83.5928 118.601 83.6455C118.603 83.6983 118.594 83.7508 118.574 83.8C118.555 83.8491 118.526 83.8938 118.489 83.9312C118.452 83.9686 118.407 83.9979 118.358 84.0174C118.309 84.0369 118.257 84.0462 118.204 84.0445C118.151 84.0429 118.099 84.0304 118.051 84.0079H118.043L118.018 83.9967L117.759 83.8861C117.594 83.8091 117.339 83.7194 117.01 83.606L116.449 83.4394C116.245 83.3819 116.029 83.3301 115.784 83.2685L115.017 83.0991C114.737 83.0515 114.457 82.9926 114.158 82.9478C113.86 82.903 113.544 82.8512 113.217 82.8078L112.719 82.7462L112.203 82.6916C111.503 82.6187 110.769 82.5669 110.005 82.5249C109.24 82.4829 108.449 82.4605 107.644 82.4563C107.24 82.4479 106.836 82.4563 106.428 82.4563C106.021 82.4563 105.612 82.4675 105.203 82.4843C104.384 82.5081 103.566 82.5529 102.762 82.6089C101.958 82.6649 101.168 82.7392 100.405 82.8288L99.845 82.8946L99.2848 82.9702C98.9179 83.0164 98.5608 83.0767 98.2135 83.1299C97.8662 83.1831 97.5287 83.2489 97.2024 83.3063C96.8762 83.3637 96.5639 83.431 96.2642 83.4996C95.6634 83.6396 95.1173 83.7685 94.6369 83.9099C94.1566 84.0513 93.7435 84.19 93.4074 84.3076L92.9593 84.4799C92.8304 84.5331 92.724 84.5835 92.6358 84.6199L92.3711 84.7473Z" fill="#6F8137"/>
<path d="M100.786 93.0594L101.117 92.9362C101.332 92.8578 101.646 92.7359 102.044 92.5777C102.841 92.264 103.969 91.7907 105.328 91.2305C106.686 90.6703 108.282 90.036 110.033 89.4576C110.908 89.1691 111.823 88.8974 112.762 88.6608C113.702 88.4241 114.671 88.2253 115.646 88.0656C116.62 87.906 117.606 87.8107 118.587 87.7477C119.074 87.7295 119.557 87.7001 120.036 87.7085C120.275 87.7085 120.513 87.7085 120.749 87.7085L121.449 87.7365C121.683 87.7365 121.912 87.7617 122.141 87.7799L122.817 87.8345C123.262 87.8892 123.699 87.9354 124.122 87.9984L124.745 88.102C124.95 88.1356 125.153 88.1664 125.349 88.2113C125.741 88.2967 126.125 88.3653 126.486 88.4563L127.525 88.721L128.451 89.0011C128.744 89.0837 129.011 89.1831 129.258 89.2671L129.94 89.5024L131.214 90.001C131.35 90.0539 131.459 90.1586 131.517 90.292C131.576 90.4254 131.579 90.5766 131.526 90.7124C131.473 90.8481 131.369 90.9573 131.235 91.0158C131.102 91.0744 130.951 91.0776 130.815 91.0246L130.799 91.0176L130.776 91.0078L129.56 90.4827L128.909 90.2334C128.671 90.1438 128.417 90.0374 128.137 89.9533L127.252 89.6537L126.261 89.3582C125.915 89.2559 125.546 89.1775 125.168 89.0781C124.979 89.0291 124.785 88.9927 124.589 88.9521L123.988 88.8316C123.58 88.756 123.159 88.6916 122.727 88.6272L122.072 88.5515C121.851 88.5263 121.628 88.4983 121.403 88.4857L120.719 88.4353C120.491 88.4185 120.259 88.4171 120.026 88.4073C119.56 88.3835 119.088 88.3961 118.612 88.3961C117.659 88.4241 116.692 88.4829 115.728 88.6062C114.765 88.7294 113.806 88.8862 112.87 89.0935C111.935 89.3008 111.019 89.5304 110.141 89.7867C108.385 90.2992 106.773 90.8776 105.396 91.3887C104.02 91.8999 102.874 92.3424 102.06 92.6225C101.656 92.7625 101.338 92.876 101.121 92.9474L100.786 93.0594Z" fill="#6F8137"/>
<path d="M79.7246 77.5591C79.7246 77.5591 80.0985 77.5185 80.8043 77.4709C81.5101 77.4233 82.545 77.3673 83.8642 77.3379C85.1833 77.3085 86.7868 77.3085 88.6255 77.3645C90.4642 77.4205 92.5354 77.5423 94.7872 77.7594C97.0391 77.9765 99.4771 78.2859 102.036 78.7397C104.594 79.1934 107.273 79.769 110.018 80.5056C112.834 81.2698 115.606 82.1904 118.319 83.2629C119.709 83.8049 121.085 84.4141 122.455 85.0512C123.134 85.3803 123.819 85.7024 124.49 86.0567C124.826 86.2318 125.166 86.3984 125.498 86.5819L126.496 87.1294C126.832 87.3087 127.157 87.5047 127.485 87.6896C127.813 87.8744 128.143 88.0691 128.465 88.2665L129.432 88.8673C129.591 88.9681 129.754 89.0648 129.912 89.1698L130.387 89.4835L131.332 90.1095L132.256 90.762C132.879 91.1822 133.469 91.6541 134.077 92.1008C136.403 93.8913 138.589 95.8576 140.615 97.9825C142.514 99.9721 144.264 102.098 145.853 104.343C147.275 106.357 148.57 108.458 149.73 110.634C149.87 110.887 149.995 111.136 150.127 111.384C150.258 111.632 150.39 111.877 150.505 112.125C150.745 112.618 150.978 113.1 151.205 113.57C151.322 113.804 151.423 114.039 151.527 114.27C151.631 114.502 151.73 114.733 151.831 114.959C152.027 115.412 152.231 115.847 152.391 116.281C152.733 117.147 153.074 117.949 153.336 118.711C153.598 119.473 153.873 120.159 154.067 120.798L154.616 122.495L154.98 123.755C155.178 124.443 155.284 124.808 155.284 124.808C155.344 125.041 155.311 125.289 155.192 125.498C155.072 125.707 154.876 125.861 154.645 125.927C154.414 125.994 154.165 125.968 153.953 125.854C153.741 125.741 153.581 125.549 153.508 125.32V125.307L153.499 125.273C153.499 125.273 153.403 124.913 153.219 124.24L152.888 122.998C152.748 122.515 152.573 121.957 152.384 121.334C152.195 120.711 151.964 120.03 151.71 119.285C151.457 118.54 151.15 117.745 150.834 116.905C150.681 116.484 150.489 116.05 150.306 115.605C150.213 115.382 150.118 115.158 150.026 114.929C149.933 114.699 149.835 114.468 149.726 114.238L149.072 112.818C148.964 112.573 148.84 112.334 148.716 112.09C148.593 111.846 148.47 111.6 148.344 111.351C147.253 109.209 146.031 107.137 144.683 105.147C143.175 102.927 141.505 100.821 139.689 98.8451C137.745 96.7264 135.641 94.7601 133.396 92.9635C132.815 92.5139 132.244 92.0448 131.641 91.6149L130.745 90.9567L129.826 90.3237L129.367 90.0058C129.213 89.9008 129.055 89.8014 128.899 89.6991L127.96 89.09C127.645 88.8883 127.323 88.6993 127.003 88.5032C126.684 88.3072 126.367 88.1097 126.041 87.9276L125.061 87.3675C124.737 87.1798 124.404 87.0104 124.081 86.8297C123.425 86.4684 122.754 86.1379 122.089 85.7991C120.749 85.1437 119.401 84.5163 118.035 83.9533C115.366 82.8381 112.637 81.8731 109.86 81.0629C107.154 80.2787 104.502 79.6415 101.963 79.1556C99.4239 78.6697 97.0055 78.3055 94.762 78.0451C92.5186 77.7846 90.4544 77.625 88.6213 77.5353C86.7882 77.4457 85.1875 77.4121 83.8684 77.4177C82.5492 77.4233 81.5143 77.4555 80.8099 77.4919C80.1055 77.5283 79.7246 77.5591 79.7246 77.5591Z" fill="#6F8137"/>
<path d="M149.571 80.8887L149.742 81.1828C149.854 81.3788 150.022 81.6645 150.23 82.0496C150.651 82.8128 151.235 83.9513 151.911 85.4329C152.587 86.9146 153.348 88.7379 154.132 90.8665C154.916 92.9951 155.73 95.4205 156.513 98.1023C157.295 100.784 158.042 103.718 158.692 106.853C158.773 107.245 158.853 107.64 158.935 108.038C159.018 108.436 159.087 108.838 159.164 109.241C159.322 110.048 159.455 110.868 159.599 111.697C159.864 113.358 160.12 115.058 160.316 116.798C160.427 117.666 160.502 118.544 160.596 119.429C160.633 119.871 160.669 120.316 160.705 120.762L160.76 121.431L160.802 122.105C160.83 122.555 160.857 123.007 160.885 123.459C160.913 123.912 160.922 124.365 160.941 124.82C160.959 125.276 160.971 125.733 160.98 126.191C160.988 126.649 161.002 127.109 161.002 127.569C161.002 128.489 161.002 129.414 160.974 130.341C160.946 131.268 160.906 132.198 160.861 133.129C160.836 133.595 160.794 134.06 160.761 134.529L160.71 135.23C160.69 135.462 160.665 135.694 160.642 135.93L160.502 137.33L160.325 138.73C160.07 140.59 159.764 142.444 159.344 144.272C159.157 145.19 158.906 146.092 158.682 147L158.295 148.344C158.23 148.567 158.168 148.791 158.098 149.014L157.882 149.676C157.32 151.431 156.665 153.155 155.922 154.841L155.352 156.083C155.261 156.29 155.158 156.492 155.055 156.693L154.748 157.298C154.353 158.109 153.898 158.882 153.465 159.659C150.187 165.309 145.707 170.169 140.344 173.897L139.467 174.494C139.177 174.691 138.894 174.891 138.6 175.065C138.018 175.422 137.45 175.776 136.892 176.111L135.227 177.033C134.959 177.187 134.686 177.32 134.419 177.453L133.626 177.846L132.86 178.226C132.607 178.348 132.352 178.454 132.105 178.565L130.673 179.198C130.212 179.395 129.761 179.56 129.334 179.731L128.11 180.207L126.009 180.93C125.705 181.041 125.418 181.12 125.156 181.2L124.444 181.413L123.137 181.805C122.775 181.904 122.389 181.857 122.062 181.676C121.734 181.494 121.49 181.191 121.382 180.832C121.275 180.473 121.312 180.086 121.485 179.753C121.659 179.421 121.956 179.17 122.312 179.053L122.339 179.045L122.399 179.028L123.659 178.684L124.347 178.496C124.599 178.426 124.876 178.356 125.169 178.258L127.191 177.617L128.369 177.196C128.781 177.042 129.216 176.895 129.66 176.719L131.038 176.149C131.276 176.048 131.521 175.953 131.765 175.844L132.503 175.499L133.265 175.143C133.524 175.023 133.787 174.904 134.045 174.764L135.647 173.924C136.185 173.618 136.731 173.295 137.292 172.969C137.572 172.812 137.852 172.627 138.132 172.448L138.973 171.902C141.41 170.286 143.676 168.428 145.738 166.355C148.032 164.02 150.057 161.437 151.777 158.652C152.209 157.919 152.664 157.188 153.062 156.412L153.37 155.838C153.475 155.647 153.579 155.455 153.671 155.258L154.247 154.076C155.005 152.464 155.679 150.813 156.263 149.13L156.49 148.493C156.562 148.28 156.63 148.063 156.696 147.847C156.832 147.416 156.968 146.983 157.104 146.55C157.342 145.675 157.608 144.803 157.812 143.912C158.26 142.14 158.606 140.334 158.9 138.519L159.109 137.156L159.281 135.787C159.308 135.559 159.34 135.332 159.364 135.102L159.432 134.417C159.474 133.959 159.526 133.503 159.563 133.045C159.629 132.13 159.703 131.224 159.739 130.303C159.776 129.381 159.809 128.482 159.834 127.571C159.846 127.117 159.834 126.663 159.844 126.211C159.854 125.759 159.844 125.306 159.844 124.857C159.844 124.407 159.829 123.956 159.822 123.508C159.815 123.06 159.788 122.613 159.773 122.168L159.748 121.501C159.735 121.279 159.721 121.058 159.708 120.836C159.683 120.394 159.658 119.953 159.633 119.514C159.561 118.636 159.508 117.764 159.42 116.901C159.267 115.173 159.053 113.48 158.83 111.825C158.707 110.999 158.595 110.179 158.458 109.374C158.391 108.972 158.329 108.57 158.258 108.174C158.186 107.778 158.117 107.381 158.045 106.991C157.475 103.858 156.793 100.921 156.084 98.2311C155.376 95.541 154.619 93.1029 153.888 90.9631C153.157 88.8233 152.442 86.9846 151.806 85.4904C151.17 83.9961 150.614 82.845 150.214 82.0734C150.018 81.6841 149.852 81.3942 149.746 81.1954L149.571 80.8887Z" fill="#6F8137"/>
<path d="M163.585 102.877C163.585 102.877 163.746 103.157 164.046 103.688L164.606 104.668C164.714 104.86 164.831 105.066 164.956 105.286L165.331 106L166.208 107.666L167.181 109.66C167.858 111.093 168.591 112.725 169.324 114.532C169.416 114.758 169.514 114.985 169.604 115.216C169.693 115.447 169.783 115.684 169.873 115.916L170.433 117.365C170.53 117.61 170.618 117.86 170.705 118.113L170.971 118.876C171.148 119.39 171.336 119.91 171.513 120.441L172.028 122.062C172.115 122.342 172.203 122.611 172.29 122.889C172.377 123.166 172.452 123.449 172.533 123.729C172.696 124.289 172.86 124.86 173.026 125.441C173.183 126.021 173.329 126.608 173.484 127.2C173.56 127.496 173.637 127.793 173.714 128.091C173.791 128.389 173.854 128.692 173.925 128.994C174.064 129.599 174.204 130.206 174.346 130.815C174.47 131.432 174.595 132.052 174.722 132.676L174.911 133.614L175.075 134.562C175.54 137.083 175.872 139.682 176.141 142.281L176.317 144.233C176.368 144.885 176.403 145.536 176.446 146.194C176.464 146.519 176.49 146.844 176.505 147.174L176.539 148.147C176.552 148.472 176.563 148.796 176.574 149.119C176.585 149.441 176.6 149.765 176.599 150.087C176.599 150.731 176.603 151.373 176.613 152.011C176.613 152.332 176.613 152.65 176.603 152.968C176.593 153.285 176.59 153.602 176.583 153.918C176.576 154.235 176.569 154.55 176.564 154.864C176.558 155.177 176.534 155.49 176.52 155.802C176.488 156.425 176.456 157.044 176.425 157.659C176.377 158.272 176.33 158.879 176.285 159.479C176.259 159.781 176.242 160.082 176.207 160.378C176.172 160.675 176.141 160.972 176.107 161.266C176.074 161.56 176.041 161.854 176.009 162.146C175.977 162.437 175.949 162.727 175.903 163.013C175.822 163.587 175.739 164.154 175.659 164.714C175.579 165.274 175.477 165.822 175.379 166.364C175.331 166.634 175.284 166.903 175.239 167.169C175.19 167.435 175.148 167.7 175.088 167.96C174.978 168.481 174.869 168.995 174.762 169.501C174.705 169.753 174.661 170.003 174.598 170.248L174.416 170.975C174.296 171.455 174.179 171.926 174.064 172.387C173.938 172.843 173.805 173.287 173.68 173.721C173.556 174.156 173.441 174.581 173.306 174.982C173.172 175.382 173.04 175.784 172.913 176.167C172.85 176.358 172.787 176.547 172.725 176.727C172.695 176.819 172.665 176.912 172.634 177.007C172.604 177.102 172.567 177.186 172.535 177.274L172.15 178.297L171.794 179.238C171.669 179.533 171.549 179.816 171.436 180.078C171.205 180.611 171.015 181.094 170.821 181.503L170.324 182.541C170.053 183.101 169.904 183.407 169.904 183.407C169.748 183.721 169.475 183.962 169.143 184.077C168.811 184.192 168.447 184.171 168.131 184.019C167.814 183.868 167.57 183.597 167.451 183.267C167.332 182.936 167.349 182.573 167.496 182.254L167.513 182.222L167.542 182.163L167.963 181.358L168.464 180.389C168.659 180.005 168.856 179.548 169.093 179.051C169.208 178.799 169.331 178.535 169.461 178.257C169.579 177.977 169.702 177.678 169.829 177.368C169.957 177.059 170.091 176.736 170.228 176.403C170.263 176.319 170.297 176.235 170.332 176.15L170.429 175.888C170.493 175.711 170.559 175.534 170.626 175.351C170.759 174.987 170.898 174.612 171.039 174.231C171.181 173.85 171.301 173.437 171.438 173.024C171.576 172.611 171.718 172.184 171.85 171.748C171.982 171.313 172.102 170.858 172.234 170.397C172.298 170.167 172.365 169.935 172.431 169.697C172.497 169.459 172.552 169.221 172.613 168.98L172.977 167.501C173.043 167.25 173.094 166.994 173.148 166.736C173.203 166.479 173.257 166.221 173.312 165.959C173.419 165.435 173.543 164.907 173.631 164.364C173.72 163.821 173.825 163.272 173.923 162.716C173.976 162.436 174.011 162.156 174.053 161.875C174.095 161.595 174.134 161.315 174.176 161.021C174.218 160.727 174.259 160.447 174.301 160.157C174.343 159.867 174.369 159.575 174.404 159.282C174.472 158.694 174.539 158.101 174.606 157.503C174.656 156.903 174.706 156.296 174.757 155.683C174.78 155.378 174.812 155.072 174.829 154.764C174.846 154.456 174.861 154.148 174.878 153.839C174.895 153.529 174.91 153.218 174.927 152.906C174.944 152.594 174.962 152.283 174.966 151.969C174.981 151.34 174.997 150.709 175.014 150.077C175.025 149.761 175.014 149.443 175.014 149.125C175.014 148.807 175.014 148.488 175.014 148.17V147.211C175.014 146.89 174.995 146.571 174.987 146.25C174.965 145.609 174.951 144.966 174.923 144.322C174.895 143.677 174.848 143.036 174.811 142.392C174.627 139.821 174.382 137.25 174.002 134.736C173.958 134.421 173.914 134.107 173.871 133.793C173.828 133.48 173.776 133.168 173.714 132.859C173.609 132.238 173.505 131.62 173.4 131.005C173.28 130.394 173.161 129.787 173.043 129.185C172.982 128.884 172.928 128.581 172.863 128.283C172.797 127.985 172.73 127.688 172.662 127.392C172.522 126.801 172.402 126.213 172.265 125.635C172.127 125.056 171.975 124.485 171.83 123.919L171.616 123.079C171.538 122.799 171.46 122.523 171.382 122.251C171.227 121.702 171.074 121.16 170.923 120.624C170.763 120.092 170.594 119.57 170.434 119.054L170.193 118.287C170.116 118.032 170.035 117.78 169.947 117.533C169.776 117.04 169.609 116.554 169.444 116.076C169.361 115.837 169.279 115.6 169.199 115.366C169.117 115.132 169.025 114.904 168.941 114.677C168.269 112.856 167.592 111.205 166.963 109.756L166.057 107.736C165.759 107.12 165.485 106.557 165.235 106.046L164.883 105.322L164.554 104.692C164.348 104.303 164.173 103.971 164.032 103.7L163.585 102.877Z" fill="#6F8137"/>
<path d="M158.727 117.731C154.691 124.405 119.34 163.326 119.34 163.326L102.02 150.615L134.313 98.3314C135.352 96.5901 136.723 95.0705 138.35 93.8594C139.976 92.6483 141.825 91.7694 143.791 91.2729C145.757 90.7763 147.802 90.6719 149.808 90.9654C151.814 91.259 153.743 91.9449 155.484 92.984C157.226 94.023 158.745 95.3949 159.956 97.0212C161.167 98.6475 162.046 100.496 162.543 102.462C163.04 104.428 163.144 106.473 162.85 108.479C162.557 110.486 161.871 112.415 160.832 114.156C160.408 114.877 158.727 117.731 158.727 117.731Z" fill="#FA6142"/>
<path d="M319.981 129.075C319.586 118.532 308.86 118.634 307.842 115.654C307.318 114.113 311.242 111.89 316.14 114.996C313.963 109.628 309.608 107.109 302.959 105.287C299.563 104.357 294.894 103.384 292.85 102.795C291.532 102.417 291.582 100.247 293.319 99.8895C271.113 95.5721 246.158 110.717 246.158 110.717C251.692 118.207 263.523 122.481 271.571 124.581C265.359 117.931 265.175 110.857 270.641 111.558C277.541 112.429 273.423 124.006 274.646 126.416C276.524 130.12 282.365 132.709 286.227 134.16C286.936 131.471 284.183 124.615 282.882 120.062C281.525 115.313 286.895 112.455 288.492 120.107C289.416 124.535 287.432 129.49 289.501 132.4C291.358 135.016 296.43 136.926 300.025 137.273C298.821 134.892 297.447 129.303 301.357 128.843C303.27 128.617 306.545 131.334 304.309 138.861C305.894 142.188 312.34 143.902 316.054 145.838C316.054 145.836 320.321 138.157 319.981 129.075ZM274.803 102.598C274.857 100.607 287.845 99.9246 288.556 102.049C289.267 104.173 274.74 104.885 274.803 102.598ZM295.603 125.605C292.326 124.485 291.711 115.291 294.854 115.057C299.651 114.702 298.88 126.729 295.603 125.605ZM304.005 125.399C301.638 125.917 300.039 119.393 302.465 119.033C304.582 118.719 306.366 124.881 303.998 125.399H304.005Z" fill="#6F8137"/>
<path d="M319.698 127.168C319.303 116.624 308.577 116.728 307.559 113.748C307.035 112.215 311.242 111.89 316.139 114.996C313.963 109.628 309.325 105.203 302.676 103.382C299.281 102.452 293.854 103.036 291.812 102.448C290.494 102.07 291.582 100.248 293.319 99.8911C271.113 95.5737 251.639 108.628 251.639 108.628C257.173 116.119 264.662 120.635 271.57 124.584C265.358 117.934 264.893 108.961 270.358 109.652C277.257 110.523 273.14 122.1 274.363 124.51C276.241 128.214 282.082 130.803 285.944 132.254C286.653 129.565 283.597 122.732 282.296 118.184C280.939 113.436 287.898 110.887 289.493 118.537C290.417 122.965 288.462 129.061 290.014 131.127C291.941 133.692 297.016 136.189 300.025 137.273C298.821 134.893 296.339 126.63 301.074 126.935C304.106 127.136 306.545 131.334 304.309 138.861C306.509 141.292 312.057 141.993 315.771 143.932C315.771 143.931 320.038 136.251 319.698 127.168ZM273.345 102.034C273.399 100.041 287.909 99.3379 288.624 101.462C289.34 103.587 273.286 104.321 273.348 102.034H273.345ZM295.6 125.605C292.323 124.485 291.324 113.761 294.516 113.805C299.907 113.885 298.88 126.73 295.603 125.605H295.6ZM304.002 125.399C301.635 125.917 299.849 118.495 302.275 118.135C304.394 117.82 306.366 124.881 303.998 125.399H304.002Z" fill="#ABBD43"/>
<path d="M246.488 110.31C256.4 119.293 264.619 121.182 271.571 124.583C265.359 117.933 264.894 108.96 270.358 109.651C277.258 110.522 273.141 122.099 274.363 124.509C276.241 128.213 282.082 130.802 285.944 132.253C286.653 129.564 283.597 122.731 282.296 118.183C280.939 113.435 287.898 110.886 289.493 118.536C290.417 122.964 288.462 129.06 290.014 131.126C291.941 133.691 297.016 136.188 300.025 137.272C298.821 134.892 296.339 126.629 301.074 126.935C304.106 127.135 306.546 131.333 304.309 138.86C306.509 141.291 312.057 141.992 315.771 143.931C318.11 130.487 297.121 95.899 246.488 110.31ZM302.267 118.136C304.39 117.821 306.362 124.882 303.994 125.4C301.626 125.918 299.845 118.496 302.267 118.136ZM294.515 113.806C299.903 113.881 298.876 126.73 295.599 125.606C292.322 124.481 291.327 113.761 294.519 113.806H294.515Z" fill="#ABBD43"/>
<path d="M310.591 110.31L310.346 110.139C310.185 110.027 309.946 109.87 309.638 109.679C308.782 109.153 307.893 108.682 306.977 108.27C306.41 108.014 305.784 107.76 305.116 107.512C304.448 107.264 303.731 107.039 302.982 106.833C302.232 106.627 301.451 106.439 300.65 106.294C300.251 106.213 299.845 106.154 299.437 106.088C299.03 106.022 298.619 105.98 298.209 105.933C297.386 105.853 296.562 105.793 295.749 105.773L295.142 105.759H294.541C294.343 105.759 294.145 105.759 293.948 105.767L293.364 105.793C293.17 105.802 292.979 105.808 292.79 105.819L292.229 105.864L291.679 105.907L291.144 105.968C290.444 106.038 289.777 106.147 289.167 106.236L288.294 106.397L287.89 106.473C287.758 106.5 287.632 106.529 287.51 106.556L286.822 106.708L286.519 106.776L286.238 106.847L285.142 107.127H285.127C285.014 107.156 284.894 107.139 284.794 107.08C284.694 107.021 284.621 106.925 284.592 106.812C284.562 106.699 284.579 106.58 284.638 106.479C284.697 106.379 284.794 106.306 284.907 106.277H284.921L286.049 106.025L286.33 105.961L286.643 105.902L287.343 105.77C287.469 105.748 287.6 105.721 287.734 105.699L288.154 105.636L289.049 105.496C289.676 105.426 290.353 105.336 291.074 105.287L291.622 105.245L292.182 105.22L292.756 105.193C292.949 105.193 293.144 105.193 293.341 105.185L293.936 105.178C294.135 105.178 294.337 105.186 294.54 105.19L295.151 105.206L295.767 105.241C296.592 105.284 297.426 105.381 298.257 105.486C298.677 105.547 299.086 105.61 299.496 105.685C299.906 105.759 300.315 105.836 300.717 105.933C301.522 106.106 302.304 106.326 303.054 106.554C303.805 106.783 304.515 107.047 305.183 107.311C305.851 107.574 306.469 107.864 307.036 108.144C307.941 108.587 308.817 109.088 309.659 109.644C309.961 109.847 310.195 110.012 310.352 110.128L310.591 110.31Z" fill="#6F8137"/>
<path d="M304.833 116.585L304.877 116.624L304.932 116.671L304.968 116.702L305.006 116.727C305.177 116.842 305.353 116.948 305.536 117.042C306.027 117.31 306.762 117.663 307.629 118.112C308.062 118.341 308.531 118.587 309.017 118.867C309.262 119.007 309.507 119.156 309.761 119.304C310.014 119.453 310.269 119.615 310.524 119.786C311.039 120.116 311.552 120.486 312.064 120.874C312.313 121.077 312.574 121.27 312.818 121.486L313.19 121.804L313.55 122.136C313.794 122.353 314.016 122.592 314.25 122.821C314.365 122.935 314.47 123.059 314.581 123.178C314.691 123.297 314.802 123.413 314.903 123.539C315.104 123.788 315.323 124.025 315.501 124.283C315.595 124.409 315.688 124.535 315.781 124.658C315.873 124.781 315.953 124.916 316.04 125.042C316.127 125.168 316.211 125.294 316.291 125.421L316.516 125.805C316.672 126.055 316.796 126.313 316.928 126.562C317.059 126.812 317.167 127.06 317.274 127.3C317.325 127.422 317.38 127.54 317.428 127.657L317.557 128.008C317.736 128.463 317.848 128.897 317.963 129.275C318.055 129.66 318.134 129.998 318.19 130.275L318.33 131.157L318.169 130.279C318.106 129.999 318.029 129.668 317.922 129.286C317.797 128.911 317.678 128.481 317.489 128.026L317.349 127.678C317.299 127.564 317.243 127.447 317.188 127.328C317.079 127.09 316.968 126.844 316.83 126.602C316.691 126.359 316.566 126.104 316.41 125.859L316.177 125.484C316.096 125.359 316.006 125.238 315.921 125.113C315.835 124.988 315.749 124.861 315.656 124.739L315.376 124.372C315.19 124.123 314.973 123.892 314.768 123.65C314.666 123.528 314.55 123.417 314.442 123.299C314.334 123.182 314.224 123.064 314.107 122.952C313.874 122.732 313.649 122.5 313.407 122.291L313.044 121.97L312.671 121.664C312.426 121.457 312.164 121.272 311.913 121.076C311.396 120.705 310.884 120.347 310.373 120.032C310.119 119.868 309.859 119.723 309.609 119.572C309.36 119.42 309.109 119.292 308.864 119.151C308.377 118.884 307.906 118.649 307.472 118.432C306.601 118.003 305.865 117.668 305.351 117.404C305.141 117.301 304.938 117.184 304.744 117.054C304.713 117.035 304.684 117.013 304.656 116.989L304.6 116.942L304.554 116.904C304.514 116.865 304.49 116.813 304.487 116.758C304.484 116.702 304.502 116.648 304.537 116.605C304.572 116.562 304.623 116.534 304.678 116.527C304.733 116.52 304.789 116.534 304.834 116.566L304.833 116.585Z" fill="#6F8137"/>
<path d="M251.891 107.701L252.752 107.504C253.312 107.375 254.145 107.186 255.206 106.964C257.326 106.525 260.373 105.952 264.069 105.546C265.914 105.34 267.924 105.185 270.051 105.105C271.115 105.071 272.209 105.046 273.328 105.061C273.888 105.061 274.448 105.084 275.023 105.095C275.597 105.106 276.169 105.137 276.749 105.179C279.135 105.319 281.511 105.605 283.862 106.036C286.289 106.487 288.677 107.127 291.004 107.95C291.592 108.149 292.165 108.387 292.743 108.61C293.023 108.728 293.313 108.852 293.599 108.974L294.019 109.157L294.439 109.353L295.279 109.748L296.1 110.169L296.51 110.38L296.911 110.605L297.71 111.056C299.771 112.272 301.707 113.688 303.488 115.286C305.141 116.783 306.65 118.43 307.996 120.208C309.197 121.798 310.274 123.478 311.217 125.233C312.015 126.712 312.726 128.237 313.347 129.799C313.613 130.499 313.882 131.149 314.082 131.767C314.283 132.384 314.502 132.94 314.642 133.457C314.782 133.974 314.938 134.437 315.063 134.832C315.187 135.227 315.261 135.579 315.334 135.857L315.562 136.71L315.317 135.87C315.238 135.59 315.138 135.251 315.023 134.85C314.909 134.45 314.743 133.998 314.578 133.486C314.413 132.975 314.204 132.418 313.983 131.806C313.762 131.194 313.49 130.546 313.208 129.859C312.558 128.318 311.819 126.816 310.994 125.36C310.021 123.64 308.918 121.997 307.695 120.445C304.873 116.859 301.368 113.868 297.383 111.645L296.589 111.224L296.191 111.012L295.785 110.813L294.97 110.415L294.145 110.034L293.725 109.851L293.305 109.68C293.025 109.566 292.744 109.45 292.464 109.339C291.892 109.134 291.326 108.919 290.745 108.729C288.445 107.969 286.089 107.391 283.699 106.999C281.382 106.623 279.044 106.389 276.697 106.299C276.127 106.27 275.562 106.267 275.002 106.252C274.441 106.236 273.881 106.24 273.335 106.252C272.236 106.26 271.162 106.308 270.114 106.362C268.023 106.485 266.053 106.679 264.239 106.922C260.612 107.399 257.625 108.025 255.547 108.502C254.507 108.742 253.693 108.945 253.136 109.083L252.28 109.299C252.175 109.325 252.066 109.331 251.959 109.315C251.852 109.299 251.749 109.262 251.656 109.207C251.564 109.151 251.483 109.078 251.418 108.991C251.353 108.904 251.307 108.806 251.28 108.701C251.254 108.596 251.248 108.487 251.264 108.38C251.28 108.273 251.317 108.17 251.372 108.077C251.428 107.984 251.501 107.903 251.588 107.839C251.675 107.774 251.773 107.727 251.878 107.701H251.891Z" fill="#6F8137"/>
<path d="M253.824 95.9183C258.058 91.6843 258.058 84.8196 253.824 80.5856C249.59 76.3516 242.726 76.3516 238.492 80.5856C234.258 84.8196 234.258 91.6843 238.492 95.9183C242.726 100.152 249.59 100.152 253.824 95.9183Z" fill="#FCD738"/>
<path d="M160.917 41.7852C158.713 48.7045 145.894 63.2224 148.526 73.4943C149.895 78.8325 159.225 78.7779 171.823 67.1757L160.917 41.7852Z" fill="#3984FF"/>
<path d="M161.108 47.0059C158.903 53.9266 146.07 64.0374 148.703 74.3135C150.072 79.6532 159.227 82.6459 171.825 71.0422L161.108 47.0059Z" fill="#0B61DD"/>
<path d="M185.028 78.043C185.028 78.043 190.383 79.4434 191.837 80.876C190.585 81.866 190.964 85.9972 191.277 87.4704C191.589 88.9436 196.074 114.918 195 130.341L184.545 90.5499L185.028 78.043Z" fill="#FA6142"/>
<path d="M187.805 87.0609C186.78 82.8023 188.262 80.0001 188.728 79.2187C187.552 78.7705 186.36 78.4106 185.658 78.209L185.122 82.7659C185.122 82.7659 188.836 91.3209 187.805 87.0609Z" fill="#2E353D"/>
<path d="M160.912 80.5044C161.798 78.2778 166.653 77.2835 168.103 77.4642L167.492 87.7108L160.91 83.4088L160.912 80.5044Z" fill="#2E353D"/>
<path d="M165.212 59.1295L165.104 59.6714C165.093 59.7471 165.055 59.8787 165.02 60.0061C164.985 60.1336 164.943 60.2722 164.901 60.4262C164.859 60.5731 164.807 60.7172 164.746 60.8576L164.561 61.3085C164.488 61.4611 164.408 61.6152 164.327 61.7762L164.203 62.0185C164.161 62.1011 164.107 62.1781 164.063 62.2594L163.761 62.7523C163.649 62.9133 163.532 63.0744 163.414 63.2382C163.355 63.3195 163.298 63.4035 163.235 63.4847C163.172 63.5659 163.105 63.6429 163.039 63.7228C162.899 63.8796 162.778 64.0449 162.634 64.1975L162.2 64.654C162.129 64.732 162.053 64.8059 161.973 64.8753L161.741 65.0895C161.438 65.3822 161.098 65.6315 160.78 65.8892C160.612 66.0096 160.443 66.123 160.277 66.2379L160.032 66.4059L159.777 66.5558L159.287 66.8316C159.122 66.9185 158.955 66.9941 158.797 67.0725C158.5 67.2192 158.196 67.3487 157.884 67.4604C157.624 67.5602 157.359 67.6453 157.09 67.7153C156.971 67.7489 156.862 67.7839 156.758 67.8091L156.47 67.8651L155.926 67.9688L156.439 67.7629L156.705 67.6565C156.802 67.6131 156.901 67.557 157.009 67.5038C157.252 67.3865 157.488 67.2561 157.717 67.1131C157.99 66.9519 158.253 66.7747 158.504 66.5824C158.644 66.4801 158.784 66.3807 158.915 66.2715L159.318 65.9172L159.524 65.7351L159.719 65.5363C159.849 65.3962 159.983 65.2702 160.112 65.133C160.356 64.8403 160.616 64.5616 160.835 64.2451L161.004 64.0155C161.063 63.9413 161.118 63.8631 161.167 63.7816L161.469 63.3083C161.568 63.1514 161.648 62.9848 161.738 62.8279C161.781 62.7495 161.825 62.6711 161.867 62.5926C161.909 62.5142 161.941 62.4316 161.979 62.3532C162.05 62.1949 162.119 62.0395 162.19 61.8883L162.358 61.4345C162.383 61.3603 162.416 61.2945 162.435 61.2175C162.455 61.1404 162.476 61.0774 162.496 61.0032C162.535 60.8632 162.575 60.7231 162.609 60.6027C162.643 60.4823 162.657 60.3506 162.679 60.233C162.704 60.129 162.72 60.0232 162.728 59.9165C162.736 59.8231 162.743 59.7391 162.749 59.6644C162.76 59.5865 162.766 59.5079 162.766 59.4292C162.766 59.0777 162.766 58.8774 162.766 58.8774C162.778 58.5564 162.915 58.2529 163.147 58.0308C163.379 57.8088 163.689 57.6857 164.01 57.6875C164.331 57.6893 164.639 57.8159 164.869 58.0406C165.098 58.2652 165.231 58.5703 165.24 58.8914C165.238 58.9715 165.229 59.0512 165.212 59.1295Z" fill="#232A2B"/>
<path d="M163.938 58.4551C163.938 58.4551 164.607 65.0369 159.999 70.3584C163.662 72.3722 169.166 72.9884 171.99 69.3151L163.938 58.4551Z" fill="#232A2B"/>
<path d="M166.421 53.7904C166.421 53.7904 163.768 47.8681 160.564 48.3989C152.872 49.676 158.705 61.1229 163.12 62.0023C164.534 62.2824 165.523 61.1915 165.523 61.1915L166.421 53.7904Z" fill="#E27960"/>
<path d="M164.084 54.7658C162.924 53.0209 161.423 53.3066 161.143 54.5179C160.789 56.0709 163.199 59.5075 165.112 58.1743L164.084 54.7658Z" fill="#CE5F49"/>
<path d="M163.609 54.315C163.609 54.315 155.112 37.8156 158.027 32.2154C159.874 28.6682 162.493 30.8024 162.493 30.8024C162.493 30.8024 163.384 18.9873 176.51 19.4074C201.624 20.2113 195.094 52.762 195.094 52.762L163.609 54.315Z" fill="#5B181B"/>
<path d="M165.659 62.1426C167.375 68.8771 165.085 85.1398 167.156 91.5508C185.049 102.288 190.418 91.5508 190.418 91.5508C190.418 91.5508 186.431 85.3821 186.035 76.1353C185.654 67.2708 165.659 62.1426 165.659 62.1426Z" fill="#FFAD94"/>
<path d="M187.236 83.8392C186.55 81.3216 186.147 78.7355 186.033 76.1286C185.652 67.2711 165.779 62.4258 165.779 62.4258C167.909 70.0215 175.112 83.0088 187.236 83.8392Z" fill="#CE5F49"/>
<path d="M164.645 59.2474C164.959 60.8131 167.204 66.1654 169.229 68.3052C171.059 70.2405 176.336 77.052 185.238 76.258C192.269 75.6292 194.317 63.2582 194.727 58.473C195.055 54.6584 196.005 42.3209 193.399 36.984C190.793 31.6471 168.003 29.1992 168.003 29.1992C158.027 36.9868 164.645 59.2474 164.645 59.2474Z" fill="#FFAD94"/>
<path d="M171.506 39.6101C178.27 39.9377 183.129 48.8526 195.157 47.864C195.157 47.864 195.235 40.8802 193.399 36.9871C191.521 33.0058 178.445 30.6615 171.833 29.7051L169.507 30.1252L171.506 39.6101Z" fill="#CE5F49"/>
<path d="M174.374 39.1194C171.67 43.9409 169.233 47.9418 165.04 51.489L161.308 47.1408L169.418 37.7344L174.374 39.1194Z" fill="#2E353D"/>
<path d="M167.031 60.1855L165.137 60.8297C165.316 61.3129 165.534 61.8562 165.781 62.4262C166.446 62.0313 166.999 60.6239 167.031 60.1855Z" fill="#CE5F49"/>
<path d="M172.664 38.4918C187.417 28.007 192.583 52.133 201.123 36.6502C197.166 38.3139 190.994 28.3879 183.857 28.1345C176.721 27.881 172.063 34.1015 172.664 38.4918Z" fill="#2E353D"/>
<path d="M179.367 33.5744L180.293 35.7562C188.944 35.8388 194.406 49.3232 201.125 36.6497C194.372 44.1334 186.821 29.46 179.367 33.5744Z" fill="#232A2B"/>
<path d="M194.549 33.8648C194.081 31.2811 188.397 28.3879 180.862 32.844L179.258 29.4746C179.258 29.4746 189.481 26.3181 193.619 30.5613C194.383 31.3245 194.549 33.8648 194.549 33.8648Z" fill="#232A2B"/>
<path d="M191.101 22.7109C192.671 22.5414 194.053 23.25 194.166 24.0146C194.396 25.5551 192.618 27.7957 190.019 28.1094C187.419 28.4231 191.101 22.7109 191.101 22.7109Z" fill="#2E353D"/>
<path d="M191.461 22.6875C191.688 23.018 192.183 25.2082 191.229 27.0609H189.774L191.461 22.6875Z" fill="#232A2B"/>
<path d="M185.461 21.531C186.531 20.384 189.091 18.936 190.681 20.3196C191.992 21.4595 191.568 26.3273 190.023 27.998C188.479 29.6687 184.331 25.2392 184.331 25.2392L185.461 21.531Z" fill="#2E353D"/>
<path d="M160.873 24.7361C160.941 23.0332 163.113 20.2086 166.733 22.3274L160.873 24.7361Z" fill="#2E353D"/>
<path d="M185.503 21.4182C185.503 21.4182 182.717 15.5996 179.211 15.8601C174.973 16.1737 173.515 18.9409 168.568 21.1073C163.067 23.5244 156.804 25.7174 155.778 29.913C153.778 38.0213 159.616 43.2335 160.496 48.6951L163.103 50.3279C163.103 50.3279 170.686 37.3449 180.856 32.844C177.845 25.2217 181.046 19.7363 185.503 21.4182Z" fill="#3984FF"/>
<path d="M161.717 49.3842C161.65 49.3844 161.584 49.3686 161.524 49.3379C161.475 49.3126 161.431 49.2779 161.395 49.2357C161.36 49.1934 161.332 49.1446 161.316 49.0919C161.299 49.0392 161.293 48.9837 161.297 48.9286C161.302 48.8735 161.318 48.8199 161.343 48.7708C163.701 44.2486 166.822 40.1672 170.568 36.7064C173.968 33.5779 176.729 32.0459 178.065 31.6846C178.119 31.6691 178.175 31.6643 178.23 31.6707C178.286 31.6771 178.339 31.6945 178.388 31.7218C178.437 31.7491 178.479 31.7859 178.514 31.8299C178.548 31.8739 178.573 31.9243 178.588 31.9781C178.602 32.032 178.606 32.0882 178.599 32.1435C178.591 32.1988 178.573 32.2521 178.545 32.3002C178.517 32.3484 178.479 32.3904 178.435 32.424C178.39 32.4575 178.339 32.4818 178.285 32.4954C175.697 33.1956 167.362 38.9876 162.09 49.1601C162.054 49.2279 162 49.2846 161.935 49.324C161.869 49.3635 161.794 49.3843 161.717 49.3842Z" fill="#0B61DD"/>
<path d="M161.06 50.2669C158.916 49.0247 157.699 50.2165 157.013 51.1982C157.423 49.7978 158.482 48.389 160.668 48.2279C163.907 47.9885 166.421 53.7889 166.421 53.7889L164.426 58.455C163.515 55.0352 162.942 51.9194 161.06 50.2669Z" fill="#FFAD94"/>
<path d="M163.12 62.0017C161.315 61.6698 159.286 59.5286 158.027 57.0625C160.678 62.0633 164.469 60.1434 164.427 58.4629L167.031 60.1924C167.031 60.1924 165.434 62.426 163.12 62.0017Z" fill="#FFAD94"/>
<path d="M169.212 45.9724C169.212 45.9724 169.175 46.0537 169.105 46.2035L168.975 46.4836L168.734 46.9653C168.643 47.1544 168.541 47.3168 168.43 47.5073C168.32 47.6977 168.194 47.8938 168.056 48.101C167.753 48.5571 167.426 48.9969 167.076 49.4188C166.671 49.9018 166.241 50.3636 165.788 50.8024C165.553 51.0377 165.296 51.2603 165.041 51.4928L164.644 51.8303L164.441 51.9997L164.231 52.1636C163.661 52.6132 163.069 53.0338 162.458 53.4239C161.839 53.8244 161.186 54.1871 160.529 54.5274C159.873 54.8677 159.192 55.1632 158.52 55.4307C157.848 55.6982 157.174 55.9236 156.512 56.1029C156.185 56.2037 155.855 56.2737 155.531 56.355C155.208 56.4362 154.897 56.495 154.59 56.5482C153.977 56.6546 153.396 56.7345 152.857 56.7765C152.588 56.8003 152.331 56.8213 152.085 56.8269C151.838 56.8325 151.609 56.8493 151.385 56.8423C151.161 56.8353 150.965 56.8423 150.777 56.8423L150.262 56.8157C150.106 56.8157 149.969 56.7961 149.842 56.7835L149.538 56.7513L149.284 56.7261L149.538 56.7036L149.84 56.6756C149.961 56.6658 150.096 56.6532 150.249 56.6294L150.752 56.5594C150.934 56.53 151.13 56.4894 151.34 56.4516C151.55 56.4138 151.768 56.3606 152.001 56.3115C152.233 56.2625 152.473 56.1925 152.724 56.1225C153.223 55.9825 153.756 55.8004 154.309 55.5903C154.589 55.4839 154.869 55.3635 155.149 55.2416C155.429 55.1198 155.719 54.9868 156.002 54.8355C156.577 54.5554 157.146 54.2165 157.712 53.8665C158.278 53.5164 158.832 53.1186 159.357 52.7055C159.882 52.2924 160.395 51.8653 160.867 51.4032C164.816 47.6907 166.008 46.1979 168.267 43.1562C168.69 43.3873 169.024 43.752 169.218 44.1935C169.411 44.6349 169.453 45.128 169.336 45.5957C169.306 45.7247 169.264 45.8507 169.212 45.9724Z" fill="#2E353D"/>
<path d="M177.327 26.3747C173.749 26.0611 174.577 30.097 175.537 31.2481C176.903 32.8838 179.163 33.0882 180.859 32.8432C180.442 31.8022 180.127 30.7236 179.916 29.6223L177.327 26.3747Z" fill="#2E353D"/>
<path d="M185.963 21.0645C186.579 21.3851 187.988 22.2604 187.449 26.6254L184.813 26.9055L185.963 21.0645Z" fill="#232A2B"/>
<path d="M179.681 27.3132C178.723 23.5461 180.576 21.0114 182.389 20.4345C184.798 19.6712 188.068 20.6501 186.336 26.7194L182.805 27.5793L179.681 27.3132Z" fill="#2E353D"/>
<path d="M178.83 27.8803C178.737 27.8801 178.647 27.8491 178.573 27.7921C178.5 27.7351 178.447 27.6553 178.424 27.5652C177.444 23.7519 178.869 21.5897 179.807 20.6402C181.076 19.3589 182.93 18.7833 184.532 19.1768C184.636 19.2076 184.723 19.277 184.777 19.3706C184.831 19.4643 184.846 19.575 184.821 19.6798C184.795 19.7846 184.73 19.8755 184.639 19.9336C184.548 19.9917 184.438 20.0126 184.332 19.9919C183.01 19.6684 181.47 20.1543 180.411 21.2312C179.597 22.0546 178.365 23.9438 179.243 27.3551C179.271 27.463 179.254 27.5775 179.198 27.6733C179.141 27.7692 179.048 27.8386 178.941 27.8663C178.905 27.8763 178.867 27.881 178.83 27.8803Z" fill="#0B61DD"/>
<path d="M192.376 27.858C189.256 24.4971 179.901 29.2318 177.327 26.375C175.57 26.375 175.227 30.5762 178.771 31.429C182.315 32.2819 185.708 29.8802 189.476 30.8689C194.404 32.1572 194.549 33.8699 194.549 33.8699C194.549 33.8699 194.268 29.8998 192.376 27.858Z" fill="#3984FF"/>
<path d="M191.123 39.1046C185.502 45.7858 179.664 33.0647 174.688 37.9156C179.14 26.0949 187.169 40.1871 191.123 39.1046Z" fill="#2E353D"/>
<path d="M175.403 36.0541C175.403 36.0541 175.804 36.3888 176.426 36.8874C178.938 36.2432 183.937 40.8085 186.905 41.0563C184.28 40.485 182.907 34.0026 175.403 36.0541Z" fill="#232A2B"/>
<path d="M182.534 40.5258C180.863 38.7599 179.852 36.6538 177.782 36.1398C174.911 35.4284 171.73 37.0697 170.606 40.5258C174.661 38.3748 177.314 42.7749 182.534 40.5258Z" fill="#2E353D"/>
<path d="M179.033 29.2269C178.82 28.7969 178.854 28.3446 179.11 28.2172C179.366 28.0897 179.747 28.3362 179.961 28.7675C180.176 29.1988 180.141 29.6498 179.884 29.7772C179.628 29.9046 179.243 29.6582 179.033 29.2269Z" fill="#2E353D"/>
<path d="M185.35 28.5642C185.21 28.1357 185.35 27.7044 185.658 27.6008C185.966 27.4971 186.339 27.759 186.482 28.1875C186.625 28.616 186.482 29.046 186.174 29.1496C185.866 29.2532 185.492 28.9914 185.35 28.5642Z" fill="#2E353D"/>
<path d="M191.971 29.0954C191.971 28.6473 191.823 28.2832 191.64 28.2832C191.456 28.2832 191.308 28.6473 191.308 29.0954C191.308 29.5436 191.456 29.9077 191.64 29.9077C191.823 29.9077 191.971 29.5436 191.971 29.0954Z" fill="#2E353D"/>
<path d="M165.134 43.8657C165.071 43.8658 165.008 43.8516 164.951 43.8242C164.894 43.7968 164.844 43.7569 164.805 43.7075C161.252 39.2262 159.933 31.7285 160.709 27.0624C161.022 25.1775 161.668 23.8737 162.575 23.2911C162.669 23.231 162.783 23.2105 162.892 23.2343C163.001 23.258 163.096 23.3241 163.156 23.4179C163.216 23.5116 163.237 23.6255 163.213 23.7343C163.189 23.8432 163.123 23.9382 163.029 23.9983C162.329 24.4423 161.807 25.5794 161.538 27.1996C160.808 31.5885 162.098 38.9475 165.459 43.1851C165.508 43.247 165.538 43.3214 165.547 43.3998C165.555 43.4782 165.542 43.5575 165.507 43.6285C165.473 43.6995 165.42 43.7594 165.353 43.8013C165.286 43.8433 165.209 43.8656 165.13 43.8657H165.134Z" fill="#0B61DD"/>
<path d="M197.826 86.89C197.826 86.89 189.564 85.5036 189.495 87.6658L187.364 97.2991C187.346 97.159 187.326 97.019 187.305 96.8874C186.286 90.1655 182.035 85.7052 182.035 85.7052C177.327 87.9333 163.015 83.1621 163.015 83.1621C157.505 87.7372 147.369 89.6039 146.156 93.3962C145.219 96.3286 149.529 102.079 152.642 105.734C151.175 113.349 147.705 132.389 145.5 152.86C145.5 152.86 188.999 172.097 207.696 138.856C204.786 113.324 200.268 87.8492 197.826 86.89Z" fill="#FA6142"/>
<path d="M160.118 85.1406C158.87 91.4032 161.013 98.5984 165.207 103.645C165.994 98.7524 172.629 89.1514 182.035 85.705C175.252 85.7666 160.118 85.1406 160.118 85.1406Z" fill="#D83A21"/>
<path d="M160.912 80.4453C160.912 86.1421 177.044 82.305 182.035 85.7052C182.035 85.7052 168.848 90.4581 165.016 97.8564C162.143 94.9786 158.476 86.5048 160.912 80.4453Z" fill="#FA6142"/>
<path d="M190.001 139.536C190.156 138.879 189.749 138.22 189.092 138.065C188.435 137.91 187.777 138.317 187.622 138.974C187.467 139.631 187.874 140.29 188.531 140.445C189.188 140.6 189.846 140.193 190.001 139.536Z" fill="#FCD738"/>
<path d="M186.904 94.9194C186.904 94.9194 186.368 82.876 188.725 79.2266C188.725 84.387 191.262 94.0791 191.262 94.0791L186.904 94.9194Z" fill="#FA6142"/>
<path d="M187.595 125.627C188.27 125.627 188.817 125.079 188.817 124.404C188.817 123.729 188.27 123.182 187.595 123.182C186.919 123.182 186.372 123.729 186.372 124.404C186.372 125.079 186.919 125.627 187.595 125.627Z" fill="#FCD738"/>
<path d="M187.439 109.728C187.548 109.062 187.095 108.434 186.429 108.325C185.762 108.217 185.134 108.67 185.026 109.336C184.918 110.003 185.37 110.631 186.037 110.739C186.703 110.847 187.331 110.394 187.439 109.728Z" fill="#FCD738"/>
<path d="M185.014 97.0178C185.639 96.7591 185.935 96.0431 185.677 95.4186C185.418 94.7941 184.702 94.4975 184.078 94.7562C183.453 95.0149 183.156 95.7309 183.415 96.3554C183.674 96.9799 184.39 97.2765 185.014 97.0178Z" fill="#FCD738"/>
<path d="M191.278 87.4714C191.36 87.8551 191.725 89.8983 192.199 92.9819C192.299 92.9302 192.378 92.8463 192.423 92.7439C193.052 91.59 193.175 88.9628 193.378 87.2333C192.556 85.3512 192.045 81.9356 191.838 80.877C190.585 81.867 190.964 85.9982 191.278 87.4714Z" fill="#D83A21"/>
<path d="M197.826 86.8906C202.085 87.0727 208.244 88.256 212.596 90.7431C215.318 92.2975 230.703 105.657 230.703 105.657L202.222 119.003L197.826 86.8906Z" fill="#FA6142"/>
<path d="M158.727 117.73C157.513 119.737 153.467 124.661 148.402 130.565C147.72 135.097 147.04 139.963 146.414 145.004C151.284 137.862 157.786 121.758 159.07 117.146L158.727 117.73Z" fill="#D83A21"/>
<path d="M204.897 117.584C203.636 137.432 187.091 153.193 166.931 153.193C159.554 153.201 152.336 151.052 146.166 147.01C145.933 148.941 145.71 150.891 145.498 152.861C145.498 152.861 188.997 172.098 207.693 138.857C206.864 131.574 205.903 124.293 204.897 117.584Z" fill="#84B8FF"/>
<path d="M192.733 68.1936C193.448 66.0812 193.98 63.911 194.322 61.707L178.096 57.5059L192.733 68.1936Z" fill="#CE5F49"/>
<path d="M178.163 121.49C178.163 121.49 174.316 123.762 169.784 123.504C168.935 123.456 163.279 127.435 161.91 128.355C159.389 130.044 158.484 137.116 158.484 137.116L158.777 140.368L170.598 130.334L171.607 127.215C171.607 127.215 175.463 126.795 177.117 125.862C178.77 124.93 179.964 122.36 178.163 121.49Z" fill="#CE5F49"/>
<path d="M214.074 82.0759C214.074 76.2293 235.03 71.9847 236.723 75.7293C239.876 82.7061 225.917 85.4061 225.917 85.4061L215.339 85.4271L214.074 82.0759Z" fill="#2E353D"/>
<path d="M222.566 84.929C222.566 84.929 221.471 78.3121 220.446 76.3194C219.421 74.3266 211.8 65.2423 211.999 60.184L227.353 58.666C227.353 58.666 231.32 77.028 233.851 80.8748C236.381 84.7217 222.566 84.929 222.566 84.929Z" fill="#FFAD94"/>
<path d="M233.015 79.2266C230.75 80.872 224.549 82.0778 221.943 81.6156C222.317 83.4137 222.568 84.9304 222.568 84.9304C222.568 84.9304 236.383 84.7245 233.852 80.8692C233.527 80.3464 233.247 79.7969 233.015 79.2266Z" fill="#CE5F49"/>
<path d="M214.074 82.077L223.694 114.304L246.878 104.193L236.728 75.7305C236.381 78.3254 218.007 88.2318 214.074 82.077Z" fill="#FA6142"/>
<path d="M180.12 141.585C177.582 141.573 175.049 141.344 172.55 140.9C172.444 140.878 172.351 140.815 172.291 140.725C172.23 140.636 172.206 140.526 172.224 140.42C172.242 140.313 172.301 140.217 172.387 140.153C172.474 140.088 172.583 140.06 172.69 140.073C182.232 141.722 189.839 140.402 195.949 136.037C208.784 126.867 212.119 106.035 215.063 87.6561C217.375 73.218 219.372 60.7475 225.555 56.7074C225.647 56.657 225.756 56.6432 225.858 56.6689C225.96 56.6945 226.049 56.7577 226.107 56.8459C226.165 56.9341 226.187 57.0408 226.17 57.1449C226.153 57.2489 226.097 57.3427 226.014 57.4076C220.142 61.2419 218.172 73.5401 215.892 87.7821C212.923 106.323 209.558 127.339 196.438 136.713C193.376 138.886 189.875 140.362 186.181 141.038C184.182 141.409 182.153 141.592 180.12 141.585Z" fill="#2E353D"/>
<path d="M194.334 180.803L167.492 167.019V92.0527L194.334 105.837V180.803Z" fill="#CCE3FF"/>
<path d="M194.334 180.803L221.177 167.019V92.0527L194.334 105.837V180.803Z" fill="white"/>
<path d="M248.02 180.803L221.177 167.019V92.0527L248.02 105.837V180.803Z" fill="#CCE3FF"/>
<path d="M248.02 180.803L274.862 167.019V92.0527L248.02 105.837V180.803Z" fill="url(#paint0_linear_2294_45082)"/>
<path d="M167.502 139.195C155.848 138.905 142.652 133.734 132.05 129.587C131.949 129.547 131.836 129.547 131.736 129.587C131.865 129.899 131.996 130.21 132.134 130.52C142.73 134.668 155.823 139.741 167.481 140.031H167.492C167.547 140.032 167.602 140.022 167.653 140.001C167.704 139.981 167.751 139.95 167.791 139.912C167.83 139.873 167.862 139.827 167.883 139.776C167.905 139.726 167.916 139.671 167.917 139.616C167.918 139.561 167.907 139.506 167.887 139.455C167.866 139.404 167.836 139.357 167.798 139.317C167.759 139.278 167.713 139.246 167.662 139.225C167.612 139.203 167.557 139.192 167.502 139.191V139.195Z" fill="#2E353D"/>
<path d="M153.443 141.69C160.76 140.368 160.771 162.324 155.921 165.722C145.489 173.032 142.057 146.365 142.057 146.365L153.443 141.69Z" fill="#2E353D"/>
<path d="M150.923 144.911C150.923 144.911 158.287 136.195 159.745 131.684C161.203 127.173 163.806 127.885 164.967 127.605C166.128 127.324 172.109 125.62 172.627 125.486C173.145 125.351 179.449 125.346 180.009 125.486C180.569 125.626 186.031 126.939 186.031 126.939C186.031 126.939 186.684 129.274 184.164 129.274C182.445 129.253 180.73 129.121 179.029 128.878L173.661 129.554L169.226 131.514L167.498 135.576L170.439 144.398C170.439 144.398 163.131 152.96 159.959 154.311C154.005 156.846 144.065 159.288 144.065 159.288L140.914 145.915L150.923 144.911Z" fill="#FFAD94"/>
<path d="M165.662 131.076C165.662 131.076 173.539 130.971 174.659 130.936C175.779 130.901 189.153 132.512 189.153 132.512C189.153 132.512 189.456 134.507 187.985 135.067C186.455 135.651 182.291 135.137 182.291 135.137L167.097 135.627L165.662 131.076Z" fill="#FFAD94"/>
<path d="M167.097 135.621L188.243 137.582C188.243 137.582 188.501 139.46 187.683 140.102C186.703 140.873 184.37 140.639 184.37 140.639L168.288 139.986L167.097 135.621Z" fill="#FFAD94"/>
<path d="M168.614 140.104L184.462 141.69C184.462 141.69 185.138 142.694 184.625 143.558C183.972 144.658 182.314 144.491 181.147 144.351C179.981 144.211 171.454 144.539 169.692 145.25C167.93 145.961 168.614 140.104 168.614 140.104Z" fill="#FFAD94"/>
<path d="M142.605 145.745C144.07 148.567 148.035 156.129 149.327 157.876L149.686 157.773C148.832 154.345 148.566 148.12 150.915 144.91L142.605 145.745Z" fill="#CE5F49"/>
<path d="M112.414 144.259C112.414 144.259 145.497 144.259 153.446 141.689C144.035 145.577 150.177 165.722 155.923 165.722C150.546 171.238 112.417 167.614 112.417 167.614C110.873 167.63 109.341 167.341 107.909 166.762C106.477 166.182 105.175 165.325 104.077 164.239C102.979 163.153 102.107 161.86 101.513 160.435C100.918 159.01 100.611 157.481 100.611 155.936C100.611 154.392 100.918 152.863 101.513 151.438C102.107 150.013 102.979 148.72 104.077 147.634C105.175 146.548 106.477 145.69 107.909 145.111C109.341 144.532 110.873 144.242 112.417 144.259H112.414Z" fill="#FA6142"/>
<path d="M119.286 145.463C121.039 142.732 123.669 139.747 125.168 144.022C126.658 148.248 119.286 145.463 119.286 145.463Z" fill="#FA6142"/>
<path d="M106.287 163.813C107.228 162.452 106.889 160.586 105.528 159.645C104.168 158.704 102.302 159.043 101.361 160.404C100.419 161.764 100.759 163.63 102.12 164.572C103.48 165.513 105.346 165.173 106.287 163.813Z" fill="#FCD738"/>
<path d="M110.752 167.493C111.912 165.998 112.556 164.168 112.59 162.277C112.624 160.385 112.045 158.534 110.939 156.999C109.834 155.463 108.261 154.327 106.457 153.759C104.652 153.192 102.712 153.223 100.927 153.849C100.644 155.393 100.676 156.979 101.021 158.511C101.366 160.042 102.017 161.489 102.935 162.763C103.852 164.037 105.017 165.113 106.361 165.926C107.704 166.738 109.198 167.271 110.752 167.493Z" fill="#FCD738"/>
<path d="M203.029 60.6174C204.84 58.6149 207.667 59.4971 208.911 60.6174C211.892 63.3062 215.993 63.1059 218.666 64.3159L216.837 69.4021C213.955 69.0506 210.755 67.9177 210.755 67.9177L203.029 60.6174Z" fill="#FFAD94"/>
<path d="M203.094 44.9353C206.136 44.6833 206.37 42.0659 207.244 41.8881C212.375 40.8518 213.159 39.0187 214.841 39.2273C219.359 39.7805 220.912 44.8947 220.912 44.8947L215.293 46.8063C215.293 46.8063 214.335 44.4102 213.834 44.3556C212.744 44.2393 207.898 47.4364 205.282 47.0401C202.764 46.6662 203.094 44.9353 203.094 44.9353Z" fill="#E27960"/>
<path d="M206.635 45.1167C209.074 44.915 209.26 42.8172 209.96 42.6758C214.072 41.844 214.699 40.3749 216.047 40.5402C219.668 40.9841 220.911 45.0817 220.911 45.0817L216.41 46.6151C216.41 46.6151 215.641 44.6952 215.241 44.6545C214.367 44.5593 210.48 47.1178 208.387 46.8041C206.371 46.5017 206.635 45.1167 206.635 45.1167Z" fill="#FFAD94"/>
<path d="M220.689 48.5999C220.58 48.5999 220.476 48.5577 220.398 48.4823C220.379 48.4648 220.363 48.4456 220.349 48.4249C220.325 48.4419 220.3 48.4569 220.274 48.4697C220.224 48.4933 220.17 48.5069 220.115 48.5096C220.06 48.5122 220.005 48.5039 219.952 48.4852C219.9 48.4665 219.853 48.4376 219.812 48.4004C219.771 48.3631 219.738 48.3181 219.714 48.268C216.063 40.5197 217.647 35.9446 220.346 34.2431C222.232 33.0542 224.547 33.3468 225.842 34.9433C226.859 36.1896 227.078 38.0382 226.46 40.15C225.726 42.6567 223.886 45.4574 220.998 48.4753C220.958 48.5161 220.91 48.5482 220.857 48.5696C220.803 48.5911 220.746 48.6014 220.689 48.5999ZM222.79 34.3579C222.082 34.364 221.39 34.5704 220.794 34.9531C219.522 35.7541 218.703 37.2385 218.485 39.1333C218.205 41.5139 218.887 44.5164 220.437 47.8325C226.338 41.6582 226.765 37.3996 225.191 35.4698C224.9 35.1167 224.533 34.8334 224.118 34.641C223.702 34.4485 223.249 34.3518 222.791 34.3579H222.79Z" fill="#2E353D"/>
<path d="M194.549 73.5534C194.456 73.5539 194.364 73.523 194.29 73.4658C194.216 73.4085 194.163 73.328 194.14 73.2372C194.117 73.1465 194.125 73.0505 194.162 72.9647C194.2 72.8789 194.265 72.8081 194.348 72.7636C200.523 69.4027 206.111 69.3326 210.641 69.3326H211.242C217.562 69.3326 221.745 69.1926 223.854 60.5102C223.88 60.4019 223.948 60.3085 224.044 60.2506C224.139 60.1927 224.253 60.175 224.361 60.2014C224.47 60.2278 224.563 60.2961 224.621 60.3913C224.679 60.4865 224.697 60.6008 224.67 60.709C222.409 70.0272 217.478 70.1673 211.226 70.1673H210.629C205.988 70.1673 200.742 70.2373 194.754 73.496C194.692 73.5324 194.621 73.5521 194.549 73.5534Z" fill="#2E353D"/>
<path d="M200.934 48.0099L208.592 46.0508V60.6177L200.34 57.506L200.934 48.0099Z" fill="#2E353D"/>
<path d="M219.935 42.3613H214.755V63.6347H219.935V42.3613Z" fill="#0B61DD"/>
<path d="M214.755 63.6333C220.003 63.6333 224.258 58.8714 224.258 52.9973C224.258 47.1232 220.003 42.3613 214.755 42.3613C209.507 42.3613 205.252 47.1232 205.252 52.9973C205.252 58.8714 209.507 63.6333 214.755 63.6333Z" fill="#0B61DD"/>
<path d="M219.934 63.6333C225.182 63.6333 229.437 58.8714 229.437 52.9973C229.437 47.1232 225.182 42.3613 219.934 42.3613C214.685 42.3613 210.431 47.1232 210.431 52.9973C210.431 58.8714 214.685 63.6333 219.934 63.6333Z" fill="#84B8FF"/>
<path d="M220.281 61.3451C224.457 61.3451 227.842 57.5562 227.842 52.8825C227.842 48.2087 224.457 44.4199 220.281 44.4199C216.106 44.4199 212.721 48.2087 212.721 52.8825C212.721 57.5562 216.106 61.3451 220.281 61.3451Z" fill="#CCE3FF"/>
<path d="M179.99 57.9685C182.499 57.9685 184.533 55.6919 184.533 52.8837C184.533 50.0754 182.499 47.7988 179.99 47.7988C177.481 47.7988 175.447 50.0754 175.447 52.8837C175.447 55.6919 177.481 57.9685 179.99 57.9685Z" fill="#0B61DD"/>
<path d="M178.689 48.0099L186.348 46.0508V60.6177L178.096 57.506L178.689 48.0099Z" fill="#0B61DD"/>
<path d="M182.223 53.7843C182.213 55.8477 182.758 57.8757 183.801 59.6562L186.348 60.6168V46.0527L184.86 46.4336C183.225 48.3466 182.223 50.9303 182.223 53.7843Z" fill="#2E353D"/>
<path d="M197.691 42.3613H192.511V63.6347H197.691V42.3613Z" fill="#0B61DD"/>
<path d="M128.236 51.7354C121.108 51.7354 115.994 50.0311 112.636 46.5539C112.562 46.473 112.523 46.3667 112.527 46.2575C112.531 46.1483 112.577 46.0448 112.656 45.969C112.734 45.8932 112.839 45.8511 112.949 45.8515C113.058 45.852 113.163 45.8949 113.241 45.9713C116.735 49.5942 122.299 51.192 130.25 50.8559C137.329 50.5562 145.278 48.8141 152.963 47.1281C160.332 45.5134 167.293 43.987 172.827 43.8862C175.831 43.8315 178.177 44.1984 179.999 45.0065C182.046 45.9195 183.444 47.4306 184.154 49.4975C184.191 49.6028 184.185 49.7186 184.137 49.8193C184.088 49.92 184.002 49.9974 183.897 50.0346C183.792 50.0717 183.676 50.0655 183.575 50.0173C183.474 49.9691 183.397 49.8829 183.36 49.7776C182.139 46.2234 178.799 44.62 172.843 44.7292C167.391 44.8286 160.47 46.3452 153.144 47.9501C145.423 49.6376 137.441 51.3881 130.285 51.6905C129.585 51.7195 128.902 51.7344 128.236 51.7354Z" fill="#2E353D"/>
<path d="M182.847 49.7239C182.82 49.7238 182.792 49.721 182.765 49.7155C176.062 48.3809 170.983 46.3546 167.668 43.6938C164.919 41.4868 163.511 38.8709 163.701 36.3249C163.943 33.0942 166.676 30.6296 170.2 30.4629C173.01 30.3229 175.827 31.691 178.132 34.2986C180.933 37.4677 182.902 42.264 183.977 48.5546C183.987 48.609 183.985 48.6647 183.973 48.7185C183.96 48.7723 183.938 48.8232 183.906 48.8682C183.841 48.9591 183.743 49.0205 183.633 49.0391C183.523 49.0577 183.41 49.0318 183.319 48.9672C183.228 48.9026 183.167 48.8046 183.148 48.6946C182.101 42.5609 180.201 37.9046 177.503 34.8531C175.371 32.4417 172.792 31.1799 170.24 31.3003C167.146 31.4474 164.749 33.5858 164.539 36.3852C164.223 40.5975 168.89 46.0941 182.929 48.8921C183.03 48.9127 183.121 48.9705 183.183 49.054C183.245 49.1376 183.273 49.2412 183.263 49.3446C183.253 49.4481 183.205 49.5441 183.128 49.6142C183.051 49.6842 182.951 49.7233 182.847 49.7239Z" fill="#2E353D"/>
<path d="M220.281 44.4258C219.941 44.4259 219.601 44.4516 219.265 44.5028C222.959 45.063 225.807 48.6018 225.807 52.8898C225.807 57.1778 222.959 60.7194 219.265 61.2753C219.601 61.3265 219.941 61.3522 220.281 61.3523C224.457 61.3523 227.843 57.5629 227.843 52.8898C227.843 48.2166 224.457 44.4258 220.281 44.4258Z" fill="#2E353D"/>
<path d="M183.899 49.2377C183.847 49.219 183.792 49.2107 183.737 49.2134C183.682 49.216 183.627 49.2294 183.577 49.253C183.528 49.2765 183.483 49.3097 183.446 49.3506C183.408 49.3914 183.38 49.4392 183.361 49.4912C170.401 85.5793 143.93 119.704 115.924 136.429C109.789 140.092 104.065 141.982 98.9119 142.043C94.6813 142.092 90.9436 140.826 88.3893 138.474C85.1894 135.533 84.2092 131.166 85.947 127.625C88.5392 122.349 95.9879 120.203 105.873 121.883C108.978 122.411 112.508 123.341 116.666 124.723C116.735 124.746 116.808 124.75 116.879 124.736C116.823 124.443 116.77 124.15 116.719 123.856C112.613 122.499 109.108 121.582 106.015 121.055C100.521 120.12 95.8436 120.303 92.1102 121.599C88.8445 122.732 86.454 124.687 85.1936 127.252C83.2891 131.13 84.345 135.886 87.8208 139.088C90.4815 141.54 94.3242 142.882 98.6668 142.882H98.9217C104.225 142.819 110.091 140.889 116.354 137.149C129.847 129.092 143.346 116.703 155.395 101.341C167.755 85.5737 177.699 67.7425 184.152 49.7741C184.19 49.6693 184.184 49.5541 184.136 49.4535C184.089 49.353 184.004 49.2754 183.899 49.2377Z" fill="#2E353D"/>
<path d="M216.247 51.5223C216.898 51.5223 217.426 50.9944 217.426 50.3432C217.426 49.692 216.898 49.1641 216.247 49.1641C215.595 49.1641 215.067 49.692 215.067 50.3432C215.067 50.9944 215.595 51.5223 216.247 51.5223Z" fill="white"/>
<path d="M225.013 55.057C226.044 54.0256 226.044 52.3533 225.013 51.3219C223.981 50.2905 222.309 50.2905 221.278 51.3219C220.246 52.3533 220.246 54.0256 221.278 55.057C222.309 56.0885 223.981 56.0885 225.013 55.057Z" fill="white"/>
<path d="M192.511 63.6333C197.76 63.6333 202.014 58.8714 202.014 52.9973C202.014 47.1232 197.76 42.3613 192.511 42.3613C187.263 42.3613 183.008 47.1232 183.008 52.9973C183.008 58.8714 187.263 63.6333 192.511 63.6333Z" fill="#0B61DD"/>
<path d="M197.69 63.6333C202.938 63.6333 207.193 58.8714 207.193 52.9973C207.193 47.1232 202.938 42.3613 197.69 42.3613C192.441 42.3613 188.187 47.1232 188.187 52.9973C188.187 58.8714 192.441 63.6333 197.69 63.6333Z" fill="#84B8FF"/>
<path d="M198.037 61.3451C202.213 61.3451 205.598 57.5562 205.598 52.8825C205.598 48.2087 202.213 44.4199 198.037 44.4199C193.862 44.4199 190.477 48.2087 190.477 52.8825C190.477 57.5562 193.862 61.3451 198.037 61.3451Z" fill="#CCE3FF"/>
<path d="M198.037 44.4258C197.697 44.4259 197.357 44.4516 197.021 44.5028C200.715 45.063 203.563 48.6018 203.563 52.8898C203.563 57.1778 200.715 60.7194 197.021 61.2753C197.357 61.3265 197.697 61.3522 198.037 61.3523C202.213 61.3523 205.599 57.5629 205.599 52.8898C205.599 48.2166 202.213 44.4258 198.037 44.4258Z" fill="#2E353D"/>
<path d="M194.015 51.5223C194.666 51.5223 195.194 50.9944 195.194 50.3432C195.194 49.692 194.666 49.1641 194.015 49.1641C193.364 49.1641 192.836 49.692 192.836 50.3432C192.836 50.9944 193.364 51.5223 194.015 51.5223Z" fill="white"/>
<path d="M202.783 55.057C203.814 54.0256 203.814 52.3533 202.783 51.3219C201.751 50.2905 200.079 50.2905 199.048 51.3219C198.016 52.3533 198.016 54.0256 199.048 55.057C200.079 56.0885 201.751 56.0885 202.783 55.057Z" fill="white"/>
<path d="M207.953 149.638C207.953 149.638 209.074 150.842 209.994 151.038C211.713 151.418 212.586 150.38 212.996 150.478C213.406 150.576 215.825 151.458 217.057 149.447C218.29 147.436 216.742 145.144 216.749 144.053C216.756 143.38 216.836 142.71 216.987 142.055C216.987 142.055 215.062 142.501 214.046 143.529C212.124 145.49 212.549 147.134 211.356 148.267C209.425 150.103 207.649 148.879 207.649 148.879L207.953 149.638Z" fill="#ABBD43"/>
<path d="M50.8773 159.35C50.8773 159.35 51.5635 160.847 51.4011 161.772C51.0972 163.508 49.8074 163.919 49.7346 164.332C49.6618 164.746 49.5666 167.322 47.2349 167.693C44.9033 168.064 43.3754 165.764 42.3643 165.355C41.7395 165.105 41.0891 164.924 40.4248 164.816C40.4248 164.816 41.5717 163.205 42.9063 162.662C45.448 161.627 46.8106 162.648 48.3118 161.977C50.7443 160.889 50.2892 158.781 50.2892 158.781L50.8773 159.35Z" fill="#6F8137"/>
<path d="M274.105 173.04C267.014 173.04 260.93 170.819 255.61 166.307C255.071 165.85 254.557 165.366 254.07 164.855C252.844 165.819 251.535 166.672 250.158 167.403C246.065 169.595 241.56 170.788 237.475 170.756C232.77 170.721 226.397 169.047 222.771 161.282C222.726 161.182 222.722 161.068 222.761 160.964C222.799 160.861 222.876 160.777 222.976 160.73C223.076 160.684 223.19 160.678 223.293 160.714C223.397 160.751 223.483 160.826 223.531 160.925C226.978 168.295 233.023 169.888 237.486 169.916H237.635C243.425 169.916 249.552 167.353 253.514 164.238C251.612 162.057 250.467 159.691 250.412 157.692C250.343 155.231 251.28 153.418 252.984 152.716C254.542 152.073 256.41 152.514 257.631 153.812C258.34 154.566 259.796 156.708 258.036 160.33C257.398 161.639 256.243 163.016 254.722 164.322C255.154 164.769 255.633 165.217 256.159 165.667C270.192 177.57 286.898 170.697 300.322 165.178C306.233 162.748 311.336 160.651 315.166 160.651C315.277 160.651 315.384 160.695 315.463 160.774C315.542 160.852 315.586 160.959 315.586 161.071C315.586 161.182 315.542 161.289 315.463 161.368C315.384 161.447 315.277 161.491 315.166 161.491C311.5 161.491 306.467 163.561 300.64 165.955C293.953 168.704 286.374 171.82 278.602 172.76C277.11 172.943 275.608 173.037 274.105 173.04ZM254.452 153.269C254.057 153.268 253.665 153.343 253.298 153.492C251.936 154.052 251.188 155.577 251.245 157.669C251.287 159.155 252.104 161.376 254.152 163.71C255.584 162.488 256.673 161.2 257.274 159.962C258.354 157.743 258.254 155.711 257.013 154.388C256.684 154.039 256.287 153.759 255.847 153.567C255.407 153.375 254.932 153.273 254.452 153.269Z" fill="#CCE3FF"/>
<path d="M70.1478 159.208C65.5433 159.208 61.3407 158.628 57.428 157.46C50.856 155.499 45.1928 151.926 40.1192 146.537C40.0802 146.497 40.0497 146.45 40.0292 146.398C40.0088 146.346 39.9989 146.29 40.0001 146.235C40.0013 146.179 40.0136 146.124 40.0363 146.073C40.059 146.022 40.0917 145.976 40.1323 145.938C40.1729 145.9 40.2208 145.87 40.273 145.85C40.3253 145.831 40.3809 145.822 40.4367 145.824C40.4924 145.826 40.5472 145.839 40.5977 145.863C40.6483 145.887 40.6936 145.92 40.7311 145.961C50.1516 155.97 61.8379 159.768 77.511 157.914C91.6984 156.233 107.852 150.072 124.955 143.544C141.585 137.198 158.78 130.635 177.19 126.74C198.232 122.282 217.09 122.258 234.84 126.656C234.894 126.668 234.946 126.691 234.992 126.723C235.038 126.756 235.076 126.797 235.106 126.845C235.136 126.892 235.155 126.945 235.164 127.001C235.173 127.056 235.17 127.113 235.156 127.167C235.143 127.222 235.119 127.273 235.085 127.318C235.051 127.363 235.009 127.4 234.96 127.429C234.912 127.457 234.858 127.475 234.803 127.482C234.747 127.49 234.691 127.486 234.637 127.471C195.116 117.668 158.001 131.837 125.255 144.334C108.103 150.881 91.9015 157.064 77.6091 158.758C75.133 159.054 72.6415 159.204 70.1478 159.208Z" fill="#CCE3FF"/>
<path d="M237.631 170.757C236.508 170.76 235.387 170.663 234.281 170.467C229.123 169.538 225.141 166.362 222.766 161.283C222.721 161.182 222.717 161.068 222.755 160.965C222.794 160.862 222.871 160.778 222.971 160.731C223.07 160.684 223.184 160.679 223.288 160.715C223.392 160.751 223.477 160.827 223.526 160.926C228.521 171.607 239.751 171.195 247.849 167.597C247.951 167.552 248.067 167.549 248.171 167.589C248.275 167.629 248.359 167.709 248.405 167.811C248.45 167.913 248.453 168.029 248.413 168.133C248.373 168.237 248.293 168.321 248.191 168.366C244.647 169.94 241 170.757 237.631 170.757Z" fill="white"/>
<defs>
<linearGradient id="paint0_linear_2294_45082" x1="255.68" y1="140.204" x2="290.407" y2="117.436" gradientUnits="userSpaceOnUse">
<stop stop-color="white"/>
<stop offset="1" stop-color="#CCE3FF"/>
</linearGradient>
</defs>
</svg>
