<svg width="22" height="16" viewBox="0 0 22 16" fill="none" xmlns="http://www.w3.org/2000/svg">
<path fill-rule="evenodd" clip-rule="evenodd" d="M18 4C18 6.21 16.21 8 14 8C11.79 8 10 6.21 10 4C10 1.79 11.79 0 14 0C16.21 0 18 1.79 18 4ZM6 14C6 11.34 11.33 10 14 10C16.67 10 22 11.34 22 14V16H6V14ZM7.08579 7C7.08579 7.135 7.0755 7.265 7.06007 7.39L7.91895 8.05C8.00124 8.11 8.02181 8.215 7.97038 8.305L7.1475 9.69C7.09607 9.78 6.98807 9.815 6.8955 9.78L5.87204 9.38C5.66118 9.535 5.42975 9.67 5.17774 9.77L5.02345 10.83C5.01317 10.93 4.92574 11 4.82288 11H3.17712C3.07426 11 2.99198 10.93 2.9714 10.83L2.81712 9.77C2.56511 9.67 2.33882 9.54 2.12281 9.38L1.09936 9.78C1.00679 9.81 0.898784 9.78 0.847355 9.69L0.0244782 8.305C-0.0218086 8.22 -0.00123676 8.11 0.0759079 8.05L0.945071 7.39C0.924499 7.265 0.914213 7.13 0.914213 7C0.914213 6.87 0.929642 6.735 0.950214 6.61L0.081051 5.95C-0.00123663 5.89 -0.0218086 5.785 0.0296212 5.695L0.852498 4.31C0.903927 4.22 1.01193 4.185 1.1045 4.22L2.12796 4.62C2.33882 4.465 2.57025 4.33 2.82226 4.23L2.97655 3.17C2.99198 3.07 3.07426 3 3.17712 3H4.82288C4.92574 3 5.01317 3.07 5.0286 3.17L5.18289 4.23C5.43489 4.33 5.66118 4.46 5.87719 4.62L6.90064 4.22C6.99321 4.19 7.10122 4.22 7.15265 4.31L7.97552 5.695C8.02181 5.78 8.00124 5.89 7.92409 5.95L7.05493 6.61C7.0755 6.735 7.08579 6.865 7.08579 7ZM2.45711 7C2.45711 7.825 3.15141 8.5 4 8.5C4.84859 8.5 5.54289 7.825 5.54289 7C5.54289 6.175 4.84859 5.5 4 5.5C3.15141 5.5 2.45711 6.175 2.45711 7Z" fill="#B7B7B7"/>
</svg>
