<svg width="176" height="220" viewBox="0 0 176 220" fill="none" xmlns="http://www.w3.org/2000/svg">
<path d="M82.4702 171.627C82.8075 171.844 83.1982 172.085 83.6165 172.39L85.0116 173.369C85.268 173.543 85.5244 173.739 85.79 173.944L86.6158 174.576C86.8981 174.796 87.1973 175.012 87.4904 175.255L88.3909 176.006C88.6962 176.266 89.0183 176.525 89.3358 176.8L90.2912 177.67L90.7843 178.117C90.9507 178.27 91.1186 178.422 91.2788 178.584L92.2694 179.567L92.7762 180.072L93.2692 180.607L94.2766 181.699C94.6109 182.073 94.9299 182.463 95.2642 182.863C95.5984 183.262 95.9358 183.65 96.2487 184.074L97.2194 185.338C97.5339 185.773 97.8391 186.222 98.152 186.668C99.4255 188.511 100.569 190.441 101.574 192.444C101.702 192.698 101.841 192.949 101.96 193.207C102.079 193.465 102.201 193.727 102.321 193.988C102.559 194.512 102.815 195.028 103.024 195.566C103.233 196.105 103.465 196.635 103.679 197.171L104.27 198.802C105.016 200.979 105.636 203.197 106.126 205.445C106.584 207.674 106.935 209.887 107.171 212.041C107.219 212.579 107.267 213.109 107.315 213.645C107.336 213.91 107.364 214.173 107.382 214.435C107.4 214.698 107.411 214.96 107.425 215.221C107.438 215.482 107.452 215.714 107.467 215.959H110.485C110.448 215.629 110.412 215.297 110.377 214.964C110.346 214.693 110.317 214.423 110.287 214.15C110.256 213.877 110.21 213.605 110.172 213.33C110.093 212.783 110.013 212.23 109.933 211.671C109.565 209.444 109.084 207.162 108.475 204.874C107.841 202.568 107.073 200.3 106.176 198.082C105.941 197.529 105.707 196.977 105.472 196.424C105.221 195.879 104.96 195.341 104.709 194.8C104.459 194.26 104.169 193.732 103.894 193.208C103.755 192.946 103.618 192.683 103.479 192.422C103.34 192.161 103.183 191.909 103.036 191.659C101.892 189.657 100.611 187.737 99.2006 185.912C98.8542 185.473 98.5184 185.032 98.1719 184.604L97.1034 183.366C96.7615 182.951 96.3921 182.568 96.035 182.185C95.6778 181.802 95.3267 181.422 94.9665 181.057L93.8843 180.001L93.3547 179.486L92.8128 179.002L91.7566 178.061C91.5856 177.908 91.407 177.755 91.2315 177.618L90.708 177.191L89.6975 176.366C89.3617 176.105 89.0244 175.861 88.7023 175.618L87.7544 174.912C87.4492 174.683 87.1332 174.481 86.8386 174.275L85.9686 173.686C85.6923 173.495 85.4252 173.311 85.1581 173.15L83.7035 172.244C83.27 171.964 82.8655 171.741 82.5175 171.543L81.6337 171.039L80.8965 170.621L81.6093 171.079L82.4702 171.627Z" fill="#6F8137"/>
<path d="M53.3448 144.699C48.204 147.183 44.4263 155.181 46.8242 166.201C45.3284 157.269 52.9632 150.502 53.3448 144.699Z" fill="#ABBD43"/>
<path d="M20.6973 132.121C26.7234 148.194 34.3949 143.483 39.6532 150.36C34.462 138.515 22.6419 138.506 20.6973 132.121Z" fill="#6F8137"/>
<path d="M127.901 138.66C120.169 159.283 110.325 153.24 103.577 162.061C110.238 146.863 125.406 146.852 127.901 138.66Z" fill="#6F8137"/>
<path d="M95.9639 195.216C96.0646 196.437 96.1333 197.658 96.2982 198.857C96.3684 199.46 96.4401 200.062 96.521 200.662C96.6019 201.261 96.7194 201.852 96.8171 202.444C96.9148 203.037 97.0094 203.626 97.1224 204.207C97.2354 204.789 97.3804 205.366 97.507 205.938C97.5712 206.225 97.6348 206.511 97.6978 206.796L97.794 207.222L97.9039 207.643C98.0565 208.203 98.2092 208.756 98.3618 209.305C98.4381 209.58 98.5145 209.853 98.5893 210.125C98.6259 210.261 98.664 210.397 98.7007 210.533L98.8289 210.934C98.9983 211.467 99.1677 211.993 99.3448 212.512C99.5692 213.17 99.7035 213.602 99.8607 214.051C100.038 214.555 100.236 215.045 100.427 215.528C100.48 215.681 100.535 215.817 100.59 215.96H104.823C101.299 206.697 99.9828 193.81 99.9538 193.233C99.9248 192.656 99.8989 192.079 99.8897 191.503C99.8805 190.928 99.8897 190.353 99.8744 189.78C99.8744 189.493 99.8638 189.206 99.8653 188.921C99.8668 188.635 99.879 188.35 99.8851 188.066C99.9019 185.787 100.07 183.55 100.244 181.382C100.361 180.303 100.462 179.236 100.607 178.198C100.641 177.937 100.673 177.679 100.706 177.421C100.74 177.163 100.772 176.908 100.816 176.658C100.899 176.151 100.978 175.651 101.051 175.156C101.125 174.662 101.225 174.178 101.308 173.697C101.352 173.457 101.395 173.219 101.437 172.984C101.48 172.749 101.532 172.515 101.578 172.283C101.671 171.826 101.764 171.368 101.854 170.919C101.944 170.47 102.059 170.038 102.159 169.608C102.559 167.898 102.961 166.331 103.365 164.952C103.77 163.574 104.141 162.371 104.472 161.387C104.624 160.891 104.791 160.456 104.919 160.069C105.047 159.683 105.169 159.361 105.263 159.097C105.45 158.568 105.549 158.285 105.549 158.285L105.421 158.464C105.337 158.583 105.211 158.758 105.052 158.99C104.733 159.448 104.27 160.14 103.73 161.043C103.19 161.947 102.559 163.063 101.898 164.38C101.237 165.697 100.566 167.219 99.9019 168.912C99.238 170.604 98.6289 172.482 98.0611 174.494C97.9237 174.999 97.7925 175.512 97.6612 176.031C97.591 176.29 97.5315 176.554 97.4735 176.82C97.4155 177.085 97.3559 177.351 97.2949 177.618C97.0354 178.687 96.869 179.798 96.6599 180.923C96.5714 181.487 96.4905 182.057 96.4111 182.632C96.3735 182.921 96.3348 183.21 96.2951 183.499C96.2615 183.789 96.2356 184.082 96.2051 184.375C96.1471 184.96 96.0891 185.551 96.0295 186.143C95.97 186.735 95.9639 187.333 95.9303 187.935C95.9135 188.24 95.8983 188.535 95.8815 188.835C95.8647 189.136 95.8693 189.446 95.8631 189.742C95.8509 190.346 95.8438 190.953 95.8418 191.561C95.8418 192.172 95.8754 192.783 95.8906 193.393C95.9059 194.004 95.9105 194.608 95.9639 195.216Z" fill="#ABBD43"/>
<path d="M54.6336 215.641C56.2317 215.641 56.2317 213.164 54.6336 213.164C53.0354 213.164 53.037 215.641 54.6336 215.641Z" fill="#2E353D"/>
<path d="M21.8778 215.661C22.5021 215.661 22.5021 214.695 21.8778 214.695C21.2535 214.695 21.255 215.661 21.8778 215.661Z" fill="#2E353D"/>
<path d="M47.0843 168.003C47.1453 168.396 47.2552 168.831 47.3651 169.328C47.6624 170.518 48.0408 171.686 48.4977 172.824C49.0982 174.308 49.8127 175.744 50.6346 177.119C50.859 177.496 51.0925 177.882 51.3443 178.262C51.5962 178.642 51.8526 179.025 52.1182 179.424C52.657 180.201 53.2416 180.985 53.8567 181.773C55.0931 183.346 56.4683 184.929 57.9153 186.514C58.6327 187.31 59.3761 188.103 60.1209 188.902L62.3616 191.319C63.1126 192.128 63.8407 192.958 64.5733 193.784C65.306 194.609 66.0158 195.454 66.695 196.316C67.3742 197.178 68.0916 198.007 68.6793 198.92C71.3779 203.114 74.1421 207.97 74.6962 215.962H78.706C78.6856 215.639 78.6647 215.314 78.6434 214.985C78.5991 214.512 78.5503 214.031 78.4907 213.544C78.4312 213.057 78.3656 212.561 78.2816 212.06C77.5797 207.669 76.0834 203.442 73.8658 199.587C73.2782 198.573 72.66 197.568 71.9854 196.6C71.3107 195.632 70.604 194.684 69.8714 193.764C68.3893 191.932 66.8186 190.21 65.2205 188.599C64.8221 188.194 64.4268 187.791 64.0284 187.399L62.8333 186.239C62.0426 185.476 61.2627 184.722 60.4903 183.995C58.9639 182.531 57.491 181.132 56.157 179.761C54.8229 178.39 53.6125 177.061 52.5624 175.776C51.6022 174.607 50.7104 173.384 49.8912 172.112C49.1571 170.972 48.5831 169.927 48.1298 169.049C47.6765 168.171 47.3666 167.458 47.1514 166.962L46.8232 166.199L46.924 167.019C46.953 167.289 47.0156 167.616 47.0843 168.003Z" fill="#6F8137"/>
<path d="M39.7203 215.966H43.9941C43.9223 215.462 43.8323 214.954 43.756 214.439C43.6796 213.925 43.6033 213.389 43.5438 212.85C43.2706 210.701 43.0737 208.424 42.9455 206.07C42.8173 203.717 42.7852 201.268 42.802 198.782C42.8188 196.296 42.9119 193.762 43.0508 191.22C43.1897 188.679 43.3561 186.131 43.5316 183.611C43.7071 181.091 43.8888 178.599 44.0154 176.17C44.1421 173.742 44.2413 171.379 44.2474 169.125C44.2635 166.994 44.1713 164.863 43.9712 162.741C43.9193 162.245 43.8659 161.762 43.8002 161.287C43.7346 160.812 43.6644 160.353 43.5896 159.904C43.4232 159.006 43.2584 158.158 43.0401 157.372C42.6921 156.01 42.2116 154.685 41.6053 153.417C41.4771 153.156 41.3443 152.913 41.2268 152.684C41.1092 152.455 40.9734 152.252 40.8604 152.058L40.6941 151.781L40.5262 151.532C40.4173 151.376 40.3196 151.234 40.2331 151.106C40.053 150.859 39.9004 150.68 39.8042 150.555L39.6516 150.367L39.995 151.239C40.2868 152.053 40.5299 152.884 40.7231 153.727C41.0063 155.024 41.189 156.341 41.2695 157.666C41.3758 159.38 41.3799 161.099 41.2817 162.813C41.2298 163.76 41.1749 164.742 41.0757 165.765C41.0289 166.274 40.981 166.793 40.9322 167.322C40.8742 167.85 40.8223 168.391 40.7567 168.929C40.517 171.104 40.2117 173.405 39.9111 175.798C39.6104 178.191 39.3005 180.682 39.0258 183.219C38.751 185.756 35.9746 197.718 39.7203 215.966Z" fill="#ABBD43"/>
<path d="M44.0392 215.965H48.1512C48.0871 215.576 48.0337 215.174 47.9711 214.764C47.8902 214.26 47.8338 213.743 47.7696 213.213C47.7055 212.683 47.6536 212.145 47.6033 211.592C47.4995 210.49 47.4506 209.351 47.4155 208.191C47.4155 207.034 47.4155 205.854 47.5117 204.681C47.5437 204.091 47.6231 203.513 47.6811 202.928C47.7697 202.353 47.8338 201.771 47.9604 201.208C48.1636 200.095 48.4488 198.998 48.8137 197.926C49.1547 196.921 49.5716 195.944 50.0607 195.002C50.5086 194.156 51.0231 193.346 51.5993 192.581C51.7367 192.406 51.8618 192.226 52.0023 192.064C52.1427 191.902 52.2755 191.739 52.4067 191.583C52.538 191.427 52.68 191.278 52.8112 191.142C52.9425 191.006 53.0753 190.864 53.2066 190.737C53.3378 190.611 53.4615 190.482 53.5866 190.365L53.956 190.034C54.188 189.815 54.4231 189.641 54.6261 189.469C55.0413 189.142 55.3755 188.892 55.6136 188.733L55.9739 188.484L55.5846 188.683C55.3282 188.809 54.9619 189.014 54.4994 189.293C54.2735 189.446 54.0125 189.585 53.75 189.773L53.3317 190.058C53.1883 190.16 53.0448 190.272 52.8952 190.385C52.7456 190.498 52.5899 190.615 52.4373 190.745C52.2846 190.875 52.1228 191.003 51.9626 191.142L51.4802 191.581C51.3123 191.734 51.1597 191.897 50.9918 192.061C50.2826 192.781 49.6323 193.557 49.0472 194.381C48.3948 195.309 47.8146 196.286 47.3117 197.304C46.7732 198.395 46.3141 199.524 45.938 200.682C45.7319 201.271 45.5732 201.875 45.3977 202.481C45.245 203.092 45.0924 203.702 44.9688 204.322C44.7001 205.557 44.5246 206.804 44.3704 208.036C44.2163 209.267 44.1338 210.478 44.0881 211.661C44.0636 212.25 44.0362 212.83 44.0362 213.395C44.0362 213.959 44.0163 214.517 44.0362 215.054C44.0331 215.355 44.0346 215.66 44.0392 215.965Z" fill="#6F8137"/>
<path d="M30.9908 215.645C30.9908 215.625 30.9908 215.605 30.9908 215.584V215.48C30.9908 215.422 31.003 215.288 31.0214 215.127C31.058 214.801 31.1236 214.323 31.2305 213.754C31.4874 212.345 31.8821 210.964 32.4088 209.632C32.5615 209.272 32.7141 208.914 32.8896 208.564C32.9751 208.392 33.0636 208.222 33.1567 208.059C33.2499 207.895 33.343 207.734 33.4391 207.578C33.6267 207.278 33.8305 206.989 34.0497 206.711C34.2464 206.462 34.4568 206.224 34.6801 205.998C34.8718 205.807 35.0757 205.629 35.2906 205.464C35.4549 205.334 35.6261 205.213 35.8035 205.102C35.9561 205.008 36.0752 204.95 36.1561 204.901L36.2843 204.832L36.1469 204.879C36.0599 204.913 35.924 204.951 35.7623 205.023C35.5648 205.106 35.3718 205.199 35.1838 205.302C34.9382 205.436 34.7011 205.586 34.474 205.749C34.2037 205.944 33.9453 206.155 33.7001 206.381C33.4262 206.634 33.1658 206.902 32.9202 207.183C32.7919 207.335 32.6637 207.479 32.5416 207.641C32.4195 207.802 32.2944 207.958 32.1753 208.124C31.9326 208.454 31.7082 208.802 31.4884 209.155C30.7051 210.461 30.0527 211.841 29.5408 213.276C29.3271 213.864 29.1729 214.364 29.0707 214.727C29.0188 214.911 28.9837 215.048 28.9562 215.176L28.918 215.405C28.9096 215.461 28.905 215.517 28.9043 215.573C28.9043 215.596 28.9043 215.616 28.9043 215.639L30.9908 215.645Z" fill="#ABBD43"/>
<path d="M12.3432 190.71L12.6714 191.302C12.7904 191.517 12.9019 191.76 13.0301 192.013C13.1583 192.267 13.285 192.541 13.4117 192.833C13.4773 192.986 13.5429 193.127 13.6116 193.28C13.6803 193.433 13.7368 193.595 13.8024 193.756C13.9337 194.078 14.0665 194.416 14.1886 194.773C14.2527 194.948 14.3168 195.129 14.3809 195.312L14.5626 195.873C14.8098 196.637 15.0296 197.444 15.2418 198.287C15.3456 198.708 15.4387 199.14 15.5364 199.576C15.6341 200.013 15.7226 200.456 15.7974 200.906C15.9653 201.802 16.1027 202.719 16.2217 203.636C16.6979 207.313 16.8078 211.021 16.8155 213.808C16.8155 214.478 16.8155 215.093 16.8155 215.64H19.656C19.598 215.054 19.5309 214.385 19.4515 213.656C19.1462 210.832 18.641 207.052 17.7618 203.353C17.539 202.428 17.3039 201.507 17.0368 200.605C16.9132 200.147 16.7636 199.714 16.6293 199.276C16.4949 198.838 16.3423 198.412 16.1912 197.994C15.8859 197.157 15.5806 196.354 15.2433 195.609L15.0006 195.058C14.9151 194.88 14.8312 194.704 14.7473 194.532C14.5946 194.184 14.416 193.856 14.2481 193.543C14.1657 193.39 14.0879 193.237 14.0054 193.085L13.7566 192.653C13.604 192.372 13.4514 192.108 13.285 191.867C13.1186 191.626 12.9919 191.394 12.85 191.191L12.4592 190.63C12.2257 190.291 12.0135 190.046 11.8838 189.867L11.6777 189.602L11.8548 189.887C11.9632 190.085 12.1479 190.349 12.3432 190.71Z" fill="#ABBD43"/>
<path d="M7.75488 171.025C13.4635 170.921 20.4451 176.352 23.278 187.268C20.5809 178.623 10.7191 176.031 7.75488 171.025Z" fill="#6F8137"/>
<path d="M21.1398 181.747C21.3474 182.275 21.5977 182.919 21.8542 183.664C22.1106 184.409 22.393 185.256 22.6769 186.184C22.9608 187.112 23.2416 188.124 23.5042 189.203C23.7667 190.282 24.0277 191.421 24.249 192.609C24.4703 193.796 24.6779 195.026 24.8367 196.281C24.9252 196.907 24.9893 197.542 25.058 198.177C25.1267 198.812 25.1801 199.451 25.2106 200.091C25.3053 201.37 25.3373 202.649 25.3495 203.907C25.3495 204.536 25.3495 205.158 25.3251 205.773C25.3139 206.079 25.3042 206.384 25.2961 206.689C25.288 206.995 25.2707 207.295 25.2442 207.59C25.2198 208.187 25.1557 208.77 25.1129 209.342C25.0702 209.915 24.9924 210.469 24.9359 211.01C24.8794 211.552 24.7832 212.079 24.7191 212.583C24.655 213.086 24.5528 213.575 24.4749 214.042C24.3971 214.509 24.2963 214.958 24.2124 215.376C24.1895 215.492 24.1651 215.605 24.1406 215.716H27.2468C27.2911 215.309 27.3384 214.886 27.3872 214.443L27.5154 212.888C27.5429 212.351 27.5734 211.795 27.604 211.223C27.6345 210.65 27.6391 210.064 27.6421 209.466C27.6452 208.867 27.6513 208.254 27.6269 207.634C27.6177 207.323 27.6086 207.009 27.5994 206.694C27.5902 206.378 27.574 206.061 27.5505 205.743C27.5231 205.105 27.4635 204.461 27.4147 203.812C27.2926 202.516 27.1476 201.205 26.9415 199.903C26.8499 199.25 26.7263 198.603 26.6164 197.957C26.5065 197.311 26.3722 196.673 26.2287 196.041C25.9585 194.776 25.6456 193.544 25.3129 192.36C24.9801 191.175 24.6276 190.044 24.2704 188.979C23.9132 187.913 23.5362 186.92 23.1821 186.007C22.828 185.094 22.4723 184.272 22.1442 183.548C21.816 182.825 21.5199 182.2 21.268 181.689C21.0162 181.178 20.8101 180.782 20.6651 180.514L20.4453 180.102L20.6285 180.53C20.7613 180.807 20.9292 181.22 21.1398 181.747Z" fill="#ABBD43"/>
<path d="M46.002 121.299C46.002 121.299 49.4363 120.726 50.9123 123.283C53.4827 120.712 55.0212 109.953 55.0212 109.953L46.0996 107.641L46.002 121.299Z" fill="#2E353D"/>
<path d="M52.8617 73.707C52.9319 77.6924 51.2208 94.3679 52.5136 102.905C52.9548 105.819 53.1242 114.6 51.3994 118.332C48.0673 125.536 41.3086 127.53 41.3086 127.53L52.8617 73.707Z" fill="#2E353D"/>
<path d="M41.8775 64.3633C41.0395 75.8111 40.3511 91.5326 40.3755 92.4591C40.4076 93.8802 35.7873 103.319 35.1096 109.162C34.1648 117.311 41.215 123.163 41.3081 127.537C46.1208 122.02 53.2855 73.697 53.6595 66.3079C53.6946 65.6088 54.1952 64.2916 54.789 62.7148L41.8775 64.3633Z" fill="#ABBD43"/>
<path d="M47.6455 111.485L49.3841 117.714C49.4876 118.129 49.4253 118.567 49.2104 118.937C48.9955 119.306 48.645 119.577 48.2334 119.692C47.8218 119.807 47.3816 119.757 47.0064 119.552C46.6313 119.347 46.3507 119.004 46.2245 118.596C46.1884 118.463 46.1684 118.325 46.165 118.187L46.0352 111.723C46.0325 111.524 46.1021 111.331 46.231 111.18C46.3599 111.028 46.5395 110.929 46.7362 110.899C46.933 110.87 47.1336 110.914 47.3009 111.021C47.4681 111.129 47.5906 111.294 47.6455 111.485Z" fill="white"/>
<path d="M40.4944 102.883C40.4944 102.883 35.1154 112.246 38.388 120.935L40.6775 125.041C37.7194 112.197 42.5763 104.435 42.5763 104.435L40.4944 102.883Z" fill="#6F8137"/>
<path d="M39.698 123.407C39.6404 123.407 39.5837 123.392 39.5342 123.362C39.4847 123.333 39.4442 123.29 39.4172 123.239C34.574 114.044 37.6604 107.84 41.5678 99.9833C45.3059 92.469 49.9629 83.117 49.3523 67.7541C49.3535 67.673 49.3858 67.5954 49.4424 67.5373C49.499 67.4792 49.5757 67.445 49.6568 67.4417C49.7378 67.4384 49.8171 67.4662 49.8783 67.5195C49.9394 67.5727 49.9779 67.6474 49.9858 67.7282C50.5963 83.2543 45.9073 92.6873 42.1372 100.266C38.158 108.259 35.293 114.035 39.9774 122.943C39.997 122.98 40.0091 123.02 40.0131 123.061C40.017 123.103 40.0127 123.145 40.0003 123.184C39.988 123.224 39.9678 123.261 39.9411 123.293C39.9144 123.325 39.8816 123.351 39.8446 123.37C39.7996 123.395 39.7492 123.407 39.698 123.407Z" fill="#6F8137"/>
<path d="M46.6232 111.723C46.542 111.723 46.4618 111.705 46.3883 111.67C46.3148 111.636 46.2498 111.585 46.1979 111.523C46.1459 111.461 46.1083 111.388 46.0876 111.309C46.067 111.23 46.0638 111.148 46.0783 111.068L46.8598 106.795C46.8729 106.723 46.9 106.655 46.9396 106.593C46.9791 106.532 47.0303 106.479 47.0903 106.438C47.1502 106.397 47.2178 106.367 47.289 106.352C47.3602 106.337 47.4338 106.336 47.5054 106.349C47.5771 106.362 47.6455 106.389 47.7066 106.429C47.7678 106.468 47.8206 106.519 47.862 106.579C47.9034 106.639 47.9326 106.707 47.9478 106.778C47.9631 106.849 47.9643 106.923 47.9511 106.995L47.1681 111.268C47.1446 111.396 47.0773 111.511 46.9777 111.594C46.8782 111.677 46.7528 111.723 46.6232 111.723Z" fill="white"/>
<path d="M41.3069 127.853C41.225 127.853 41.1464 127.821 41.0876 127.764C41.0287 127.707 40.9941 127.63 40.9909 127.548C40.9543 125.9 39.8538 123.982 38.5777 121.763C36.6331 118.37 34.2123 114.157 34.7954 109.12C35.2213 105.442 37.1689 100.42 38.5915 96.7475C39.3852 94.7006 40.0705 92.9315 40.0598 92.4614C40.0369 91.4479 40.7436 75.4989 41.5618 64.3351C41.562 64.2916 41.5712 64.2487 41.5888 64.2089C41.6063 64.1692 41.6318 64.1334 41.6637 64.1039C41.6956 64.0744 41.7333 64.0518 41.7743 64.0374C41.8153 64.023 41.8588 64.0172 41.9022 64.0204C41.9456 64.0235 41.9878 64.0355 42.0263 64.0557C42.0648 64.0758 42.0988 64.1036 42.1261 64.1374C42.1535 64.1712 42.1736 64.2103 42.1852 64.2521C42.1968 64.294 42.1997 64.3379 42.1937 64.3809C41.3435 75.9813 40.6673 91.6265 40.6933 92.4462C40.7055 93.0186 40.1835 94.3938 39.1822 96.9764C37.7733 100.614 35.841 105.594 35.4243 109.187C34.8656 114.008 37.1292 117.952 39.1272 121.43C40.446 123.72 41.5831 125.704 41.6244 127.517C41.626 127.601 41.595 127.681 41.5379 127.742C41.4808 127.802 41.4022 127.838 41.3191 127.841L41.3069 127.853Z" fill="#6F8137"/>
<path d="M41.3065 127.854C41.2456 127.854 41.1859 127.837 41.1346 127.804C41.0833 127.771 41.0426 127.724 41.0175 127.668C40.9923 127.613 40.9837 127.551 40.9927 127.491C41.0018 127.431 41.028 127.374 41.0684 127.329C45.6887 122.034 52.9252 74.5273 53.3434 66.2925C53.3455 66.251 53.3558 66.2104 53.3736 66.1728C53.3914 66.1353 53.4164 66.1017 53.4473 66.0738C53.4781 66.046 53.5141 66.0244 53.5532 66.0105C53.5924 65.9966 53.6339 65.9905 53.6754 65.9926C53.7169 65.9947 53.7575 66.005 53.7951 66.0228C53.8326 66.0406 53.8662 66.0656 53.8941 66.0965C53.9219 66.1273 53.9435 66.1633 53.9574 66.2024C53.9713 66.2416 53.9774 66.2831 53.9753 66.3246C53.7983 69.8352 51.991 83.455 49.4603 97.6807C47.3234 109.716 44.202 124.697 41.5461 127.75C41.5158 127.783 41.4788 127.81 41.4375 127.828C41.3961 127.846 41.3515 127.855 41.3065 127.854Z" fill="white"/>
<path d="M37.7152 78.4596C37.6373 78.8625 38.631 79.7066 40.513 79.6272C42.395 79.5479 40.829 74.5078 40.829 74.5078C40.829 74.5078 37.8999 77.501 37.7152 78.4596Z" fill="#2E353D"/>
<path d="M92.9633 66.184C93.3739 66.4221 93.0641 68.2522 92.7466 68.8459C92.4291 69.4397 89.9365 67.2814 89.9365 67.2814C89.9365 67.2814 91.7147 65.465 92.9633 66.184Z" fill="#2E353D"/>
<path d="M90.9668 84.8474C94.7277 86.6943 96.248 72.1343 93.4288 70.553C90.6096 68.9717 86.4411 82.6158 90.9668 84.8474Z" fill="#2E353D"/>
<path d="M83.439 56.4825L84.0617 57.4457L84.2143 57.6868L84.2922 57.8074L84.3609 57.9112L84.6387 58.3203L84.9149 58.7309L85.0538 58.9369L85.2065 59.1506L85.817 60.01C86.02 60.2969 86.2368 60.5793 86.4459 60.8647C86.655 61.1502 86.8672 61.4341 87.0869 61.7149L87.7402 62.5605L88.4118 63.4C88.6332 63.6809 88.8697 63.9556 89.0941 64.2334C89.3185 64.5112 89.552 64.7905 89.7856 65.0638L90.4907 65.888L91.2066 66.7061C91.4447 66.9788 91.6869 67.2495 91.9332 67.5182L92.6673 68.3271C93.1619 68.8629 93.6579 69.3956 94.1647 69.9268C94.6715 70.4579 95.1813 70.9815 95.6911 71.505L96.4665 72.2865L97.2526 73.0619C97.7776 73.5768 98.3073 74.0881 98.8415 74.5959C99.3757 75.1037 99.9145 75.6074 100.458 76.107C101.542 77.1063 102.642 78.0892 103.758 79.0559C104.315 79.5398 105.561 80.5823 105.561 80.5823C105.561 80.5823 108.203 80.1504 109.224 79.9596C109.738 79.8634 110.251 79.7672 110.762 79.665C111.274 79.5627 111.784 79.4574 112.289 79.349C112.794 79.2406 113.305 79.1277 113.815 79.0132C114.325 78.8987 114.827 78.7797 115.329 78.6545C115.831 78.5293 116.331 78.4027 116.831 78.2729C117.332 78.1432 117.826 78.0073 118.316 77.8639C118.806 77.7204 119.296 77.5754 119.785 77.4288C120.273 77.2823 120.756 77.1236 121.229 76.9587C121.702 76.7939 122.174 76.626 122.644 76.4566C123.114 76.2871 123.569 76.1009 124.017 75.9101L124.356 75.7697L124.684 75.6171C124.901 75.5178 125.129 75.4232 125.336 75.3118C125.544 75.2004 125.764 75.1088 125.968 75.0065L126.579 74.6829L126.765 74.5852C127.566 74.1636 128.497 74.0625 129.369 74.3025C130.242 74.5425 130.991 75.1056 131.463 75.8775C131.936 76.6494 132.097 77.5722 131.913 78.4585C131.73 79.3448 131.217 80.1281 130.477 80.6495L129.714 81.1868C129.457 81.3638 129.201 81.5241 128.951 81.6935C128.7 81.8629 128.435 82.014 128.177 82.1728L127.789 82.4063L127.4 82.6276C126.882 82.9329 126.362 83.2046 125.841 83.4839C125.321 83.7633 124.799 84.0182 124.275 84.267C123.752 84.5158 123.228 84.76 122.702 85.0011C122.175 85.2423 121.651 85.4682 121.125 85.688C120.598 85.9078 120.069 86.1261 119.541 86.3413C119.012 86.5565 118.483 86.7595 117.953 86.9518C117.423 87.1442 116.885 87.3472 116.361 87.5425C115.838 87.7379 115.293 87.9226 114.763 88.1058C114.233 88.2889 113.695 88.469 113.162 88.6446C112.629 88.8201 112.093 88.9926 111.556 89.162C110.483 89.5009 109.405 89.8255 108.323 90.1358C107.782 90.2915 107.238 90.4442 106.692 90.5937L105.866 90.8151L105.446 90.9234L104.997 91.0349C104.35 91.1726 103.681 91.1759 103.032 91.0446C102.384 90.9133 101.769 90.6503 101.226 90.2717L101.027 90.1328L100.495 89.7588L99.9985 89.4062L99.0216 88.6995C98.3775 88.2274 97.7395 87.7516 97.1075 87.2724C95.8407 86.3128 94.5916 85.3344 93.3603 84.3372C92.7498 83.8381 92.1285 83.3359 91.5287 82.8261C90.9288 82.3163 90.3076 81.8034 89.7093 81.286L88.8072 80.5045L87.9127 79.7123C87.319 79.1811 86.7237 78.6438 86.1376 78.105C85.5514 77.5662 84.9668 77.0152 84.3853 76.4627L83.5198 75.6247C83.2308 75.3469 82.9444 75.065 82.6605 74.7791L81.8057 73.9228L80.9601 73.0543C80.6762 72.7673 80.4015 72.4666 80.1221 72.1736C79.8428 71.8805 79.565 71.5844 79.2918 71.2822L78.4676 70.3786L77.6556 69.4627C77.3839 69.1575 77.1167 68.8522 76.8512 68.5301C76.5856 68.2081 76.3169 67.9043 76.0559 67.5838L75.2729 66.6207L75.0775 66.378L74.876 66.12L74.4776 65.6026L74.0777 65.0851L73.9785 64.9569L73.8931 64.8409L73.7221 64.6104L73.0368 63.6946C72.5272 63.0275 72.1552 62.2658 71.9424 61.4537C71.7296 60.6417 71.6802 59.7955 71.7971 58.9642C71.914 58.1329 72.1948 57.3331 72.6233 56.6112C73.0518 55.8893 73.6194 55.2597 74.2932 54.759C74.967 54.2583 75.7335 53.8963 76.5483 53.6942C77.3631 53.4921 78.2099 53.4539 79.0396 53.5817C79.8693 53.7096 80.6653 54.0009 81.3815 54.4389C82.0976 54.8768 82.7197 55.4527 83.2115 56.133C83.2894 56.2383 83.3642 56.3467 83.4359 56.4551L83.439 56.4825Z" fill="#FFAD94"/>
<path d="M91.7867 67.4805L89.9367 67.7415L87.7998 79.6471L87.899 79.7341L88.7935 80.5263L89.6956 81.3078C90.3061 81.8252 90.9029 82.3412 91.515 82.8479C91.6478 82.9609 91.7836 83.0708 91.9179 83.1822C90.0329 78.3528 90.4511 71.7497 91.7867 67.4805Z" fill="#CE5F49"/>
<path d="M79.7896 53.0664C82.3753 53.3152 92.9637 66.1931 92.9637 66.1931C91.1107 65.6757 88.1495 80.5227 90.9672 84.8514C84.9793 82.2887 79.5576 73.4648 79.5576 73.4648L79.7896 53.0664Z" fill="#FA6142"/>
<path d="M79.5576 73.463C80.5894 75.0336 85.37 82.4929 90.9672 84.842C82.125 78.3214 84.3275 65.8983 82.5722 58.5L79.5576 73.463Z" fill="#D83A21"/>
<path d="M93.1952 99.0263C93.1299 99.0262 93.0662 99.0059 93.0129 98.9682C92.9596 98.9305 92.9193 98.8772 92.8976 98.8156C91.9818 96.2055 88.929 91.5715 84.6552 90.2497C84.5742 90.2248 84.5065 90.1687 84.4668 90.0939C84.4272 90.019 84.4189 89.9315 84.4438 89.8505C84.4687 89.7695 84.5247 89.7018 84.5996 89.6621C84.6744 89.6225 84.762 89.6142 84.8429 89.6391C89.335 91.0312 92.5343 95.8743 93.4944 98.6004C93.5081 98.6396 93.514 98.6811 93.5117 98.7226C93.5095 98.764 93.499 98.8046 93.481 98.8421C93.463 98.8795 93.4378 98.913 93.4068 98.9407C93.3758 98.9683 93.3397 98.9896 93.3005 99.0034C93.2671 99.0172 93.2314 99.0249 93.1952 99.0263Z" fill="#3984FF"/>
<path d="M63.1411 39.7891C63.1411 39.7891 63.7135 43.2173 62.79 44.4979C64.2538 45.3435 66.4533 43.2844 66.4533 43.2844L63.1411 39.7891Z" fill="#2E353D"/>
<path d="M89.4224 97.5495C90.8389 100.028 85.6218 102.935 83.7199 103.808C81.8181 104.681 80.5527 96.5223 80.5527 96.5223C80.5527 96.5223 88.1556 95.3317 89.4224 97.5495Z" fill="#2E353D"/>
<path d="M112.095 179.537C111.882 178.939 111.316 178.675 110.504 178.814C109.692 178.953 112.266 182.001 112.266 182.001C112.266 182.001 112.447 180.531 112.095 179.537Z" fill="#2E353D"/>
<path d="M99.8481 187.361C99.3001 186.702 101.129 185.602 101.802 185.602C102.475 185.602 102.092 188.175 102.092 188.175C102.092 188.175 100.256 187.856 99.8481 187.361Z" fill="#2E353D"/>
<path d="M58.0736 184.529C57.5668 183.831 60.0701 183.227 60.0701 183.227L60.2563 185.47C60.2563 185.47 58.4247 185.011 58.0736 184.529Z" fill="#2E353D"/>
<path d="M108.011 199.834C107 198.533 111.236 195.969 114.365 196.198C117.494 196.427 112.9 201.418 112.9 201.418C112.9 201.418 108.577 200.563 108.011 199.834Z" fill="#2E353D"/>
<path d="M103.199 186.671L110.643 203.452L115.563 200.686L108.838 177.406L103.199 186.671Z" fill="#FFAD94"/>
<path d="M142.098 210.371C142.098 210.371 140.437 209.552 138.811 209.607C137.572 209.65 136.34 209.629 135.118 209.589C131.84 209.485 124.918 206.994 122.785 205.053C120.886 203.329 116.423 197.74 116.423 197.74L114.866 195.629C113.753 195.71 110.993 201.179 108.011 199.833C110.519 202.34 106.091 208.392 106.903 211.857L108.005 213.536L141.658 212.468L142.098 210.371Z" fill="#0B61DD"/>
<path d="M136.863 209.565C137.512 209.545 138.165 209.481 138.809 209.459C140.433 209.403 142.097 210.375 142.097 210.375L141.658 212.468L137.654 211.656L136.863 209.565Z" fill="white"/>
<path d="M142.097 210.371C142.097 210.371 138.516 211.995 132.37 212.392L132.197 215.75C135.455 215.568 142.589 215.333 143.282 213.627C143.975 211.92 143.463 210.678 142.097 210.371Z" fill="white"/>
<path d="M136.375 211.134C131.278 210.616 126.264 209.986 122.956 207.699C119.42 205.257 114.891 199.796 113.412 194.391C113.412 193.498 114.984 191.505 116.436 191.605C116.105 198.321 122.169 203.903 124.449 205.636C128.03 208.359 133.725 209.033 134.92 209.299C135.418 209.407 136.863 209.567 136.863 209.567C137.811 209.986 137.654 211.657 137.654 211.657C137.611 211.581 137.393 211.233 136.375 211.134Z" fill="#84B8FF"/>
<path opacity="0.48" d="M137.644 211.633C137.648 211.639 137.651 211.646 137.654 211.653L137.644 211.633Z" fill="#97B5A8"/>
<path d="M120.752 207.013C120.705 207.014 120.658 207.004 120.615 206.983C120.577 206.965 120.543 206.94 120.515 206.91C120.486 206.879 120.465 206.843 120.45 206.803C120.436 206.764 120.43 206.722 120.432 206.68C120.434 206.639 120.444 206.598 120.462 206.56C120.523 206.433 121.989 203.454 123.955 203.454C123.998 203.451 124.042 203.457 124.083 203.471C124.124 203.486 124.161 203.509 124.193 203.538C124.225 203.568 124.251 203.604 124.268 203.644C124.285 203.684 124.294 203.727 124.294 203.771C124.294 203.814 124.285 203.857 124.268 203.897C124.251 203.937 124.225 203.973 124.193 204.003C124.161 204.032 124.124 204.055 124.083 204.07C124.042 204.084 123.998 204.09 123.955 204.087C122.648 204.087 121.403 206.072 121.033 206.835C121.008 206.888 120.968 206.932 120.918 206.964C120.869 206.995 120.811 207.013 120.752 207.013Z" fill="white"/>
<path d="M118.48 204.262C118.423 204.262 118.368 204.246 118.319 204.217C118.271 204.188 118.23 204.147 118.203 204.097C118.176 204.048 118.162 203.991 118.164 203.935C118.166 203.878 118.183 203.823 118.213 203.775C118.283 203.665 119.941 201.093 121.951 201.476C122.033 201.492 122.106 201.54 122.153 201.609C122.2 201.679 122.218 201.764 122.202 201.847C122.186 201.929 122.139 202.002 122.069 202.049C122 202.096 121.914 202.113 121.832 202.098C120.239 201.792 118.763 204.091 118.749 204.114C118.72 204.159 118.681 204.197 118.634 204.223C118.587 204.248 118.534 204.262 118.48 204.262Z" fill="white"/>
<path d="M123.445 209.072C123.403 209.073 123.362 209.064 123.323 209.048C123.285 209.032 123.25 209.009 123.22 208.979C123.191 208.95 123.168 208.915 123.152 208.877C123.136 208.838 123.128 208.797 123.128 208.755C123.128 208.714 123.136 208.673 123.152 208.634C123.442 207.935 124.966 204.473 126.439 205.053C126.48 205.067 126.518 205.089 126.55 205.117C126.583 205.146 126.609 205.181 126.627 205.22C126.646 205.26 126.656 205.302 126.657 205.346C126.659 205.389 126.651 205.432 126.635 205.472C126.619 205.513 126.595 205.549 126.564 205.58C126.534 205.61 126.497 205.634 126.457 205.65C126.417 205.666 126.373 205.674 126.33 205.673C126.287 205.671 126.244 205.661 126.205 205.643C125.546 205.38 124.343 207.419 123.737 208.877C123.713 208.935 123.673 208.984 123.621 209.019C123.569 209.054 123.508 209.072 123.445 209.072Z" fill="white"/>
<path d="M126.666 210.523C126.651 210.524 126.637 210.524 126.622 210.523C126.581 210.517 126.541 210.503 126.505 210.482C126.469 210.461 126.438 210.433 126.413 210.4C126.388 210.367 126.369 210.329 126.359 210.289C126.348 210.249 126.346 210.207 126.352 210.166C126.369 210.047 126.778 207.221 128.37 206.417C128.407 206.398 128.447 206.387 128.489 206.384C128.53 206.381 128.572 206.386 128.611 206.399C128.651 206.412 128.687 206.432 128.719 206.459C128.75 206.486 128.776 206.519 128.795 206.556C128.813 206.594 128.825 206.634 128.828 206.675C128.831 206.717 128.826 206.758 128.813 206.798C128.8 206.837 128.779 206.874 128.752 206.905C128.725 206.937 128.692 206.963 128.655 206.982C127.577 207.526 127.08 209.528 126.976 210.253C126.965 210.327 126.927 210.395 126.871 210.445C126.814 210.494 126.741 210.522 126.666 210.523Z" fill="white"/>
<path d="M130.56 211.155H130.52C130.479 211.15 130.439 211.137 130.403 211.116C130.367 211.096 130.335 211.068 130.31 211.036C130.284 211.003 130.266 210.965 130.255 210.925C130.244 210.885 130.24 210.844 130.246 210.802C130.308 210.28 130.685 207.699 131.943 207.699H131.984C132.065 207.707 132.14 207.746 132.193 207.807C132.246 207.868 132.274 207.948 132.27 208.029C132.267 208.11 132.232 208.187 132.174 208.243C132.116 208.3 132.038 208.332 131.957 208.333H131.946C131.448 208.333 131.004 209.804 130.877 210.879C130.868 210.956 130.83 211.027 130.772 211.078C130.713 211.129 130.638 211.156 130.56 211.155Z" fill="white"/>
<path d="M106.902 211.859C109.099 213.146 121.807 212.212 132.365 212.392L132.284 215.75C132.255 215.75 118.814 215.217 116.59 215.248C114.748 215.275 108.25 215.805 107.525 215.587C106.8 215.368 106.802 214.857 106.591 214.086C106.38 213.316 106.902 211.859 106.902 211.859Z" fill="#CCE3FF"/>
<path d="M116.395 214.542C118.619 214.51 124.403 215.278 132.304 214.838L132.284 215.745C124.382 216.186 118.614 215.412 116.39 215.44C114.548 215.466 108.25 215.797 107.525 215.579C106.8 215.36 106.801 214.849 106.591 214.078C107.346 215.691 114.552 214.568 116.395 214.542Z" fill="#0B61DD"/>
<path d="M116.343 216.881H116.306C115.948 216.847 115.602 216.733 115.294 216.548C114.985 216.363 114.721 216.112 114.522 215.813C114.017 215.069 113.863 214.015 114.119 213.065C114.443 211.866 115.291 210.536 116.112 209.249C117.311 207.375 118.555 205.433 118.182 203.924C118.168 203.882 118.162 203.838 118.166 203.795C118.169 203.751 118.182 203.708 118.203 203.67C118.223 203.631 118.252 203.597 118.287 203.57C118.321 203.543 118.361 203.524 118.404 203.513C118.447 203.503 118.491 203.501 118.534 203.508C118.577 203.516 118.619 203.532 118.655 203.557C118.692 203.581 118.723 203.612 118.747 203.649C118.77 203.686 118.786 203.728 118.793 203.771C119.223 205.546 117.911 207.601 116.642 209.588C115.847 210.832 115.024 212.119 114.727 213.226C114.519 213.989 114.643 214.872 115.041 215.459C115.189 215.682 115.386 215.869 115.617 216.006C115.848 216.143 116.106 216.226 116.373 216.249C116.455 216.257 116.53 216.296 116.583 216.358C116.636 216.42 116.663 216.5 116.658 216.581C116.654 216.663 116.618 216.739 116.558 216.795C116.499 216.85 116.42 216.881 116.338 216.88L116.343 216.881Z" fill="white"/>
<path d="M115.079 215.506C114.378 215.509 113.686 215.343 113.063 215.022C112.439 214.701 111.902 214.235 111.496 213.663C110.733 212.581 108.821 208.536 115.996 201.881C116.025 201.846 116.06 201.817 116.101 201.796C116.141 201.775 116.186 201.764 116.231 201.762C116.277 201.76 116.322 201.768 116.364 201.785C116.407 201.803 116.445 201.829 116.476 201.862C116.507 201.895 116.531 201.934 116.545 201.978C116.56 202.021 116.565 202.066 116.56 202.112C116.556 202.157 116.541 202.201 116.518 202.24C116.495 202.279 116.464 202.313 116.427 202.339C113.89 204.691 112.273 206.944 111.622 209.032C110.961 211.146 111.469 212.515 112.015 213.292C112.543 214.029 113.319 214.551 114.201 214.763C115.083 214.974 116.011 214.861 116.816 214.443C118.895 213.375 120.346 210.05 118.19 203.943C118.176 203.904 118.17 203.863 118.172 203.821C118.174 203.78 118.185 203.739 118.202 203.702C118.22 203.664 118.246 203.63 118.276 203.603C118.307 203.575 118.343 203.554 118.383 203.54C118.422 203.526 118.463 203.52 118.505 203.522C118.546 203.524 118.587 203.535 118.624 203.553C118.662 203.571 118.696 203.596 118.723 203.627C118.751 203.658 118.773 203.694 118.786 203.733C121.674 211.902 118.231 214.426 117.107 215.007C116.481 215.332 115.785 215.503 115.079 215.506Z" fill="white"/>
<path d="M108.525 200.582C108.322 201.093 107.351 203.569 108.525 203.649C110.306 203.769 108.525 200.582 108.525 200.582Z" fill="#0B61DD"/>
<path d="M108.01 199.836C107.818 200.106 107.939 200.741 108.525 200.582C109.111 200.424 108.01 199.836 108.01 199.836Z" fill="#0B61DD"/>
<path d="M112.558 190.282L111.851 187.84L104.982 190.691L107.157 195.594C110.366 193.857 112.558 190.282 112.558 190.282Z" fill="#CE5F49"/>
<path d="M59.8262 187.72L62.4408 201.174L67.3618 200.331L67.716 178.715L59.8262 187.72Z" fill="#FFAD94"/>
<path d="M60.1267 196.025C60.6976 194.499 68.7934 194.185 69.3612 196.331C69.7046 197.633 68.1203 199.646 68.2332 202.663C68.3767 206.545 71.8156 210.561 71.3745 213.62C71.2432 214.525 58.3485 214.401 58.3485 214.401C58.3485 214.401 57.738 212.466 58.3485 210.86C58.959 209.254 60.345 206.452 60.5312 204.274C60.783 201.357 59.4597 197.81 60.1267 196.025Z" fill="#0B61DD"/>
<path d="M61.1357 193.966C61.6654 192.898 65.8522 191.597 68.3097 193.904C64.7258 205.132 68.7263 209.875 67.4534 211.525H61.4685C60.2855 209.918 63.9351 202.816 61.1357 193.966Z" fill="#84B8FF"/>
<path d="M61.1059 208.678C61.0257 208.677 60.9488 208.646 60.8905 208.591C60.8322 208.536 60.7969 208.461 60.7917 208.381C60.7865 208.301 60.8117 208.222 60.8623 208.16C60.913 208.097 60.9853 208.057 61.0647 208.046C62.4857 207.856 67.1808 207.301 67.9516 208.148C67.9796 208.179 68.0012 208.215 68.0153 208.254C68.0293 208.293 68.0355 208.334 68.0336 208.376C68.0316 208.417 68.0214 208.458 68.0037 208.496C67.986 208.533 67.961 208.567 67.9302 208.595C67.8995 208.623 67.8635 208.645 67.8244 208.659C67.7852 208.673 67.7437 208.679 67.7022 208.677C67.6607 208.675 67.6199 208.665 67.5823 208.647C67.5447 208.63 67.511 208.605 67.483 208.574C67.1075 208.162 63.9037 208.305 61.1486 208.675L61.1059 208.678Z" fill="white"/>
<path d="M61.3765 207.02C61.2986 207.019 61.2238 206.99 61.1662 206.937C61.1086 206.885 61.0723 206.813 61.0642 206.736C61.0561 206.658 61.0768 206.58 61.1223 206.517C61.1677 206.454 61.2349 206.41 61.3109 206.393C62.1916 206.209 66.6349 205.352 67.6789 206.489C67.7131 206.518 67.7408 206.553 67.7602 206.593C67.7796 206.634 67.7903 206.678 67.7915 206.722C67.7927 206.767 67.7845 206.811 67.7672 206.852C67.75 206.894 67.7243 206.931 67.6917 206.961C67.6591 206.992 67.6203 207.015 67.5781 207.03C67.5358 207.044 67.491 207.049 67.4465 207.045C67.402 207.041 67.3589 207.028 67.32 207.006C67.2812 206.984 67.2474 206.954 67.221 206.918C66.5982 206.24 63.3501 206.612 61.4483 207.012C61.4247 207.018 61.4007 207.02 61.3765 207.02Z" fill="white"/>
<path d="M61.788 205.365C61.7077 205.365 61.6305 205.334 61.572 205.279C61.5134 205.224 61.4778 205.149 61.4724 205.069C61.467 204.989 61.4921 204.909 61.5428 204.847C61.5934 204.785 61.6658 204.744 61.7453 204.733C63.5555 204.492 66.6678 204.186 67.1852 204.853C67.2108 204.886 67.2296 204.924 67.2407 204.964C67.2518 205.004 67.2548 205.046 67.2497 205.087C67.2446 205.128 67.2315 205.168 67.211 205.204C67.1905 205.24 67.163 205.272 67.1303 205.298C67.0975 205.323 67.06 205.342 67.02 205.353C66.9799 205.364 66.9381 205.367 66.8968 205.362C66.8556 205.357 66.8157 205.344 66.7796 205.323C66.7434 205.303 66.7117 205.275 66.6861 205.243C66.3808 204.971 63.9234 205.09 61.8292 205.362L61.788 205.365Z" fill="white"/>
<path d="M61.9205 203.703C61.8403 203.703 61.763 203.673 61.7041 203.619C61.6452 203.565 61.6092 203.49 61.6034 203.41C61.5976 203.33 61.6224 203.251 61.6727 203.188C61.7231 203.126 61.7953 203.085 61.8747 203.074C62.8959 202.921 66.2844 202.486 67.0232 203.152C67.054 203.18 67.0791 203.213 67.097 203.251C67.1149 203.288 67.1252 203.329 67.1274 203.37C67.1296 203.412 67.1237 203.453 67.1098 203.492C67.096 203.531 67.0746 203.567 67.0468 203.598C67.0191 203.629 66.9855 203.654 66.948 203.672C66.9106 203.69 66.8699 203.7 66.8285 203.703C66.787 203.705 66.7456 203.699 66.7064 203.685C66.6673 203.671 66.6312 203.65 66.6004 203.622C66.2447 203.303 63.9185 203.414 61.9663 203.7C61.9512 203.702 61.9358 203.703 61.9205 203.703Z" fill="white"/>
<path d="M61.4609 202.047C61.3792 202.049 61.3001 202.018 61.2401 201.963C61.1801 201.907 61.1439 201.831 61.1392 201.749C61.1345 201.668 61.1615 201.588 61.2147 201.525C61.2678 201.463 61.3429 201.424 61.4242 201.417C63.0651 201.223 66.9512 200.844 67.5908 201.511C67.6227 201.541 67.6482 201.576 67.6658 201.616C67.6834 201.655 67.6927 201.698 67.6931 201.742C67.6935 201.785 67.685 201.828 67.6682 201.868C67.6513 201.908 67.6264 201.944 67.5951 201.974C67.5638 202.004 67.5266 202.027 67.4859 202.042C67.4453 202.057 67.4019 202.064 67.3586 202.062C67.3153 202.059 67.2729 202.048 67.2341 202.029C67.1953 202.009 67.1608 201.982 67.1329 201.949C66.7787 201.644 63.9275 201.758 61.499 202.045L61.4609 202.047Z" fill="white"/>
<path d="M66.1256 212.932C65.7942 212.946 65.4641 212.882 65.1621 212.745C64.8601 212.608 64.5945 212.401 64.3871 212.142C62.8103 210.17 64.0085 204.755 67.1727 199.547C67.1926 199.508 67.2203 199.474 67.254 199.447C67.2877 199.419 67.3267 199.399 67.3686 199.387C67.4105 199.375 67.4544 199.372 67.4975 199.378C67.5406 199.384 67.5821 199.398 67.6193 199.421C67.6565 199.443 67.6887 199.473 67.7139 199.509C67.739 199.544 67.7566 199.585 67.7656 199.627C67.7745 199.67 67.7746 199.714 67.7658 199.757C67.757 199.799 67.7396 199.84 67.7145 199.875C64.7793 204.705 63.5094 210.03 64.8816 211.747C65.3563 212.342 66.1561 212.457 67.2566 212.088C67.296 212.074 67.3376 212.069 67.3791 212.072C67.4205 212.075 67.461 212.086 67.4982 212.104C67.5354 212.123 67.5686 212.148 67.5959 212.18C67.6232 212.211 67.6441 212.247 67.6573 212.287C67.6705 212.326 67.6759 212.368 67.673 212.409C67.6702 212.451 67.6592 212.491 67.6407 212.528C67.6222 212.566 67.5965 212.599 67.5652 212.626C67.5339 212.653 67.4975 212.674 67.4581 212.687C67.03 212.84 66.58 212.923 66.1256 212.932Z" fill="white"/>
<path d="M69.296 215.714H60.2508C59.9776 215.714 59.7072 215.66 59.4549 215.555C59.2025 215.451 58.9733 215.297 58.7802 215.104C58.5872 214.911 58.4341 214.682 58.3297 214.429C58.2253 214.177 58.1717 213.906 58.1719 213.633V213.613H71.3749V213.633C71.3751 213.906 71.3215 214.177 71.2171 214.429C71.1127 214.682 70.9596 214.911 70.7666 215.104C70.5735 215.297 70.3443 215.451 70.0919 215.555C69.8396 215.66 69.5692 215.714 69.296 215.714Z" fill="#CCE3FF"/>
<path d="M62.9097 213.424C62.3906 213.425 61.8808 213.287 61.4337 213.023C59.4662 211.863 58.3627 208.255 61.1697 201.607C61.2039 201.532 61.2662 201.473 61.3433 201.443C61.4204 201.413 61.5061 201.414 61.5823 201.446C61.6585 201.478 61.7191 201.539 61.7513 201.615C61.7834 201.692 61.7844 201.777 61.7543 201.854C59.103 208.131 60.0981 211.5 61.7543 212.476C62.8227 213.105 64.1568 212.791 65.0039 211.713C66.5165 209.785 66.344 205.544 60.8827 199.934C60.8536 199.904 60.8308 199.869 60.8154 199.83C60.8001 199.791 60.7926 199.749 60.7933 199.708C60.794 199.666 60.8029 199.624 60.8196 199.586C60.8362 199.548 60.8603 199.513 60.8903 199.484C60.9204 199.455 60.9559 199.432 60.9948 199.417C61.0337 199.401 61.0752 199.394 61.117 199.395C61.1589 199.395 61.2001 199.404 61.2385 199.421C61.2768 199.438 61.3115 199.462 61.3406 199.492C63.9736 202.193 65.6144 204.779 66.225 207.178C66.7195 209.143 66.4692 210.894 65.5183 212.104C65.2128 212.508 64.819 212.837 64.3669 213.066C63.9148 213.295 63.4164 213.418 62.9097 213.424Z" fill="white"/>
<path d="M58.1719 213.611C64.7185 214.985 71.3749 213.611 71.3749 213.611C71.3749 213.611 70.7644 210.559 64.6192 210.559C58.5397 210.552 58.1719 213.611 58.1719 213.611Z" fill="white"/>
<path d="M67.5608 188.262L59.9824 188.526L60.7792 192.623C64.3997 191.635 67.3303 188.643 67.5608 188.262Z" fill="#CE5F49"/>
<path d="M102.117 189.404C104.23 191.517 113.177 188.296 113.177 185.446C104.147 150.919 84.7473 95.9648 84.7473 95.9648L52.799 105.799C52.799 105.799 50.0652 138.83 60.2598 189.94C66.9575 189.94 71.4435 184.714 71.4435 184.714C69.3539 160.982 69.6836 124.784 69.821 114.967C69.823 114.846 69.8665 114.729 69.9442 114.637C70.0219 114.544 70.129 114.481 70.2477 114.458C70.3663 114.435 70.4893 114.454 70.5958 114.511C70.7024 114.568 70.7861 114.66 70.833 114.771C76.0959 127.394 100.937 186.996 102.117 189.404Z" fill="#0B61DD"/>
<path d="M59.1808 190.262C62.1572 191.941 70.2592 187.372 71.8039 184.575L71.0911 178.121C70.0745 178.32 61.6276 185.921 58.0742 184.532C58.0742 184.53 58.7992 188.32 59.1808 190.262Z" fill="#84B8FF"/>
<path d="M101.959 192.804C105.187 193.923 113.89 189.942 114.311 185.827L112.095 179.535C111.834 183.612 103.593 188.095 99.8477 187.361C99.8477 187.361 101.232 190.963 101.959 192.804Z" fill="#84B8FF"/>
<path d="M104.98 187.205C104.918 187.205 104.858 187.187 104.806 187.153C104.755 187.118 104.714 187.07 104.69 187.013C104.464 186.488 82.042 134.319 71.8 114.761C71.7807 114.724 71.7688 114.684 71.765 114.642C71.7612 114.601 71.7656 114.559 71.7779 114.519C71.7903 114.48 71.8103 114.443 71.8369 114.411C71.8634 114.379 71.8961 114.353 71.9328 114.333C71.9696 114.314 72.0098 114.302 72.0512 114.298C72.0926 114.294 72.1343 114.299 72.174 114.311C72.2137 114.323 72.2506 114.343 72.2825 114.37C72.3145 114.397 72.3409 114.429 72.3602 114.466C82.6097 134.046 105.047 186.237 105.272 186.762C105.305 186.84 105.306 186.927 105.275 187.005C105.244 187.083 105.183 187.146 105.105 187.179C105.066 187.196 105.023 187.205 104.98 187.205Z" fill="#84B8FF"/>
<path d="M70.9322 180.93C70.8567 180.928 70.7843 180.899 70.7283 180.849C70.6723 180.798 70.6364 180.729 70.6269 180.654C68.9021 167.654 67.9023 115.149 67.8916 114.619C67.8904 114.536 67.9216 114.456 67.9787 114.396C68.0357 114.336 68.114 114.3 68.1969 114.297C68.2789 114.297 68.3577 114.329 68.4166 114.386C68.4756 114.443 68.5101 114.52 68.5129 114.602C68.522 115.132 69.5218 167.602 71.242 180.567C71.2529 180.65 71.2304 180.734 71.1795 180.801C71.1286 180.868 71.0534 180.911 70.9703 180.923L70.9322 180.93Z" fill="#84B8FF"/>
<path d="M54.5859 151.992C62.6314 151.992 63.9471 151.545 66.1436 151.337C64.0036 146.963 57.4708 144.701 54.5859 151.992Z" fill="#FFAD94"/>
<path d="M65.4567 151.412C65.6826 151.385 65.9146 151.36 66.1436 151.337C64.0067 146.963 57.4708 144.701 54.5859 151.992H55.1431C57.9394 146.749 63.0191 148.074 65.4567 151.412Z" fill="#CE5F49"/>
<path d="M54.5858 152.316H54.5308C54.4481 152.301 54.3746 152.254 54.3266 152.185C54.2785 152.116 54.2597 152.03 54.2744 151.948C54.746 149.266 56.5014 147.401 59.0886 146.833C62.21 146.148 65.7344 147.462 67.4668 149.957C67.4935 149.991 67.513 150.03 67.5241 150.072C67.5352 150.114 67.5376 150.158 67.5312 150.201C67.5248 150.243 67.5098 150.284 67.4869 150.321C67.4641 150.358 67.434 150.39 67.3984 150.414C67.3629 150.439 67.3227 150.456 67.2803 150.465C67.2379 150.473 67.1941 150.473 67.1518 150.464C67.1095 150.455 67.0694 150.438 67.034 150.413C66.9987 150.388 66.9688 150.356 66.9463 150.319C65.3802 148.062 62.0619 146.83 59.2244 147.453C57.8507 147.758 55.4802 148.748 54.8972 152.058C54.8836 152.13 54.845 152.196 54.7881 152.243C54.7312 152.29 54.6597 152.316 54.5858 152.316Z" fill="#84B8FF"/>
<path d="M54.6108 151.673C54.8581 151.696 55.0778 151.711 55.3175 151.717C55.5571 151.724 55.7922 151.73 56.0303 151.73C56.5096 151.73 56.9889 151.721 57.4697 151.705C58.4297 151.675 59.3929 151.626 60.3545 151.568C62.2777 151.45 64.2024 151.301 66.1226 151.13C66.1495 151.127 66.1766 151.13 66.2024 151.138C66.2282 151.146 66.2521 151.159 66.2728 151.176C66.2935 151.194 66.3106 151.215 66.3231 151.239C66.3356 151.263 66.3432 151.289 66.3455 151.316C66.3496 151.364 66.3365 151.413 66.3086 151.452C66.2807 151.492 66.2397 151.52 66.1928 151.533C64.4863 152.029 62.7885 152.557 61.0993 153.117C60.2553 153.398 59.4203 153.691 58.5854 154.005C58.1718 154.158 57.7581 154.326 57.3521 154.502C56.9462 154.671 56.5525 154.867 56.1738 155.091C56.0838 155.147 55.998 155.21 55.9173 155.278C55.8808 155.31 55.8475 155.344 55.8181 155.382C55.8059 155.399 55.7937 155.423 55.7907 155.428L55.7784 155.468C55.7784 155.481 55.7784 155.486 55.7784 155.495C55.7737 155.587 55.7948 155.678 55.8395 155.758C55.8884 155.85 55.9478 155.936 56.0166 156.014C56.3128 156.334 56.6605 156.603 57.0453 156.808C57.4298 157.024 57.8341 157.202 58.2527 157.341C58.6715 157.481 59.1021 157.583 59.5394 157.646C60.4175 157.78 61.3141 157.728 62.1709 157.493C62.5963 157.371 63.0061 157.2 63.3919 156.983C63.7794 156.765 64.1413 156.504 64.4711 156.205C64.1455 156.511 63.7872 156.779 63.4026 157.006C63.0181 157.233 62.6082 157.413 62.1816 157.544C61.3197 157.799 60.4138 157.87 59.5226 157.753C59.0774 157.697 58.638 157.602 58.2099 157.467C57.7795 157.335 57.3629 157.161 56.966 156.948C56.5597 156.741 56.1913 156.466 55.8761 156.136C55.7966 156.048 55.7274 155.952 55.6701 155.848C55.6036 155.733 55.5738 155.601 55.5846 155.469C55.5883 155.437 55.5955 155.405 55.606 155.375C55.618 155.338 55.6361 155.304 55.6594 155.274C55.6959 155.223 55.7378 155.176 55.7845 155.133C55.872 155.056 55.9654 154.986 56.0639 154.923C56.4467 154.685 56.8461 154.475 57.259 154.294C57.6666 154.108 58.0787 153.935 58.4938 153.769C59.3227 153.436 60.1591 153.128 60.9986 152.829C62.6807 152.232 64.3729 151.673 66.0753 151.15L66.1562 151.553C64.233 151.761 62.3082 151.944 60.382 152.102C59.4173 152.178 58.4526 152.255 57.4819 152.296C56.998 152.32 56.5126 152.339 56.0257 152.348C55.7815 152.348 55.5373 152.348 55.2915 152.348C55.0458 152.348 54.7848 152.333 54.5513 152.316C54.5079 152.315 54.465 152.306 54.4254 152.288C54.3858 152.271 54.3502 152.245 54.3209 152.213C54.2915 152.181 54.269 152.143 54.2548 152.102C54.2406 152.061 54.235 152.018 54.2382 151.975C54.2414 151.931 54.2535 151.889 54.2737 151.851C54.2938 151.812 54.3217 151.778 54.3554 151.751C54.3892 151.724 54.4282 151.704 54.47 151.692C54.5118 151.681 54.5556 151.678 54.5986 151.684L54.6108 151.673Z" fill="#84B8FF"/>
<path d="M61.5468 63.3564L60.6966 64.6004L59.7808 65.9558C59.4328 66.4809 59.0329 67.0899 58.6055 67.7523L57.943 68.7903L57.2424 69.9091C56.7662 70.6723 56.264 71.4935 55.7558 72.3513C55.2475 73.2091 54.7255 74.0852 54.2065 74.9888C53.6875 75.8924 53.1655 76.8205 52.6526 77.7455C52.1398 78.6704 51.6376 79.6107 51.1446 80.5326C50.6516 81.4545 50.1754 82.3642 49.7236 83.2572C48.8077 85.0308 48.0018 86.7037 47.3226 88.1415C46.6434 89.5794 46.1015 90.7837 45.7336 91.6201L45.1872 92.8885L45.1216 93.0412C44.5813 94.2946 43.5652 95.2822 42.2969 95.7865C41.0285 96.2909 39.6118 96.2708 38.3582 95.7306C35.881 94.6622 35.249 88.2178 35.4169 87.7386C38.8696 78.5407 46.161 57.0067 52.7045 53.7006C52.7045 53.7006 56.5739 52.5513 59.5732 54.3554C60.2868 54.7844 60.9088 55.3498 61.4038 56.0192C61.8989 56.6887 62.2571 57.4491 62.4581 58.2571C62.6591 59.0651 62.6989 59.9047 62.5753 60.7281C62.4517 61.5515 62.167 62.3424 61.7376 63.0557C61.678 63.1488 61.6048 63.2618 61.5468 63.3564Z" fill="#E27960"/>
<path d="M54.5865 152.315C54.5449 152.315 54.5036 152.307 54.4652 152.291C54.4268 152.275 54.3919 152.251 54.3625 152.222C54.3332 152.192 54.3099 152.157 54.2941 152.119C54.2783 152.08 54.2703 152.039 54.2705 151.997C54.2705 151.938 54.3361 146.009 60.1089 145.229C60.192 145.218 60.2763 145.241 60.343 145.292C60.4097 145.343 60.4534 145.418 60.4645 145.501C60.4756 145.584 60.4533 145.668 60.4023 145.735C60.3514 145.802 60.276 145.846 60.1928 145.857C58.001 146.153 56.4456 147.273 55.5694 149.184C55.1695 150.071 54.9435 151.026 54.904 151.997C54.904 152.039 54.8957 152.08 54.8798 152.119C54.8638 152.157 54.8404 152.192 54.811 152.222C54.7815 152.251 54.7465 152.275 54.708 152.291C54.6694 152.307 54.6282 152.315 54.5865 152.315Z" fill="#84B8FF"/>
<path d="M59.9973 51.5312L78.6419 52.2166C85.773 56.4904 81.7068 70.42 82.8165 73.4773C80.881 74.358 60.9696 78.2396 52.7959 72.3692C52.7959 72.3692 53.7407 57.1757 52.6982 53.6956C54.9832 52.3021 57.5567 51.9953 59.9973 51.5312Z" fill="white"/>
<path d="M72.0782 114.932H68.2013C68.1171 114.932 68.0363 114.899 67.9768 114.839C67.9172 114.78 67.8838 114.699 67.8838 114.615V105.073C67.8894 104.993 67.9252 104.918 67.9839 104.863C68.0427 104.808 68.1201 104.778 68.2005 104.778C68.2809 104.778 68.3583 104.808 68.4171 104.863C68.4759 104.918 68.5117 104.993 68.5172 105.073V114.299H71.7226L70.616 105.111C70.6118 105.031 70.6382 104.952 70.69 104.891C70.7417 104.829 70.8149 104.789 70.8948 104.78C70.9746 104.77 71.0552 104.791 71.1202 104.838C71.1851 104.886 71.2297 104.956 71.2448 105.035L72.3942 114.578C72.3993 114.622 72.3951 114.667 72.3816 114.71C72.3682 114.753 72.3459 114.792 72.3162 114.825C72.2865 114.859 72.2501 114.886 72.2094 114.904C72.1686 114.922 72.1245 114.932 72.0798 114.932H72.0782Z" fill="#84B8FF"/>
<path d="M52.4678 116.977C60.7101 116.977 72.5959 105.587 78.303 102.485C78.303 102.485 76.215 99.6035 68.7556 100.889L52.802 105.801C52.802 105.801 52.4769 109.731 52.4678 116.977Z" fill="#2E353D"/>
<path d="M83.6647 104.755H74.6149C74.5714 104.758 74.5278 104.752 74.4868 104.738C74.4458 104.723 74.4081 104.7 74.3763 104.671C74.3445 104.641 74.3191 104.605 74.3017 104.565C74.2843 104.525 74.2754 104.482 74.2754 104.439C74.2754 104.395 74.2843 104.352 74.3017 104.312C74.3191 104.272 74.3445 104.236 74.3763 104.206C74.4081 104.177 74.4458 104.154 74.4868 104.139C74.5278 104.125 74.5714 104.119 74.6149 104.122H83.6647C83.7449 104.127 83.82 104.163 83.8748 104.222C83.9297 104.281 83.9602 104.358 83.9602 104.439C83.9602 104.519 83.9297 104.596 83.8748 104.655C83.82 104.714 83.7449 104.75 83.6647 104.755Z" fill="#84B8FF"/>
<path d="M50.9121 113.394C60.0123 117.274 85.4828 95.5981 89.4223 97.558C86.017 87.7389 82.8223 73.4857 82.8223 73.4857C72.0813 75.7035 58.2707 66.9086 52.8017 72.3775C50.8617 76.8055 51.8814 98.1059 50.9121 113.394Z" fill="#FA6142"/>
<path d="M79.3071 75.8196C75.4424 75.8196 71.341 74.9038 67.3404 74.0154C61.235 72.6539 55.4653 71.3702 52.6003 74.2352C52.5396 74.2882 52.461 74.316 52.3806 74.3132C52.3001 74.3104 52.2237 74.2771 52.1668 74.22C52.11 74.163 52.0769 74.0864 52.0744 74.006C52.0718 73.9255 52.1 73.847 52.1531 73.7865C55.2638 70.6758 61.1968 71.9976 67.4778 73.3957C72.8201 74.5848 78.3333 75.815 83.1398 74.8229C83.222 74.8059 83.3076 74.8222 83.3777 74.8683C83.4478 74.9144 83.4968 74.9864 83.5138 75.0686C83.5308 75.1508 83.5145 75.2364 83.4684 75.3065C83.4223 75.3766 83.3502 75.4256 83.268 75.4426C81.9639 75.7022 80.6368 75.8285 79.3071 75.8196Z" fill="white"/>
<path d="M100.975 144.332C100.975 144.332 95.2607 150.479 95.2607 151.506C95.2607 152.533 102.119 147.93 102.119 147.93L100.975 144.332Z" fill="#FFAD94"/>
<path d="M101.415 145.715L100.975 144.332C100.975 144.332 95.2607 150.479 95.2607 151.506C95.2607 151.811 95.9003 151.607 96.7871 151.161C98.0525 149.415 100.528 146.683 101.415 145.715Z" fill="#CE5F49"/>
<path d="M95.4421 151.976C95.35 151.977 95.2592 151.954 95.1796 151.907C95.1066 151.868 95.046 151.81 95.0045 151.738C94.9629 151.667 94.9422 151.585 94.9445 151.503C94.9445 150.434 99.3313 145.617 100.676 144.164C100.734 144.107 100.812 144.075 100.893 144.074C100.974 144.073 101.053 144.103 101.113 144.159C101.172 144.214 101.209 144.29 101.214 144.371C101.219 144.452 101.193 144.532 101.142 144.594C98.6444 147.291 96.0542 150.373 95.6359 151.31C96.5182 151.077 99.4213 149.337 101.876 147.681C101.945 147.634 102.031 147.616 102.113 147.632C102.196 147.648 102.268 147.696 102.315 147.766C102.362 147.836 102.38 147.921 102.364 148.004C102.348 148.086 102.299 148.159 102.23 148.206C102.215 148.215 100.703 149.236 99.1206 150.19C96.6663 151.689 95.8115 151.976 95.4421 151.976Z" fill="#84B8FF"/>
<path d="M101.487 148.697L101.364 148.773C101.285 148.823 101.181 148.891 101.041 148.988C100.66 149.258 100.302 149.559 99.9724 149.889C99.7525 150.109 99.5485 150.344 99.3618 150.593C99.1548 150.865 98.9811 151.161 98.8444 151.475C98.6983 151.798 98.6303 152.151 98.646 152.505C98.6593 152.683 98.7016 152.857 98.7711 153.021L98.7986 153.084L98.8093 153.108L98.8184 153.123C98.837 153.149 98.8591 153.171 98.8841 153.19C98.9528 153.24 99.0277 153.28 99.1069 153.309C99.4726 153.433 99.8509 153.516 100.235 153.557C100.621 153.609 100.998 153.644 101.378 153.677C101.758 153.711 102.114 153.738 102.456 153.775C102.783 153.799 103.107 153.858 103.422 153.952C103.46 153.967 103.496 153.986 103.53 154.009C103.571 154.034 103.601 154.074 103.614 154.12C103.618 154.144 103.617 154.168 103.611 154.191C103.605 154.214 103.593 154.236 103.578 154.254C103.554 154.284 103.528 154.311 103.498 154.335C103.391 154.414 103.276 154.48 103.155 154.534C102.934 154.637 102.734 154.711 102.569 154.772C102.241 154.891 102.05 154.95 102.05 154.95C102.05 154.95 102.237 154.882 102.56 154.746C102.712 154.677 102.915 154.593 103.129 154.48C103.242 154.424 103.349 154.355 103.446 154.274C103.494 154.234 103.541 154.175 103.527 154.14C103.514 154.105 103.451 154.068 103.387 154.047C103.078 153.971 102.762 153.93 102.444 153.925C102.103 153.905 101.741 153.894 101.366 153.88C100.99 153.867 100.603 153.85 100.206 153.816C99.7965 153.793 99.3909 153.724 98.997 153.61C98.8886 153.574 98.7858 153.522 98.6917 153.458C98.6335 153.419 98.582 153.372 98.5391 153.317L98.5208 153.291L98.5101 153.274C98.4964 153.251 98.4964 153.247 98.4887 153.233L98.4506 153.16C98.3551 152.963 98.2932 152.751 98.2674 152.534C98.2269 152.119 98.285 151.701 98.4368 151.313C98.5713 150.958 98.7471 150.621 98.9604 150.307C99.1494 150.03 99.3569 149.767 99.5816 149.518C99.9168 149.147 100.284 148.806 100.678 148.498C100.819 148.388 100.942 148.3 101.018 148.247L101.137 148.166C101.171 148.142 101.21 148.125 101.25 148.117C101.291 148.108 101.333 148.107 101.374 148.114C101.415 148.122 101.454 148.137 101.489 148.16C101.524 148.182 101.554 148.212 101.577 148.246C101.601 148.28 101.618 148.318 101.626 148.359C101.635 148.4 101.636 148.442 101.628 148.483C101.621 148.523 101.606 148.562 101.583 148.597C101.561 148.632 101.531 148.662 101.497 148.686L101.487 148.697Z" fill="#84B8FF"/>
<path d="M95.0506 147.722C94.9966 147.722 94.9434 147.708 94.8961 147.682C94.8489 147.656 94.8091 147.618 94.7805 147.572C94.7519 147.527 94.7355 147.474 94.7328 147.42C94.7301 147.366 94.7413 147.312 94.7652 147.264C95.8504 145.039 100.037 142.557 100.216 142.451C100.288 142.415 100.371 142.408 100.448 142.431C100.525 142.454 100.591 142.505 100.631 142.575C100.672 142.644 100.685 142.727 100.667 142.805C100.65 142.884 100.603 142.952 100.536 142.998C100.495 143.022 96.3373 145.487 95.336 147.542C95.31 147.595 95.2695 147.641 95.2191 147.673C95.1686 147.705 95.1102 147.722 95.0506 147.722Z" fill="#84B8FF"/>
<path d="M78.3033 114.931H72.0787C72.0353 114.934 71.9917 114.928 71.9507 114.914C71.9096 114.899 71.872 114.876 71.8402 114.847C71.8083 114.817 71.7829 114.781 71.7656 114.741C71.7482 114.701 71.7393 114.658 71.7393 114.614C71.7393 114.571 71.7482 114.528 71.7656 114.488C71.7829 114.448 71.8083 114.412 71.8402 114.382C71.872 114.353 71.9096 114.33 71.9507 114.315C71.9917 114.301 72.0353 114.295 72.0787 114.298H78.3002C78.3436 114.295 78.3872 114.301 78.4283 114.315C78.4693 114.33 78.5069 114.353 78.5388 114.382C78.5706 114.412 78.596 114.448 78.6134 114.488C78.6307 114.528 78.6397 114.571 78.6397 114.614C78.6397 114.658 78.6307 114.701 78.6134 114.741C78.596 114.781 78.5706 114.817 78.5388 114.847C78.5069 114.876 78.4693 114.899 78.4283 114.914C78.3872 114.928 78.3436 114.934 78.3002 114.931H78.3033Z" fill="#84B8FF"/>
<path d="M66.1437 125C66.1223 125.003 66.1008 125.003 66.0795 125C66.0388 124.992 66.0002 124.976 65.9657 124.952C65.9313 124.929 65.9019 124.899 65.8791 124.864C65.8562 124.83 65.8405 124.791 65.8327 124.75C65.8249 124.709 65.8253 124.667 65.8338 124.626L67.8898 114.552C67.8961 114.51 67.911 114.469 67.9337 114.432C67.9564 114.395 67.9863 114.364 68.0216 114.339C68.0569 114.314 68.0969 114.297 68.1392 114.288C68.1814 114.279 68.225 114.279 68.2673 114.288C68.3096 114.296 68.3497 114.313 68.3851 114.338C68.4206 114.363 68.4506 114.394 68.4734 114.431C68.4962 114.468 68.5113 114.508 68.5178 114.551C68.5243 114.594 68.522 114.637 68.511 114.679L66.4535 124.753C66.4378 124.823 66.3985 124.886 66.3422 124.931C66.2858 124.976 66.2158 125.001 66.1437 125Z" fill="#84B8FF"/>
<path d="M75.0177 50.3945C78.6306 53.2473 74.3125 57.6646 73.8272 59.2246C71.4262 57.0876 70.144 52.1544 75.0177 50.3945Z" fill="#D83A21"/>
<path d="M63.6577 49.2852C65.8953 51.1458 68.4367 49.7858 68.4367 49.7858L63.302 55.0304C63.302 55.0304 61.2842 49.8133 63.6577 49.2852Z" fill="#D83A21"/>
<path d="M69.0213 67.7453C69.2666 67.7453 69.4655 67.5382 69.4655 67.2828C69.4655 67.0274 69.2666 66.8203 69.0213 66.8203C68.776 66.8203 68.5771 67.0274 68.5771 67.2828C68.5771 67.5382 68.776 67.7453 69.0213 67.7453Z" fill="#FA6142"/>
<path d="M67.8319 64.3937C68.0772 64.3937 68.276 64.1867 68.276 63.9312C68.276 63.6758 68.0772 63.4688 67.8319 63.4688C67.5866 63.4688 67.3877 63.6758 67.3877 63.9312C67.3877 64.1867 67.5866 64.3937 67.8319 64.3937Z" fill="#FA6142"/>
<path d="M66.3407 61.5656C66.586 61.5656 66.7848 61.3585 66.7848 61.1031C66.7848 60.8477 66.586 60.6406 66.3407 60.6406C66.0954 60.6406 65.8965 60.8477 65.8965 61.1031C65.8965 61.3585 66.0954 61.5656 66.3407 61.5656Z" fill="#FA6142"/>
<path d="M63.7139 41.7969C64.6053 45.2953 63.4086 53.7422 64.4923 57.0682C73.7864 62.6455 76.575 57.0682 76.575 57.0682C76.575 57.0682 74.5038 53.8628 74.2977 49.0608C74.1008 44.4604 63.7139 41.7969 63.7139 41.7969Z" fill="#FFAD94"/>
<path d="M74.9223 53.064C74.5665 51.7562 74.3571 50.4129 74.298 49.0588C74.1011 44.4584 63.7783 41.9414 63.7783 41.9414C64.8834 45.8871 68.623 52.6336 74.9223 53.064Z" fill="#CE5F49"/>
<path d="M78.9879 37.256C81.4301 35.5159 83.2709 30.082 79.0413 27.0583C75.0041 24.2422 67.0304 18.5214 64.9316 24.6848L78.9879 37.256Z" fill="#2E353D"/>
<path d="M63.1869 40.2907C63.3502 41.1027 64.5164 43.8837 65.568 44.9949C66.519 45.9993 69.2603 49.5374 73.8837 49.1253C77.5363 48.7986 78.5986 42.3726 78.8123 39.8892C78.9817 37.905 79.4763 31.4942 78.1224 28.7269C76.7685 25.9596 64.9316 24.6836 64.9316 24.6836C59.7495 28.7269 63.1869 40.2907 63.1869 40.2907Z" fill="#FFAD94"/>
<path d="M78.1227 28.7281C78.7027 29.9141 78.9423 31.764 79.0156 33.6506C78.5455 33.901 76.2681 34.4276 73.8092 33.6766C69.8238 32.4555 68.7081 29.1936 67.1191 28.8212C67.1191 28.8212 66.0598 25.6158 67.5114 25.0312C71.0755 25.5792 77.1748 26.785 78.1227 28.7281Z" fill="#CE5F49"/>
<path d="M62.2793 35.7207C61.8214 32.0239 59.7623 30.554 64.9321 24.6836C64.9321 24.6836 75.9601 25.9871 75.9601 26.7595C75.9601 26.7595 80.5071 29.3802 82.7967 29.1345C81.6427 31.7476 78.8373 34.0692 74.1132 32.7764C70.5232 31.7949 68.052 27.7516 65.8204 29.0536C67.8444 32.5001 64.1094 37.4486 64.1094 37.4486L62.2793 35.7207Z" fill="#2E353D"/>
<path d="M76.5349 23.842C75.7718 23.0117 73.5753 20.6229 69.5137 21.0259C60.3768 21.9417 61.1873 30.3733 61.1873 30.3733L76.5349 23.842Z" fill="#FA6142"/>
<path d="M75.9035 23.2148C76.1249 23.4123 76.3358 23.6212 76.5354 23.8406L61.1924 30.372C61.1924 30.372 66.8628 23.4163 75.9035 23.2148Z" fill="#D83A21"/>
<path d="M67.1237 28.2326L67.1787 28.341C67.2046 28.3944 67.2397 28.4677 67.2703 28.541C67.3008 28.6142 67.3191 28.6661 67.3466 28.7409C67.4519 29.0325 67.5756 29.4202 67.7328 29.875C67.89 30.3299 68.0808 30.8534 68.325 31.4014C68.4441 31.6731 68.5814 31.9448 68.7264 32.2195C68.8714 32.4943 69.0317 32.7629 69.2118 33.0209C69.3853 33.2798 69.5754 33.527 69.7811 33.7611C69.8849 33.8756 69.9857 33.9916 70.0971 34.0939C70.2022 34.2013 70.3127 34.3032 70.4283 34.3992C70.5367 34.4984 70.6588 34.5762 70.7717 34.6648C70.8847 34.7533 71.0068 34.8174 71.1228 34.8891C71.2388 34.9609 71.3579 35.0189 71.4739 35.0738C71.5899 35.1288 71.7059 35.1761 71.8173 35.2188L72.1455 35.3287L72.4507 35.4035C72.6415 35.4508 72.814 35.4646 72.956 35.4905L73.4047 35.521L72.9468 35.5577C72.8033 35.5577 72.6263 35.5668 72.4233 35.5485L72.0997 35.5195L71.7441 35.4569C71.6204 35.431 71.4937 35.3928 71.3609 35.3592C71.2281 35.3257 71.0984 35.2692 70.9595 35.2203C70.8206 35.1715 70.6863 35.1043 70.5474 35.0372C70.4085 34.97 70.2665 34.8968 70.1337 34.8082C70.0009 34.7197 69.8575 34.6358 69.7247 34.5365C69.5919 34.4373 69.4591 34.3351 69.3278 34.2313C69.0665 34.0114 68.8197 33.7749 68.5891 33.523C67.6503 32.5126 66.9711 31.3129 66.5025 30.423C66.269 29.9773 66.0858 29.6064 65.9576 29.3728L65.8752 29.2202C65.8569 29.1927 65.8477 29.1821 65.8385 29.1668L65.7729 29.0752L65.7638 29.0615C65.6957 28.9771 65.6457 28.8797 65.6167 28.7752C65.5878 28.6708 65.5805 28.5615 65.5954 28.4541C65.6103 28.3468 65.6471 28.2436 65.7034 28.151C65.7597 28.0583 65.8344 27.9782 65.9228 27.9156C66.0113 27.8529 66.1116 27.809 66.2177 27.7866C66.3237 27.7643 66.4332 27.7638 66.5395 27.7854C66.6457 27.8069 66.7464 27.85 66.8353 27.912C66.9243 27.9739 66.9995 28.0535 67.0566 28.1456C67.0812 28.1729 67.1037 28.2019 67.1237 28.2326Z" fill="#2E353D"/>
<path d="M79.0418 27.0595C78.3503 26.4414 62.2304 29.2041 61.6137 35.3019C59.7821 33.5893 60.0614 31.054 62.0289 29.5506C66.3912 26.217 75.38 23.2635 77.436 24.0007C79.3485 24.686 79.0418 27.0595 79.0418 27.0595Z" fill="#FA6142"/>
<path d="M66.0311 28.8914C65.0692 29.3086 64.1427 29.8033 63.2607 30.3704V28.6914C64.1404 28.0998 65.0669 27.5812 66.0311 27.1406V28.8914Z" fill="#FCD738"/>
<path d="M76.0131 41.3088C75.9063 41.3578 75.7967 41.4006 75.6849 41.437C75.4372 41.523 75.1815 41.5843 74.9217 41.6202C74.7775 41.6396 74.6322 41.6493 74.4867 41.6492C74.4186 41.653 74.3503 41.653 74.2822 41.6492C74.2165 41.6492 74.154 41.6415 74.0975 41.6324L73.9449 41.6079L73.8228 41.5789L73.7159 41.553C73.6717 41.5417 73.6305 41.5212 73.5949 41.4927C73.5593 41.4642 73.5302 41.4285 73.5095 41.3879C73.4888 41.3473 73.4771 41.3027 73.475 41.2572C73.4728 41.2117 73.4805 41.1662 73.4973 41.1239C73.5142 41.0816 73.5399 41.0433 73.5727 41.0117C73.6055 40.98 73.6447 40.9558 73.6876 40.9405C73.7305 40.9252 73.7762 40.9192 73.8216 40.923C73.867 40.9267 73.9111 40.9401 73.951 40.9623L73.9662 40.9715L74.0395 41.0127L74.1235 41.0615L74.2395 41.1149C74.2855 41.1369 74.3329 41.1558 74.3814 41.1714C74.4358 41.1929 74.4913 41.2112 74.5478 41.2264C74.6724 41.2628 74.7994 41.2904 74.9278 41.3088C75.1758 41.346 75.4268 41.3587 75.6773 41.3469C75.7898 41.3401 75.9019 41.3273 76.0131 41.3088Z" fill="#E27960"/>
<path d="M65.4697 57.7812C65.4697 57.7812 68.643 61.388 70.5693 67.0188C72.1723 64.4139 73.4852 61.6413 74.4844 58.7505L65.4697 57.7812Z" fill="#FFAD94"/>
<path d="M66.8185 58.3013L66.7406 59.4537C66.3575 58.9012 66.0339 58.4753 65.8096 58.1914L66.8185 58.3013Z" fill="#D83A21"/>
<path d="M73.7818 60.6413L73.7695 59.5469L74.1923 59.5835C74.0855 59.872 73.9481 60.2292 73.7818 60.6413Z" fill="#D83A21"/>
<path d="M64.4263 40.7812L63.4434 41.1155C63.5349 41.3658 63.6494 41.6482 63.7776 41.9443C64.1226 41.7398 64.4095 41.0087 64.4263 40.7812Z" fill="#CE5F49"/>
<path d="M64.7988 37.0241C64.7988 37.0241 63.7029 33.9256 62.0514 34.0798C58.0828 34.4476 60.6334 40.5088 62.8558 41.1194C63.5671 41.3163 64.112 40.7943 64.112 40.7943L64.7988 37.0241Z" fill="#E27960"/>
<path d="M63.7933 37.3377C63.1828 36.257 62.2807 36.3623 62.067 37.066C61.7923 37.9665 63.0683 40.0973 64.2543 39.3922L63.7933 37.3377Z" fill="#CE5F49"/>
<path d="M62.8529 41.1195C61.9462 40.8707 60.9846 39.7167 60.4336 38.4102C61.6028 41.0615 63.7092 40.2418 64.2953 39.8404L64.425 40.7562C64.425 40.7562 63.5642 41.3164 62.8529 41.1195Z" fill="#FFAD94"/>
<path d="M63.0577 42.0158C63.4202 42.0158 63.714 41.7219 63.714 41.3595C63.714 40.997 63.4202 40.7031 63.0577 40.7031C62.6952 40.7031 62.4014 40.997 62.4014 41.3595C62.4014 41.7219 62.6952 42.0158 63.0577 42.0158Z" fill="#FCD738"/>
<path d="M62.2306 34.9837C61.5407 34.6646 60.5165 34.9028 60.1318 35.379C60.3928 34.6814 60.9851 34.0053 62.1161 33.9961C63.7783 33.9961 64.8071 37.0244 64.8071 37.0244L64.3034 39.8405C64.0592 38.479 63.6272 35.6293 62.2306 34.9837Z" fill="#FFAD94"/>
<path d="M66.5664 34.838H73.3938C73.3938 34.838 73.6594 33.1208 71.4096 33.0231C69.1597 32.9255 66.5664 34.838 66.5664 34.838Z" fill="#2E353D"/>
<path d="M75.7412 34.7088H79.0641C79.0641 34.7088 78.5513 33.4297 77.1501 33.4297C75.5321 33.4297 75.7412 34.7088 75.7412 34.7088Z" fill="#2E353D"/>
<path d="M81.9522 100.085C81.9106 100.085 81.8693 100.076 81.8308 100.06C81.7922 100.045 81.7572 100.021 81.7278 99.9917C81.6983 99.9622 81.6749 99.9272 81.6589 99.8887C81.643 99.8501 81.6348 99.8089 81.6348 99.7672V98.2408C81.6403 98.1606 81.6761 98.0855 81.7349 98.0307C81.7937 97.9758 81.8711 97.9453 81.9515 97.9453C82.0319 97.9453 82.1093 97.9758 82.1681 98.0307C82.2268 98.0855 82.2626 98.1606 82.2682 98.2408V99.7672C82.2682 99.8511 82.235 99.9316 82.1758 99.9911C82.1165 100.051 82.0362 100.084 81.9522 100.085Z" fill="#3984FF"/>
<path d="M64.8264 92.4311C64.7537 92.4311 64.6832 92.4064 64.6265 92.3608C59.6291 88.3175 56.9855 83.2927 56.5459 76.9965C56.1658 71.5458 57.4907 65.9013 58.6614 60.9223C59.4078 57.7398 60.1145 54.7344 60.3023 52.132C60.3025 52.0885 60.3117 52.0456 60.3292 52.0058C60.3468 51.966 60.3723 51.9303 60.4042 51.9008C60.4361 51.8713 60.4738 51.8486 60.5148 51.8343C60.5558 51.8199 60.5993 51.8141 60.6427 51.8172C60.686 51.8204 60.7283 51.8324 60.7668 51.8525C60.8053 51.8727 60.8393 51.9005 60.8666 51.9343C60.894 51.9681 60.914 52.0071 60.9257 52.049C60.9373 52.0909 60.9402 52.1347 60.9342 52.1778C60.7419 54.8306 60.0306 57.8604 59.2781 61.0673C56.8588 71.3688 54.1159 83.047 65.0248 91.8694C65.0756 91.9104 65.1125 91.9662 65.1303 92.0291C65.1481 92.0919 65.1459 92.1588 65.1242 92.2204C65.1024 92.2819 65.0621 92.3353 65.0088 92.373C64.9554 92.4108 64.8917 92.431 64.8264 92.4311Z" fill="#84B8FF"/>
<path d="M66.0251 96.6313C66.8249 96.5046 67.4126 96.0208 67.3378 95.5415C67.263 95.0622 66.5517 94.7859 65.7519 94.9141C64.9521 95.0424 65.2253 96.7534 66.0251 96.6313Z" fill="#2E353D"/>
<path d="M64.8377 96.3562C64.7264 96.3562 64.6196 96.312 64.5409 96.2333C64.4622 96.1546 64.4179 96.0478 64.4179 95.9365L64.4072 92.1206C64.4068 92.0654 64.4173 92.0107 64.4382 91.9596C64.459 91.9085 64.4898 91.862 64.5286 91.8229C64.5675 91.7837 64.6138 91.7526 64.6647 91.7314C64.7156 91.7102 64.7703 91.6993 64.8255 91.6993C64.8808 91.6983 64.9358 91.7084 64.9872 91.729C65.0385 91.7496 65.0853 91.7803 65.1245 91.8193C65.1638 91.8583 65.1949 91.9048 65.2159 91.956C65.2369 92.0072 65.2474 92.0622 65.2467 92.1175L65.2574 95.9334C65.2576 95.9885 65.247 96.0432 65.2261 96.0942C65.2051 96.1452 65.1744 96.1916 65.1356 96.2307C65.0967 96.2698 65.0506 96.3009 64.9997 96.3222C64.9489 96.3435 64.8943 96.3545 64.8392 96.3547L64.8377 96.3562Z" fill="#84B8FF"/>
<path d="M64.8374 96.9287C65.3862 96.9287 65.8311 96.4839 65.8311 95.9351C65.8311 95.3863 65.3862 94.9414 64.8374 94.9414C64.2886 94.9414 63.8438 95.3863 63.8438 95.9351C63.8438 96.4839 64.2886 96.9287 64.8374 96.9287Z" fill="#84B8FF"/>
<path d="M82.9063 89.0645C82.366 88.454 82.2194 87.7122 82.5781 87.3855C82.9368 87.0589 83.6634 87.2955 84.2037 87.8999C84.744 88.5043 83.4451 89.669 82.9063 89.0645Z" fill="#2E353D"/>
<path d="M84.268 89.695C84.1886 89.6946 84.1108 89.6718 84.0438 89.6291C83.9767 89.5865 83.9231 89.5257 83.8891 89.4539C83.8552 89.3821 83.8421 89.3021 83.8517 89.2232C83.8612 89.1444 83.8928 89.0698 83.9429 89.0081L86.3652 86.0546C86.4365 85.9705 86.538 85.9179 86.6477 85.908C86.7574 85.898 86.8667 85.9317 86.9518 86.0016C87.037 86.0715 87.0912 86.1721 87.1028 86.2817C87.1145 86.3913 87.0825 86.501 87.0139 86.5873L84.5947 89.5408C84.5551 89.5892 84.5053 89.6281 84.4488 89.6548C84.3923 89.6815 84.3305 89.6952 84.268 89.695Z" fill="#84B8FF"/>
<path d="M84.2681 90.2686C84.8169 90.2686 85.2617 89.8237 85.2617 89.2749C85.2617 88.7261 84.8169 88.2812 84.2681 88.2812C83.7193 88.2812 83.2744 88.7261 83.2744 89.2749C83.2744 89.8237 83.7193 90.2686 84.2681 90.2686Z" fill="#84B8FF"/>
<path d="M86.6883 86.6392C86.6331 86.6392 86.5788 86.6247 86.5309 86.5972C86.4831 86.5696 86.4433 86.53 86.4155 86.4823C86.3877 86.4346 86.3728 86.3804 86.3725 86.3252C86.3722 86.27 86.3863 86.2156 86.4135 86.1676C88.2711 82.8599 87.4667 79.0166 84.2583 75.886C82.5087 74.2164 80.3997 72.97 78.0933 72.2426C77.0386 74.8023 75.642 77.1559 74.0103 79.07C70.782 82.8569 67.8529 82.489 66.7433 82.1563C65.9377 81.9246 65.2183 81.4604 64.6753 80.8218C64.1323 80.1832 63.7897 79.3986 63.6905 78.5663C63.4173 76.3393 64.7865 74.1551 67.4454 72.5753C70.6508 70.6658 74.3751 70.5391 77.7392 71.4809C80.0639 65.5403 80.5691 58.3374 77.4629 52.3326C77.4235 52.2574 77.4155 52.1695 77.4409 52.0883C77.4662 52.0072 77.5227 51.9394 77.598 51.8999C77.6733 51.8605 77.7612 51.8525 77.8423 51.8778C77.9235 51.9032 77.9913 51.9597 78.0307 52.035C80.7446 57.2826 80.4882 62.8081 79.7967 66.5187C79.4673 68.2709 78.9778 69.9891 78.3345 71.6518C80.7187 72.4088 82.8987 73.6998 84.7086 75.4265C88.1337 78.7708 88.9824 82.9057 86.9722 86.4729C86.9447 86.524 86.9037 86.5666 86.8536 86.5959C86.8035 86.6253 86.7463 86.6403 86.6883 86.6392ZM73.7004 71.5389C71.6154 71.5175 69.5639 72.0641 67.7659 73.1202C65.3329 74.5657 64.0752 76.5225 64.3164 78.49C64.403 79.1991 64.6969 79.8669 65.1611 80.4098C65.6254 80.9528 66.2394 81.3469 66.9264 81.5427C69.0191 82.1731 71.4262 81.1199 73.528 78.6533C75.1808 76.6722 76.5193 74.4487 77.4965 72.0609C76.2603 71.7175 74.9835 71.5419 73.7004 71.5389Z" fill="#84B8FF"/>
<path d="M66.8185 58.3029C64.3122 55.2044 62.9064 52.1868 63.6574 49.2852C62.1311 49.4653 59.9941 51.5335 59.9941 51.5335C59.9941 51.5335 60.1163 56.0012 62.676 59.9087C62.679 59.9087 65.8951 59.1363 66.8185 58.3029Z" fill="#FA6142"/>
<path d="M73.7695 59.5436C75.7767 57.4555 76.4025 53.0519 75.0181 50.3945C76.8101 50.596 78.6417 52.1834 78.6417 52.1834C78.6417 52.1834 80.1131 56.3428 77.5046 61.8713C77.5107 61.8713 74.635 60.0854 73.7695 59.5436Z" fill="#FA6142"/>
<path d="M82.7511 99.211H78.3566C78.1947 99.211 78.0394 99.2753 77.9249 99.3898C77.8104 99.5043 77.7461 99.6596 77.7461 99.8215V104.118H83.3677V99.8246C83.3681 99.7436 83.3524 99.6634 83.3215 99.5886C83.2907 99.5137 83.2452 99.4458 83.1878 99.3887C83.1304 99.3316 83.0623 99.2865 82.9873 99.256C82.9123 99.2255 82.832 99.2102 82.7511 99.211Z" fill="#2E353D"/>
<path d="M89.6732 104.066C87.112 104.066 83.9127 102.32 81.6781 98.3945C81.6576 98.3584 81.6444 98.3186 81.6392 98.2774C81.634 98.2362 81.637 98.1944 81.648 98.1544C81.659 98.1144 81.6777 98.0769 81.7032 98.0441C81.7287 98.0113 81.7604 97.9838 81.7964 97.9633C81.8325 97.9428 81.8723 97.9295 81.9135 97.9243C81.9547 97.9192 81.9965 97.9222 82.0365 97.9331C82.0766 97.9441 82.1141 97.9629 82.1468 97.9884C82.1796 98.0138 82.2071 98.0455 82.2276 98.0816C84.8713 102.723 88.8688 104.146 91.2881 103.126C92.8786 102.458 93.4769 100.837 92.8923 98.8005C92.8809 98.7604 92.8775 98.7185 92.8823 98.6771C92.8871 98.6357 92.9 98.5956 92.9202 98.5592C92.9405 98.5227 92.9677 98.4907 93.0004 98.4648C93.0331 98.4389 93.0705 98.4197 93.1106 98.4082C93.1507 98.3968 93.1927 98.3934 93.2341 98.3982C93.2755 98.403 93.3155 98.4159 93.352 98.4361C93.3884 98.4564 93.4205 98.4836 93.4464 98.5163C93.4723 98.549 93.4915 98.5864 93.5029 98.6265C94.1745 100.968 93.422 102.917 91.5354 103.711C90.9445 103.952 90.3115 104.073 89.6732 104.066Z" fill="#84B8FF"/>
<path d="M106.063 215.643C106.095 215.337 106.132 215.032 106.162 214.727C106.251 214.15 106.315 213.57 106.44 213.005C106.644 211.892 106.93 210.796 107.295 209.725C107.636 208.719 108.053 207.741 108.542 206.799C108.989 205.952 109.503 205.143 110.079 204.378C110.216 204.204 110.343 204.022 110.483 203.861L110.888 203.38C111.022 203.227 111.161 203.084 111.292 202.94C111.423 202.797 111.555 202.662 111.686 202.534C111.817 202.406 111.942 202.279 112.068 202.163L112.435 201.831C112.669 201.614 112.904 201.438 113.106 201.267C113.521 200.939 113.856 200.69 114.095 200.53L114.455 200.281L114.064 200.481C113.809 200.606 113.441 200.811 112.979 201.092C112.754 201.235 112.493 201.382 112.229 201.569L111.811 201.856C111.669 201.957 111.526 202.07 111.375 202.182C111.224 202.293 111.069 202.412 110.917 202.542C110.764 202.672 110.602 202.8 110.442 202.939L109.96 203.378C109.792 203.531 109.638 203.694 109.471 203.858C108.762 204.578 108.112 205.354 107.525 206.178C106.874 207.107 106.294 208.085 105.791 209.102C105.252 210.193 104.793 211.322 104.417 212.48C104.211 213.068 104.053 213.672 103.876 214.278C103.767 214.736 103.648 215.185 103.546 215.641L106.063 215.643Z" fill="#ABBD43"/>
<path d="M48.519 201.851C48.5816 201.964 48.6305 202.097 48.6946 202.233C48.7587 202.369 48.8182 202.515 48.8869 202.668L48.9907 202.903C49.0227 202.984 49.0502 203.071 49.0823 203.156L49.2715 203.697C49.3051 203.79 49.3372 203.884 49.3723 203.979C49.4074 204.074 49.4272 204.177 49.4547 204.284C49.5661 204.689 49.6943 205.109 49.7813 205.559L49.9263 206.238C49.9645 206.47 50.0042 206.696 50.0439 206.94C50.1309 207.409 50.1721 207.897 50.2377 208.377C50.2789 208.862 50.3308 209.344 50.3553 209.824C50.3797 210.303 50.4087 210.77 50.4178 211.226C50.427 211.683 50.4331 212.124 50.4377 212.542C50.4422 212.96 50.4377 213.356 50.4255 213.723L50.3812 215.52C50.3812 215.567 50.3812 215.61 50.3812 215.653H52.6707C52.6601 215.575 52.6478 215.488 52.6356 215.389C52.5822 214.96 52.5059 214.346 52.4128 213.61C52.3655 213.238 52.306 212.832 52.2449 212.405C52.1838 211.977 52.1121 211.525 52.0236 211.06C51.935 210.594 51.8465 210.115 51.7442 209.63C51.642 209.144 51.5168 208.654 51.3993 208.164C51.2573 207.679 51.1429 207.189 50.9795 206.719L50.7521 206.017C50.6666 205.789 50.5811 205.559 50.4987 205.344C50.3461 204.899 50.1446 204.484 49.9706 204.09L49.8393 203.799L49.6867 203.526L49.412 203.007C49.3677 202.924 49.328 202.842 49.2822 202.764L49.1403 202.541L48.8808 202.132C48.7968 202.004 48.7281 201.88 48.6472 201.777C48.5663 201.673 48.4946 201.577 48.4275 201.49L48.0107 200.949L48.342 201.545C48.3969 201.633 48.4549 201.738 48.519 201.851Z" fill="#ABBD43"/>
<path d="M56.5371 215.643H58.8816C58.8915 215.556 58.8915 215.469 58.8816 215.383V215.363C58.8816 215.363 58.8724 215.284 58.8525 215.133C58.8525 215.083 58.848 215.022 58.8388 214.95C58.8388 214.849 58.8388 214.734 58.8296 214.605C58.8296 214.072 58.8571 213.272 58.9319 212.315C59.1269 209.94 59.4674 207.579 59.9515 205.245C60.0843 204.607 60.2309 203.972 60.3896 203.351C60.5483 202.73 60.7178 202.13 60.8979 201.537C61.078 200.945 61.2688 200.396 61.4733 199.875C61.5725 199.614 61.6733 199.361 61.7786 199.121C61.8839 198.882 61.9892 198.648 62.0961 198.428C62.2874 198.027 62.5014 197.636 62.7372 197.259C62.8364 197.087 62.9463 196.937 63.0424 196.801C63.1305 196.67 63.2258 196.544 63.3279 196.424C63.421 196.314 63.5003 196.214 63.5736 196.131L63.7735 195.93L63.9414 195.762L63.7568 195.914L63.5339 196.093C63.45 196.169 63.3584 196.261 63.2531 196.36C63.1364 196.47 63.0258 196.587 62.9218 196.71C62.8058 196.841 62.6776 196.981 62.557 197.143C62.2744 197.5 62.012 197.872 61.771 198.257C61.6366 198.469 61.5008 198.691 61.3695 198.927C61.2383 199.164 61.1024 199.405 60.9711 199.66C60.704 200.167 60.4491 200.715 60.1958 201.287C59.9424 201.86 59.7012 202.458 59.4707 203.071C59.2402 203.685 59.0128 204.314 58.8113 204.947C58.0478 207.276 57.4295 209.65 56.9598 212.056C56.7691 213.048 56.6409 213.887 56.5752 214.498L56.5386 214.919C56.5386 215.072 56.5294 215.2 56.5264 215.305C56.5264 215.458 56.5264 215.546 56.5264 215.546C56.5309 215.571 56.534 215.608 56.5371 215.643Z" fill="#ABBD43"/>
<path d="M38.8994 78.3508C38.8994 78.3508 44.0891 76.4962 47.6745 80.0771V74.1914L40.2106 74.9622C39.7526 76.1085 39.3192 77.2441 38.8994 78.3508Z" fill="#CE5F49"/>
<path d="M52.7037 53.6956C47.5553 54.1963 42.4649 64.3909 37.7148 78.4594C38.4032 76.7437 46.7509 75.8401 52.0474 76.5652C53.5249 76.6369 57.6354 53.5735 57.6354 53.5735C55.1352 52.9752 52.7037 53.6956 52.7037 53.6956Z" fill="#FA6142"/>
<path d="M53.17 63.1758L42.3877 68.2128L39.7334 74.7395C41.0415 72.6484 48.4718 65.4104 53.0128 67.5045C53.9545 67.9396 54.5117 68.0052 54.8032 67.8404C54.8765 67.5122 54.9558 67.1825 55.023 66.8482C54.7208 65.4455 53.17 63.1758 53.17 63.1758Z" fill="#2E353D"/>
<path d="M54.9744 61.4749C54.9744 54.356 60.0114 51.7062 60.0114 51.7062C59.6736 51.4381 59.2841 51.2426 58.8673 51.1321C58.4505 51.0215 58.0153 50.9982 57.5891 51.0636C56.1695 51.3017 54.979 53.0586 53.0817 53.0586C52.2453 53.0586 51.2501 53.1059 50.9173 53.3318C50.5846 53.5577 49.597 54.7452 48.1897 55.023C46.5229 55.3527 44.093 56.6043 42.8673 58.1856C40.4175 61.3467 40.0801 68.4794 40.0664 71.9153C42.4277 65.7625 44.8577 60.7484 47.3258 57.5445C50.4045 60.0936 54.0586 61.9038 54.9744 61.4749Z" fill="#FCD738"/>
<path d="M40.2951 67.0404C40.115 68.9117 40.0661 70.6655 40.0615 71.9248C42.2366 66.2543 44.4712 61.5531 46.7394 58.3401L46.7974 58.1875C46.7974 58.1875 41.1987 63.8183 40.2951 67.0404Z" fill="#E5BC0E"/>
<path d="M37.7148 78.4607C38.8627 75.1423 46.5082 64.1357 52.3756 65.5339L47.679 57.0977C44.2614 61.2829 40.4821 68.6889 37.7148 78.4607Z" fill="#FCD738"/>
<path d="M54.7865 62.551C54.7865 62.551 54.4583 58.8007 55.8549 58.7427C57.2516 58.6847 57.7873 63.5828 57.7873 63.5828L54.7865 62.551Z" fill="#CE5F49"/>
<path d="M48.183 56.8044C47.9484 56.7982 47.7252 56.7014 47.5604 56.5343C47.3956 56.3672 47.3019 56.1427 47.2989 55.908C47.2959 55.6733 47.384 55.4465 47.5445 55.2753C47.7051 55.1041 47.9257 55.0017 48.1602 54.9896L54.9494 54.8125C55.1853 54.8138 55.4114 54.9069 55.5799 55.0719C55.7484 55.237 55.8461 55.4612 55.8522 55.697C55.8584 55.9328 55.7725 56.1618 55.6129 56.3354C55.4532 56.509 55.2322 56.6137 54.9967 56.6274L48.2075 56.8029L48.183 56.8044Z" fill="#E27960"/>
<path d="M59.387 66.3315L59.2862 66.6688C59.2526 66.7787 59.2114 66.9146 59.1641 67.0733L59.0863 67.3297C59.0512 67.432 59.013 67.5389 58.9733 67.6533L58.7001 68.4165C58.6009 68.6897 58.491 68.9584 58.3719 69.2606C58.3139 69.4132 58.2544 69.5659 58.1888 69.7185L57.9842 70.1978C57.8438 70.5259 57.6973 70.874 57.5263 71.225C53.6814 80.0779 48.9909 91.2662 47.2035 93.6946C45.4161 96.1231 42.5099 99.4414 38.5032 99.0003C35.3864 98.6569 34.2538 92.6094 35.0109 88.2089C35.3864 86.0277 37.1692 84.3044 38.23 83.3535C38.7597 82.8788 39.3305 82.3599 39.9304 81.8058C40.5302 81.2517 41.1591 80.6625 41.8017 80.0474C42.4443 79.4323 43.1037 78.7897 43.7677 78.1333C44.4316 77.477 45.0956 76.8008 45.7519 76.1201C46.4083 75.4393 47.0555 74.7463 47.6782 74.0641L48.1453 73.5527L48.6032 73.0399C48.9085 72.7025 49.1969 72.3637 49.4824 72.0309C50.6256 70.6969 51.6345 69.4209 52.442 68.3051C52.6511 68.0273 52.8343 67.7586 53.0113 67.5022L53.2723 67.1267C53.3548 67.0062 53.425 66.8856 53.5044 66.7711C53.657 66.5421 53.8096 66.3132 53.9211 66.1285L54.2401 65.6065C54.2889 65.5271 54.3362 65.4538 54.379 65.3806C54.4217 65.3073 54.4675 65.2173 54.5056 65.144C54.585 64.9913 54.6583 64.8738 54.7056 64.7731L54.8735 64.4678C55.1616 63.932 55.6384 63.5223 56.2114 63.3182C56.7844 63.114 57.4129 63.1299 57.9748 63.3628C58.5368 63.5957 58.9923 64.0289 59.2529 64.5786C59.5135 65.1282 59.5608 65.7551 59.3854 66.3376L59.387 66.3315Z" fill="url(#paint0_linear_2737_16915)"/>
<path d="M48.6026 56.0124C48.45 55.7682 47.5342 55.3652 47.3586 55.7148C47.1831 56.0643 46.3985 59.8573 46.5207 60.6938C46.5512 60.9044 47.3831 61.8813 47.3831 61.8813L48.6026 56.0124Z" fill="#E27960"/>
<path d="M53.2716 67.1278C53.0198 66.9845 52.8204 66.7644 52.7026 66.4996C52.5848 66.2349 52.5547 65.9395 52.6168 65.6564C51.0645 64.878 48.8314 63.434 47.5798 62.1244C47.3913 61.9257 47.2581 61.6811 47.1936 61.4149C47.129 61.1487 47.1353 60.8702 47.2119 60.6072C47.8408 58.4062 48.4483 54.256 48.8314 54.0438C49.0603 53.9187 49.7625 54.4163 49.7625 54.4163C49.7625 54.4163 49.9472 53.8958 50.0998 53.8576C50.7974 53.6836 54.0317 55.8419 54.1004 56.138C54.1691 56.4341 53.554 57.6964 53.554 57.6964C53.554 57.6964 54.2515 58.51 54.1645 58.7206C54.0775 58.9313 52.2566 59.8837 52.2566 59.8837C52.2566 59.8837 57.7393 62.7624 58.4841 63.6294C59.229 64.4964 53.2716 67.1278 53.2716 67.1278Z" fill="#FFAD94"/>
<path d="M53.1621 58.1934C53.1942 60.4249 55.3875 67.6843 57.5886 66.8204C59.7896 65.9565 55.6944 58.9871 54.5862 57.7812L53.1621 58.1934Z" fill="#FCD738"/>
<path d="M56.7962 65.9771C56.7161 65.976 56.6394 65.9448 56.5814 65.8896C56.5234 65.8345 56.4884 65.7594 56.4834 65.6795C56.4784 65.5996 56.5037 65.5207 56.5544 65.4587C56.605 65.3967 56.6772 65.3562 56.7565 65.3451C56.8496 65.3345 56.874 65.2994 56.8924 65.2581C57.2816 64.4324 55.2943 60.6684 53.7603 58.2582C53.7218 58.1876 53.7117 58.105 53.7318 58.0272C53.7519 57.9493 53.8008 57.882 53.8686 57.8388C53.9364 57.7956 54.0181 57.7797 54.0971 57.7944C54.1762 57.8091 54.2467 57.8532 54.2945 57.9178C54.9417 58.9359 58.144 64.0889 57.4663 65.5283C57.409 65.6513 57.3206 65.7572 57.2097 65.8354C57.0988 65.9135 56.9694 65.9614 56.8344 65.974L56.7962 65.9771Z" fill="#E5BC0E"/>
<path d="M55.2414 62.4724C55.1749 62.4743 55.1096 62.4551 55.0547 62.4175C54.9999 62.38 54.9583 62.326 54.9361 62.2633L53.3548 57.8811C53.3407 57.8421 53.3344 57.8006 53.3363 57.759C53.3382 57.7175 53.3482 57.6768 53.3659 57.6392C53.3835 57.6015 53.4084 57.5677 53.4391 57.5397C53.4698 57.5117 53.5057 57.49 53.5448 57.4759C53.5839 57.4618 53.6254 57.4555 53.6669 57.4574C53.7084 57.4593 53.7492 57.4693 53.7868 57.487C53.8244 57.5046 53.8582 57.5295 53.8862 57.5602C53.9143 57.5909 53.9359 57.6268 53.9501 57.6659L55.5314 62.0481C55.5599 62.1273 55.5558 62.2145 55.52 62.2906C55.4842 62.3667 55.4197 62.4255 55.3406 62.4541C55.3087 62.4653 55.2752 62.4715 55.2414 62.4724Z" fill="#E5BC0E"/>
<path d="M55.6641 58.9967C55.4928 58.9967 55.325 58.948 55.1803 58.8562L51.2117 56.3469C51.0271 56.2105 50.9011 56.0092 50.8591 55.7835C50.8171 55.5579 50.8622 55.3247 50.9854 55.131C51.1086 54.9374 51.3006 54.7976 51.5228 54.74C51.7449 54.6824 51.9807 54.7111 52.1825 54.8205L56.1511 57.3283C56.319 57.433 56.4482 57.5896 56.519 57.7744C56.5897 57.9592 56.5982 58.1621 56.5431 58.3521C56.488 58.5422 56.3723 58.709 56.2136 58.8273C56.055 58.9456 55.862 59.0088 55.6641 59.0073V58.9967Z" fill="#FFAD94"/>
<path d="M50.5 62.2605C50.5 62.2605 49.3644 61.9644 49.2606 61.6851C49.1568 61.4057 50.7961 56.1367 51.2845 56.0497C51.773 55.9627 54.2106 57.8814 54.1526 58.7193C54.0946 59.5573 53.4657 60.5372 53.4657 60.5372L50.5 62.2605Z" fill="#FFAD94"/>
<path d="M53.4659 60.5441C53.0553 60.3838 52.0113 59.8663 52.0098 59.4497C52.0152 59.3697 52.0375 59.2918 52.0751 59.2211C52.1127 59.1503 52.1648 59.0883 52.228 59.0391L53.4659 60.5441Z" fill="#EF8C78"/>
<path d="M68.5765 13.4769C68.4927 13.4769 68.4123 13.4436 68.3531 13.3844C68.2938 13.3251 68.2605 13.2447 68.2605 13.1609V0.339484C68.2575 0.296043 68.2635 0.252445 68.278 0.211402C68.2926 0.170359 68.3154 0.132748 68.3451 0.100907C68.3748 0.0690665 68.4108 0.0436764 68.4507 0.0263171C68.4906 0.00895776 68.5337 0 68.5772 0C68.6208 0 68.6639 0.00895776 68.7038 0.0263171C68.7437 0.0436764 68.7797 0.0690665 68.8094 0.100907C68.8391 0.132748 68.8619 0.170359 68.8765 0.211402C68.891 0.252445 68.897 0.296043 68.894 0.339484V13.1609C68.8936 13.2449 68.8599 13.3252 68.8004 13.3845C68.7409 13.4437 68.6604 13.4769 68.5765 13.4769Z" fill="#CCE3FF"/>
<path d="M64.4161 17.4285C64.3744 17.4286 64.3331 17.4204 64.2946 17.4044C64.2561 17.3884 64.2212 17.365 64.1917 17.3354L52.6387 5.7839C52.5858 5.72319 52.5579 5.64464 52.5607 5.56415C52.5636 5.48367 52.5969 5.40727 52.6539 5.35042C52.711 5.29357 52.7875 5.26052 52.868 5.25797C52.9485 5.25542 53.0269 5.28355 53.0874 5.33668L64.6405 16.8897C64.6843 16.9342 64.7141 16.9906 64.726 17.0519C64.7379 17.1132 64.7315 17.1767 64.7076 17.2343C64.6836 17.292 64.6432 17.3413 64.5914 17.3762C64.5395 17.411 64.4786 17.4297 64.4161 17.4301V17.4285Z" fill="#CCE3FF"/>
<path d="M68.5772 17.4937C69.0702 17.4937 69.0702 16.7305 68.5772 16.7305C68.0842 16.7305 68.0857 17.4937 68.5772 17.4937Z" fill="#CCE3FF"/>
<path d="M137.339 70.8508C137.66 72.2108 133.876 74.7049 133.876 74.7049L134.38 71.2293C134.38 71.2293 137.101 69.8266 137.339 70.8508Z" fill="#CE5F49"/>
<path d="M138.873 74.3867C138.475 77.1128 133.447 77.676 133.447 77.676L133.948 75.3178L138.873 74.3867Z" fill="#CE5F49"/>
<path d="M121.708 214.895C122.729 214.895 122.729 213.312 121.708 213.312C120.687 213.312 120.687 214.895 121.708 214.895Z" fill="#2E353D"/>
<path d="M153.621 204.243C154.642 204.243 154.642 202.66 153.621 202.66C152.6 202.66 152.6 204.243 153.621 204.243Z" fill="#2E353D"/>
<path d="M155.761 187.502C157.359 187.502 157.359 185.023 155.761 185.023C154.163 185.023 154.163 187.502 155.761 187.502Z" fill="#2E353D"/>
<path d="M169.155 214.848C170.753 214.848 170.753 212.371 169.155 212.371C167.557 212.371 167.557 214.848 169.155 214.848Z" fill="#2E353D"/>
<path d="M116.3 171.852C117.898 171.852 117.898 169.375 116.3 169.375C114.702 169.375 114.702 171.852 116.3 171.852Z" fill="#2E353D"/>
<path d="M128.033 205.423C127.976 205.423 127.92 205.408 127.871 205.379C127.822 205.35 127.782 205.308 127.755 205.258C126.648 203.241 122.833 194.804 122.671 194.447C122.636 194.371 122.633 194.283 122.663 194.205C122.693 194.126 122.752 194.063 122.829 194.028C122.905 193.994 122.992 193.991 123.071 194.02C123.15 194.05 123.213 194.11 123.248 194.186C123.287 194.273 127.216 202.957 128.311 204.955C128.331 204.991 128.343 205.031 128.347 205.072C128.352 205.114 128.348 205.156 128.336 205.195C128.324 205.235 128.305 205.272 128.279 205.305C128.253 205.337 128.22 205.364 128.184 205.384C128.138 205.41 128.086 205.423 128.033 205.423Z" fill="#6F8137"/>
<path d="M136.768 212.333C136.716 212.334 136.666 212.323 136.62 212.3C136.574 212.277 136.534 212.243 136.504 212.202C136.474 212.16 136.455 212.112 136.448 212.061C136.44 212.011 136.445 211.959 136.462 211.911L159.043 148.652C159.057 148.613 159.079 148.577 159.107 148.546C159.135 148.515 159.168 148.49 159.206 148.472C159.243 148.454 159.284 148.444 159.326 148.442C159.367 148.44 159.409 148.446 159.448 148.46C159.487 148.474 159.523 148.495 159.554 148.523C159.585 148.551 159.61 148.585 159.628 148.622C159.646 148.66 159.656 148.7 159.658 148.742C159.66 148.783 159.654 148.825 159.64 148.864L137.065 212.118C137.044 212.181 137.004 212.235 136.951 212.274C136.898 212.312 136.833 212.333 136.768 212.333Z" fill="#6F8137"/>
<path d="M138.952 215.013C138.886 215.013 138.822 214.993 138.768 214.956C138.714 214.918 138.674 214.865 138.651 214.803C138.629 214.742 138.627 214.675 138.645 214.611C138.662 214.548 138.699 214.492 138.75 214.451L148.406 206.553C148.438 206.524 148.475 206.501 148.516 206.487C148.557 206.472 148.601 206.466 148.644 206.47C148.687 206.473 148.73 206.484 148.768 206.504C148.807 206.524 148.841 206.552 148.868 206.586C148.896 206.62 148.916 206.659 148.928 206.7C148.939 206.742 148.942 206.786 148.937 206.829C148.931 206.872 148.916 206.913 148.894 206.95C148.871 206.988 148.841 207.02 148.806 207.045L139.152 214.941C139.096 214.988 139.025 215.013 138.952 215.013Z" fill="#6F8137"/>
<path d="M134.525 52.1562H131.357V215.96H134.525V52.1562Z" fill="#ABBD43"/>
<path d="M132.052 65.0062C132.052 65.0062 131.17 67.7201 128.891 69.5136C128.465 69.8494 127.375 74.2926 127.048 75.2955C126.743 76.2113 128.182 81.3628 128.182 81.3628L131.357 82.3488V70.4889C131.357 70.4889 133 68.6833 133.4 67.5385C133.799 66.3937 133.285 64.6582 132.052 65.0062Z" fill="#FFAD94"/>
<path d="M134.525 80.4648H131.357V83.5527H134.525V80.4648Z" fill="#6F8137"/>
<path d="M129.268 79.4539C129.062 80.1442 128.93 80.8543 128.873 81.5725L131.358 82.3448V72.5898L129.268 79.4539Z" fill="#CE5F49"/>
<path d="M133.981 72.8388C133.752 72.8056 133.54 72.698 133.378 72.5326C133.216 72.3672 133.112 72.1532 133.083 71.9233C133.055 71.6935 133.102 71.4606 133.219 71.2603C133.335 71.06 133.514 70.9035 133.728 70.8148L135.88 69.9249C136.009 69.8669 136.149 69.8354 136.29 69.8323C136.432 69.8292 136.572 69.8545 136.704 69.9067C136.836 69.9589 136.955 70.037 137.056 70.1364C137.157 70.2358 137.237 70.3543 137.291 70.4851C137.345 70.6159 137.372 70.7562 137.371 70.8978C137.37 71.0393 137.341 71.1792 137.285 71.3092C137.229 71.4391 137.147 71.5565 137.045 71.6543C136.942 71.7522 136.821 71.8285 136.689 71.8787L134.537 72.7701C134.361 72.8431 134.169 72.8668 133.981 72.8388Z" fill="#FFAD94"/>
<path d="M137.981 75.6293L131.94 77.7067C131.684 77.7853 131.407 77.764 131.166 77.6471C130.925 77.5302 130.738 77.3264 130.641 77.0766C130.544 76.8269 130.546 76.5498 130.645 76.301C130.744 76.0523 130.934 75.8505 131.176 75.7361L137.025 73.1673C137.184 73.0971 137.356 73.059 137.53 73.055C137.703 73.0511 137.876 73.0814 138.038 73.1443C138.2 73.2071 138.348 73.3013 138.474 73.4214C138.6 73.5415 138.701 73.6852 138.771 73.8442C138.841 74.0033 138.879 74.1746 138.883 74.3484C138.887 74.5222 138.857 74.695 138.794 74.8571C138.731 75.0192 138.637 75.1673 138.517 75.293C138.397 75.4187 138.253 75.5195 138.094 75.5896C138.057 75.6052 138.019 75.6185 137.981 75.6293Z" fill="#FFAD94"/>
<path d="M137.089 79.2476L131.502 79.878C131.234 79.9051 130.965 79.8284 130.751 79.6638C130.536 79.4991 130.393 79.2589 130.35 78.9922C130.307 78.7255 130.368 78.4525 130.52 78.2291C130.672 78.0056 130.903 77.8485 131.167 77.7899L136.669 76.6375C137.013 76.5655 137.372 76.6331 137.666 76.8254C137.96 77.0178 138.166 77.3191 138.238 77.6632C138.31 78.0073 138.243 78.366 138.05 78.6602C137.858 78.9545 137.557 79.1603 137.212 79.2323C137.171 79.2354 137.129 79.243 137.089 79.2476Z" fill="#FFAD94"/>
<path d="M131.266 79.4723L135.524 79.3609C135.701 79.3525 135.877 79.3793 136.042 79.4399C136.208 79.5004 136.36 79.5934 136.489 79.7135C136.619 79.8336 136.723 79.9783 136.795 80.1391C136.868 80.2999 136.908 80.4735 136.912 80.6499C136.917 80.8263 136.886 81.0018 136.822 81.1661C136.758 81.3305 136.661 81.4804 136.539 81.607C136.416 81.7336 136.269 81.8344 136.106 81.9034C135.944 81.9725 135.77 82.0084 135.593 82.0091C135.539 82.0122 135.484 82.0122 135.43 82.0091L131.19 81.5924C130.92 81.5678 130.67 81.4408 130.491 81.2375C130.312 81.0341 130.217 80.77 130.227 80.4993C130.237 80.2286 130.35 79.972 130.543 79.7821C130.736 79.5922 130.995 79.4835 131.266 79.4784V79.4723Z" fill="#FFAD94"/>
<path d="M160.479 16.7734H108.228C106.893 16.7734 105.811 18.6872 105.811 21.0479V53.5582C105.811 55.9189 106.893 57.8327 108.228 57.8327H160.479C161.814 57.8327 162.897 55.9189 162.897 53.5582V21.0479C162.897 18.6872 161.814 16.7734 160.479 16.7734Z" fill="#ABBD43"/>
<path d="M159.259 15.5508H107.007C105.672 15.5508 104.59 17.4574 104.59 19.8093V52.1988C104.59 54.5508 105.672 56.4574 107.007 56.4574H159.259C160.594 56.4574 161.676 54.5508 161.676 52.1988V19.8093C161.676 17.4574 160.594 15.5508 159.259 15.5508Z" fill="white"/>
<path d="M134.525 57.7695H131.357V60.8574H134.525V57.7695Z" fill="#6F8137"/>
<path d="M31.6971 216.279H0.339482C0.296041 216.282 0.252446 216.276 0.211403 216.261C0.17036 216.247 0.132744 216.224 0.100904 216.194C0.069063 216.164 0.0436776 216.129 0.0263182 216.089C0.00895892 216.049 0 216.006 0 215.962C0 215.918 0.00895892 215.875 0.0263182 215.835C0.0436776 215.796 0.069063 215.76 0.100904 215.73C0.132744 215.7 0.17036 215.677 0.211403 215.663C0.252446 215.648 0.296041 215.642 0.339482 215.645H31.6971C31.7406 215.642 31.7842 215.648 31.8252 215.663C31.8662 215.677 31.9039 215.7 31.9357 215.73C31.9675 215.76 31.9929 215.796 32.0103 215.835C32.0276 215.875 32.0366 215.918 32.0366 215.962C32.0366 216.006 32.0276 216.049 32.0103 216.089C31.9929 216.129 31.9675 216.164 31.9357 216.194C31.9039 216.224 31.8662 216.247 31.8252 216.261C31.7842 216.276 31.7406 216.282 31.6971 216.279Z" fill="#6F8137"/>
<path d="M90.6101 216.279H37.7155C37.672 216.282 37.6284 216.276 37.5874 216.261C37.5463 216.247 37.5087 216.224 37.4769 216.194C37.445 216.164 37.4197 216.129 37.4023 216.089C37.3849 216.049 37.376 216.006 37.376 215.962C37.376 215.918 37.3849 215.875 37.4023 215.835C37.4197 215.796 37.445 215.76 37.4769 215.73C37.5087 215.7 37.5463 215.677 37.5874 215.663C37.6284 215.648 37.672 215.642 37.7155 215.645H90.6101C90.6903 215.651 90.7654 215.687 90.8203 215.745C90.8751 215.804 90.9056 215.882 90.9056 215.962C90.9056 216.042 90.8751 216.12 90.8203 216.179C90.7654 216.237 90.6903 216.273 90.6101 216.279Z" fill="#6F8137"/>
<path d="M174.861 216.279H100.316C100.236 216.273 100.161 216.237 100.106 216.179C100.051 216.12 100.021 216.042 100.021 215.962C100.021 215.882 100.051 215.804 100.106 215.745C100.161 215.687 100.236 215.651 100.316 215.645H174.854C174.898 215.642 174.942 215.648 174.983 215.663C175.024 215.677 175.061 215.7 175.093 215.73C175.125 215.76 175.15 215.796 175.168 215.835C175.185 215.875 175.194 215.918 175.194 215.962C175.194 216.006 175.185 216.049 175.168 216.089C175.15 216.129 175.125 216.164 175.093 216.194C175.061 216.224 175.024 216.247 174.983 216.261C174.942 216.276 174.898 216.282 174.854 216.279H174.861Z" fill="#6F8137"/>
<path d="M69.8638 220.001H48.6657C48.6222 220.004 48.5786 219.998 48.5376 219.984C48.4965 219.969 48.4589 219.947 48.4271 219.917C48.3952 219.887 48.3698 219.851 48.3525 219.811C48.3351 219.771 48.3262 219.728 48.3262 219.685C48.3262 219.641 48.3351 219.598 48.3525 219.558C48.3698 219.518 48.3952 219.482 48.4271 219.453C48.4589 219.423 48.4965 219.4 48.5376 219.385C48.5786 219.371 48.6222 219.365 48.6657 219.368H69.8638C69.944 219.374 70.0191 219.409 70.0739 219.468C70.1288 219.527 70.1593 219.604 70.1593 219.685C70.1593 219.765 70.1288 219.842 70.0739 219.901C70.0191 219.96 69.944 219.996 69.8638 220.001Z" fill="#6F8137"/>
<path d="M72.7153 220.001H71.4468C71.3666 219.995 71.2915 219.959 71.2367 219.9C71.1819 219.842 71.1514 219.764 71.1514 219.684C71.1514 219.604 71.1819 219.526 71.2367 219.467C71.2915 219.409 71.3666 219.373 71.4468 219.367H72.7153C72.7955 219.373 72.8706 219.409 72.9254 219.467C72.9802 219.526 73.0107 219.604 73.0107 219.684C73.0107 219.764 72.9802 219.842 72.9254 219.9C72.8706 219.959 72.7955 219.995 72.7153 220.001Z" fill="#6F8137"/>
<path d="M132.501 24.0334C132.857 23.442 133.714 23.442 134.07 24.0334L137.708 30.0777C137.836 30.2902 138.044 30.4417 138.286 30.4977L145.158 32.0894C145.831 32.2451 146.096 33.0606 145.643 33.5819L141.019 38.9092C140.856 39.0965 140.777 39.3417 140.798 39.5887L141.408 46.6167C141.468 47.3044 140.774 47.8084 140.139 47.5392L133.643 44.7873C133.415 44.6906 133.157 44.6906 132.928 44.7873L126.433 47.5392C125.797 47.8084 125.104 47.3044 125.163 46.6167L125.773 39.5887C125.795 39.3417 125.715 39.0965 125.552 38.9092L120.928 33.5819C120.476 33.0606 120.741 32.2451 121.413 32.0894L128.286 30.4977C128.527 30.4417 128.736 30.2902 128.864 30.0777L132.501 24.0334Z" fill="#E5A90E"/>
<path d="M132.043 22.5061C132.399 21.9146 133.256 21.9146 133.612 22.5061L137.25 28.5504C137.378 28.7629 137.586 28.9144 137.828 28.9703L144.7 30.562C145.373 30.7178 145.638 31.5333 145.185 32.0546L140.561 37.3818C140.398 37.5691 140.319 37.8143 140.34 38.0614L140.95 45.0894C141.01 45.7771 140.316 46.2811 139.681 46.0118L133.185 43.26C132.957 43.1632 132.699 43.1632 132.47 43.26L125.975 46.0118C125.339 46.2811 124.646 45.7771 124.705 45.0894L125.315 38.0614C125.337 37.8143 125.257 37.5691 125.094 37.3818L120.47 32.0546C120.018 31.5333 120.282 30.7178 120.955 30.562L127.828 28.9703C128.069 28.9144 128.278 28.7629 128.406 28.5504L132.043 22.5061Z" fill="#FCD738"/>
<defs>
<linearGradient id="paint0_linear_2737_16915" x1="59.3946" y1="68.6439" x2="15.3925" y2="120.888" gradientUnits="userSpaceOnUse">
<stop stop-color="#FFAD94"/>
<stop offset="1" stop-color="#E27960"/>
</linearGradient>
</defs>
</svg>
