<svg width="220" height="223" viewBox="0 0 220 223" fill="none" xmlns="http://www.w3.org/2000/svg">
<g clip-path="url(#clip0_2868_13984)">
<rect width="220" height="223" fill="white"/>
<path d="M104.47 174.625C104.807 174.842 105.198 175.083 105.616 175.388L107.011 176.367C107.268 176.541 107.524 176.737 107.79 176.942L108.616 177.574C108.898 177.794 109.197 178.01 109.49 178.253L110.391 179.004C110.696 179.264 111.018 179.523 111.336 179.798L112.291 180.668L112.784 181.115C112.95 181.268 113.118 181.42 113.279 181.582L114.269 182.565L114.776 183.07L115.269 183.605L116.276 184.697C116.611 185.071 116.93 185.461 117.264 185.861C117.598 186.26 117.936 186.648 118.248 187.073L119.219 188.336C119.534 188.771 119.839 189.22 120.152 189.666C121.425 191.509 122.569 193.439 123.574 195.442C123.702 195.696 123.841 195.947 123.96 196.205C124.079 196.463 124.201 196.725 124.32 196.986C124.558 197.51 124.815 198.026 125.024 198.565C125.233 199.103 125.465 199.633 125.679 200.169L126.269 201.8C127.016 203.977 127.635 206.195 128.126 208.443C128.583 210.672 128.934 212.885 129.171 215.039C129.218 215.577 129.267 216.107 129.315 216.643C129.336 216.908 129.363 217.171 129.382 217.433C129.4 217.696 129.411 217.959 129.424 218.22C129.438 218.481 129.452 218.713 129.467 218.957H132.485C132.448 218.627 132.412 218.295 132.376 217.962C132.346 217.691 132.317 217.421 132.286 217.148C132.256 216.875 132.21 216.603 132.172 216.328C132.093 215.781 132.013 215.228 131.932 214.669C131.564 212.442 131.084 210.16 130.475 207.872C129.841 205.566 129.073 203.298 128.176 201.08C127.941 200.527 127.706 199.975 127.472 199.422C127.22 198.877 126.959 198.339 126.709 197.798C126.459 197.258 126.169 196.73 125.894 196.206C125.755 195.944 125.618 195.681 125.479 195.42C125.34 195.159 125.183 194.907 125.036 194.657C123.892 192.655 122.61 190.735 121.2 188.91C120.854 188.471 120.518 188.03 120.172 187.602L119.103 186.364C118.761 185.949 118.392 185.566 118.035 185.183C117.678 184.8 117.326 184.42 116.966 184.055L115.884 182.999L115.354 182.484L114.813 182L113.756 181.059C113.585 180.906 113.407 180.753 113.231 180.616L112.708 180.189L111.697 179.364C111.361 179.103 111.024 178.859 110.702 178.616L109.754 177.91C109.449 177.681 109.133 177.479 108.838 177.273L107.968 176.684C107.692 176.493 107.425 176.309 107.158 176.148L105.703 175.242C105.27 174.962 104.865 174.739 104.517 174.541L103.633 174.037L102.896 173.619L103.609 174.077L104.47 174.625Z" fill="#6F8137"/>
<path d="M75.3439 147.697C70.2031 150.181 66.4253 158.179 68.8232 169.199C67.3274 160.267 74.9623 153.501 75.3439 147.697Z" fill="#ABBD43"/>
<path d="M42.6965 135.119C48.7226 151.192 56.3941 146.481 61.6525 153.358C56.4613 141.513 44.6411 141.504 42.6965 135.119Z" fill="#6F8137"/>
<path d="M149.901 141.656C142.168 162.279 132.324 156.236 125.576 165.057C132.237 149.859 147.405 149.848 149.901 141.656Z" fill="#6F8137"/>
<path d="M117.963 198.216C118.064 199.437 118.132 200.658 118.297 201.857C118.367 202.46 118.439 203.062 118.52 203.662C118.601 204.261 118.718 204.852 118.816 205.444C118.914 206.037 119.008 206.626 119.121 207.207C119.234 207.789 119.379 208.366 119.506 208.938C119.57 209.225 119.634 209.511 119.697 209.796L119.793 210.222L119.903 210.643C120.056 211.203 120.208 211.756 120.361 212.305C120.437 212.58 120.513 212.853 120.588 213.125C120.625 213.261 120.663 213.397 120.7 213.533L120.828 213.934C120.997 214.467 121.167 214.993 121.344 215.512C121.568 216.17 121.703 216.602 121.86 217.051C122.037 217.555 122.235 218.045 122.426 218.528C122.479 218.681 122.534 218.817 122.589 218.96H126.822C123.298 209.697 121.982 196.81 121.953 196.233C121.924 195.656 121.898 195.079 121.889 194.503C121.88 193.928 121.889 193.353 121.873 192.78C121.873 192.493 121.863 192.206 121.864 191.921C121.866 191.635 121.878 191.35 121.884 191.066C121.901 188.787 122.069 186.55 122.243 184.382C122.36 183.303 122.461 182.236 122.606 181.198C122.64 180.937 122.672 180.679 122.705 180.421C122.739 180.163 122.771 179.908 122.815 179.658C122.898 179.151 122.977 178.651 123.05 178.156C123.124 177.662 123.224 177.178 123.307 176.697C123.351 176.457 123.394 176.219 123.436 175.984C123.479 175.749 123.531 175.515 123.577 175.283C123.67 174.826 123.763 174.368 123.853 173.919C123.943 173.47 124.058 173.038 124.158 172.608C124.558 170.898 124.96 169.331 125.364 167.952C125.769 166.574 126.14 165.371 126.471 164.387C126.624 163.891 126.79 163.456 126.918 163.069C127.046 162.683 127.168 162.361 127.262 162.097C127.449 161.568 127.548 161.285 127.548 161.285L127.42 161.464C127.336 161.583 127.21 161.758 127.051 161.99C126.732 162.448 126.269 163.14 125.729 164.043C125.189 164.947 124.558 166.063 123.897 167.38C123.237 168.697 122.565 170.219 121.901 171.912C121.237 173.604 120.628 175.482 120.06 177.494C119.923 177.999 119.792 178.512 119.66 179.031C119.59 179.29 119.53 179.554 119.472 179.82C119.414 180.085 119.355 180.351 119.294 180.618C119.034 181.687 118.868 182.798 118.659 183.923C118.57 184.487 118.49 185.057 118.41 185.632C118.373 185.921 118.334 186.21 118.294 186.499C118.261 186.789 118.235 187.082 118.204 187.375C118.146 187.96 118.088 188.551 118.029 189.143C117.969 189.735 117.963 190.333 117.929 190.935C117.913 191.24 117.897 191.535 117.88 191.835C117.864 192.136 117.868 192.446 117.862 192.742C117.85 193.346 117.843 193.953 117.841 194.561C117.841 195.172 117.874 195.783 117.89 196.393C117.905 197.004 117.909 197.608 117.963 198.216Z" fill="#ABBD43"/>
<path d="M76.6336 218.637C78.2317 218.637 78.2317 216.16 76.6336 216.16C75.0354 216.16 75.037 218.637 76.6336 218.637Z" fill="#2E353D"/>
<path d="M43.8778 218.66C44.5021 218.66 44.5021 217.693 43.8778 217.693C43.2535 217.693 43.255 218.66 43.8778 218.66Z" fill="#2E353D"/>
<path d="M69.0843 171.001C69.1453 171.394 69.2552 171.829 69.3651 172.326C69.6624 173.516 70.0408 174.684 70.4977 175.822C71.0982 177.306 71.8127 178.742 72.6346 180.117C72.859 180.494 73.0925 180.88 73.3443 181.26C73.5962 181.64 73.8526 182.023 74.1182 182.422C74.657 183.199 75.2416 183.983 75.8567 184.771C77.0931 186.344 78.4683 187.927 79.9153 189.512C80.6327 190.308 81.3761 191.101 82.1209 191.9L84.3616 194.317C85.1126 195.126 85.8407 195.956 86.5733 196.782C87.306 197.608 88.0158 198.452 88.695 199.314C89.3742 200.176 90.0916 201.005 90.6793 201.918C93.3779 206.112 96.1421 210.968 96.6962 218.96H100.706C100.686 218.637 100.665 218.312 100.643 217.983C100.599 217.51 100.55 217.029 100.491 216.542C100.431 216.055 100.366 215.559 100.282 215.058C99.5797 210.667 98.0834 206.44 95.8658 202.585C95.2782 201.571 94.66 200.566 93.9854 199.598C93.3107 198.63 92.604 197.682 91.8714 196.762C90.3893 194.93 88.8186 193.209 87.2205 191.597C86.8221 191.192 86.4268 190.789 86.0284 190.397L84.8333 189.237C84.0426 188.474 83.2627 187.72 82.4903 186.993C80.9639 185.529 79.491 184.13 78.157 182.759C76.8229 181.388 75.6125 180.059 74.5624 178.774C73.6022 177.605 72.7104 176.382 71.8912 175.11C71.1571 173.97 70.5831 172.925 70.1298 172.047C69.6765 171.169 69.3666 170.457 69.1514 169.96L68.8232 169.197L68.924 170.017C68.953 170.287 69.0156 170.614 69.0843 171.001Z" fill="#6F8137"/>
<path d="M61.7195 218.964H65.9933C65.9216 218.46 65.8316 217.952 65.7552 217.437C65.6789 216.923 65.6026 216.387 65.5431 215.849C65.2698 213.699 65.0729 211.422 64.9447 209.068C64.8165 206.715 64.7845 204.266 64.8013 201.78C64.818 199.294 64.9112 196.76 65.0501 194.218C65.189 191.677 65.3553 189.129 65.5309 186.609C65.7064 184.089 65.888 181.597 66.0147 179.168C66.1414 176.74 66.2406 174.377 66.2467 172.123C66.2628 169.992 66.1706 167.861 65.9704 165.739C65.9185 165.243 65.8651 164.76 65.7995 164.285C65.7339 163.81 65.6636 163.351 65.5889 162.902C65.4225 162.004 65.2576 161.156 65.0394 160.37C64.6914 159.008 64.2108 157.683 63.6046 156.415C63.4764 156.154 63.3436 155.911 63.226 155.682C63.1085 155.453 62.9727 155.25 62.8597 155.056L62.6933 154.779L62.5254 154.53C62.4166 154.374 62.3189 154.232 62.2324 154.104C62.0523 153.857 61.8996 153.678 61.8035 153.553L61.6508 153.365L61.9943 154.237C62.286 155.051 62.5292 155.882 62.7223 156.725C63.0056 158.022 63.1883 159.339 63.2688 160.664C63.3751 162.378 63.3791 164.097 63.281 165.811C63.2291 166.758 63.1741 167.741 63.0749 168.763C63.0281 169.272 62.9803 169.791 62.9315 170.32C62.8735 170.848 62.8216 171.389 62.7559 171.927C62.5163 174.102 62.211 176.403 61.9103 178.796C61.6096 181.189 61.2998 183.68 61.025 186.217C60.7503 188.754 57.9738 200.716 61.7195 218.964Z" fill="#ABBD43"/>
<path d="M66.0392 218.963H70.1512C70.0871 218.574 70.0337 218.172 69.9711 217.762C69.8902 217.258 69.8338 216.741 69.7696 216.211C69.7055 215.681 69.6536 215.143 69.6033 214.59C69.4995 213.488 69.4506 212.349 69.4155 211.189C69.4155 210.032 69.4155 208.852 69.5117 207.679C69.5437 207.09 69.6231 206.511 69.6811 205.926C69.7697 205.351 69.8338 204.769 69.9604 204.206C70.1636 203.093 70.4488 201.996 70.8137 200.925C71.1547 199.919 71.5716 198.942 72.0607 198C72.5086 197.154 73.0231 196.344 73.5993 195.579C73.7367 195.404 73.8618 195.224 74.0023 195.062C74.1427 194.9 74.2755 194.737 74.4067 194.581C74.538 194.425 74.68 194.276 74.8112 194.14C74.9425 194.004 75.0753 193.862 75.2066 193.735C75.3378 193.609 75.4615 193.48 75.5866 193.363L75.956 193.032C76.188 192.813 76.4231 192.639 76.6261 192.467C77.0413 192.14 77.3755 191.89 77.6136 191.731L77.9739 191.482L77.5846 191.681C77.3282 191.808 76.9619 192.012 76.4994 192.291C76.2735 192.444 76.0125 192.583 75.75 192.771L75.3317 193.056C75.1883 193.158 75.0448 193.27 74.8952 193.383C74.7456 193.496 74.5899 193.613 74.4373 193.743C74.2846 193.873 74.1228 194.001 73.9626 194.14L73.4802 194.579C73.3123 194.732 73.1597 194.895 72.9918 195.059C72.2826 195.779 71.6323 196.555 71.0472 197.379C70.3948 198.307 69.8146 199.284 69.3117 200.302C68.7732 201.393 68.3141 202.522 67.938 203.68C67.7319 204.269 67.5732 204.873 67.3977 205.479C67.245 206.09 67.0924 206.7 66.9688 207.32C66.7001 208.555 66.5246 209.802 66.3704 211.034C66.2163 212.265 66.1338 213.476 66.0881 214.659C66.0636 215.248 66.0362 215.828 66.0362 216.393C66.0362 216.957 66.0163 217.515 66.0362 218.052C66.0331 218.353 66.0346 218.658 66.0392 218.963Z" fill="#6F8137"/>
<path d="M52.9901 218.643C52.9901 218.623 52.9901 218.603 52.9901 218.582V218.478C52.9901 218.42 53.0023 218.286 53.0206 218.125C53.0573 217.799 53.1229 217.321 53.2297 216.752C53.4867 215.343 53.8813 213.962 54.4081 212.63C54.5607 212.27 54.7134 211.912 54.8889 211.562C54.9744 211.39 55.0629 211.22 55.156 211.057C55.2491 210.893 55.3422 210.732 55.4384 210.576C55.626 210.276 55.8298 209.987 56.0489 209.709C56.2456 209.46 56.4561 209.222 56.6793 208.996C56.8711 208.805 57.075 208.627 57.2899 208.462C57.4542 208.332 57.6254 208.212 57.8027 208.1C57.9554 208.006 58.0744 207.948 58.1553 207.899L58.2835 207.83L58.1462 207.877C58.0592 207.911 57.9233 207.949 57.7615 208.021C57.5641 208.104 57.371 208.197 57.183 208.3C56.9374 208.434 56.7004 208.584 56.4733 208.747C56.203 208.943 55.9446 209.154 55.6994 209.379C55.4254 209.632 55.1651 209.9 54.9194 210.181C54.7912 210.333 54.663 210.477 54.5409 210.639C54.4188 210.8 54.2936 210.956 54.1746 211.122C53.9319 211.452 53.7075 211.8 53.4877 212.153C52.7043 213.459 52.0519 214.839 51.5401 216.274C51.3264 216.862 51.1722 217.362 51.0699 217.725C51.018 217.909 50.9829 218.046 50.9555 218.174L50.9173 218.403C50.9089 218.459 50.9043 218.515 50.9036 218.571C50.9036 218.594 50.9036 218.614 50.9036 218.637L52.9901 218.643Z" fill="#ABBD43"/>
<path d="M34.3427 193.706L34.6709 194.298C34.79 194.513 34.9014 194.756 35.0296 195.009C35.1578 195.263 35.2845 195.537 35.4112 195.829C35.4768 195.982 35.5425 196.124 35.6111 196.276C35.6798 196.429 35.7363 196.591 35.8019 196.752C35.9332 197.074 36.066 197.412 36.1881 197.769C36.2522 197.945 36.3163 198.125 36.3804 198.308L36.5621 198.869C36.8093 199.633 37.0291 200.44 37.2413 201.283C37.3451 201.704 37.4382 202.136 37.5359 202.572C37.6336 203.009 37.7221 203.452 37.7969 203.902C37.9648 204.798 38.1022 205.715 38.2212 206.633C38.6975 210.31 38.8074 214.017 38.815 216.804C38.815 217.474 38.815 218.089 38.815 218.636H41.6555C41.5975 218.05 41.5304 217.381 41.451 216.652C41.1457 213.828 40.6405 210.049 39.7613 206.349C39.5385 205.424 39.3034 204.503 39.0363 203.601C38.9127 203.143 38.7631 202.71 38.6288 202.272C38.4944 201.834 38.3418 201.408 38.1907 200.99C37.8854 200.153 37.5802 199.35 37.2428 198.605L37.0001 198.054C36.9147 197.876 36.8307 197.7 36.7468 197.528C36.5941 197.18 36.4155 196.852 36.2476 196.539C36.1652 196.386 36.0874 196.233 36.005 196.081L35.7562 195.649C35.6035 195.368 35.4509 195.104 35.2845 194.863C35.1181 194.622 34.9914 194.39 34.8495 194.187L34.4587 193.626C34.2252 193.288 34.013 193.042 33.8833 192.863L33.6772 192.598L33.8543 192.883C33.9627 193.082 34.1474 193.346 34.3427 193.706Z" fill="#ABBD43"/>
<path d="M29.7544 174.021C35.463 173.917 42.4446 179.348 45.2775 190.265C42.5804 181.619 32.7186 179.027 29.7544 174.021Z" fill="#6F8137"/>
<path d="M43.1391 184.743C43.3467 185.271 43.597 185.915 43.8534 186.66C44.1099 187.405 44.3922 188.252 44.6761 189.18C44.96 190.108 45.2409 191.12 45.5034 192.199C45.766 193.279 46.027 194.417 46.2483 195.605C46.4696 196.792 46.6772 198.022 46.8359 199.277C46.9245 199.903 46.9886 200.538 47.0573 201.173C47.1259 201.808 47.1794 202.447 47.2099 203.087C47.3045 204.366 47.3366 205.645 47.3488 206.903C47.3488 207.532 47.3488 208.154 47.3244 208.77C47.3132 209.075 47.3035 209.38 47.2954 209.685C47.2872 209.991 47.2699 210.291 47.2435 210.586C47.219 211.183 47.1549 211.766 47.1122 212.338C47.0695 212.911 46.9916 213.465 46.9352 214.007C46.8787 214.548 46.7825 215.075 46.7184 215.579C46.6543 216.082 46.552 216.571 46.4742 217.038C46.3963 217.505 46.2956 217.954 46.2117 218.372C46.1888 218.488 46.1643 218.601 46.1399 218.712H49.2461C49.2903 218.305 49.3377 217.882 49.3865 217.439L49.5147 215.884C49.5422 215.347 49.5727 214.791 49.6032 214.219C49.6338 213.646 49.6383 213.06 49.6414 212.462C49.6444 211.864 49.6506 211.25 49.6261 210.63C49.617 210.319 49.6078 210.005 49.5987 209.69C49.5895 209.375 49.5732 209.058 49.5498 208.739C49.5223 208.101 49.4628 207.457 49.414 206.808C49.2919 205.512 49.1469 204.201 48.9408 202.899C48.8492 202.246 48.7256 201.599 48.6157 200.953C48.5058 200.307 48.3715 199.669 48.228 199.037C47.9578 197.772 47.6449 196.54 47.3122 195.356C46.9794 194.171 46.6268 193.04 46.2697 191.975C45.9125 190.91 45.5355 189.916 45.1814 189.003C44.8272 188.09 44.4716 187.268 44.1434 186.544C43.8153 185.821 43.5191 185.196 43.2673 184.685C43.0154 184.174 42.8094 183.778 42.6644 183.51L42.4446 183.098L42.6277 183.527C42.7605 183.803 42.9284 184.216 43.1391 184.743Z" fill="#ABBD43"/>
<path d="M68.0024 124.3C68.0024 124.3 71.4368 123.728 72.9128 126.285C75.4832 123.714 77.0217 112.955 77.0217 112.955L68.1001 110.643L68.0024 124.3Z" fill="#2E353D"/>
<path d="M74.8619 76.707C74.9321 80.6924 73.221 97.3679 74.5139 105.905C74.955 108.819 75.1244 117.6 73.3996 121.332C70.0676 128.536 63.3088 130.53 63.3088 130.53L74.8619 76.707Z" fill="#2E353D"/>
<path d="M63.8782 67.3633C63.0402 78.8111 62.3518 94.5326 62.3763 95.4591C62.4083 96.8802 57.788 106.319 57.1103 112.162C56.1655 120.311 63.2158 126.163 63.3089 130.537C68.1215 125.02 75.2863 76.697 75.6602 69.3079C75.6953 68.6088 76.196 67.2916 76.7897 65.7148L63.8782 67.3633Z" fill="#ABBD43"/>
<path d="M69.6463 114.487L71.3848 120.716C71.4883 121.131 71.426 121.569 71.2111 121.939C70.9963 122.308 70.6457 122.579 70.2341 122.694C69.8225 122.809 69.3823 122.759 69.0072 122.554C68.632 122.349 68.3515 122.006 68.2252 121.598C68.1891 121.465 68.1691 121.327 68.1657 121.189L68.036 114.725C68.0333 114.526 68.1028 114.333 68.2317 114.181C68.3607 114.03 68.5402 113.931 68.737 113.901C68.9337 113.872 69.1344 113.916 69.3016 114.023C69.4688 114.131 69.5913 114.296 69.6463 114.487Z" fill="white"/>
<path d="M62.4953 105.885C62.4953 105.885 57.1164 115.247 60.3889 123.937L62.6785 128.043C59.7204 115.199 64.5773 107.437 64.5773 107.437L62.4953 105.885Z" fill="#6F8137"/>
<path d="M61.6985 126.405C61.6409 126.405 61.5842 126.39 61.5347 126.36C61.4852 126.331 61.4447 126.288 61.4177 126.237C56.5745 117.042 59.6608 110.838 63.5683 102.981C67.3064 95.4671 71.9633 86.115 71.3528 70.7522C71.354 70.671 71.3862 70.5935 71.4429 70.5354C71.4995 70.4773 71.5762 70.443 71.6572 70.4397C71.7383 70.4364 71.8176 70.4642 71.8788 70.5175C71.9399 70.5708 71.9784 70.6455 71.9862 70.7262C72.5968 86.2524 67.9078 95.6853 64.1377 103.264C60.1584 111.257 57.2935 117.033 61.9779 125.941C61.9975 125.978 62.0096 126.018 62.0135 126.059C62.0175 126.101 62.0131 126.143 62.0008 126.182C61.9884 126.222 61.9683 126.259 61.9416 126.291C61.9148 126.323 61.882 126.349 61.8451 126.368C61.8001 126.393 61.7497 126.405 61.6985 126.405Z" fill="#6F8137"/>
<path d="M68.6237 114.723C68.5425 114.723 68.4623 114.705 68.3888 114.67C68.3153 114.636 68.2503 114.585 68.1984 114.523C68.1464 114.461 68.1088 114.388 68.0881 114.309C68.0674 114.23 68.0643 114.148 68.0788 114.068L68.8603 109.795C68.8734 109.723 68.9005 109.655 68.9401 109.593C68.9796 109.532 69.0308 109.479 69.0908 109.438C69.1507 109.397 69.2182 109.367 69.2895 109.352C69.3607 109.337 69.4343 109.336 69.5059 109.349C69.5776 109.362 69.6459 109.389 69.7071 109.429C69.7683 109.468 69.8211 109.519 69.8625 109.579C69.9039 109.639 69.933 109.707 69.9483 109.778C69.9636 109.849 69.9647 109.923 69.9516 109.995L69.1686 114.268C69.1451 114.396 69.0777 114.511 68.9782 114.594C68.8787 114.677 68.7533 114.723 68.6237 114.723Z" fill="white"/>
<path d="M63.3074 130.851C63.2255 130.851 63.1469 130.819 63.0881 130.762C63.0292 130.705 62.9946 130.628 62.9914 130.546C62.9548 128.898 61.8543 126.98 60.5782 124.761C58.6336 121.368 56.2128 117.155 56.7959 112.118C57.2217 108.44 59.1694 103.418 60.592 99.7455C61.3857 97.6987 62.071 95.9296 62.0603 95.4595C62.0374 94.446 62.7441 78.497 63.5623 67.3332C63.5625 67.2897 63.5717 67.2467 63.5892 67.207C63.6068 67.1672 63.6323 67.1315 63.6642 67.1019C63.6961 67.0724 63.7338 67.0498 63.7748 67.0354C63.8158 67.0211 63.8593 67.0153 63.9027 67.0184C63.946 67.0215 63.9883 67.0336 64.0268 67.0537C64.0653 67.0738 64.0993 67.1017 64.1266 67.1355C64.154 67.1693 64.174 67.2083 64.1857 67.2502C64.1973 67.2921 64.2002 67.3359 64.1942 67.3789C63.344 78.9793 62.6678 94.6246 62.6938 95.4442C62.706 96.0166 62.184 97.3919 61.1827 99.9745C59.7738 103.612 57.8414 108.592 57.4247 112.185C56.8661 117.006 59.1297 120.95 61.1277 124.428C62.4465 126.718 63.5836 128.702 63.6248 130.516C63.6265 130.599 63.5955 130.679 63.5384 130.74C63.4813 130.8 63.4027 130.836 63.3196 130.839L63.3074 130.851Z" fill="#6F8137"/>
<path d="M63.3075 130.852C63.2465 130.852 63.1868 130.835 63.1356 130.802C63.0843 130.769 63.0436 130.722 63.0184 130.666C62.9933 130.611 62.9847 130.549 62.9937 130.489C63.0028 130.429 63.029 130.373 63.0693 130.327C67.6897 125.032 74.9261 77.5253 75.3444 69.2906C75.3465 69.2491 75.3567 69.2084 75.3746 69.1709C75.3924 69.1334 75.4174 69.0997 75.4482 69.0718C75.4791 69.044 75.5151 69.0225 75.5542 69.0086C75.5934 68.9946 75.6349 68.9885 75.6764 68.9906C75.7179 68.9927 75.7585 69.003 75.796 69.0208C75.8336 69.0386 75.8672 69.0637 75.8951 69.0945C75.9229 69.1253 75.9444 69.1613 75.9584 69.2005C75.9723 69.2396 75.9784 69.2811 75.9763 69.3226C75.7992 72.8333 73.992 86.453 71.4613 100.679C69.3244 112.714 66.203 127.695 63.5471 130.748C63.5168 130.781 63.4798 130.808 63.4384 130.826C63.3971 130.844 63.3525 130.853 63.3075 130.852Z" fill="white"/>
<path d="M59.7159 81.4615C59.6381 81.8645 60.6317 82.7086 62.5137 82.6292C64.3958 82.5498 62.8297 77.5098 62.8297 77.5098C62.8297 77.5098 59.9006 80.503 59.7159 81.4615Z" fill="#2E353D"/>
<path d="M114.964 69.184C115.375 69.4221 115.065 71.2522 114.747 71.8459C114.43 72.4397 111.937 70.2814 111.937 70.2814C111.937 70.2814 113.715 68.465 114.964 69.184Z" fill="#2E353D"/>
<path d="M112.968 87.8493C116.728 89.6962 118.249 75.1362 115.43 73.5549C112.61 71.9736 108.442 85.6178 112.968 87.8493Z" fill="#2E353D"/>
<path d="M105.44 59.4825L106.062 60.4457L106.215 60.6868L106.293 60.8074L106.362 60.9112L106.639 61.3203L106.916 61.7309L107.055 61.9369L107.207 62.1506L107.818 63.01C108.021 63.2969 108.238 63.5793 108.447 63.8647C108.656 64.1502 108.868 64.4341 109.088 64.7149L109.741 65.5605L110.413 66.4C110.634 66.6809 110.87 66.9556 111.095 67.2334C111.319 67.5112 111.553 67.7905 111.786 68.0638L112.491 68.888L113.207 69.7061C113.445 69.9788 113.688 70.2495 113.934 70.5182L114.668 71.3271C115.163 71.8629 115.659 72.3956 116.165 72.9268C116.672 73.4579 117.182 73.9815 117.692 74.505L118.467 75.2865L119.253 76.0619C119.778 76.5768 120.308 77.0881 120.842 77.5959C121.376 78.1037 121.915 78.6074 122.459 79.107C123.542 80.1063 124.642 81.0892 125.759 82.0559C126.316 82.5398 127.561 83.5823 127.561 83.5823C127.561 83.5823 130.203 83.1504 131.225 82.9596C131.739 82.8634 132.252 82.7672 132.763 82.665C133.274 82.5627 133.784 82.4574 134.289 82.349C134.795 82.2406 135.306 82.1277 135.816 82.0132C136.326 81.8987 136.828 81.7797 137.33 81.6545C137.832 81.5293 138.331 81.4027 138.832 81.2729C139.333 81.1432 139.827 81.0073 140.317 80.8639C140.807 80.7204 141.297 80.5754 141.785 80.4288C142.274 80.2823 142.756 80.1236 143.229 79.9587C143.703 79.7939 144.174 79.626 144.644 79.4566C145.114 79.2871 145.569 79.1009 146.018 78.9101L146.357 78.7697L146.685 78.6171C146.902 78.5178 147.129 78.4232 147.337 78.3118C147.544 78.2004 147.764 78.1088 147.969 78.0065L148.579 77.6829L148.766 77.5852C149.566 77.1636 150.498 77.0625 151.37 77.3025C152.243 77.5425 152.991 78.1056 153.464 78.8775C153.936 79.6494 154.097 80.5722 153.914 81.4585C153.731 82.3448 153.217 83.1281 152.478 83.6495L151.714 84.1868C151.458 84.3638 151.202 84.5241 150.951 84.6935C150.701 84.8629 150.435 85.014 150.177 85.1728L149.79 85.4063L149.401 85.6276C148.883 85.9329 148.363 86.2046 147.842 86.4839C147.322 86.7633 146.8 87.0182 146.276 87.267C145.752 87.5158 145.229 87.76 144.702 88.0011C144.176 88.2423 143.652 88.4682 143.126 88.688C142.599 88.9078 142.069 89.1261 141.541 89.3413C141.013 89.5565 140.483 89.7595 139.954 89.9518C139.424 90.1442 138.885 90.3472 138.362 90.5425C137.838 90.7379 137.293 90.9226 136.764 91.1058C136.234 91.2889 135.695 91.469 135.163 91.6446C134.63 91.8201 134.094 91.9926 133.557 92.162C132.483 92.5009 131.406 92.8255 130.324 93.1358C129.783 93.2915 129.239 93.4442 128.692 93.5937L127.867 93.8151L127.447 93.9234L126.998 94.0349C126.351 94.1726 125.682 94.1759 125.033 94.0446C124.384 93.9133 123.769 93.6503 123.226 93.2717L123.028 93.1328L122.495 92.7588L121.999 92.4062L121.022 91.6995C120.378 91.2274 119.74 90.7516 119.108 90.2724C117.841 89.3128 116.592 88.3344 115.361 87.3372C114.751 86.8381 114.129 86.3359 113.529 85.8261C112.93 85.3163 112.308 84.8034 111.71 84.286L110.808 83.5045L109.913 82.7123C109.32 82.1811 108.724 81.6438 108.138 81.105C107.552 80.5662 106.968 80.0152 106.386 79.4627L105.521 78.6247C105.232 78.3469 104.945 78.065 104.661 77.7791L103.806 76.9228L102.961 76.0543C102.677 75.7673 102.402 75.4666 102.123 75.1736C101.844 74.8805 101.566 74.5844 101.293 74.2822L100.468 73.3786L99.6563 72.4627C99.3846 72.1575 99.1175 71.8522 98.8519 71.5301C98.5863 71.2081 98.3177 70.9043 98.0567 70.5838L97.2736 69.6207L97.0783 69.378L96.8768 69.12L96.4784 68.6026L96.0785 68.0851L95.9793 67.9569L95.8938 67.8409L95.7228 67.6104L95.0375 66.6946C94.5279 66.0275 94.156 65.2658 93.9431 64.4537C93.7303 63.6417 93.6809 62.7955 93.7978 61.9642C93.9147 61.1329 94.1956 60.3331 94.6241 59.6112C95.0526 58.8893 95.6202 58.2597 96.2939 57.759C96.9677 57.2583 97.7343 56.8963 98.549 56.6942C99.3638 56.4921 100.211 56.4539 101.04 56.5817C101.87 56.7096 102.666 57.0009 103.382 57.4389C104.098 57.8768 104.72 58.4527 105.212 59.133C105.29 59.2383 105.365 59.3467 105.437 59.4551L105.44 59.4825Z" fill="#FFAD94"/>
<path d="M113.787 70.4824L111.937 70.7434L109.801 82.6491L109.9 82.7361L110.794 83.5283L111.696 84.3098C112.307 84.8272 112.904 85.3431 113.516 85.8499C113.648 85.9628 113.784 86.0727 113.919 86.1841C112.034 81.3547 112.452 74.7517 113.787 70.4824Z" fill="#CE5F49"/>
<path d="M101.79 56.0645C104.376 56.3133 114.964 69.1912 114.964 69.1912C113.111 68.6738 110.15 83.5207 112.968 87.8495C106.98 85.2867 101.558 76.4628 101.558 76.4628L101.79 56.0645Z" fill="#FA6142"/>
<path d="M101.558 76.463C102.59 78.0336 107.371 85.4929 112.968 87.842C104.125 81.3214 106.328 68.8983 104.573 61.5L101.558 76.463Z" fill="#D83A21"/>
<path d="M115.196 102.028C115.131 102.028 115.067 102.008 115.014 101.97C114.961 101.932 114.92 101.879 114.899 101.818C113.983 99.2075 110.93 94.5734 106.656 93.2516C106.575 93.2267 106.507 93.1707 106.468 93.0958C106.428 93.021 106.42 92.9334 106.445 92.8525C106.47 92.7715 106.526 92.7037 106.601 92.6641C106.675 92.6244 106.763 92.6162 106.844 92.6411C111.336 94.0331 114.535 98.8763 115.495 101.602C115.509 101.642 115.515 101.683 115.513 101.725C115.51 101.766 115.5 101.807 115.482 101.844C115.464 101.881 115.439 101.915 115.408 101.943C115.377 101.97 115.341 101.992 115.302 102.005C115.268 102.019 115.232 102.027 115.196 102.028Z" fill="#3984FF"/>
<path d="M85.1418 42.7891C85.1418 42.7891 85.7142 46.2173 84.7908 47.4979C86.2546 48.3435 88.454 46.2844 88.454 46.2844L85.1418 42.7891Z" fill="#2E353D"/>
<path d="M111.423 100.551C112.839 103.03 107.622 105.936 105.72 106.81C103.819 107.683 102.553 99.5242 102.553 99.5242C102.553 99.5242 110.156 98.3337 111.423 100.551Z" fill="#2E353D"/>
<path d="M134.096 182.535C133.883 181.937 133.317 181.673 132.505 181.812C131.693 181.951 134.267 184.999 134.267 184.999C134.267 184.999 134.448 183.529 134.096 182.535Z" fill="#2E353D"/>
<path d="M121.848 190.363C121.3 189.704 123.129 188.604 123.802 188.604C124.475 188.604 124.092 191.177 124.092 191.177C124.092 191.177 122.256 190.858 121.848 190.363Z" fill="#2E353D"/>
<path d="M80.0746 187.531C79.5678 186.833 82.071 186.229 82.071 186.229L82.2573 188.472C82.2573 188.472 80.4256 188.013 80.0746 187.531Z" fill="#2E353D"/>
<path d="M130.011 202.836C129.001 201.535 133.236 198.971 136.365 199.2C139.494 199.429 134.9 204.42 134.9 204.42C134.9 204.42 130.577 203.565 130.011 202.836Z" fill="#2E353D"/>
<path d="M125.2 189.673L132.644 206.454L137.564 203.688L130.838 180.408L125.2 189.673Z" fill="#FFAD94"/>
<path d="M164.098 213.372C164.098 213.372 162.437 212.554 160.812 212.609C159.572 212.652 158.34 212.631 157.118 212.591C153.841 212.487 146.919 209.996 144.785 208.055C142.886 206.331 138.423 200.742 138.423 200.742L136.866 198.631C135.753 198.712 132.994 204.181 130.011 202.834C132.519 205.342 128.091 211.394 128.903 214.859L130.005 216.538L163.658 215.47L164.098 213.372Z" fill="#0B61DD"/>
<path d="M158.864 212.563C159.513 212.543 160.166 212.479 160.81 212.457C162.434 212.401 164.098 213.373 164.098 213.373L163.658 215.466L159.655 214.654L158.864 212.563Z" fill="white"/>
<path d="M164.098 213.371C164.098 213.371 160.517 214.995 154.37 215.392L154.198 218.75C157.455 218.568 164.589 218.333 165.282 216.627C165.975 214.92 165.464 213.678 164.098 213.371Z" fill="white"/>
<path d="M158.375 214.134C153.279 213.616 148.265 212.986 144.957 210.699C141.421 208.257 136.892 202.796 135.413 197.391C135.413 196.498 136.985 194.505 138.437 194.605C138.105 201.321 144.17 206.903 146.45 208.636C150.031 211.359 155.726 212.033 156.921 212.299C157.418 212.407 158.864 212.567 158.864 212.567C159.812 212.986 159.655 214.657 159.655 214.657C159.612 214.581 159.394 214.233 158.375 214.134Z" fill="#84B8FF"/>
<path opacity="0.48" d="M159.644 214.633C159.648 214.639 159.652 214.646 159.655 214.653L159.644 214.633Z" fill="#97B5A8"/>
<path d="M142.753 210.011C142.706 210.012 142.659 210.002 142.616 209.981C142.578 209.963 142.544 209.938 142.515 209.908C142.487 209.877 142.465 209.841 142.451 209.801C142.437 209.762 142.431 209.72 142.433 209.679C142.435 209.637 142.445 209.596 142.463 209.558C142.524 209.431 143.99 206.452 145.955 206.452C145.999 206.449 146.043 206.455 146.084 206.469C146.125 206.484 146.162 206.507 146.194 206.537C146.226 206.566 146.251 206.602 146.269 206.642C146.286 206.682 146.295 206.725 146.295 206.769C146.295 206.812 146.286 206.855 146.269 206.895C146.251 206.935 146.226 206.971 146.194 207.001C146.162 207.03 146.125 207.053 146.084 207.068C146.043 207.082 145.999 207.088 145.955 207.085C144.649 207.085 143.403 209.07 143.034 209.833C143.008 209.886 142.968 209.93 142.919 209.962C142.869 209.993 142.812 210.011 142.753 210.011Z" fill="white"/>
<path d="M140.48 207.262C140.424 207.262 140.368 207.246 140.319 207.217C140.271 207.188 140.231 207.147 140.203 207.097C140.176 207.048 140.163 206.991 140.164 206.935C140.166 206.878 140.183 206.823 140.213 206.775C140.284 206.665 141.941 204.093 143.951 204.476C144.034 204.492 144.106 204.54 144.154 204.609C144.201 204.679 144.218 204.764 144.202 204.847C144.187 204.929 144.139 205.002 144.069 205.049C144 205.096 143.915 205.113 143.832 205.098C142.239 204.792 140.763 207.091 140.749 207.114C140.72 207.159 140.681 207.197 140.634 207.223C140.587 207.248 140.534 207.262 140.48 207.262Z" fill="white"/>
<path d="M145.446 212.07C145.404 212.071 145.362 212.062 145.323 212.046C145.285 212.03 145.25 212.007 145.221 211.977C145.191 211.948 145.168 211.913 145.152 211.875C145.136 211.836 145.128 211.795 145.128 211.754C145.128 211.712 145.137 211.671 145.153 211.632C145.443 210.933 146.966 207.472 148.439 208.052C148.48 208.065 148.518 208.087 148.55 208.115C148.583 208.144 148.609 208.179 148.628 208.218C148.646 208.258 148.656 208.3 148.657 208.344C148.659 208.387 148.651 208.43 148.635 208.47C148.619 208.511 148.595 208.547 148.565 208.578C148.534 208.608 148.497 208.632 148.457 208.648C148.417 208.664 148.374 208.672 148.33 208.671C148.287 208.669 148.244 208.659 148.205 208.641C147.546 208.378 146.343 210.417 145.737 211.875C145.713 211.933 145.673 211.982 145.621 212.017C145.569 212.052 145.508 212.07 145.446 212.07Z" fill="white"/>
<path d="M148.666 213.523C148.652 213.524 148.637 213.524 148.622 213.523C148.581 213.517 148.541 213.503 148.505 213.482C148.469 213.461 148.438 213.433 148.413 213.4C148.388 213.367 148.369 213.329 148.359 213.289C148.349 213.249 148.346 213.207 148.352 213.166C148.369 213.047 148.778 210.221 150.37 209.417C150.407 209.398 150.447 209.387 150.489 209.384C150.53 209.381 150.572 209.386 150.611 209.399C150.651 209.412 150.687 209.432 150.719 209.459C150.75 209.486 150.776 209.519 150.795 209.556C150.814 209.594 150.825 209.634 150.828 209.675C150.831 209.717 150.826 209.758 150.813 209.798C150.8 209.837 150.78 209.874 150.752 209.905C150.725 209.937 150.692 209.963 150.655 209.982C149.578 210.526 149.08 212.528 148.976 213.253C148.965 213.327 148.928 213.395 148.871 213.445C148.814 213.494 148.742 213.522 148.666 213.523Z" fill="white"/>
<path d="M152.56 214.157H152.52C152.479 214.152 152.439 214.139 152.403 214.118C152.367 214.098 152.335 214.07 152.31 214.038C152.284 214.005 152.266 213.967 152.255 213.927C152.244 213.887 152.24 213.845 152.246 213.804C152.308 213.282 152.685 210.701 153.943 210.701H153.984C154.065 210.709 154.14 210.748 154.193 210.809C154.246 210.87 154.274 210.95 154.27 211.031C154.267 211.112 154.232 211.189 154.174 211.245C154.116 211.302 154.038 211.334 153.957 211.335H153.946C153.448 211.335 153.004 212.806 152.877 213.881C152.868 213.958 152.83 214.029 152.772 214.08C152.713 214.131 152.638 214.158 152.56 214.157Z" fill="white"/>
<path d="M128.903 214.859C131.099 216.146 143.808 215.212 154.366 215.392L154.285 218.75C154.256 218.75 140.815 218.217 138.591 218.248C136.748 218.275 130.251 218.805 129.526 218.587C128.801 218.368 128.802 217.857 128.592 217.086C128.381 216.316 128.903 214.859 128.903 214.859Z" fill="#CCE3FF"/>
<path d="M138.395 217.544C140.619 217.512 146.404 218.28 154.305 217.84L154.285 218.747C146.383 219.188 140.615 218.414 138.391 218.442C136.549 218.468 130.251 218.799 129.526 218.58C128.801 218.362 128.802 217.851 128.592 217.08C129.347 218.693 136.553 217.57 138.395 217.544Z" fill="#0B61DD"/>
<path d="M138.343 219.881H138.307C137.949 219.847 137.603 219.733 137.294 219.548C136.986 219.363 136.722 219.112 136.522 218.813C136.017 218.069 135.863 217.015 136.12 216.065C136.443 214.866 137.292 213.536 138.113 212.249C139.311 210.375 140.555 208.433 140.183 206.924C140.168 206.882 140.163 206.838 140.166 206.795C140.17 206.751 140.182 206.708 140.203 206.67C140.224 206.631 140.253 206.597 140.287 206.57C140.322 206.543 140.362 206.524 140.404 206.513C140.447 206.503 140.491 206.501 140.535 206.508C140.578 206.516 140.619 206.532 140.656 206.557C140.692 206.581 140.723 206.612 140.747 206.649C140.771 206.686 140.787 206.728 140.793 206.771C141.224 208.546 139.911 210.601 138.643 212.588C137.847 213.832 137.025 215.119 136.727 216.226C136.519 216.989 136.643 217.872 137.041 218.459C137.19 218.682 137.387 218.869 137.617 219.006C137.848 219.143 138.107 219.226 138.374 219.249C138.455 219.257 138.53 219.296 138.583 219.358C138.636 219.42 138.663 219.5 138.659 219.581C138.654 219.663 138.618 219.739 138.559 219.795C138.499 219.85 138.42 219.881 138.339 219.88L138.343 219.881Z" fill="white"/>
<path d="M137.08 218.508C136.379 218.511 135.687 218.345 135.064 218.024C134.44 217.703 133.903 217.237 133.497 216.665C132.734 215.583 130.822 211.538 137.997 204.883C138.025 204.848 138.061 204.819 138.102 204.798C138.142 204.777 138.187 204.766 138.232 204.764C138.278 204.762 138.323 204.77 138.365 204.787C138.408 204.804 138.446 204.831 138.477 204.864C138.508 204.897 138.532 204.936 138.546 204.979C138.561 205.023 138.566 205.068 138.561 205.114C138.557 205.159 138.542 205.203 138.519 205.242C138.496 205.281 138.465 205.315 138.428 205.341C135.891 207.693 134.274 209.946 133.623 212.034C132.962 214.148 133.47 215.517 134.016 216.294C134.544 217.031 135.32 217.553 136.202 217.765C137.084 217.976 138.012 217.863 138.817 217.445C140.896 216.377 142.347 213.052 140.191 206.945C140.177 206.906 140.171 206.865 140.173 206.823C140.175 206.782 140.186 206.741 140.203 206.704C140.221 206.666 140.247 206.632 140.277 206.605C140.308 206.577 140.344 206.555 140.384 206.542C140.423 206.528 140.464 206.522 140.506 206.524C140.547 206.526 140.588 206.537 140.625 206.555C140.663 206.573 140.697 206.598 140.724 206.629C140.752 206.659 140.773 206.696 140.787 206.735C143.675 214.904 140.232 217.428 139.108 218.008C138.482 218.334 137.786 218.505 137.08 218.508Z" fill="white"/>
<path d="M130.525 203.582C130.322 204.093 129.352 206.569 130.525 206.649C132.307 206.769 130.525 203.582 130.525 203.582Z" fill="#0B61DD"/>
<path d="M130.011 202.836C129.819 203.106 129.939 203.741 130.525 203.582C131.111 203.424 130.011 202.836 130.011 202.836Z" fill="#0B61DD"/>
<path d="M134.558 193.282L133.852 190.84L126.983 193.691L129.158 198.594C132.366 196.857 134.558 193.282 134.558 193.282Z" fill="#CE5F49"/>
<path d="M81.8267 190.72L84.4413 204.174L89.3623 203.331L89.7165 181.715L81.8267 190.72Z" fill="#FFAD94"/>
<path d="M82.1274 199.025C82.6983 197.499 90.7941 197.185 91.3619 199.331C91.7054 200.633 90.121 202.646 90.234 205.663C90.3775 209.545 93.8163 213.561 93.3752 216.62C93.244 217.525 80.3492 217.401 80.3492 217.401C80.3492 217.401 79.7387 215.466 80.3492 213.86C80.9598 212.254 82.3457 209.452 82.5319 207.274C82.7838 204.357 81.4604 200.81 82.1274 199.025Z" fill="#0B61DD"/>
<path d="M83.1365 196.966C83.6661 195.898 87.8529 194.597 90.3104 196.904C86.7265 208.132 90.7271 212.875 89.4541 214.525H83.4692C82.2863 212.918 85.9358 205.816 83.1365 196.966Z" fill="#84B8FF"/>
<path d="M83.1059 211.678C83.0257 211.677 82.9488 211.646 82.8905 211.591C82.8322 211.536 82.7969 211.461 82.7917 211.381C82.7865 211.301 82.8117 211.222 82.8623 211.16C82.913 211.097 82.9853 211.057 83.0647 211.046C84.4857 210.856 89.1808 210.301 89.9516 211.148C89.9796 211.179 90.0012 211.215 90.0153 211.254C90.0293 211.293 90.0355 211.334 90.0336 211.376C90.0316 211.417 90.0214 211.458 90.0037 211.496C89.986 211.533 89.961 211.567 89.9302 211.595C89.8995 211.623 89.8635 211.645 89.8244 211.659C89.7852 211.673 89.7437 211.679 89.7022 211.677C89.6607 211.675 89.6199 211.665 89.5823 211.647C89.5447 211.63 89.511 211.605 89.483 211.574C89.1075 211.162 85.9037 211.305 83.1486 211.675L83.1059 211.678Z" fill="white"/>
<path d="M83.3775 210.02C83.2996 210.019 83.2248 209.99 83.1672 209.937C83.1096 209.885 83.0733 209.813 83.0652 209.736C83.0571 209.658 83.0778 209.58 83.1232 209.517C83.1687 209.454 83.2358 209.41 83.3119 209.393C84.1926 209.209 88.6358 208.352 89.6799 209.489C89.7141 209.518 89.7418 209.553 89.7612 209.593C89.7806 209.634 89.7913 209.678 89.7925 209.722C89.7937 209.767 89.7854 209.811 89.7682 209.852C89.751 209.894 89.7252 209.931 89.6926 209.961C89.66 209.992 89.6213 210.015 89.5791 210.03C89.5368 210.044 89.492 210.049 89.4475 210.045C89.403 210.041 89.3599 210.028 89.321 210.006C89.2821 209.984 89.2484 209.954 89.222 209.918C88.5992 209.24 85.3511 209.612 83.4492 210.012C83.4257 210.018 83.4016 210.02 83.3775 210.02Z" fill="white"/>
<path d="M83.788 208.363C83.7077 208.363 83.6305 208.332 83.572 208.277C83.5134 208.222 83.4778 208.147 83.4724 208.067C83.467 207.987 83.4921 207.908 83.5428 207.845C83.5934 207.783 83.6658 207.742 83.7453 207.731C85.5555 207.49 88.6678 207.184 89.1852 207.852C89.2108 207.884 89.2296 207.922 89.2407 207.962C89.2518 208.002 89.2548 208.044 89.2497 208.085C89.2446 208.126 89.2315 208.166 89.211 208.202C89.1905 208.238 89.163 208.27 89.1303 208.296C89.0975 208.321 89.06 208.34 89.02 208.351C88.9799 208.362 88.9381 208.365 88.8968 208.36C88.8556 208.355 88.8157 208.342 88.7796 208.321C88.7434 208.301 88.7117 208.274 88.6861 208.241C88.3808 207.969 85.9234 208.088 83.8292 208.36L83.788 208.363Z" fill="white"/>
<path d="M83.921 206.705C83.8408 206.705 83.7635 206.675 83.7046 206.621C83.6457 206.567 83.6097 206.492 83.6039 206.412C83.598 206.332 83.6228 206.253 83.6732 206.19C83.7236 206.128 83.7958 206.087 83.8752 206.076C84.8964 205.923 88.2849 205.488 89.0236 206.154C89.0545 206.182 89.0796 206.215 89.0975 206.253C89.1154 206.29 89.1257 206.331 89.1279 206.372C89.1301 206.414 89.1241 206.455 89.1103 206.494C89.0965 206.533 89.0751 206.569 89.0473 206.6C89.0196 206.631 88.986 206.656 88.9485 206.674C88.9111 206.692 88.8704 206.702 88.829 206.705C88.7875 206.707 88.746 206.701 88.7069 206.687C88.6678 206.673 88.6317 206.652 88.6008 206.624C88.2452 206.305 85.919 206.416 83.9668 206.702C83.9517 206.704 83.9363 206.705 83.921 206.705Z" fill="white"/>
<path d="M83.4616 205.045C83.3799 205.047 83.3008 205.016 83.2408 204.961C83.1808 204.905 83.1447 204.829 83.1399 204.747C83.1352 204.666 83.1623 204.586 83.2154 204.524C83.2685 204.461 83.3436 204.422 83.425 204.415C85.0658 204.221 88.9519 203.842 89.5915 204.509C89.6234 204.539 89.6489 204.574 89.6665 204.614C89.6841 204.653 89.6934 204.696 89.6938 204.74C89.6942 204.783 89.6858 204.826 89.6689 204.866C89.6521 204.906 89.6272 204.942 89.5958 204.972C89.5645 205.002 89.5273 205.025 89.4867 205.04C89.446 205.055 89.4026 205.062 89.3593 205.06C89.316 205.057 89.2736 205.046 89.2348 205.027C89.196 205.008 89.1615 204.98 89.1336 204.947C88.7795 204.642 85.9282 204.756 83.4998 205.043L83.4616 205.045Z" fill="white"/>
<path d="M88.1261 215.932C87.7947 215.946 87.4646 215.882 87.1626 215.745C86.8605 215.608 86.595 215.401 86.3875 215.142C84.8108 213.17 86.009 207.755 89.1732 202.547C89.1931 202.508 89.2208 202.474 89.2545 202.447C89.2882 202.419 89.3272 202.399 89.3691 202.387C89.411 202.375 89.4549 202.372 89.498 202.378C89.5411 202.384 89.5826 202.398 89.6198 202.421C89.657 202.443 89.6892 202.473 89.7144 202.509C89.7395 202.544 89.7571 202.585 89.766 202.627C89.775 202.67 89.7751 202.714 89.7663 202.757C89.7575 202.799 89.7401 202.84 89.715 202.875C86.7798 207.705 85.5099 213.03 86.8821 214.747C87.3568 215.342 88.1566 215.457 89.2571 215.088C89.2965 215.074 89.3381 215.069 89.3796 215.072C89.421 215.075 89.4615 215.086 89.4987 215.104C89.5359 215.123 89.5691 215.148 89.5964 215.18C89.6237 215.211 89.6446 215.247 89.6578 215.287C89.671 215.326 89.6763 215.368 89.6735 215.409C89.6706 215.451 89.6597 215.491 89.6412 215.528C89.6227 215.566 89.597 215.599 89.5657 215.626C89.5344 215.653 89.498 215.674 89.4586 215.687C89.0305 215.84 88.5805 215.923 88.1261 215.932Z" fill="white"/>
<path d="M91.2963 218.714H82.251C81.9779 218.714 81.7074 218.66 81.4551 218.555C81.2028 218.451 80.9735 218.297 80.7805 218.104C80.5874 217.911 80.4343 217.682 80.3299 217.429C80.2256 217.177 80.1719 216.906 80.1721 216.633V216.613H93.3752V216.633C93.3754 216.906 93.3217 217.177 93.2174 217.429C93.113 217.682 92.9599 217.911 92.7668 218.104C92.5737 218.297 92.3445 218.451 92.0922 218.555C91.8399 218.66 91.5694 218.714 91.2963 218.714Z" fill="#CCE3FF"/>
<path d="M84.91 216.424C84.3908 216.425 83.881 216.287 83.434 216.023C81.4665 214.863 80.3629 211.255 83.1699 204.607C83.2042 204.532 83.2664 204.473 83.3435 204.443C83.4206 204.413 83.5064 204.414 83.5826 204.446C83.6588 204.478 83.7194 204.539 83.7515 204.615C83.7836 204.692 83.7847 204.777 83.7545 204.854C81.1032 211.131 82.0984 214.5 83.7545 215.476C84.823 216.105 86.157 215.791 87.0041 214.713C88.5168 212.785 88.3443 208.544 82.8829 202.934C82.8539 202.904 82.831 202.869 82.8157 202.83C82.8003 202.791 82.7928 202.749 82.7935 202.708C82.7942 202.666 82.8031 202.624 82.8198 202.586C82.8365 202.548 82.8605 202.513 82.8906 202.484C82.9206 202.455 82.9561 202.432 82.995 202.417C83.0339 202.401 83.0755 202.394 83.1173 202.395C83.1591 202.395 83.2004 202.404 83.2387 202.421C83.2771 202.438 83.3118 202.462 83.3409 202.492C85.9738 205.193 87.6147 207.779 88.2252 210.178C88.7198 212.143 88.4694 213.894 87.5185 215.104C87.2131 215.508 86.8193 215.837 86.3672 216.066C85.9151 216.295 85.4166 216.418 84.91 216.424Z" fill="white"/>
<path d="M80.1721 216.613C86.7187 217.987 93.3752 216.613 93.3752 216.613C93.3752 216.613 92.7646 213.561 86.6195 213.561C80.54 213.554 80.1721 216.613 80.1721 216.613Z" fill="white"/>
<path d="M89.5608 191.262L81.9824 191.526L82.7792 195.623C86.3997 194.635 89.3303 191.643 89.5608 191.262Z" fill="#CE5F49"/>
<path d="M124.118 192.406C126.23 194.519 135.178 191.298 135.178 188.448C126.148 153.92 106.748 98.9668 106.748 98.9668L74.7994 108.801C74.7994 108.801 72.0657 141.832 82.2603 192.942C88.958 192.942 93.444 187.716 93.444 187.716C91.3544 163.984 91.6841 127.786 91.8215 117.969C91.8235 117.848 91.867 117.731 91.9447 117.639C92.0223 117.546 92.1295 117.483 92.2482 117.46C92.3668 117.437 92.4898 117.456 92.5963 117.513C92.7029 117.57 92.7866 117.662 92.8335 117.773C98.0964 130.396 122.938 189.998 124.118 192.406Z" fill="#0B61DD"/>
<path d="M81.1811 193.26C84.1575 194.939 92.2594 190.37 93.8041 187.573L93.0913 181.119C92.0747 181.318 83.6278 188.919 80.0745 187.53C80.0745 187.528 80.7995 191.318 81.1811 193.26Z" fill="#84B8FF"/>
<path d="M123.959 195.806C127.187 196.925 135.89 192.944 136.312 188.829L134.095 182.537C133.834 186.614 125.594 191.097 121.848 190.363C121.848 190.363 123.232 193.965 123.959 195.806Z" fill="#84B8FF"/>
<path d="M126.981 190.205C126.919 190.205 126.859 190.187 126.807 190.153C126.756 190.118 126.715 190.07 126.691 190.013C126.465 189.488 104.043 137.319 93.801 117.761C93.7817 117.724 93.7698 117.684 93.766 117.642C93.7622 117.601 93.7666 117.559 93.7789 117.519C93.7912 117.48 93.8113 117.443 93.8378 117.411C93.8644 117.379 93.897 117.353 93.9338 117.333C93.9706 117.314 94.0108 117.302 94.0522 117.298C94.0936 117.294 94.1353 117.299 94.175 117.311C94.2147 117.323 94.2516 117.343 94.2835 117.37C94.3154 117.397 94.3418 117.429 94.3612 117.466C104.611 137.046 127.048 189.237 127.273 189.762C127.306 189.84 127.307 189.927 127.276 190.005C127.245 190.083 127.184 190.146 127.106 190.179C127.067 190.196 127.024 190.205 126.981 190.205Z" fill="#84B8FF"/>
<path d="M92.9327 183.93C92.8571 183.928 92.7848 183.899 92.7288 183.849C92.6728 183.798 92.6368 183.729 92.6274 183.654C90.9026 170.654 89.9028 118.149 89.8921 117.619C89.8909 117.536 89.9221 117.456 89.9792 117.396C90.0362 117.336 90.1145 117.3 90.1974 117.297C90.2794 117.297 90.3582 117.329 90.4171 117.386C90.4761 117.443 90.5106 117.52 90.5134 117.602C90.5225 118.132 91.5223 170.602 93.2425 183.567C93.2534 183.65 93.2309 183.734 93.18 183.801C93.1291 183.868 93.0539 183.911 92.9708 183.923L92.9327 183.93Z" fill="#84B8FF"/>
<path d="M76.5869 154.99C84.6324 154.99 85.9481 154.543 88.1445 154.335C86.0046 149.961 79.4717 147.699 76.5869 154.99Z" fill="#FFAD94"/>
<path d="M87.4577 154.41C87.6836 154.383 87.9156 154.358 88.1445 154.335C86.0076 149.961 79.4717 147.699 76.5869 154.99H77.144C79.9403 149.747 85.0201 151.072 87.4577 154.41Z" fill="#CE5F49"/>
<path d="M76.5868 155.316H76.5318C76.4491 155.301 76.3756 155.254 76.3275 155.185C76.2795 155.116 76.2607 155.03 76.2754 154.948C76.747 152.266 78.5023 150.401 81.0895 149.833C84.211 149.148 87.7353 150.462 89.4678 152.957C89.4945 152.991 89.514 153.03 89.5251 153.072C89.5362 153.114 89.5386 153.158 89.5322 153.201C89.5258 153.243 89.5107 153.284 89.4879 153.321C89.4651 153.358 89.4349 153.39 89.3994 153.414C89.3639 153.439 89.3237 153.456 89.2813 153.465C89.2389 153.473 89.1951 153.473 89.1528 153.464C89.1104 153.455 89.0704 153.438 89.035 153.413C88.9997 153.388 88.9698 153.356 88.9473 153.319C87.3812 151.062 84.0629 149.83 81.2254 150.453C79.8517 150.758 77.4812 151.748 76.8981 155.058C76.8846 155.13 76.846 155.196 76.7891 155.243C76.7322 155.29 76.6606 155.316 76.5868 155.316Z" fill="#84B8FF"/>
<path d="M76.611 154.675C76.8583 154.698 77.0781 154.713 77.3177 154.719C77.5574 154.726 77.7924 154.732 78.0305 154.732C78.5098 154.732 78.9891 154.722 79.4699 154.707C80.43 154.677 81.3931 154.628 82.3547 154.57C84.2779 154.452 86.2027 154.303 88.1229 154.132C88.1497 154.129 88.1769 154.132 88.2026 154.14C88.2284 154.148 88.2524 154.161 88.2731 154.178C88.2938 154.196 88.3109 154.217 88.3233 154.241C88.3358 154.265 88.3434 154.291 88.3457 154.318C88.3498 154.366 88.3368 154.415 88.3089 154.454C88.2809 154.494 88.2399 154.522 88.1931 154.535C86.4866 155.031 84.7888 155.559 83.0996 156.119C82.2555 156.4 81.4206 156.693 80.5857 157.007C80.172 157.16 79.7584 157.328 79.3524 157.503C78.9465 157.672 78.5528 157.869 78.174 158.093C78.084 158.149 77.9983 158.212 77.9176 158.28C77.881 158.312 77.8478 158.346 77.8184 158.384C77.8062 158.401 77.794 158.425 77.7909 158.43L77.7787 158.47C77.7787 158.483 77.7787 158.488 77.7787 158.497C77.7739 158.589 77.7951 158.68 77.8397 158.76C77.8887 158.852 77.9481 158.938 78.0168 159.016C78.3131 159.336 78.6608 159.604 79.0456 159.81C79.43 160.026 79.8343 160.204 80.2529 160.343C80.6717 160.483 81.1024 160.585 81.5396 160.648C82.4178 160.782 83.3144 160.73 84.1711 160.495C84.5965 160.373 85.0063 160.202 85.3922 159.985C85.7796 159.767 86.1416 159.506 86.4713 159.207C86.1458 159.513 85.7875 159.781 85.4029 160.008C85.0183 160.235 84.6085 160.415 84.1818 160.546C83.3199 160.801 82.414 160.872 81.5229 160.755C81.0776 160.699 80.6383 160.604 80.2102 160.469C79.7797 160.337 79.3631 160.163 78.9662 159.95C78.56 159.743 78.1916 159.468 77.8764 159.138C77.7968 159.05 77.7277 158.954 77.6703 158.85C77.6039 158.735 77.574 158.603 77.5848 158.471C77.5886 158.439 77.5957 158.407 77.6062 158.377C77.6183 158.34 77.6363 158.306 77.6596 158.276C77.6961 158.225 77.7381 158.178 77.7848 158.135C77.8722 158.058 77.9656 157.988 78.0641 157.925C78.4469 157.687 78.8463 157.477 79.2593 157.296C79.6668 157.11 80.0789 156.937 80.4941 156.771C81.3229 156.438 82.1594 156.13 82.9989 155.831C84.6809 155.234 86.3731 154.675 88.0756 154.152L88.1564 154.555C86.2332 154.763 84.3085 154.946 82.3822 155.104C81.4175 155.18 80.4529 155.257 79.4821 155.298C78.9983 155.322 78.5129 155.341 78.026 155.35C77.7817 155.35 77.5375 155.35 77.2918 155.35C77.046 155.35 76.785 155.335 76.5515 155.318C76.5081 155.317 76.4653 155.308 76.4257 155.29C76.386 155.273 76.3504 155.247 76.3211 155.215C76.2918 155.183 76.2693 155.145 76.2551 155.104C76.2409 155.063 76.2352 155.02 76.2384 154.977C76.2417 154.933 76.2537 154.891 76.2739 154.853C76.2941 154.814 76.3219 154.78 76.3557 154.753C76.3894 154.726 76.4284 154.706 76.4703 154.694C76.5121 154.683 76.5558 154.68 76.5988 154.686L76.611 154.675Z" fill="#84B8FF"/>
<path d="M83.5468 66.3564L82.6966 67.6004L81.7808 68.9558C81.4328 69.4809 81.0329 70.0899 80.6055 70.7523L79.943 71.7903L79.2424 72.9091C78.7662 73.6723 78.264 74.4935 77.7558 75.3513C77.2475 76.2091 76.7255 77.0852 76.2065 77.9888C75.6875 78.8924 75.1655 79.8205 74.6526 80.7455C74.1398 81.6704 73.6376 82.6107 73.1446 83.5326C72.6516 84.4545 72.1754 85.3642 71.7236 86.2572C70.8077 88.0308 70.0018 89.7037 69.3226 91.1415C68.6434 92.5794 68.1015 93.7837 67.7336 94.6201L67.1872 95.8885L67.1216 96.0412C66.5813 97.2946 65.5652 98.2822 64.2969 98.7865C63.0285 99.2909 61.6118 99.2708 60.3582 98.7306C57.881 97.6622 57.249 91.2178 57.4169 90.7386C60.8696 81.5407 68.161 60.0067 74.7045 56.7006C74.7045 56.7006 78.5739 55.5513 81.5732 57.3554C82.2868 57.7844 82.9088 58.3498 83.4038 59.0192C83.8989 59.6887 84.2571 60.4491 84.4581 61.2571C84.6591 62.0651 84.6989 62.9047 84.5753 63.7281C84.4517 64.5515 84.167 65.3424 83.7376 66.0557C83.678 66.1488 83.6048 66.2618 83.5468 66.3564Z" fill="#E27960"/>
<path d="M76.5867 155.315C76.5451 155.315 76.5039 155.307 76.4654 155.291C76.427 155.275 76.3921 155.251 76.3628 155.222C76.3334 155.192 76.3102 155.157 76.2944 155.119C76.2786 155.08 76.2706 155.039 76.2708 154.997C76.2708 154.938 76.3364 149.009 82.1091 148.229C82.1923 148.218 82.2765 148.241 82.3432 148.292C82.4099 148.343 82.4536 148.418 82.4648 148.501C82.4759 148.584 82.4535 148.668 82.4026 148.735C82.3516 148.802 82.2762 148.846 82.1931 148.857C80.0012 149.153 78.4458 150.273 77.5697 152.184C77.1697 153.071 76.9438 154.026 76.9042 154.997C76.9042 155.039 76.896 155.08 76.88 155.119C76.8641 155.157 76.8407 155.192 76.8112 155.222C76.7817 155.251 76.7467 155.275 76.7082 155.291C76.6697 155.307 76.6284 155.315 76.5867 155.315Z" fill="#84B8FF"/>
<path d="M81.9978 54.5312L100.642 55.2166C107.774 59.4904 103.707 73.42 104.817 76.4773C102.882 77.358 82.9701 81.2396 74.7964 75.3692C74.7964 75.3692 75.7412 60.1757 74.6987 56.6956C76.9837 55.3021 79.5571 54.9953 81.9978 54.5312Z" fill="white"/>
<path d="M94.079 117.93H90.202C90.1178 117.93 90.0371 117.897 89.9775 117.837C89.918 117.778 89.8845 117.697 89.8845 117.613V108.071C89.8901 107.991 89.9259 107.916 89.9847 107.861C90.0435 107.806 90.1208 107.776 90.2012 107.776C90.2816 107.776 90.359 107.806 90.4178 107.861C90.4766 107.916 90.5124 107.991 90.518 108.071V117.297H93.7233L92.6167 108.109C92.6125 108.029 92.639 107.95 92.6907 107.889C92.7425 107.827 92.8157 107.787 92.8955 107.778C92.9754 107.768 93.0559 107.789 93.1209 107.836C93.1859 107.884 93.2304 107.954 93.2456 108.033L94.3949 117.576C94.4001 117.62 94.3958 117.665 94.3824 117.708C94.3689 117.751 94.3466 117.79 94.317 117.823C94.2873 117.857 94.2509 117.884 94.2101 117.902C94.1694 117.92 94.1252 117.93 94.0805 117.93H94.079Z" fill="#84B8FF"/>
<path d="M74.468 119.977C82.7104 119.977 94.5962 108.587 100.303 105.485C100.303 105.485 98.2152 102.604 90.7559 103.889L74.8023 108.801C74.8023 108.801 74.4772 112.731 74.468 119.977Z" fill="#2E353D"/>
<path d="M105.665 107.757H96.6156C96.5722 107.76 96.5286 107.754 96.4875 107.74C96.4465 107.725 96.4089 107.702 96.377 107.673C96.3452 107.643 96.3198 107.607 96.3024 107.567C96.2851 107.527 96.2761 107.484 96.2761 107.441C96.2761 107.397 96.2851 107.354 96.3024 107.314C96.3198 107.274 96.3452 107.238 96.377 107.208C96.4089 107.179 96.4465 107.156 96.4875 107.141C96.5286 107.127 96.5722 107.121 96.6156 107.124H105.665C105.746 107.129 105.821 107.165 105.876 107.224C105.93 107.283 105.961 107.36 105.961 107.441C105.961 107.521 105.93 107.598 105.876 107.657C105.821 107.716 105.746 107.752 105.665 107.757Z" fill="#84B8FF"/>
<path d="M72.9126 116.392C82.0128 120.272 107.483 98.5962 111.423 100.556C108.017 90.7369 104.823 76.4837 104.823 76.4837C94.0818 78.7015 80.2712 69.9066 74.8022 75.3756C72.8622 79.8036 73.8818 101.104 72.9126 116.392Z" fill="#FA6142"/>
<path d="M101.308 78.8196C97.4431 78.8196 93.3417 77.9038 89.3411 77.0154C83.2357 75.6539 77.466 74.3702 74.601 77.2352C74.5403 77.2882 74.4618 77.316 74.3813 77.3132C74.3008 77.3104 74.2244 77.2771 74.1676 77.22C74.1107 77.163 74.0777 77.0864 74.0751 77.006C74.0726 76.9255 74.1007 76.847 74.1538 76.7865C77.2645 73.6758 83.1975 74.9976 89.4785 76.3957C94.8208 77.5848 100.334 78.815 105.141 77.8229C105.223 77.8059 105.308 77.8222 105.378 77.8683C105.449 77.9144 105.498 77.9864 105.515 78.0686C105.532 78.1508 105.515 78.2364 105.469 78.3065C105.423 78.3766 105.351 78.4256 105.269 78.4426C103.965 78.7022 102.638 78.8285 101.308 78.8196Z" fill="white"/>
<path d="M122.976 147.332C122.976 147.332 117.261 153.479 117.261 154.506C117.261 155.533 124.119 150.93 124.119 150.93L122.976 147.332Z" fill="#FFAD94"/>
<path d="M123.416 148.715L122.976 147.332C122.976 147.332 117.261 153.479 117.261 154.506C117.261 154.811 117.901 154.607 118.788 154.161C120.053 152.415 122.529 149.683 123.416 148.715Z" fill="#CE5F49"/>
<path d="M117.443 154.976C117.351 154.977 117.26 154.954 117.18 154.907C117.107 154.868 117.047 154.81 117.005 154.738C116.964 154.667 116.943 154.585 116.945 154.503C116.945 153.434 121.332 148.617 122.677 147.164C122.735 147.107 122.813 147.075 122.894 147.074C122.975 147.073 123.054 147.103 123.113 147.159C123.173 147.214 123.209 147.29 123.215 147.371C123.22 147.452 123.194 147.532 123.142 147.594C120.645 150.291 118.055 153.373 117.637 154.31C118.519 154.077 121.422 152.337 123.876 150.681C123.946 150.634 124.032 150.616 124.114 150.632C124.196 150.648 124.269 150.696 124.316 150.766C124.363 150.836 124.38 150.921 124.364 151.004C124.348 151.086 124.3 151.159 124.231 151.206C124.215 151.215 122.704 152.236 121.121 153.19C118.667 154.689 117.812 154.976 117.443 154.976Z" fill="#84B8FF"/>
<path d="M123.487 151.695L123.365 151.771C123.286 151.822 123.182 151.889 123.042 151.986C122.66 152.256 122.303 152.557 121.973 152.887C121.753 153.107 121.549 153.342 121.363 153.591C121.156 153.863 120.982 154.159 120.845 154.473C120.699 154.796 120.631 155.149 120.647 155.503C120.66 155.681 120.702 155.855 120.772 156.019L120.799 156.082L120.81 156.106L120.819 156.121C120.838 156.147 120.86 156.169 120.885 156.188C120.953 156.238 121.028 156.278 121.108 156.308C121.473 156.431 121.852 156.514 122.236 156.555C122.622 156.607 122.999 156.642 123.379 156.675C123.759 156.709 124.115 156.736 124.456 156.773C124.784 156.797 125.108 156.856 125.423 156.95C125.461 156.965 125.497 156.984 125.531 157.007C125.572 157.032 125.602 157.072 125.615 157.118C125.619 157.142 125.618 157.166 125.612 157.189C125.605 157.213 125.594 157.234 125.578 157.252C125.555 157.282 125.528 157.309 125.499 157.333C125.392 157.412 125.277 157.478 125.156 157.532C124.934 157.635 124.734 157.709 124.569 157.77C124.241 157.889 124.05 157.948 124.05 157.948C124.05 157.948 124.238 157.88 124.56 157.744C124.713 157.675 124.916 157.591 125.13 157.478C125.243 157.422 125.349 157.353 125.447 157.272C125.494 157.232 125.542 157.173 125.528 157.138C125.514 157.103 125.452 157.066 125.388 157.045C125.079 156.969 124.762 156.928 124.444 156.923C124.104 156.903 123.742 156.892 123.367 156.878C122.991 156.865 122.603 156.848 122.207 156.814C121.797 156.791 121.392 156.722 120.998 156.608C120.889 156.572 120.787 156.52 120.692 156.456C120.634 156.417 120.583 156.37 120.54 156.315L120.522 156.289L120.511 156.272C120.497 156.25 120.497 156.245 120.489 156.231L120.451 156.158C120.356 155.961 120.294 155.749 120.268 155.532C120.228 155.117 120.286 154.699 120.438 154.311C120.572 153.956 120.748 153.619 120.961 153.305C121.15 153.028 121.358 152.765 121.582 152.516C121.918 152.145 122.284 151.804 122.678 151.496C122.82 151.387 122.942 151.298 123.019 151.245L123.138 151.164C123.172 151.14 123.21 151.123 123.251 151.115C123.292 151.106 123.334 151.105 123.374 151.113C123.415 151.12 123.454 151.135 123.489 151.158C123.524 151.18 123.554 151.21 123.578 151.244C123.602 151.278 123.618 151.316 123.627 151.357C123.636 151.398 123.637 151.44 123.629 151.481C123.622 151.521 123.606 151.561 123.584 151.595C123.561 151.63 123.532 151.661 123.498 151.684L123.487 151.695Z" fill="#84B8FF"/>
<path d="M117.051 150.722C116.997 150.722 116.943 150.708 116.896 150.682C116.849 150.656 116.809 150.618 116.78 150.572C116.752 150.527 116.735 150.474 116.733 150.42C116.73 150.366 116.741 150.312 116.765 150.264C117.85 148.039 122.037 145.557 122.216 145.451C122.288 145.415 122.371 145.408 122.448 145.431C122.525 145.454 122.591 145.505 122.631 145.575C122.672 145.644 122.685 145.727 122.667 145.805C122.65 145.884 122.603 145.952 122.536 145.998C122.495 146.022 118.337 148.487 117.336 150.542C117.31 150.595 117.27 150.641 117.219 150.673C117.169 150.705 117.11 150.722 117.051 150.722Z" fill="#84B8FF"/>
<path d="M100.303 117.931H94.0787C94.0353 117.934 93.9917 117.928 93.9507 117.914C93.9096 117.899 93.872 117.876 93.8402 117.847C93.8083 117.817 93.7829 117.781 93.7656 117.741C93.7482 117.701 93.7393 117.658 93.7393 117.614C93.7393 117.571 93.7482 117.528 93.7656 117.488C93.7829 117.448 93.8083 117.412 93.8402 117.382C93.872 117.353 93.9096 117.33 93.9507 117.315C93.9917 117.301 94.0353 117.295 94.0787 117.298H100.3C100.344 117.295 100.387 117.301 100.428 117.315C100.469 117.33 100.507 117.353 100.539 117.382C100.571 117.412 100.596 117.448 100.613 117.488C100.631 117.528 100.64 117.571 100.64 117.614C100.64 117.658 100.631 117.701 100.613 117.741C100.596 117.781 100.571 117.817 100.539 117.847C100.507 117.876 100.469 117.899 100.428 117.914C100.387 117.928 100.344 117.934 100.3 117.931H100.303Z" fill="#84B8FF"/>
<path d="M88.1444 128C88.1231 128.003 88.1016 128.003 88.0803 128C88.0395 127.992 88.0009 127.976 87.9665 127.952C87.9321 127.929 87.9026 127.899 87.8798 127.864C87.857 127.83 87.8412 127.791 87.8334 127.75C87.8257 127.709 87.826 127.667 87.8345 127.626L89.8906 117.552C89.8969 117.51 89.9118 117.469 89.9344 117.432C89.9571 117.395 89.987 117.364 90.0223 117.339C90.0577 117.314 90.0977 117.297 90.1399 117.288C90.1822 117.279 90.2258 117.279 90.2681 117.288C90.3103 117.296 90.3504 117.313 90.3859 117.338C90.4213 117.363 90.4513 117.394 90.4742 117.431C90.497 117.468 90.5121 117.508 90.5185 117.551C90.525 117.594 90.5227 117.637 90.5118 117.679L88.4542 127.753C88.4386 127.823 88.3993 127.886 88.3429 127.931C88.2865 127.976 88.2165 128.001 88.1444 128Z" fill="#84B8FF"/>
<path d="M97.0187 53.3965C100.632 56.2493 96.3135 60.6666 95.8281 62.2265C93.4272 60.0896 92.145 55.1564 97.0187 53.3965Z" fill="#D83A21"/>
<path d="M85.6579 52.2852C87.8955 54.1458 90.437 52.7858 90.437 52.7858L85.3023 58.0304C85.3023 58.0304 83.2844 52.8133 85.6579 52.2852Z" fill="#D83A21"/>
<path d="M91.0216 70.7433C91.2669 70.7433 91.4657 70.5363 91.4657 70.2809C91.4657 70.0254 91.2669 69.8184 91.0216 69.8184C90.7762 69.8184 90.5774 70.0254 90.5774 70.2809C90.5774 70.5363 90.7762 70.7433 91.0216 70.7433Z" fill="#FA6142"/>
<path d="M89.8324 67.3918C90.0777 67.3918 90.2765 67.1847 90.2765 66.9293C90.2765 66.6739 90.0777 66.4668 89.8324 66.4668C89.5871 66.4668 89.3882 66.6739 89.3882 66.9293C89.3882 67.1847 89.5871 67.3918 89.8324 67.3918Z" fill="#FA6142"/>
<path d="M88.3414 64.5656C88.5867 64.5656 88.7856 64.3585 88.7856 64.1031C88.7856 63.8477 88.5867 63.6406 88.3414 63.6406C88.0961 63.6406 87.8972 63.8477 87.8972 64.1031C87.8972 64.3585 88.0961 64.5656 88.3414 64.5656Z" fill="#FA6142"/>
<path d="M85.7144 44.7949C86.6058 48.2934 85.4091 56.7403 86.4928 60.0662C95.7869 65.6435 98.5755 60.0662 98.5755 60.0662C98.5755 60.0662 96.5042 56.8608 96.2982 52.0589C96.1013 47.4584 85.7144 44.7949 85.7144 44.7949Z" fill="#FFAD94"/>
<path d="M96.9226 56.064C96.5667 54.7562 96.3574 53.4129 96.2983 52.0588C96.1014 47.4584 85.7786 44.9414 85.7786 44.9414C86.8837 48.8871 90.6232 55.6336 96.9226 56.064Z" fill="#CE5F49"/>
<path d="M100.989 40.256C103.431 38.5159 105.272 33.082 101.042 30.0583C97.0048 27.2422 89.0311 21.5214 86.9324 27.6848L100.989 40.256Z" fill="#2E353D"/>
<path d="M85.1876 43.2926C85.351 44.1047 86.5171 46.8857 87.5688 47.9969C88.5197 49.0012 91.261 52.5393 95.8844 52.1272C99.537 51.8006 100.599 45.3746 100.813 42.8912C100.982 40.9069 101.477 34.4962 100.123 31.7289C98.7692 28.9616 86.9323 27.6855 86.9323 27.6855C81.7503 31.7289 85.1876 43.2926 85.1876 43.2926Z" fill="#FFAD94"/>
<path d="M100.123 31.7281C100.703 32.9141 100.943 34.764 101.016 36.6506C100.546 36.901 98.2689 37.4276 95.8099 36.6766C91.8246 35.4555 90.7088 32.1936 89.1199 31.8212C89.1199 31.8212 88.0605 28.6158 89.5121 28.0312C93.0762 28.5792 99.1755 29.785 100.123 31.7281Z" fill="#CE5F49"/>
<path d="M84.2798 38.7227C83.8219 35.0258 81.7628 33.5559 86.9326 27.6855C86.9326 27.6855 97.9606 28.9891 97.9606 29.7614C97.9606 29.7614 102.508 32.3822 104.797 32.1364C103.643 34.7496 100.838 37.0712 96.1137 35.7783C92.5237 34.7969 90.0525 30.7535 87.8209 32.0555C89.8449 35.5021 86.1099 40.4505 86.1099 40.4505L84.2798 38.7227Z" fill="#2E353D"/>
<path d="M98.5359 26.842C97.7727 26.0117 95.5763 23.6229 91.5146 24.0259C82.3778 24.9417 83.1883 33.3733 83.1883 33.3733L98.5359 26.842Z" fill="#FA6142"/>
<path d="M97.904 26.2148C98.1254 26.4123 98.3363 26.6212 98.5359 26.8406L83.1929 33.372C83.1929 33.372 88.8633 26.4163 97.904 26.2148Z" fill="#D83A21"/>
<path d="M89.1242 31.2346L89.1792 31.343C89.2051 31.3964 89.2402 31.4697 89.2708 31.5429C89.3013 31.6162 89.3196 31.6681 89.3471 31.7429C89.4524 32.0344 89.576 32.4221 89.7333 32.877C89.8905 33.3318 90.0813 33.8554 90.3255 34.4033C90.4445 34.675 90.5819 34.9467 90.7269 35.2215C90.8719 35.4962 91.0322 35.7649 91.2123 36.0228C91.3857 36.2817 91.5759 36.529 91.7816 36.7631C91.8854 36.8776 91.9862 36.9936 92.0976 37.0958C92.2027 37.2032 92.3132 37.3051 92.4288 37.4011C92.5372 37.5003 92.6593 37.5782 92.7722 37.6667C92.8852 37.7552 93.0073 37.8193 93.1233 37.8911C93.2393 37.9628 93.3584 38.0208 93.4744 38.0758C93.5904 38.1307 93.7064 38.178 93.8178 38.2208L94.146 38.3307L94.4512 38.4055C94.642 38.4528 94.8145 38.4665 94.9565 38.4925L95.4052 38.523L94.9473 38.5596C94.8038 38.5596 94.6268 38.5688 94.4238 38.5505L94.1002 38.5215L93.7445 38.4589C93.6209 38.4329 93.4942 38.3948 93.3614 38.3612C93.2286 38.3276 93.0989 38.2711 92.96 38.2223C92.8211 38.1735 92.6868 38.1063 92.5479 38.0391C92.409 37.972 92.267 37.8987 92.1342 37.8102C92.0014 37.7217 91.8579 37.6377 91.7251 37.5385C91.5924 37.4393 91.4596 37.337 91.3283 37.2332C91.067 37.0134 90.8202 36.7768 90.5895 36.525C89.6508 35.5145 88.9716 34.3148 88.503 33.4249C88.2695 32.9792 88.0863 32.6083 87.9581 32.3748L87.8757 32.2222C87.8573 32.1947 87.8482 32.184 87.839 32.1687L87.7734 32.0772L87.7642 32.0634C87.6962 31.979 87.6462 31.8816 87.6172 31.7772C87.5883 31.6727 87.581 31.5634 87.5959 31.4561C87.6108 31.3487 87.6476 31.2455 87.7039 31.1529C87.7602 31.0603 87.8349 30.9802 87.9233 30.9175C88.0118 30.8549 88.1121 30.811 88.2181 30.7886C88.3242 30.7662 88.4337 30.7658 88.5399 30.7873C88.6462 30.8089 88.7469 30.852 88.8358 30.9139C88.9247 30.9759 89 31.0554 89.0571 31.1476C89.0817 31.1748 89.1041 31.2039 89.1242 31.2346Z" fill="#2E353D"/>
<path d="M101.042 30.0576C100.351 29.4394 84.2308 32.2021 83.6142 38.3C81.7826 36.5874 82.0619 34.0521 84.0294 32.5486C88.3917 29.215 97.3805 26.2615 99.4365 26.9988C101.349 27.6841 101.042 30.0576 101.042 30.0576Z" fill="#FA6142"/>
<path d="M88.0313 31.8933C87.0694 32.3106 86.1429 32.8052 85.261 33.3724V31.6934C86.1406 31.1018 87.0672 30.5831 88.0313 30.1426V31.8933Z" fill="#FCD738"/>
<path d="M98.0138 44.3088C97.907 44.3578 97.7974 44.4006 97.6857 44.437C97.4379 44.523 97.1823 44.5843 96.9225 44.6202C96.7783 44.6396 96.633 44.6493 96.4875 44.6492C96.4193 44.653 96.351 44.653 96.2829 44.6492C96.2173 44.6492 96.1547 44.6415 96.0982 44.6324L95.9456 44.6079L95.8235 44.5789L95.7166 44.553C95.6725 44.5417 95.6312 44.5212 95.5956 44.4927C95.5601 44.4642 95.531 44.4285 95.5103 44.3879C95.4896 44.3473 95.4778 44.3027 95.4757 44.2572C95.4736 44.2117 95.4812 44.1662 95.4981 44.1239C95.5149 44.0816 95.5406 44.0433 95.5734 44.0117C95.6062 43.98 95.6454 43.9558 95.6883 43.9405C95.7312 43.9252 95.7769 43.9192 95.8224 43.923C95.8678 43.9267 95.9119 43.9401 95.9517 43.9623L95.967 43.9715L96.0402 44.0127L96.1242 44.0615L96.2402 44.1149C96.2862 44.1369 96.3336 44.1558 96.3821 44.1714C96.4365 44.1929 96.4921 44.2112 96.5485 44.2264C96.6731 44.2628 96.8001 44.2904 96.9286 44.3088C97.1765 44.346 97.4276 44.3587 97.678 44.3469C97.7905 44.3401 97.9026 44.3273 98.0138 44.3088Z" fill="#E27960"/>
<path d="M87.4697 60.7793C87.4697 60.7793 90.643 64.3861 92.5693 70.0169C94.1723 67.4119 95.4852 64.6393 96.4844 61.7485L87.4697 60.7793Z" fill="#FFAD94"/>
<path d="M88.8192 61.3013L88.7414 62.4537C88.3583 61.9012 88.0347 61.4753 87.8103 61.1914L88.8192 61.3013Z" fill="#D83A21"/>
<path d="M95.7822 63.6393L95.77 62.5449L96.1928 62.5816C96.086 62.87 95.9486 63.2272 95.7822 63.6393Z" fill="#D83A21"/>
<path d="M86.4273 43.7793L85.4443 44.1136C85.5359 44.3639 85.6504 44.6463 85.7786 44.9424C86.1236 44.7379 86.4105 44.0067 86.4273 43.7793Z" fill="#CE5F49"/>
<path d="M86.7998 40.0261C86.7998 40.0261 85.7039 36.9276 84.0524 37.0817C80.0838 37.4496 82.6344 43.5108 84.8567 44.1213C85.568 44.3182 86.113 43.7962 86.113 43.7962L86.7998 40.0261Z" fill="#E27960"/>
<path d="M85.7938 40.3377C85.1833 39.257 84.2812 39.3623 84.0675 40.066C83.7928 40.9665 85.0688 43.0973 86.2548 42.3922L85.7938 40.3377Z" fill="#CE5F49"/>
<path d="M84.8534 44.1195C83.9467 43.8707 82.9851 42.7167 82.4341 41.4102C83.6033 44.0615 85.7097 43.2418 86.2958 42.8404L86.4255 43.7562C86.4255 43.7562 85.5647 44.3164 84.8534 44.1195Z" fill="#FFAD94"/>
<path d="M85.058 45.0158C85.4204 45.0158 85.7143 44.7219 85.7143 44.3595C85.7143 43.997 85.4204 43.7031 85.058 43.7031C84.6955 43.7031 84.4016 43.997 84.4016 44.3595C84.4016 44.7219 84.6955 45.0158 85.058 45.0158Z" fill="#FCD738"/>
<path d="M84.2308 37.9837C83.5409 37.6646 82.5167 37.9028 82.1321 38.379C82.3931 37.6814 82.9853 37.0053 84.1164 36.9961C85.7786 36.9961 86.8073 40.0244 86.8073 40.0244L86.3036 42.8405C86.0594 41.479 85.6275 38.6293 84.2308 37.9837Z" fill="#FFAD94"/>
<path d="M88.5674 37.838H95.3948C95.3948 37.838 95.6604 36.1208 93.4105 36.0231C91.1607 35.9255 88.5674 37.838 88.5674 37.838Z" fill="#2E353D"/>
<path d="M97.7422 37.7088H101.065C101.065 37.7088 100.552 36.4297 99.1511 36.4297C97.5331 36.4297 97.7422 37.7088 97.7422 37.7088Z" fill="#2E353D"/>
<path d="M103.953 103.085C103.911 103.085 103.87 103.076 103.831 103.06C103.793 103.045 103.758 103.021 103.728 102.992C103.699 102.962 103.676 102.927 103.66 102.889C103.644 102.85 103.635 102.809 103.635 102.767V101.241C103.641 101.161 103.677 101.086 103.736 101.031C103.794 100.976 103.872 100.945 103.952 100.945C104.033 100.945 104.11 100.976 104.169 101.031C104.228 101.086 104.263 101.161 104.269 101.241V102.767C104.269 102.851 104.236 102.932 104.176 102.991C104.117 103.051 104.037 103.084 103.953 103.085Z" fill="#3984FF"/>
<path d="M86.8271 95.433C86.7544 95.4331 86.6839 95.4083 86.6272 95.3628C81.6299 91.3195 78.9862 86.2947 78.5466 79.9984C78.1665 74.5478 79.4914 68.9033 80.6621 63.9243C81.4085 60.7418 82.1152 57.7364 82.303 55.1339C82.3033 55.0905 82.3124 55.0475 82.33 55.0077C82.3475 54.968 82.373 54.9322 82.4049 54.9027C82.4369 54.8732 82.4745 54.8506 82.5155 54.8362C82.5565 54.8218 82.6001 54.816 82.6434 54.8192C82.6868 54.8223 82.729 54.8343 82.7675 54.8545C82.8061 54.8746 82.84 54.9024 82.8674 54.9362C82.8947 54.97 82.9148 55.0091 82.9264 55.051C82.938 55.0929 82.9409 55.1367 82.9349 55.1797C82.7426 57.8325 82.0313 60.8624 81.2788 64.0693C78.8595 74.3707 76.1166 86.0489 87.0256 94.8713C87.0764 94.9124 87.1132 94.9682 87.131 95.031C87.1488 95.0939 87.1466 95.1607 87.1249 95.2223C87.1031 95.2839 87.0628 95.3372 87.0095 95.375C86.9562 95.4127 86.8925 95.433 86.8271 95.433Z" fill="#84B8FF"/>
<path d="M88.0254 99.6333C88.8252 99.5066 89.4128 99.0227 89.338 98.5434C89.2632 98.0642 88.552 97.7879 87.7522 97.9161C86.9523 98.0443 87.2256 99.7554 88.0254 99.6333Z" fill="#2E353D"/>
<path d="M86.8377 99.3562C86.7264 99.3562 86.6196 99.312 86.5409 99.2333C86.4622 99.1546 86.4179 99.0478 86.4179 98.9365L86.4072 95.1206C86.4068 95.0654 86.4173 95.0107 86.4382 94.9596C86.459 94.9085 86.4898 94.862 86.5286 94.8229C86.5675 94.7837 86.6138 94.7526 86.6647 94.7314C86.7156 94.7102 86.7703 94.6993 86.8255 94.6993C86.8808 94.6983 86.9358 94.7084 86.9872 94.729C87.0385 94.7496 87.0853 94.7803 87.1245 94.8193C87.1638 94.8583 87.1949 94.9048 87.2159 94.956C87.2369 95.0072 87.2474 95.0622 87.2467 95.1175L87.2574 98.9334C87.2576 98.9885 87.247 99.0432 87.2261 99.0942C87.2051 99.1452 87.1744 99.1916 87.1356 99.2307C87.0967 99.2698 87.0506 99.3009 86.9997 99.3222C86.9489 99.3435 86.8943 99.3545 86.8392 99.3547L86.8377 99.3562Z" fill="#84B8FF"/>
<path d="M86.8377 99.9287C87.3864 99.9287 87.8313 99.4839 87.8313 98.9351C87.8313 98.3863 87.3864 97.9414 86.8377 97.9414C86.2889 97.9414 85.844 98.3863 85.844 98.9351C85.844 99.4839 86.2889 99.9287 86.8377 99.9287Z" fill="#84B8FF"/>
<path d="M104.907 92.0645C104.366 91.454 104.22 90.7122 104.579 90.3855C104.937 90.0589 105.664 90.2955 106.204 90.8999C106.745 91.5043 105.446 92.669 104.907 92.0645Z" fill="#2E353D"/>
<path d="M106.268 92.693C106.189 92.6926 106.111 92.6698 106.044 92.6272C105.977 92.5845 105.923 92.5238 105.889 92.452C105.855 92.3801 105.842 92.3002 105.852 92.2213C105.861 92.1424 105.893 92.0678 105.943 92.0061L108.365 89.0526C108.437 88.9686 108.538 88.9159 108.648 88.906C108.758 88.8961 108.867 88.9297 108.952 88.9997C109.037 89.0696 109.091 89.1702 109.103 89.2798C109.115 89.3893 109.083 89.4991 109.014 89.5853L106.595 92.5388C106.555 92.5872 106.506 92.6262 106.449 92.6529C106.393 92.6795 106.331 92.6932 106.268 92.693Z" fill="#84B8FF"/>
<path d="M106.269 93.2666C106.817 93.2666 107.262 92.8217 107.262 92.273C107.262 91.7242 106.817 91.2793 106.269 91.2793C105.72 91.2793 105.275 91.7242 105.275 92.273C105.275 92.8217 105.72 93.2666 106.269 93.2666Z" fill="#84B8FF"/>
<path d="M108.689 89.6373C108.634 89.6372 108.58 89.6227 108.532 89.5952C108.484 89.5677 108.444 89.5281 108.416 89.4804C108.389 89.4326 108.374 89.3785 108.373 89.3232C108.373 89.268 108.387 89.2137 108.415 89.1656C110.272 85.858 109.468 82.0146 106.259 78.884C104.51 77.2144 102.401 75.9681 100.094 75.2406C99.0396 77.8003 97.643 80.154 96.0113 82.068C92.783 85.8549 89.8539 85.4871 88.7443 85.1543C87.9387 84.9227 87.2193 84.4585 86.6763 83.8199C86.1333 83.1813 85.7907 82.3967 85.6915 81.5643C85.4183 79.3374 86.7874 77.1531 89.4464 75.5733C92.6517 73.6639 96.3761 73.5372 99.7402 74.4789C102.065 68.5383 102.57 61.3354 99.4639 55.3307C99.4244 55.2554 99.4165 55.1675 99.4418 55.0864C99.4672 55.0052 99.5237 54.9374 99.599 54.898C99.6743 54.8585 99.7622 54.8506 99.8433 54.8759C99.9245 54.9012 99.9922 54.9578 100.032 55.0331C102.746 60.2807 102.489 65.8061 101.798 69.5167C101.468 71.2689 100.979 72.9872 100.335 74.6499C102.72 75.4069 104.9 76.6979 106.71 78.4246C110.135 81.7689 110.983 85.9038 108.973 89.4709C108.946 89.522 108.905 89.5646 108.855 89.594C108.804 89.6233 108.747 89.6383 108.689 89.6373ZM95.7014 74.5369C93.6164 74.5155 91.5648 75.0622 89.7669 76.1183C87.3339 77.5637 86.0762 79.5205 86.3173 81.488C86.404 82.1971 86.6979 82.8649 87.1621 83.4079C87.6264 83.9509 88.2404 84.3449 88.9274 84.5407C91.0201 85.1711 93.4271 84.1179 95.5289 81.6513C97.1818 79.6702 98.5202 77.4468 99.4975 75.059C98.2613 74.7155 96.9845 74.5399 95.7014 74.5369Z" fill="#84B8FF"/>
<path d="M88.819 61.3029C86.3127 58.2044 84.9069 55.1868 85.6579 52.2852C84.1315 52.4653 81.9946 54.5335 81.9946 54.5335C81.9946 54.5335 82.1167 59.0012 84.6765 62.9087C84.6795 62.9087 87.8956 62.1363 88.819 61.3029Z" fill="#FA6142"/>
<path d="M95.77 62.5455C97.7772 60.4574 98.403 56.0539 97.0186 53.3965C98.8105 53.598 100.642 55.1854 100.642 55.1854C100.642 55.1854 102.114 59.3447 99.505 64.8732C99.5112 64.8732 96.6355 63.0874 95.77 62.5455Z" fill="#FA6142"/>
<path d="M104.751 102.213H100.357C100.195 102.213 100.04 102.277 99.9252 102.392C99.8107 102.506 99.7463 102.662 99.7463 102.823V107.12H105.368V102.827C105.368 102.746 105.353 102.665 105.322 102.591C105.291 102.516 105.245 102.448 105.188 102.391C105.131 102.334 105.062 102.288 104.988 102.258C104.913 102.227 104.832 102.212 104.751 102.213Z" fill="#2E353D"/>
<path d="M111.673 107.065C109.112 107.065 105.913 105.318 103.678 101.393C103.658 101.356 103.644 101.317 103.639 101.275C103.634 101.234 103.637 101.192 103.648 101.152C103.659 101.112 103.678 101.075 103.703 101.042C103.729 101.009 103.76 100.982 103.796 100.961C103.833 100.941 103.872 100.928 103.913 100.922C103.955 100.917 103.996 100.92 104.037 100.931C104.077 100.942 104.114 100.961 104.147 100.986C104.18 101.012 104.207 101.044 104.228 101.08C106.871 105.721 110.869 107.144 113.288 106.124C114.879 105.456 115.477 103.835 114.892 101.799C114.881 101.758 114.877 101.717 114.882 101.675C114.887 101.634 114.9 101.594 114.92 101.557C114.941 101.521 114.968 101.489 115 101.463C115.033 101.437 115.071 101.418 115.111 101.406C115.151 101.395 115.193 101.391 115.234 101.396C115.275 101.401 115.316 101.414 115.352 101.434C115.388 101.454 115.42 101.482 115.446 101.514C115.472 101.547 115.491 101.584 115.503 101.625C116.174 103.966 115.422 105.915 113.535 106.709C112.945 106.95 112.311 107.071 111.673 107.065Z" fill="#84B8FF"/>
<path d="M128.063 218.643C128.095 218.337 128.132 218.032 128.163 217.727C128.251 217.15 128.315 216.57 128.44 216.005C128.645 214.892 128.93 213.796 129.295 212.725C129.636 211.719 130.053 210.741 130.542 209.799C130.989 208.952 131.503 208.143 132.079 207.378C132.217 207.204 132.343 207.022 132.484 206.861L132.888 206.38C133.023 206.227 133.161 206.084 133.293 205.94C133.424 205.797 133.555 205.662 133.686 205.534C133.818 205.406 133.943 205.279 134.068 205.163L134.436 204.831C134.669 204.614 134.905 204.438 135.106 204.267C135.521 203.939 135.857 203.69 136.095 203.53L136.455 203.281L136.065 203.481C135.81 203.606 135.442 203.811 134.979 204.092C134.755 204.235 134.494 204.382 134.23 204.569L133.812 204.856C133.67 204.957 133.526 205.07 133.375 205.182C133.224 205.293 133.07 205.412 132.917 205.542C132.765 205.672 132.603 205.8 132.442 205.939L131.96 206.378C131.792 206.531 131.638 206.694 131.472 206.858C130.763 207.578 130.112 208.354 129.526 209.178C128.875 210.107 128.295 211.085 127.792 212.102C127.252 213.193 126.793 214.322 126.418 215.48C126.212 216.068 126.053 216.672 125.876 217.278C125.768 217.736 125.649 218.185 125.546 218.641L128.063 218.643Z" fill="#ABBD43"/>
<path d="M70.5195 204.853C70.5821 204.966 70.631 205.099 70.6951 205.235C70.7592 205.371 70.8187 205.517 70.8874 205.67L70.9912 205.905C71.0232 205.986 71.0507 206.073 71.0827 206.158L71.272 206.699C71.3056 206.792 71.3376 206.886 71.3728 206.981C71.4079 207.076 71.4277 207.179 71.4552 207.286C71.5666 207.691 71.6948 208.111 71.7818 208.561L71.9268 209.24C71.965 209.472 72.0047 209.698 72.0444 209.942C72.1314 210.411 72.1726 210.899 72.2382 211.378C72.2794 211.864 72.3313 212.346 72.3557 212.825C72.3802 213.305 72.4092 213.772 72.4183 214.228C72.4275 214.685 72.4336 215.126 72.4382 215.544C72.4427 215.962 72.4382 216.357 72.426 216.725L72.3817 218.522C72.3817 218.569 72.3817 218.612 72.3817 218.655H74.6712C74.6605 218.577 74.6483 218.49 74.6361 218.391C74.5827 217.962 74.5064 217.348 74.4133 216.612C74.366 216.24 74.3064 215.834 74.2454 215.407C74.1843 214.979 74.1126 214.527 74.024 214.062C73.9355 213.596 73.847 213.117 73.7447 212.632C73.6425 212.146 73.5173 211.656 73.3998 211.166C73.2578 210.681 73.1433 210.191 72.98 209.721L72.7526 209.019C72.6671 208.791 72.5816 208.561 72.4992 208.346C72.3466 207.901 72.1451 207.486 71.9711 207.092L71.8398 206.801L71.6872 206.528L71.4124 206.009C71.3682 205.926 71.3285 205.844 71.2827 205.766L71.1407 205.543L70.8813 205.134C70.7973 205.006 70.7286 204.882 70.6477 204.778C70.5668 204.675 70.4951 204.579 70.4279 204.492L70.0112 203.951L70.3425 204.546C70.3974 204.635 70.4554 204.74 70.5195 204.853Z" fill="#ABBD43"/>
<path d="M78.5373 218.643H80.8818C80.8917 218.556 80.8917 218.469 80.8818 218.383V218.363C80.8818 218.363 80.8726 218.284 80.8528 218.133C80.8528 218.083 80.8482 218.022 80.8391 217.95C80.8391 217.849 80.839 217.734 80.8299 217.605C80.8299 217.072 80.8574 216.272 80.9322 215.315C81.1271 212.94 81.4676 210.579 81.9518 208.245C82.0846 207.607 82.2311 206.972 82.3898 206.351C82.5486 205.73 82.718 205.13 82.8981 204.537C83.0782 203.945 83.269 203.396 83.4736 202.875C83.5728 202.614 83.6735 202.361 83.7788 202.121C83.8842 201.882 83.9895 201.648 84.0963 201.428C84.2876 201.027 84.5017 200.636 84.7374 200.259C84.8366 200.087 84.9465 199.937 85.0427 199.801C85.1307 199.67 85.226 199.544 85.3281 199.424C85.4212 199.314 85.5006 199.214 85.5738 199.131L85.7738 198.93L85.9417 198.762L85.757 198.914L85.5342 199.093C85.4502 199.169 85.3586 199.261 85.2533 199.36C85.1366 199.47 85.026 199.587 84.9221 199.71C84.8061 199.841 84.6779 199.981 84.5573 200.143C84.2747 200.5 84.0122 200.872 83.7712 201.257C83.6369 201.469 83.501 201.691 83.3698 201.927C83.2385 202.164 83.1027 202.405 82.9714 202.66C82.7043 203.167 82.4494 203.715 82.196 204.287C81.9426 204.86 81.7015 205.458 81.471 206.071C81.2405 206.685 81.0131 207.314 80.8116 207.947C80.0481 210.276 79.4297 212.65 78.9601 215.056C78.7693 216.048 78.6411 216.887 78.5755 217.498L78.5388 217.919C78.5388 218.072 78.5297 218.2 78.5266 218.305C78.5266 218.458 78.5266 218.546 78.5266 218.546C78.5312 218.571 78.5343 218.608 78.5373 218.643Z" fill="#ABBD43"/>
<path d="M60.9004 81.3508C60.9004 81.3508 66.09 79.4962 69.6755 83.0771V77.1914L62.2115 77.9622C61.7536 79.1085 61.3201 80.2441 60.9004 81.3508Z" fill="#CE5F49"/>
<path d="M74.7047 56.6976C69.5563 57.1982 64.4659 67.3928 59.7158 81.4613C60.4042 79.7457 68.7519 78.8421 74.0484 79.5671C75.5259 79.6388 79.6364 56.5755 79.6364 56.5755C77.1362 55.9771 74.7047 56.6976 74.7047 56.6976Z" fill="#FA6142"/>
<path d="M75.1702 66.1758L64.388 71.2128L61.7336 77.7395C63.0417 75.6484 70.4721 68.4104 75.013 70.5045C75.9548 70.9396 76.5119 71.0052 76.8034 70.8404C76.8767 70.5122 76.9561 70.1825 77.0232 69.8482C76.721 68.4455 75.1702 66.1758 75.1702 66.1758Z" fill="#2E353D"/>
<path d="M76.9744 64.4749C76.9744 57.356 82.0114 54.7062 82.0114 54.7062C81.6736 54.4381 81.2841 54.2426 80.8673 54.1321C80.4505 54.0215 80.0153 53.9982 79.5891 54.0636C78.1695 54.3017 76.979 56.0586 75.0817 56.0586C74.2453 56.0586 73.2501 56.1059 72.9173 56.3318C72.5846 56.5577 71.597 57.7452 70.1897 58.023C68.5229 58.3527 66.093 59.6043 64.8673 61.1856C62.4175 64.3467 62.0801 71.4794 62.0664 74.9153C64.4277 68.7625 66.8577 63.7484 69.3258 60.5445C72.4045 63.0936 76.0586 64.9038 76.9744 64.4749Z" fill="#FCD738"/>
<path d="M62.2953 70.0404C62.1152 71.9117 62.0663 73.6655 62.0618 74.9248C64.2368 69.2543 66.4714 64.5531 68.7396 61.3401L68.7976 61.1875C68.7976 61.1875 63.1989 66.8183 62.2953 70.0404Z" fill="#E5BC0E"/>
<path d="M59.7158 81.4607C60.8636 78.1423 68.5092 67.1357 74.3766 68.5339L69.6799 60.0977C66.2624 64.2829 62.4831 71.6889 59.7158 81.4607Z" fill="#FCD738"/>
<path d="M76.7865 65.551C76.7865 65.551 76.4583 61.8007 77.8549 61.7427C79.2516 61.6847 79.7873 66.5828 79.7873 66.5828L76.7865 65.551Z" fill="#CE5F49"/>
<path d="M70.1835 59.8044C69.9489 59.7982 69.7257 59.7014 69.5609 59.5343C69.3961 59.3672 69.3023 59.1427 69.2994 58.908C69.2964 58.6733 69.3845 58.4465 69.545 58.2753C69.7056 58.1041 69.9262 58.0017 70.1606 57.9896L76.9499 57.8125C77.1858 57.8138 77.4119 57.9069 77.5804 58.0719C77.7489 58.237 77.8466 58.4612 77.8527 58.697C77.8589 58.9328 77.773 59.1618 77.6134 59.3354C77.4537 59.509 77.2327 59.6137 76.9972 59.6274L70.208 59.8029L70.1835 59.8044Z" fill="#E27960"/>
<path d="M81.3872 69.3315L81.2865 69.6688C81.2529 69.7787 81.2117 69.9146 81.1644 70.0733L81.0865 70.3297C81.0514 70.432 81.0132 70.5389 80.9736 70.6533L80.7003 71.4165C80.6011 71.6897 80.4912 71.9584 80.3722 72.2606C80.3142 72.4132 80.2546 72.5659 80.189 72.7185L79.9845 73.1978C79.8441 73.5259 79.6975 73.874 79.5266 74.225C75.6817 83.0779 70.9911 94.2662 69.2038 96.6946C67.4164 99.1231 64.5102 102.441 60.5035 102C57.3866 101.657 56.2541 95.6094 57.0112 91.2089C57.3866 89.0277 59.1694 87.3044 60.2303 86.3535C60.7599 85.8788 61.3308 85.3599 61.9306 84.8058C62.5305 84.2517 63.1594 83.6625 63.802 83.0474C64.4446 82.4323 65.1039 81.7897 65.7679 81.1333C66.4319 80.477 67.0959 79.8008 67.7522 79.1201C68.4085 78.4393 69.0557 77.7463 69.6785 77.0641L70.1455 76.5527L70.6034 76.0399C70.9087 75.7025 71.1972 75.3637 71.4826 75.0309C72.6259 73.6969 73.6348 72.4209 74.4422 71.3051C74.6514 71.0273 74.8345 70.7586 75.0116 70.5022L75.2726 70.1267C75.355 70.0062 75.4252 69.8856 75.5046 69.7711C75.6572 69.5421 75.8099 69.3132 75.9213 69.1285L76.2403 68.6065C76.2891 68.5271 76.3365 68.4538 76.3792 68.3806C76.4219 68.3073 76.4677 68.2173 76.5059 68.144C76.5853 67.9913 76.6585 67.8738 76.7059 67.7731L76.8737 67.4678C77.1618 66.932 77.6386 66.5223 78.2116 66.3182C78.7847 66.114 79.4131 66.1299 79.9751 66.3628C80.5371 66.5957 80.9925 67.0289 81.2532 67.5786C81.5138 68.1282 81.561 68.7551 81.3857 69.3376L81.3872 69.3315Z" fill="url(#paint0_linear_2868_13984)"/>
<path d="M70.6033 59.0124C70.4507 58.7682 69.5349 58.3652 69.3594 58.7148C69.1838 59.0643 68.3993 62.8573 68.5214 63.6938C68.5519 63.9044 69.3838 64.8813 69.3838 64.8813L70.6033 59.0124Z" fill="#E27960"/>
<path d="M75.2726 70.1298C75.0208 69.9864 74.8214 69.7663 74.7036 69.5016C74.5858 69.2369 74.5557 68.9414 74.6178 68.6584C73.0655 67.8799 70.8324 66.436 69.5808 65.1264C69.3922 64.9277 69.2591 64.683 69.1945 64.4168C69.13 64.1506 69.1363 63.8721 69.2129 63.6092C69.8418 61.4081 70.4493 57.258 70.8324 57.0458C71.0613 56.9206 71.7635 57.4182 71.7635 57.4182C71.7635 57.4182 71.9482 56.8977 72.1008 56.8596C72.7983 56.6856 76.0327 58.8439 76.1014 59.14C76.1701 59.4361 75.555 60.6984 75.555 60.6984C75.555 60.6984 76.2525 61.5119 76.1655 61.7226C76.0785 61.9332 74.2575 62.8857 74.2575 62.8857C74.2575 62.8857 79.7402 65.7644 80.4851 66.6314C81.23 67.4983 75.2726 70.1298 75.2726 70.1298Z" fill="#FFAD94"/>
<path d="M75.1626 61.1914C75.1947 63.423 77.388 70.6824 79.5891 69.8184C81.7901 68.9545 77.6948 61.9851 76.5867 60.7793L75.1626 61.1914Z" fill="#FCD738"/>
<path d="M78.7969 68.9751C78.7169 68.9741 78.6402 68.9429 78.5822 68.8877C78.5241 68.8325 78.4891 68.7574 78.4841 68.6775C78.4791 68.5976 78.5045 68.5188 78.5551 68.4568C78.6057 68.3948 78.6779 68.3542 78.7572 68.3432C78.8503 68.3325 78.8748 68.2974 78.8931 68.2562C79.2823 67.4304 77.295 63.6664 75.761 61.2563C75.7226 61.1856 75.7124 61.1031 75.7325 61.0252C75.7526 60.9474 75.8015 60.88 75.8693 60.8368C75.9371 60.7936 76.0188 60.7778 76.0978 60.7924C76.1769 60.8071 76.2474 60.8512 76.2952 60.9159C76.9424 61.934 80.1447 67.087 79.467 68.5263C79.4098 68.6493 79.3213 68.7552 79.2104 68.8334C79.0996 68.9116 78.9702 68.9594 78.8351 68.9721L78.7969 68.9751Z" fill="#E5BC0E"/>
<path d="M77.2416 65.4724C77.1752 65.4743 77.1098 65.4551 77.055 65.4175C77.0001 65.38 76.9586 65.326 76.9363 65.2633L75.355 60.8811C75.3409 60.8421 75.3346 60.8006 75.3365 60.759C75.3384 60.7175 75.3485 60.6768 75.3661 60.6392C75.3838 60.6015 75.4087 60.5677 75.4394 60.5397C75.4701 60.5117 75.506 60.49 75.5451 60.4759C75.5842 60.4618 75.6256 60.4555 75.6672 60.4574C75.7087 60.4593 75.7494 60.4693 75.7871 60.487C75.8247 60.5046 75.8585 60.5295 75.8865 60.5602C75.9145 60.5909 75.9362 60.6268 75.9503 60.6659L77.5316 65.0481C77.5601 65.1273 77.556 65.2145 77.5202 65.2906C77.4845 65.3667 77.4199 65.4255 77.3408 65.4541C77.3089 65.4653 77.2754 65.4715 77.2416 65.4724Z" fill="#E5BC0E"/>
<path d="M77.6641 61.9947C77.4928 61.9947 77.325 61.946 77.1803 61.8543L73.2117 59.3449C73.0271 59.2086 72.9011 59.0072 72.8591 58.7816C72.8171 58.5559 72.8622 58.3228 72.9854 58.1291C73.1086 57.9354 73.3006 57.7957 73.5228 57.738C73.7449 57.6804 73.9807 57.7092 74.1825 57.8186L78.1511 60.3264C78.319 60.431 78.4482 60.5877 78.519 60.7725C78.5897 60.9573 78.5982 61.1601 78.5431 61.3502C78.488 61.5402 78.3723 61.7071 78.2136 61.8254C78.055 61.9436 77.862 62.0068 77.6641 62.0054V61.9947Z" fill="#FFAD94"/>
<path d="M72.5007 65.2586C72.5007 65.2586 71.3651 64.9624 71.2613 64.6831C71.1575 64.4038 72.7968 59.1348 73.2853 59.0478C73.7737 58.9608 76.2113 60.8794 76.1533 61.7174C76.0953 62.5554 75.4664 63.5353 75.4664 63.5353L72.5007 65.2586Z" fill="#FFAD94"/>
<path d="M75.4664 63.5421C75.0558 63.3818 74.0118 62.8644 74.0103 62.4477C74.0157 62.3678 74.0379 62.2899 74.0756 62.2191C74.1132 62.1484 74.1653 62.0863 74.2285 62.0371L75.4664 63.5421Z" fill="#EF8C78"/>
<path d="M90.5775 16.4769C90.4937 16.4769 90.4133 16.4436 90.3541 16.3844C90.2948 16.3251 90.2615 16.2447 90.2615 16.1609V3.33948C90.2585 3.29604 90.2644 3.25245 90.279 3.2114C90.2935 3.17036 90.3164 3.13275 90.3461 3.10091C90.3758 3.06907 90.4117 3.04368 90.4517 3.02632C90.4916 3.00896 90.5347 3 90.5782 3C90.6218 3 90.6649 3.00896 90.7048 3.02632C90.7447 3.04368 90.7807 3.06907 90.8104 3.10091C90.8401 3.13275 90.8629 3.17036 90.8775 3.2114C90.892 3.25245 90.898 3.29604 90.895 3.33948V16.1609C90.8945 16.2449 90.8609 16.3252 90.8014 16.3845C90.7419 16.4437 90.6614 16.4769 90.5775 16.4769Z" fill="#CCE3FF"/>
<path d="M86.4166 20.4285C86.3749 20.4286 86.3336 20.4204 86.2951 20.4044C86.2566 20.3884 86.2216 20.365 86.1922 20.3354L74.6392 8.7839C74.5863 8.72319 74.5584 8.64464 74.5612 8.56415C74.5641 8.48367 74.5974 8.40727 74.6544 8.35042C74.7115 8.29357 74.788 8.26052 74.8685 8.25797C74.949 8.25542 75.0274 8.28355 75.0879 8.33668L86.641 19.8897C86.6848 19.9342 86.7146 19.9906 86.7265 20.0519C86.7384 20.1132 86.732 20.1767 86.7081 20.2343C86.6841 20.292 86.6437 20.3413 86.5919 20.3762C86.54 20.411 86.4791 20.4297 86.4166 20.4301V20.4285Z" fill="#CCE3FF"/>
<path d="M90.5774 20.4917C91.0705 20.4917 91.0705 19.7285 90.5774 19.7285C90.0844 19.7285 90.086 20.4917 90.5774 20.4917Z" fill="#CCE3FF"/>
<path d="M159.34 73.8488C159.661 75.2088 155.877 77.7029 155.877 77.7029L156.38 74.2274C156.38 74.2274 159.102 72.8247 159.34 73.8488Z" fill="#CE5F49"/>
<path d="M160.874 77.3848C160.476 80.1109 155.448 80.6741 155.448 80.6741L155.948 78.3158L160.874 77.3848Z" fill="#CE5F49"/>
<path d="M143.708 217.895C144.73 217.895 144.73 216.312 143.708 216.312C142.687 216.312 142.687 217.895 143.708 217.895Z" fill="#2E353D"/>
<path d="M175.622 207.243C176.643 207.243 176.643 205.66 175.622 205.66C174.601 205.66 174.601 207.243 175.622 207.243Z" fill="#2E353D"/>
<path d="M177.762 190.504C179.36 190.504 179.36 188.025 177.762 188.025C176.163 188.025 176.163 190.504 177.762 190.504Z" fill="#2E353D"/>
<path d="M191.156 217.848C192.754 217.848 192.754 215.371 191.156 215.371C189.558 215.371 189.558 217.848 191.156 217.848Z" fill="#2E353D"/>
<path d="M138.301 174.85C139.899 174.85 139.899 172.373 138.301 172.373C136.703 172.373 136.703 174.85 138.301 174.85Z" fill="#2E353D"/>
<path d="M150.034 208.421C149.977 208.421 149.921 208.406 149.872 208.377C149.823 208.348 149.783 208.306 149.756 208.256C148.649 206.239 144.833 197.802 144.672 197.445C144.637 197.369 144.634 197.282 144.664 197.203C144.694 197.124 144.753 197.061 144.83 197.026C144.906 196.992 144.993 196.989 145.072 197.018C145.15 197.048 145.214 197.108 145.249 197.184C145.288 197.271 149.217 205.955 150.312 207.953C150.332 207.989 150.344 208.029 150.348 208.07C150.353 208.112 150.349 208.154 150.337 208.193C150.325 208.233 150.306 208.27 150.28 208.303C150.254 208.335 150.221 208.362 150.185 208.382C150.139 208.408 150.087 208.421 150.034 208.421Z" fill="#6F8137"/>
<path d="M158.768 215.332C158.716 215.332 158.666 215.321 158.62 215.298C158.574 215.275 158.534 215.242 158.504 215.2C158.474 215.158 158.455 215.11 158.448 215.06C158.44 215.009 158.445 214.957 158.462 214.909L181.043 151.65C181.057 151.611 181.079 151.575 181.107 151.544C181.135 151.513 181.168 151.488 181.206 151.47C181.243 151.452 181.284 151.442 181.326 151.44C181.367 151.438 181.409 151.444 181.448 151.458C181.487 151.472 181.523 151.493 181.554 151.521C181.585 151.549 181.61 151.583 181.628 151.62C181.646 151.658 181.656 151.698 181.658 151.74C181.66 151.782 181.654 151.823 181.64 151.862L159.065 215.116C159.044 215.179 159.004 215.233 158.951 215.272C158.898 215.31 158.833 215.331 158.768 215.332Z" fill="#6F8137"/>
<path d="M160.952 218.013C160.886 218.013 160.822 217.993 160.768 217.956C160.715 217.918 160.674 217.865 160.652 217.803C160.629 217.742 160.627 217.675 160.645 217.611C160.663 217.548 160.699 217.492 160.75 217.451L170.406 209.553C170.438 209.524 170.476 209.501 170.517 209.487C170.558 209.472 170.601 209.466 170.644 209.47C170.688 209.473 170.73 209.484 170.768 209.504C170.807 209.524 170.841 209.552 170.868 209.586C170.896 209.62 170.916 209.659 170.928 209.7C170.94 209.742 170.943 209.786 170.937 209.829C170.931 209.872 170.916 209.913 170.894 209.95C170.871 209.988 170.842 210.02 170.806 210.045L161.152 217.941C161.096 217.988 161.025 218.013 160.952 218.013Z" fill="#6F8137"/>
<path d="M156.525 55.1543H153.358V218.958H156.525V55.1543Z" fill="#ABBD43"/>
<path d="M154.053 68.0043C154.053 68.0043 153.171 70.7182 150.892 72.5116C150.466 72.8474 149.376 77.2907 149.049 78.2935C148.744 79.2093 150.183 84.3608 150.183 84.3608L153.358 85.3468V73.487C153.358 73.487 155.001 71.6813 155.401 70.5365C155.8 69.3917 155.286 67.6563 154.053 68.0043Z" fill="#FFAD94"/>
<path d="M156.525 83.4648H153.358V86.5527H156.525V83.4648Z" fill="#6F8137"/>
<path d="M151.269 82.4539C151.063 83.1442 150.93 83.8543 150.873 84.5725L153.358 85.3448V75.5898L151.269 82.4539Z" fill="#CE5F49"/>
<path d="M155.982 75.8388C155.753 75.8056 155.541 75.698 155.379 75.5326C155.216 75.3672 155.113 75.1532 155.084 74.9233C155.055 74.6935 155.103 74.4606 155.219 74.2603C155.336 74.06 155.515 73.9035 155.729 73.8148L157.881 72.9249C158.01 72.8669 158.149 72.8354 158.291 72.8323C158.432 72.8292 158.573 72.8545 158.705 72.9067C158.836 72.9589 158.956 73.037 159.057 73.1364C159.158 73.2358 159.237 73.3543 159.292 73.4851C159.346 73.6159 159.373 73.7562 159.372 73.8978C159.371 74.0393 159.342 74.1792 159.285 74.3092C159.229 74.4391 159.148 74.5565 159.045 74.6543C158.943 74.7522 158.822 74.8285 158.69 74.8787L156.538 75.7701C156.362 75.8431 156.17 75.8668 155.982 75.8388Z" fill="#FFAD94"/>
<path d="M159.981 78.6293L153.94 80.7067C153.684 80.7853 153.407 80.764 153.166 80.6471C152.926 80.5302 152.738 80.3264 152.641 80.0766C152.544 79.8269 152.546 79.5498 152.645 79.301C152.745 79.0523 152.934 78.8505 153.177 78.7361L159.026 76.1673C159.185 76.0971 159.356 76.059 159.53 76.055C159.704 76.0511 159.876 76.0814 160.039 76.1443C160.201 76.2071 160.349 76.3013 160.474 76.4214C160.6 76.5415 160.701 76.6852 160.771 76.8442C160.841 77.0033 160.879 77.1746 160.883 77.3484C160.887 77.5222 160.857 77.695 160.794 77.8571C160.731 78.0192 160.637 78.1673 160.517 78.293C160.397 78.4187 160.253 78.5195 160.094 78.5896C160.057 78.6052 160.02 78.6185 159.981 78.6293Z" fill="#FFAD94"/>
<path d="M159.09 82.2496L153.503 82.88C153.234 82.907 152.965 82.8304 152.751 82.6657C152.537 82.5011 152.394 82.2609 152.351 81.9942C152.308 81.7275 152.369 81.4545 152.521 81.231C152.672 81.0075 152.904 80.8505 153.167 80.7919L158.67 79.6395C159.014 79.5674 159.373 79.635 159.667 79.8274C159.961 80.0197 160.167 80.3211 160.239 80.6652C160.311 81.0093 160.243 81.3679 160.051 81.6622C159.859 81.9564 159.557 82.1622 159.213 82.2343C159.172 82.2373 159.129 82.245 159.09 82.2496Z" fill="#FFAD94"/>
<path d="M153.267 82.4743L157.525 82.3628C157.701 82.3544 157.877 82.3813 158.043 82.4418C158.209 82.5024 158.361 82.5954 158.49 82.7155C158.619 82.8355 158.723 82.9802 158.796 83.141C158.869 83.3018 158.908 83.4755 158.913 83.6519C158.918 83.8282 158.887 84.0037 158.823 84.1681C158.758 84.3324 158.662 84.4823 158.539 84.6089C158.416 84.7355 158.269 84.8363 158.107 84.9054C157.945 84.9744 157.77 85.0104 157.594 85.0111C157.539 85.0142 157.485 85.0142 157.431 85.0111L153.19 84.5944C152.921 84.5698 152.67 84.4427 152.491 84.2394C152.313 84.0361 152.218 83.772 152.228 83.5013C152.238 83.2306 152.351 82.9739 152.544 82.784C152.737 82.5942 152.996 82.4855 153.267 82.4804V82.4743Z" fill="#FFAD94"/>
<path d="M182.48 19.7715H130.229C128.894 19.7715 127.812 21.6852 127.812 24.0459V56.5563C127.812 58.917 128.894 60.8307 130.229 60.8307H182.48C183.815 60.8307 184.898 58.917 184.898 56.5563V24.0459C184.898 21.6852 183.815 19.7715 182.48 19.7715Z" fill="#ABBD43"/>
<path d="M181.259 18.5508H129.008C127.673 18.5508 126.59 20.4574 126.59 22.8093V55.1988C126.59 57.5508 127.673 59.4574 129.008 59.4574H181.259C182.594 59.4574 183.676 57.5508 183.676 55.1988V22.8093C183.676 20.4574 182.594 18.5508 181.259 18.5508Z" fill="white"/>
<path d="M156.525 60.7715H153.358V63.8593H156.525V60.7715Z" fill="#6F8137"/>
<path d="M53.6971 219.279H22.3395C22.296 219.282 22.2524 219.276 22.2114 219.261C22.1704 219.247 22.1327 219.224 22.1009 219.194C22.0691 219.164 22.0437 219.129 22.0263 219.089C22.009 219.049 22 219.006 22 218.962C22 218.918 22.009 218.875 22.0263 218.835C22.0437 218.796 22.0691 218.76 22.1009 218.73C22.1327 218.7 22.1704 218.677 22.2114 218.663C22.2524 218.648 22.296 218.642 22.3395 218.645H53.6971C53.7406 218.642 53.7842 218.648 53.8252 218.663C53.8662 218.677 53.9039 218.7 53.9357 218.73C53.9675 218.76 53.9929 218.796 54.0103 218.835C54.0276 218.875 54.0366 218.918 54.0366 218.962C54.0366 219.006 54.0276 219.049 54.0103 219.089C53.9929 219.129 53.9675 219.164 53.9357 219.194C53.9039 219.224 53.8662 219.247 53.8252 219.261C53.7842 219.276 53.7406 219.282 53.6971 219.279Z" fill="#6F8137"/>
<path d="M112.61 219.279H59.7157C59.6723 219.282 59.6287 219.276 59.5876 219.261C59.5466 219.247 59.509 219.224 59.4771 219.194C59.4453 219.164 59.4199 219.129 59.4025 219.089C59.3852 219.049 59.3762 219.006 59.3762 218.962C59.3762 218.918 59.3852 218.875 59.4025 218.835C59.4199 218.796 59.4453 218.76 59.4771 218.73C59.509 218.7 59.5466 218.677 59.5876 218.663C59.6287 218.648 59.6723 218.642 59.7157 218.645H112.61C112.691 218.651 112.766 218.687 112.82 218.745C112.875 218.804 112.906 218.882 112.906 218.962C112.906 219.042 112.875 219.12 112.82 219.179C112.766 219.237 112.691 219.273 112.61 219.279Z" fill="#6F8137"/>
<path d="M196.861 219.279H122.316C122.236 219.273 122.161 219.237 122.106 219.179C122.052 219.12 122.021 219.042 122.021 218.962C122.021 218.882 122.052 218.804 122.106 218.745C122.161 218.687 122.236 218.651 122.316 218.645H196.855C196.898 218.642 196.942 218.648 196.983 218.663C197.024 218.677 197.062 218.7 197.094 218.73C197.125 218.76 197.151 218.796 197.168 218.835C197.186 218.875 197.194 218.918 197.194 218.962C197.194 219.006 197.186 219.049 197.168 219.089C197.151 219.129 197.125 219.164 197.094 219.194C197.062 219.224 197.024 219.247 196.983 219.261C196.942 219.276 196.898 219.282 196.855 219.279H196.861Z" fill="#6F8137"/>
<path d="M91.8638 223.001H70.6657C70.6222 223.004 70.5786 222.998 70.5376 222.984C70.4965 222.969 70.4589 222.947 70.4271 222.917C70.3952 222.887 70.3698 222.851 70.3525 222.811C70.3351 222.771 70.3262 222.728 70.3262 222.685C70.3262 222.641 70.3351 222.598 70.3525 222.558C70.3698 222.518 70.3952 222.482 70.4271 222.453C70.4589 222.423 70.4965 222.4 70.5376 222.385C70.5786 222.371 70.6222 222.365 70.6657 222.368H91.8638C91.944 222.374 92.0191 222.409 92.0739 222.468C92.1288 222.527 92.1593 222.604 92.1593 222.685C92.1593 222.765 92.1288 222.842 92.0739 222.901C92.0191 222.96 91.944 222.996 91.8638 223.001Z" fill="#6F8137"/>
<path d="M94.7153 223.001H93.4468C93.3666 222.995 93.2915 222.959 93.2367 222.9C93.1819 222.842 93.1514 222.764 93.1514 222.684C93.1514 222.604 93.1819 222.526 93.2367 222.467C93.2915 222.409 93.3666 222.373 93.4468 222.367H94.7153C94.7955 222.373 94.8706 222.409 94.9254 222.467C94.9802 222.526 95.0107 222.604 95.0107 222.684C95.0107 222.764 94.9802 222.842 94.9254 222.9C94.8706 222.959 94.7955 222.995 94.7153 223.001Z" fill="#6F8137"/>
<path d="M154.501 27.0315C154.857 26.44 155.714 26.44 156.07 27.0315L159.708 33.0758C159.836 33.2882 160.044 33.4398 160.286 33.4957L167.158 35.0874C167.831 35.2432 168.096 36.0587 167.643 36.58L163.019 41.9072C162.856 42.0945 162.777 42.3397 162.798 42.5868L163.408 49.6148C163.468 50.3025 162.774 50.8065 162.139 50.5372L155.643 47.7854C155.415 47.6886 155.157 47.6886 154.928 47.7854L148.433 50.5372C147.797 50.8065 147.104 50.3025 147.163 49.6148L147.773 42.5868C147.795 42.3397 147.715 42.0945 147.552 41.9072L142.928 36.58C142.476 36.0587 142.741 35.2432 143.413 35.0874L150.286 33.4957C150.527 33.4398 150.736 33.2882 150.864 33.0758L154.501 27.0315Z" fill="#E5A90E"/>
<path d="M154.043 25.5061C154.399 24.9146 155.257 24.9146 155.613 25.5061L159.25 31.5504C159.378 31.7629 159.587 31.9144 159.828 31.9703L166.701 33.562C167.373 33.7178 167.638 34.5333 167.186 35.0546L162.561 40.3818C162.399 40.5691 162.319 40.8143 162.34 41.0614L162.95 48.0894C163.01 48.7771 162.316 49.2811 161.681 49.0118L155.185 46.26C154.957 46.1632 154.699 46.1632 154.471 46.26L147.975 49.0118C147.34 49.2811 146.646 48.7771 146.706 48.0894L147.315 41.0614C147.337 40.8143 147.257 40.5691 147.095 40.3818L142.47 35.0546C142.018 34.5333 142.283 33.7178 142.955 33.562L149.828 31.9703C150.069 31.9144 150.278 31.7629 150.406 31.5504L154.043 25.5061Z" fill="#FCD738"/>
</g>
<defs>
<linearGradient id="paint0_linear_2868_13984" x1="81.3948" y1="71.6439" x2="37.3928" y2="123.888" gradientUnits="userSpaceOnUse">
<stop stop-color="#FFAD94"/>
<stop offset="1" stop-color="#E27960"/>
</linearGradient>
<clipPath id="clip0_2868_13984">
<rect width="220" height="223" fill="white"/>
</clipPath>
</defs>
</svg>
