<svg width="18" height="20" viewBox="0 0 18 20" fill="none" xmlns="http://www.w3.org/2000/svg">
<path fill-rule="evenodd" clip-rule="evenodd" d="M3.62973 7.64921C4.78184 8.80133 6.6498 8.80133 7.80191 7.64921C8.95403 6.49709 8.95403 4.62914 7.80191 3.47702C6.6498 2.3249 4.78184 2.3249 3.62973 3.47702C2.47761 4.62914 2.47761 6.49709 3.62973 7.64921ZM8.52222 9.64197C6.59361 10.9722 3.93141 10.7793 2.21551 9.06342C0.282346 7.13026 0.282346 3.99597 2.21551 2.06281C4.14868 0.129641 7.28296 0.129641 9.21613 2.06281C10.8819 3.72858 11.1123 6.28619 9.90734 8.19867L15.7213 14.0127L15.7214 14.0126L17.1356 15.4268L17.1356 15.4269L17.136 15.4273L15.7218 16.8416L15.7213 16.8411L13.2464 19.316L11.8322 17.9018L14.3071 15.4269L12.5314 13.6512L10.0559 16.1267L8.64172 14.7125L11.1172 12.237L8.52222 9.64197Z" fill="white"/>
</svg>
