<svg width="80" height="20" viewBox="0 0 80 20" fill="none" xmlns="http://www.w3.org/2000/svg">
<path d="M29.2503 0.839472C29.292 0.838206 29.3334 0.847314 29.3707 0.865976C29.408 0.884639 29.4401 0.912277 29.4641 0.946406C29.491 0.974232 29.5102 1.00861 29.5197 1.04613C29.5292 1.08365 29.5287 1.123 29.5183 1.16027L29.1975 3.753C29.1782 3.8444 29.1323 3.92803 29.0655 3.99327C29.0371 4.02052 29.0036 4.04172 28.9668 4.05556C28.93 4.06941 28.8908 4.07561 28.8516 4.0738H25.5882C25.5678 4.075 25.5478 4.08029 25.5294 4.08936C25.511 4.09843 25.4947 4.1111 25.4813 4.1266C25.4624 4.14903 25.453 4.17789 25.4549 4.20713L23.6067 19.2302C23.588 19.3218 23.542 19.4056 23.4747 19.4705C23.4462 19.4975 23.4126 19.5185 23.3759 19.5324C23.3392 19.5462 23.3 19.5525 23.2608 19.551H20.2153C20.1761 19.5525 20.1369 19.5462 20.1002 19.5324C20.0635 19.5185 20.0299 19.4975 20.0014 19.4705C19.9755 19.4368 19.9573 19.3978 19.9482 19.3563C19.9391 19.3147 19.9392 19.2717 19.9486 19.2302L21.7968 4.20713C21.8324 4.11868 21.7968 4.07512 21.6899 4.07512H18.5849C18.3895 4.07512 18.2919 3.96819 18.2919 3.75433L18.614 1.16027C18.6267 1.07967 18.6641 1.00497 18.7209 0.946406C18.7515 0.913067 18.7886 0.88637 18.8299 0.867975C18.8712 0.84958 18.9159 0.839876 18.9612 0.839472H29.2503ZM11.2437 19.551C11.2028 19.5552 11.1615 19.5492 11.1234 19.5336C11.0854 19.5179 11.0518 19.4931 11.0257 19.4614C10.9996 19.4296 10.9817 19.3919 10.9737 19.3516C10.9656 19.3113 10.9677 19.2696 10.9796 19.2302L13.2014 1.16027C13.2151 1.07995 13.2523 1.00551 13.3084 0.946406C13.339 0.91319 13.3762 0.886573 13.4175 0.868188C13.4588 0.849803 13.5034 0.840031 13.5486 0.839472H16.5691C16.7658 0.839472 16.8635 0.946405 16.8635 1.16027L14.6377 19.2302C14.619 19.3218 14.573 19.4056 14.5057 19.4705C14.4366 19.5229 14.3522 19.5512 14.2654 19.551H11.2437ZM11.4522 3.753C11.433 3.8444 11.3871 3.92803 11.3202 3.99327C11.2919 4.02052 11.2584 4.04172 11.2216 4.05556C11.1848 4.06941 11.1456 4.07561 11.1064 4.0738H5.70439C5.68655 4.07167 5.66845 4.07363 5.65147 4.07951C5.63448 4.0854 5.61906 4.09506 5.60635 4.10777C5.59364 4.12047 5.58398 4.1359 5.5781 4.15288C5.57221 4.16987 5.57026 4.18796 5.57238 4.20581L5.04433 8.43023C5.04433 8.51824 5.07997 8.56224 5.15126 8.56224H8.25225C8.29391 8.56133 8.33515 8.57059 8.37242 8.58922C8.40969 8.60785 8.44185 8.6353 8.46611 8.66918C8.49289 8.69707 8.51187 8.7315 8.52114 8.76904C8.53041 8.80658 8.52964 8.84589 8.51891 8.88304L8.19152 11.485C8.17215 11.5764 8.12622 11.66 8.05951 11.7253C8.0312 11.7525 7.99764 11.7737 7.96087 11.7876C7.9241 11.8014 7.8849 11.8076 7.84565 11.8058H4.76974C4.66281 11.8058 4.60868 11.8494 4.60868 11.9378L3.72684 19.2355C3.70815 19.3271 3.66212 19.4109 3.59482 19.4758C3.52571 19.5282 3.4413 19.5565 3.35456 19.5563H0.331455C0.29055 19.5605 0.249249 19.5545 0.211224 19.5388C0.173199 19.5232 0.139628 19.4984 0.113499 19.4666C0.0873701 19.4349 0.0694918 19.3972 0.0614542 19.3569C0.0534166 19.3165 0.055469 19.2749 0.0674288 19.2355L2.28393 1.16027C2.29669 1.07967 2.33404 1.00497 2.39086 0.946406C2.42144 0.913067 2.45855 0.88637 2.49988 0.867975C2.54122 0.84958 2.58589 0.839876 2.63112 0.839472H11.5051C11.5468 0.838206 11.5881 0.847314 11.6255 0.865976C11.6628 0.884639 11.6949 0.912277 11.7189 0.946406C11.7458 0.974232 11.765 1.00861 11.7745 1.04613C11.7839 1.08365 11.7835 1.123 11.773 1.16027L11.4522 3.753Z" fill="#49AD50"/>
<path d="M67.975 19.551C67.8509 19.551 67.7704 19.5233 67.7347 19.4705C67.7193 19.4207 67.7161 19.3679 67.7255 19.3166C67.735 19.2653 67.7567 19.2171 67.7889 19.1761L71.5314 12.7616L71.5578 12.6005L69.3651 6.18467L69.3387 6.07773C69.3387 5.89952 69.4456 5.81371 69.6595 5.81371H72.9743C73.0511 5.80713 73.1278 5.82753 73.1912 5.87138C73.2545 5.91523 73.3006 5.9798 73.3215 6.05397L74.2034 9.07443C74.2575 9.18136 74.3103 9.18136 74.3644 9.07443L75.9948 6.05397C76.0314 5.98063 76.088 5.91915 76.1581 5.87663C76.2282 5.83412 76.3089 5.8123 76.3908 5.81371H79.678C79.8029 5.81371 79.8835 5.84935 79.9196 5.92064C79.9552 5.97344 79.9367 6.06321 79.8654 6.18467L76.1229 12.6005C76.1061 12.6529 76.1061 12.7092 76.1229 12.7616L78.2879 19.1761L78.3156 19.283C78.3156 19.4612 78.2087 19.547 77.9948 19.547H74.7116C74.6373 19.5558 74.5625 19.5356 74.5027 19.4906C74.443 19.4456 74.4029 19.3793 74.3908 19.3055L73.4826 16.1781C73.4474 16.0355 73.4034 16.0355 73.3506 16.1781L71.6938 19.3055C71.6616 19.3823 71.606 19.4469 71.5349 19.4903C71.4638 19.5337 71.3808 19.5535 71.2978 19.547L67.975 19.551Z" fill="white"/>
<path d="M62.9797 19.551C62.9387 19.5552 62.8974 19.5492 62.8594 19.5336C62.8214 19.5179 62.7878 19.4931 62.7617 19.4614C62.7356 19.4296 62.7177 19.3919 62.7096 19.3516C62.7016 19.3113 62.7037 19.2696 62.7156 19.2302L64.3196 6.13189C64.3332 6.05158 64.3704 5.97713 64.4265 5.91803C64.4572 5.88481 64.4943 5.8582 64.5356 5.83981C64.5769 5.82143 64.6216 5.81166 64.6668 5.8111H67.715C67.7566 5.81018 67.7979 5.81944 67.8351 5.83807C67.8724 5.85671 67.9046 5.88415 67.9288 5.91803C67.9556 5.94591 67.9746 5.98035 67.9838 6.01789C67.9931 6.05543 67.9924 6.09475 67.9816 6.13189L66.3777 19.2302C66.359 19.3218 66.313 19.4056 66.2457 19.4705C66.2174 19.4978 66.1838 19.519 66.147 19.5328C66.1102 19.5466 66.071 19.5528 66.0318 19.551H62.9797Z" fill="white"/>
<path d="M66.3472 4.26158C66.1058 4.27047 65.8652 4.22997 65.64 4.14258C65.4148 4.05518 65.2098 3.92272 65.0376 3.75333C64.8698 3.58547 64.7382 3.38502 64.6507 3.16433C64.5633 2.94365 64.522 2.70741 64.5294 2.47016C64.5294 1.75729 64.7521 1.17819 65.1974 0.732863C65.4095 0.507099 65.6668 0.328488 65.9524 0.208629C66.2381 0.0887703 66.5458 0.0303471 66.8555 0.0371544C67.4073 0.0371544 67.8438 0.19777 68.165 0.519002C68.3281 0.689004 68.4549 0.89047 68.5375 1.11109C68.6201 1.33171 68.6569 1.56686 68.6456 1.80217C68.6512 2.12338 68.5927 2.44249 68.4735 2.74081C68.3543 3.03912 68.1767 3.31064 67.9512 3.53947C67.7514 3.76801 67.5047 3.95082 67.228 4.07543C66.9512 4.20005 66.6508 4.26354 66.3472 4.26158Z" fill="white"/>
<path d="M56.3697 19.7371C55.0152 19.7371 53.9459 19.4343 53.1618 18.8288C52.3961 18.2039 52.0133 17.3573 52.0133 16.2889C52.0103 16.1125 52.0191 15.936 52.0397 15.7608L52.0661 15.5747C52.0797 15.4944 52.1169 15.4199 52.173 15.3608C52.2037 15.3276 52.2408 15.301 52.2821 15.2826C52.3234 15.2642 52.368 15.2544 52.4133 15.2539H55.274C55.3156 15.253 55.3569 15.2622 55.3942 15.2809C55.4314 15.2995 55.4636 15.3269 55.4878 15.3608C55.5146 15.3887 55.5336 15.4231 55.5429 15.4607C55.5521 15.4982 55.5514 15.5375 55.5406 15.5747V15.6539C55.5085 15.8197 55.5156 15.9907 55.5615 16.1532C55.6073 16.3158 55.6906 16.4653 55.8047 16.5899C56.0547 16.8134 56.3782 16.9369 56.7136 16.9369C57.0489 16.9369 57.3725 16.8134 57.6225 16.5899C57.8524 16.3441 57.977 16.0181 57.9697 15.6816C57.9721 15.5195 57.9313 15.3597 57.8515 15.2187C57.7717 15.0776 57.6557 14.9603 57.5156 14.879C57.2001 14.6611 56.8586 14.4837 56.4991 14.3509C56.125 14.2083 55.8755 14.1102 55.7506 14.0565C54.9806 13.7685 54.2795 13.3224 53.6925 12.7469C53.1406 12.1951 52.8647 11.4202 52.8647 10.4222C52.8617 10.2256 52.8705 10.029 52.8911 9.83342C53.0513 8.53353 53.5948 7.5091 54.5215 6.76015C55.4482 6.01119 56.5976 5.63672 57.9697 5.63672C59.2898 5.63672 60.3147 5.96631 61.0443 6.6255C61.7915 7.28556 62.1655 8.18589 62.1664 9.32649C62.1613 9.55001 62.1432 9.77304 62.1123 9.99447C62.0936 10.0861 62.0476 10.1698 61.9803 10.2347C61.952 10.262 61.9184 10.2832 61.8816 10.297C61.8448 10.3109 61.8056 10.3171 61.7664 10.3153H58.9849C58.9457 10.3168 58.9065 10.3104 58.8698 10.2966C58.8331 10.2828 58.7995 10.2617 58.771 10.2347C58.7451 10.201 58.7269 10.162 58.7178 10.1205C58.7087 10.079 58.7088 10.0359 58.7182 9.99447L58.7459 9.76873C58.7704 9.61725 58.7616 9.46225 58.7201 9.31451C58.6786 9.16678 58.6055 9.02986 58.5057 8.91328C58.4137 8.79768 58.2953 8.70582 58.1604 8.64541C58.0256 8.585 57.8783 8.5578 57.7307 8.56609C57.5481 8.55718 57.3658 8.59123 57.1987 8.66551C57.0316 8.73979 56.8842 8.85224 56.7684 8.99381C56.5399 9.25105 56.4161 9.58448 56.4212 9.92847C56.4134 10.1062 56.451 10.2829 56.5304 10.4421C56.6099 10.6012 56.7286 10.7375 56.8753 10.838C57.3429 11.1242 57.8366 11.3651 58.3499 11.5575C59.3479 11.95 60.1501 12.4046 60.7565 12.9212C61.3796 13.4387 61.6911 14.196 61.6911 15.1932C61.6911 16.5828 61.1926 17.6878 60.1954 18.508C59.215 19.3274 57.9389 19.7371 56.3671 19.7371" fill="white"/>
<path d="M45.4693 16.5308C45.6431 16.5319 45.8148 16.494 45.972 16.42C46.1292 16.346 46.2678 16.2377 46.3776 16.1031C46.6584 15.7897 46.8358 15.3974 46.8858 14.9796L47.4469 10.3816C47.501 9.91958 47.4297 9.54466 47.233 9.25951C47.1438 9.1228 47.0206 9.01154 46.8755 8.93658C46.7305 8.86162 46.5685 8.82552 46.4053 8.83179C46.2278 8.83224 46.0525 8.87064 45.8911 8.94441C45.7296 9.01818 45.5859 9.12562 45.4693 9.25951C45.206 9.57784 45.0474 9.96974 45.0152 10.3816L44.4264 14.9796C44.3736 15.4426 44.4449 15.817 44.6403 16.1031C44.73 16.2397 44.8534 16.3509 44.9987 16.4258C45.1439 16.5007 45.306 16.5369 45.4693 16.5308ZM47.9552 6.13212C47.9688 6.0518 48.006 5.97735 48.0621 5.91825C48.0928 5.88504 48.1299 5.85842 48.1712 5.84004C48.2125 5.82165 48.2571 5.81188 48.3024 5.81132H51.3532C51.3948 5.81041 51.4361 5.81967 51.4734 5.8383C51.5106 5.85693 51.5428 5.88438 51.567 5.91825C51.5938 5.94614 51.6128 5.98058 51.6221 6.01812C51.6313 6.05565 51.6306 6.09497 51.6198 6.13212L50.0159 19.2305C49.9972 19.3221 49.9512 19.4058 49.8839 19.4707C49.8554 19.4977 49.8218 19.5188 49.7851 19.5326C49.7483 19.5464 49.7092 19.5528 49.67 19.5513H46.6192C46.5783 19.5554 46.537 19.5494 46.499 19.5338C46.4609 19.5181 46.4274 19.4934 46.4012 19.4616C46.3751 19.4299 46.3572 19.3921 46.3492 19.3518C46.3411 19.3115 46.3432 19.2698 46.3552 19.2305L46.4621 18.482C46.4621 18.4107 46.4449 18.375 46.4093 18.375C46.3736 18.375 46.338 18.4014 46.3024 18.4542C46.0171 18.8687 45.6332 19.2056 45.1851 19.4345C44.737 19.6634 44.239 19.777 43.736 19.7651C42.7028 19.7651 41.9362 19.4619 41.4363 18.8556C40.9365 18.2492 40.6874 17.403 40.6892 16.3169C40.6835 15.9685 40.7012 15.6201 40.742 15.274L41.3835 10.0886C41.5596 8.62761 41.9873 7.51385 42.6667 6.7473C43.3611 5.97986 44.2966 5.59658 45.4733 5.59746C46.5426 5.59746 47.2907 6.03399 47.7175 6.90704C47.7532 6.96116 47.7796 6.98756 47.7981 6.98756C47.8165 6.98756 47.8601 6.95192 47.8773 6.88063L47.9552 6.13212ZM36.0964 10.3565C36.1641 9.97742 36.0878 9.58668 35.8826 9.26083C35.793 9.1241 35.6696 9.01286 35.5243 8.93791C35.379 8.86297 35.2168 8.82687 35.0535 8.83311C34.7397 8.8373 34.4372 8.95074 34.1981 9.1539C33.9424 9.37791 33.7649 9.67756 33.6911 10.0093L33.0495 15.3559C33.034 15.668 33.1389 15.9743 33.3426 16.2113C33.4412 16.3176 33.5616 16.4014 33.6956 16.4567C33.8296 16.5121 33.974 16.5378 34.1189 16.5321C34.2926 16.5332 34.4643 16.4953 34.6215 16.4213C34.7787 16.3473 34.9173 16.239 35.0271 16.1044C35.3029 15.801 35.4721 15.4158 35.509 15.0074L36.0964 10.3565ZM36.7116 5.60407C37.7457 5.60407 38.5206 5.90681 39.0363 6.51231C39.5706 7.10109 39.8381 7.95654 39.839 9.07865C39.845 9.41834 39.8269 9.75803 39.7849 10.0952L39.1433 15.2806C38.9673 16.6888 38.5219 17.7937 37.8073 18.5955C37.1129 19.3796 36.1686 19.7717 34.9743 19.7717C33.993 19.7717 33.2621 19.4329 32.7816 18.7552C32.7697 18.739 32.7524 18.7274 32.7329 18.7226C32.7133 18.7178 32.6927 18.72 32.6746 18.7288C32.639 18.7288 32.6218 18.7552 32.6218 18.8093L32.5677 19.2371C32.549 19.3287 32.503 19.4124 32.4357 19.4773C32.4074 19.5046 32.3738 19.5258 32.337 19.5396C32.3003 19.5535 32.2611 19.5597 32.2218 19.5579H29.175C29.1341 19.562 29.0928 19.556 29.0547 19.5404C29.0167 19.5247 28.9831 19.5 28.957 19.4682C28.9309 19.4365 28.913 19.3987 28.905 19.3584C28.8969 19.3181 28.899 19.2764 28.9109 19.2371L31.1301 1.1671C31.1428 1.0865 31.1802 1.01181 31.237 0.953238C31.2677 0.920022 31.3048 0.893409 31.3461 0.875024C31.3874 0.856639 31.4321 0.846867 31.4773 0.846307H34.5241C34.5658 0.845042 34.6072 0.85415 34.6445 0.872812C34.6819 0.891475 34.714 0.919109 34.738 0.953238C34.7649 0.981064 34.784 1.01544 34.7935 1.05296C34.803 1.09048 34.8025 1.12983 34.7921 1.1671L34.1241 6.59284V6.64697H34.1505C34.2447 6.63579 34.3309 6.58845 34.3908 6.51496C35.0124 5.91385 35.847 5.58388 36.7116 5.59746V5.60407Z" fill="white"/>
</svg>
