<svg width="20" height="20" viewBox="0 0 20 20" fill="none" xmlns="http://www.w3.org/2000/svg">
<path d="M17.1371 6.22773C16.4496 5.12187 15.3598 4.5168 13.8059 4.37734C12.9145 4.29922 11.8437 4.57031 10.9836 4.78945C10.5961 4.88828 10.1562 5 10 5C9.84375 5 9.40703 4.88828 9.02344 4.78945C8.16094 4.56875 7.0875 4.29375 6.19336 4.37773C4.68828 4.51875 3.61523 5.12734 2.91211 6.23789C2.20898 7.34844 1.875 8.94531 1.875 11.25C1.875 13.6437 3.02852 15.7258 3.71602 16.7535C4.56328 18.0211 5.83008 19.375 6.84375 19.375C7.56914 19.375 8.17656 19.0926 8.71172 18.8422C9.49219 18.4766 10 18.4375 10 18.4375C10 18.4375 10.4297 18.4375 11.2477 18.8324C11.7832 19.091 12.3945 19.375 13.1562 19.375C14.1945 19.375 15.4641 18.0199 16.3059 16.752C16.9852 15.7285 18.125 13.6531 18.125 11.25C18.125 8.90625 17.8125 7.31133 17.1371 6.22773ZM7.91667 10.4167C7.39909 10.4167 8.4375 12.9105 8.4375 11.875C7.91992 11.875 8.4375 10.8395 8.4375 11.875C8.95508 11.875 8.71172 10.2145 8.71172 11.25C8.71172 12.2855 8.43424 10.4167 7.91667 10.4167ZM12.5 12.5C11.9824 12.5 13.75 13.1189 13.75 12.0833C13.75 11.0478 11.9824 11.25 12.5 11.25C12.5 11.25 12.5 10.8395 12.5 11.875C12.5 12.9105 13.0176 12.5 12.5 12.5Z" fill="white"/>
<path d="M12.6453 3.23282C13.8157 2.06329 13.75 0.632037 13.75 0.630475C13.75 0.630475 12.3528 0.4836 11.1239 1.71133C9.89496 2.93907 10.0024 4.37501 10.0024 4.37501C10.0024 4.37501 11.4743 4.40274 12.6453 3.23282Z" fill="white"/>
</svg>
