<svg width="20" height="16" viewBox="0 0 20 16" fill="none" xmlns="http://www.w3.org/2000/svg">
<path d="M0.616896 15.8589V7.23246C1.71609 7.82523 2.98279 8.17316 4.39112 8.26147C4.39537 8.26161 4.39991 8.26189 4.40416 8.26189C4.51053 8.26189 4.60015 8.1799 4.60682 8.07316C4.61391 7.96192 4.52868 7.86629 4.41678 7.85912C4.0411 7.83549 3.67635 7.7926 3.32253 7.73128C3.98353 7.34905 4.77358 7.13923 5.59512 7.13923C7.40977 7.13923 8.97442 8.13576 9.39983 9.5626C9.42607 9.65049 9.50705 9.70717 9.59483 9.70717C9.61398 9.70717 9.63326 9.7045 9.65241 9.69887C9.76019 9.66737 9.82173 9.55514 9.78983 9.4484C9.71013 9.1812 9.59256 8.92904 9.44763 8.69193C9.83863 8.48351 10.2819 8.37396 10.7427 8.37396C11.9582 8.37396 12.9985 9.14167 13.2165 10.1994C13.2362 10.295 13.321 10.3607 13.4155 10.3607C13.4289 10.3607 13.4427 10.3593 13.4563 10.3565C13.5664 10.3342 13.6374 10.2276 13.6147 10.1185C13.6113 10.1023 13.6059 10.0869 13.6024 10.0707C13.6395 10.1269 13.6784 10.1828 13.7239 10.2362C13.8103 10.3379 13.8927 10.4394 13.9744 10.5403C14.3344 10.9834 14.7067 11.4419 15.3403 11.8112C15.3727 11.8302 15.4083 11.839 15.4431 11.839C15.5129 11.839 15.5808 11.8033 15.6186 11.7396C15.6753 11.6434 15.643 11.5201 15.5464 11.4635C14.9766 11.1316 14.6437 10.7216 14.2912 10.2876C14.2074 10.1843 14.123 10.0807 14.0346 9.97648C13.8686 9.78086 13.7791 9.57103 13.7537 9.31635C13.7161 8.94113 13.7876 8.7676 13.8701 8.56678C13.9962 8.26035 14.1255 7.9428 13.9077 7.08437C13.9073 7.0831 13.9077 7.08197 13.9076 7.08071C13.9033 7.06341 13.8962 7.03711 13.8877 7.00533C13.8867 7.00195 13.8862 6.99886 13.885 6.99548C13.885 6.99534 13.8849 6.99506 13.8849 6.99492C13.7383 6.45547 13.055 4.15865 11.8799 3.4839C11.6333 3.29235 11.2882 3.35972 10.8898 3.4396C10.6196 3.49388 10.3117 3.55435 10.0031 3.54282C9.68164 3.52201 9.30017 3.41259 8.96138 3.24229C8.71533 3.11811 8.45693 3.09687 8.19372 3.18013C8.10778 3.20713 8.03701 3.22935 7.90768 3.25902C7.87946 3.26549 7.85691 3.26605 7.82883 3.26169C7.63142 3.23005 7.376 3.18885 7.30993 3.0814C7.27674 3.02754 7.29206 2.94105 7.31262 2.87369L7.44635 2.60072C7.51442 2.46107 7.49698 2.29836 7.40055 2.17586C7.35474 2.11806 7.34581 2.04184 7.37672 1.97208C7.47372 1.7534 7.6171 1.50193 7.75567 1.25881C7.84685 1.09989 7.93591 0.943653 8.0115 0.798093C8.26748 0.306161 8.80625 0.0528871 9.35208 0.16903C12.5202 0.841547 13.3042 1.97954 14.2968 3.42044C14.4041 3.57612 14.5133 3.7349 14.6279 3.89607C14.9529 4.35398 15.2469 4.66421 15.5311 4.96417C16.0904 5.55454 16.6686 6.16477 17.6114 7.98215L17.7395 8.22826C18.695 10.0666 19.5977 11.8026 19.3374 12.8362C19.2508 13.1797 18.8104 13.5742 18.1292 13.9187C16.2275 14.8802 11.8006 15.6723 7.39866 13.9131C7.12141 13.8024 6.80657 13.9051 6.65032 14.1575L5.59621 15.8588L0.616896 15.8589Z" fill="white"/>
</svg>
