<?xml version="1.0" encoding="UTF-8"?>
<svg width="700pt" height="700pt" version="1.1" viewBox="0 0 700 700" xmlns="http://www.w3.org/2000/svg">
 <path d="m120.63 50.133c-27.723 0-50.57 22.758-50.57 50.473v249.47c0.050781 25.012 29.617 40.785 50.441 26.988 0.875-0.5625 1.6953-1.2109 2.4453-1.9297l49.734-48.383h51.664v77.078c0 27.715 22.977 50.441 50.699 50.441h252.3l49.703 48.512c0.75 0.73047 1.5664 1.3867 2.4453 1.9609 20.824 13.793 50.391-1.9805 50.441-26.988v-249.51c0-27.715-22.848-50.57-50.57-50.57l-103.71 0.003906v-77.078c0-27.715-22.848-50.473-50.57-50.473zm0 32.941h304.45c10.121 0 17.629 7.5508 17.629 17.531v77.078h-167.66c-27.723 0-50.699 22.852-50.699 50.57v65.527h-58.355c-4.3047-0.023438-8.4531 1.6367-11.547 4.6328l-51.438 50.215v-248.02c0-9.9805 7.5078-17.531 17.629-17.531zm154.41 127.55h304.32c10.121 0 17.629 7.6484 17.629 17.629v248.03l-51.441-50.223c-3.0781-3.0273-7.2266-4.7266-11.547-4.7266h-258.96c-10.121 0-17.758-7.5195-17.758-17.5v-175.58c0-9.9805 7.6367-17.629 17.758-17.629zm52.887 85.281v-0.003906c-5.3398-0.023438-10.469 2.0742-14.258 5.8359-3.7891 3.7578-5.9297 8.8711-5.9453 14.207-0.027344 5.3672 2.0938 10.52 5.8906 14.312 3.793 3.793 8.9453 5.9141 14.312 5.8906 5.3359-0.019532 10.449-2.1562 14.207-5.9492 3.7578-3.7891 5.8594-8.9141 5.832-14.254-0.015625-5.3086-2.1328-10.398-5.8906-14.152-3.7539-3.7539-8.8398-5.8711-14.148-5.8906zm99.34 0-0.003907-0.003906c-5.3359-0.023438-10.465 2.0742-14.254 5.8359-3.7891 3.7578-5.9297 8.8711-5.9492 14.207-0.023437 5.3672 2.0977 10.52 5.8906 14.312 3.793 3.793 8.9492 5.9141 14.312 5.8906 5.3398-0.019532 10.449-2.1562 14.211-5.9492 3.7578-3.7891 5.8555-8.9141 5.832-14.254-0.019531-5.3086-2.1367-10.398-5.8906-14.152-3.7539-3.7539-8.8438-5.8711-14.152-5.8906zm99.34 0-0.003906-0.003906c-5.3398-0.023438-10.469 2.0742-14.258 5.8359-3.7891 3.7578-5.9258 8.8711-5.9453 14.207-0.023438 5.3672 2.0938 10.52 5.8906 14.312 3.793 3.793 8.9453 5.9141 14.312 5.8906 5.3359-0.019532 10.449-2.1562 14.207-5.9492 3.7578-3.7891 5.8594-8.9141 5.832-14.254-0.015626-5.3086-2.1328-10.398-5.8867-14.152-3.7578-3.7539-8.8438-5.8711-14.152-5.8906z" fill-rule="evenodd"/>
</svg>
