<svg width="10" height="12" viewBox="0 0 10 12" fill="none" xmlns="http://www.w3.org/2000/svg">
<path d="M6.5 0.841797H3.5V1.8418H6.5V0.841797ZM4.5 7.3418H5.5V4.3418H4.5V7.3418ZM8.515 4.0368L9.225 3.3268C9.01 3.0718 8.775 2.8318 8.52 2.6218L7.81 3.3318C7.035 2.7118 6.06 2.3418 5 2.3418C2.515 2.3418 0.5 4.3568 0.5 6.8418C0.5 9.3268 2.51 11.3418 5 11.3418C7.49 11.3418 9.5 9.3268 9.5 6.8418C9.5 5.7818 9.13 4.8068 8.515 4.0368ZM5 10.3418C3.065 10.3418 1.5 8.7768 1.5 6.8418C1.5 4.9068 3.065 3.3418 5 3.3418C6.935 3.3418 8.5 4.9068 8.5 6.8418C8.5 8.7768 6.935 10.3418 5 10.3418Z" fill="#929292"/>
</svg>
