<svg width="26" height="25" viewBox="0 0 26 25" fill="none" xmlns="http://www.w3.org/2000/svg">
<path d="M4.52091 23.5577C4.13937 23.5573 3.77365 23.4055 3.50409 23.1355L2.82792 22.4593C2.55836 22.1895 2.40698 21.8238 2.40698 21.4425C2.40698 21.0612 2.55836 20.6955 2.82792 20.4257L3.84474 19.4089L3.84453 19.4091C4.03166 19.223 4.33377 19.223 4.52091 19.4091L6.55455 21.4427L6.55434 21.4425C6.7404 21.6296 6.7404 21.9317 6.55434 22.1189L5.53752 23.1357L5.53773 23.1355C5.26817 23.4055 4.90224 23.5573 4.52091 23.5577L4.52091 23.5577ZM4.18518 20.4259L3.50409 21.1164C3.41437 21.207 3.36427 21.3295 3.36491 21.4569C3.36556 21.5828 3.41544 21.7033 3.50409 21.7926L4.18518 22.4737C4.3721 22.6597 4.67443 22.6597 4.86135 22.4737L5.53751 21.7926L4.18518 20.4259Z" fill="#747474"/>
<path d="M10.2862 18.1909C10.1603 18.1905 10.0398 18.1404 9.95049 18.0517L7.91213 16.0134C7.82349 15.9241 7.77339 15.8035 7.77296 15.6776C7.77231 15.5502 7.8222 15.4278 7.91213 15.3372L15.3989 7.87453C15.4895 7.78461 15.612 7.73472 15.7394 7.73536C15.8653 7.73579 15.9858 7.78589 16.0751 7.87453L18.1134 9.91289C18.2995 10.0998 18.2995 10.4019 18.1134 10.589L10.6266 18.0517C10.5361 18.1417 10.4136 18.1915 10.2862 18.1909V18.1909ZM8.92895 15.6776L10.2862 17.0349L17.0725 10.2486L15.7152 8.89135L8.92895 15.6776Z" fill="#747474"/>
<path d="M21.8151 6.66038C21.6886 6.65867 21.568 6.60685 21.4794 6.5165L19.4457 4.48286L19.4459 4.48307C19.2599 4.29594 19.2599 3.99383 19.4459 3.80669L20.4628 2.78987L20.4625 2.79008C20.7323 2.52052 21.098 2.36914 21.4794 2.36914C21.8607 2.36914 22.2264 2.52052 22.4962 2.79008L23.1724 3.46625C23.4419 3.73603 23.5933 4.10174 23.5933 4.48307C23.5933 4.86439 23.4419 5.2301 23.1724 5.49989L22.1555 6.51671L22.1557 6.51649C22.066 6.60813 21.9433 6.65995 21.8151 6.66038L21.8151 6.66038ZM20.4625 4.14713L21.8151 5.49968L22.4962 4.80915C22.5859 4.71859 22.636 4.59612 22.6354 4.46872C22.6347 4.34282 22.5848 4.22228 22.4962 4.133L21.8151 3.46626C21.6282 3.2802 21.3259 3.2802 21.1389 3.46626L20.4625 4.14713Z" fill="#747474"/>
<path d="M8.92818 24.953C8.8025 24.9526 8.68196 24.9025 8.59246 24.8138L1.12978 17.3703C0.943719 17.1832 0.943719 16.8811 1.12978 16.6939L3.16342 14.6603V14.6605C3.25335 14.5697 3.37603 14.5186 3.50385 14.5186C3.63168 14.5186 3.75436 14.5697 3.84429 14.6605L11.302 22.1183C11.3928 22.2082 11.444 22.3309 11.444 22.4587C11.444 22.5865 11.3928 22.7092 11.302 22.7991L9.26839 24.8328H9.26861C9.17504 24.9156 9.05278 24.9587 8.92796 24.9527L8.92818 24.953ZM2.14682 17.0348L8.92818 23.8162L10.2854 22.4589L3.50408 15.677L2.14682 17.0348Z" fill="#747474"/>
<path d="M22.4963 11.4088C22.368 11.4084 22.2455 11.3566 22.1558 11.2649L14.6981 3.80718C14.6064 3.71747 14.5546 3.59499 14.5542 3.46674C14.5546 3.3385 14.6064 3.21602 14.6981 3.12631L16.7317 1.09267H16.7315C16.9186 0.90661 17.2208 0.90661 17.4079 1.09267L24.8706 8.55535C25.0566 8.74248 25.0566 9.04459 24.8706 9.23173L22.8369 11.2654V11.2652C22.7472 11.3568 22.6247 11.4086 22.4965 11.409L22.4963 11.4088ZM15.7143 3.46652L22.4963 10.2484L23.8535 8.89117L17.0722 2.10926L15.7143 3.46652Z" fill="#747474"/>
<path d="M10.9663 22.9386C10.8389 22.9393 10.7165 22.8894 10.6259 22.7995L3.16323 15.3609C2.97717 15.1738 2.97717 14.8717 3.16323 14.6847L5.20158 12.6464C5.3885 12.4603 5.69061 12.4603 5.87775 12.6464L13.3404 20.0849C13.5265 20.2721 13.5265 20.5742 13.3404 20.7611L11.3021 22.7995C11.2128 22.8881 11.0922 22.9382 10.9663 22.9386H10.9663ZM4.18498 14.9963L10.9663 21.7777L12.3236 20.4252L5.5373 13.6389L4.18498 14.9963Z" fill="#747474"/>
<path d="M20.4624 13.4422C20.335 13.4429 20.2126 13.393 20.122 13.3031L12.6593 5.84039C12.4733 5.65326 12.4733 5.35115 12.6593 5.16423L14.6977 3.12587C14.8846 2.93981 15.1867 2.93981 15.3738 3.12587L22.8365 10.5886C23.0226 10.7757 23.0226 11.0778 22.8365 11.2647L20.7982 13.3031C20.7089 13.3917 20.5883 13.4418 20.4624 13.4422H20.4624ZM13.6761 5.49996L20.4624 12.2863L21.815 10.929L15.0336 4.14708L13.6761 5.49996Z" fill="#747474"/>
</svg>
