<svg width="24" height="24" viewBox="0 0 24 24" fill="none" xmlns="http://www.w3.org/2000/svg">
<path d="M12 11.5L2 6.44141V5.25C2 4.89844 2.1237 4.60221 2.37109 4.36133C2.61849 4.12044 2.91146 4 3.25 4H20.75C21.0885 4 21.3815 4.12044 21.6289 4.36133C21.8763 4.60221 22 4.89844 22 5.25V6.44141L12 11.5ZM11.375 12.75H12.625L22 7.88672V17.75C22 18.0885 21.8763 18.3815 21.6289 18.6289C21.3815 18.8763 21.0885 19 20.75 19H3.25C2.91146 19 2.61849 18.8763 2.37109 18.6289C2.1237 18.3815 2 18.0885 2 17.75V7.88672L11.375 12.75Z" fill="#B7B7B7"/>
</svg>
