<svg width="20" height="17" viewBox="0 0 20 17" fill="none" xmlns="http://www.w3.org/2000/svg">
<g clip-path="url(#clip0_5555_12171)">
<path d="M2.58742 8.71197L3.51107 9.63562L5.50585 7.64861L4.58996 6.72495L4.17082 6.30582C3.83706 5.97206 3.65854 5.5374 3.65854 5.06393C3.65854 4.65256 3.79825 4.27999 4.03887 3.98504C4.36486 3.57367 4.86162 3.30977 5.42047 3.30977C5.89394 3.30977 6.3286 3.49605 6.67011 3.82981L7.08149 4.22566L8.00514 5.15707L10.0077 3.17006L9.07627 2.2464L8.65713 1.84279C7.82662 1.01228 6.68564 0.5 5.42047 0.5C2.88236 0.5 0.833252 2.54911 0.833252 5.07169C0.833252 5.7004 0.957441 6.29806 1.19029 6.84914C1.42315 7.40023 1.7569 7.88922 2.17604 8.3006L2.58742 8.71197Z" fill="#EA4335"/>
<path d="M7.15903 9.98506L10.0076 7.15201L8.00506 5.15723L5.50577 7.64876L3.51099 9.63578L4.58211 10.7147L5.50577 11.6306L6.46823 10.6681" fill="#FBBC04"/>
<path d="M11.9947 14.1295L16.4965 9.63545L14.494 7.64844L9.99993 12.1347L7.50064 9.64322L5.50586 11.6302L8.00515 14.1295L7.99739 14.1373L9.99993 16.0234L12.0025 14.1295H11.9947Z" fill="#34A853"/>
<path d="M17.8238 8.30067C18.7552 7.36926 19.2908 5.94109 19.1433 4.49739C18.9259 2.30857 17.1097 0.663072 14.9053 0.515598C13.516 0.422457 12.2431 0.942496 11.3427 1.84286L8.00513 5.15715L9.9999 7.15192L13.3375 3.82988C13.7411 3.43403 14.2999 3.24775 14.8743 3.34089C15.6194 3.45731 16.2249 4.0705 16.3258 4.81563C16.4034 5.37448 16.2171 5.9178 15.8212 6.31365L14.494 7.64868L16.4965 9.6357L17.8238 8.30067Z" fill="#4285F4"/>
</g>
<defs>
<clipPath id="clip0_5555_12171">
<rect width="18.3333" height="15.5236" fill="white" transform="translate(0.833252 0.5)"/>
</clipPath>
</defs>
</svg>
