<svg width="156" height="36" viewBox="0 0 156 36" fill="none" xmlns="http://www.w3.org/2000/svg">
<path d="M6.65625 35H0.0703125V0.734375H15.375V6.33594H6.65625V15.6641H14.8125V21.2656H6.65625V35ZM19.6453 35V0.734375H26.2313V35H19.6453ZM42.5719 35H36.0797V6.42969H29.7047V0.734375H48.9V6.42969H42.5719V35ZM52.4203 0.734375H61.4437C64.975 0.734375 67.6156 1.42969 69.3656 2.82031C71.1312 4.19531 72.0141 6.3125 72.0141 9.17188C72.0141 10.5156 71.8266 11.7188 71.4516 12.7812C71.0922 13.8281 70.5687 14.6953 69.8812 15.3828C69.1937 16.0703 68.3656 16.5469 67.3969 16.8125V17.0469C68.6156 17.375 69.6078 17.8906 70.3734 18.5938C71.1547 19.2969 71.725 20.1875 72.0844 21.2656C72.4437 22.3438 72.6234 23.6094 72.6234 25.0625C72.6234 27.0938 72.2172 28.8516 71.4047 30.3359C70.6078 31.8203 69.4516 32.9688 67.9359 33.7812C66.4203 34.5938 64.6078 35 62.4984 35H52.4203V0.734375ZM59.0062 14.6094H61.4437C62.7719 14.6094 63.7562 14.2266 64.3969 13.4609C65.0531 12.6953 65.3812 11.5703 65.3812 10.0859C65.3812 8.78906 65.0453 7.80469 64.3734 7.13281C63.7016 6.44531 62.6937 6.10156 61.35 6.10156H59.0062V14.6094ZM59.0062 19.8359V29.4688H61.9828C63.2953 29.4688 64.2797 29.0625 64.9359 28.25C65.5922 27.4375 65.9203 26.2031 65.9203 24.5469C65.9203 23.5312 65.7562 22.6797 65.4281 21.9922C65.1 21.2891 64.6234 20.7578 63.9984 20.3984C63.3891 20.0234 62.6312 19.8359 61.725 19.8359H59.0062ZM92.5969 35L90.8156 26.75H83.1984L81.4172 35H74.3625L82.6594 0.734375H91.1672L99.6047 35H92.5969ZM89.8078 21.0312L87.9563 11.9609C87.8313 11.2109 87.7063 10.4766 87.5813 9.75781C87.4719 9.03906 87.3625 8.35156 87.2531 7.69531C87.1594 7.02344 87.0734 6.39844 86.9953 5.82031C86.9484 6.36719 86.8781 6.96875 86.7844 7.625C86.6906 8.28125 86.5813 8.96875 86.4563 9.6875C86.3313 10.4062 86.1906 11.1328 86.0344 11.8672L84.2063 21.0312H89.8078Z" fill="black"/>
<path d="M118.922 24.9688C118.922 27.0312 118.508 28.8516 117.68 30.4297C116.852 32.0078 115.68 33.2422 114.164 34.1328C112.664 35.0234 110.891 35.4688 108.844 35.4688C107.891 35.4688 106.969 35.4062 106.078 35.2812C105.188 35.1719 104.312 34.9844 103.453 34.7188C102.594 34.4375 101.734 34.0703 100.875 33.6172V26.8906C102.125 27.7031 103.422 28.3203 104.766 28.7422C106.109 29.1641 107.352 29.375 108.492 29.375C109.336 29.375 110.031 29.2109 110.578 28.8828C111.141 28.5547 111.555 28.1094 111.82 27.5469C112.102 26.9844 112.242 26.3516 112.242 25.6484C112.242 24.8984 112.125 24.2422 111.891 23.6797C111.656 23.1016 111.203 22.5312 110.531 21.9688C109.875 21.3906 108.906 20.7266 107.625 19.9766C106.625 19.3828 105.719 18.7734 104.906 18.1484C104.109 17.5234 103.422 16.8359 102.844 16.0859C102.281 15.3203 101.852 14.4375 101.555 13.4375C101.258 12.4375 101.109 11.2578 101.109 9.89844C101.094 7.96094 101.469 6.26562 102.234 4.8125C103.016 3.35938 104.133 2.23438 105.586 1.4375C107.055 0.625 108.812 0.226562 110.859 0.242188C112.25 0.242188 113.609 0.429688 114.938 0.804688C116.281 1.17969 117.57 1.71094 118.805 2.39844L117 8.21094C115.891 7.53906 114.844 7.04688 113.859 6.73438C112.875 6.40625 111.953 6.24219 111.094 6.24219C110.344 6.24219 109.711 6.39062 109.195 6.6875C108.695 6.96875 108.312 7.35938 108.047 7.85938C107.797 8.35938 107.672 8.92969 107.672 9.57031C107.672 10.3828 107.797 11.0703 108.047 11.6328C108.297 12.1953 108.766 12.75 109.453 13.2969C110.156 13.8281 111.164 14.4688 112.477 15.2188C113.898 16.0469 115.086 16.9297 116.039 17.8672C116.992 18.7891 117.711 19.8281 118.195 20.9844C118.68 22.125 118.922 23.4531 118.922 24.9688ZM123.145 35V0.734375H129.731V35H123.145ZM155.189 35H148.134L143.892 23.5391L139.439 35H132.572L140.166 17.5859L133.205 0.734375H140.002L143.752 11.5391L147.455 0.734375H154.369L147.502 17.5391L155.189 35Z" fill="#4FC24C"/>
</svg>
