<svg width="19" height="19" viewBox="0 0 19 19" fill="none" xmlns="http://www.w3.org/2000/svg">
<path d="M9.83333 16.7354H2C1.86739 16.7354 1.74021 16.6827 1.64645 16.5889C1.55268 16.4951 1.5 16.368 1.5 16.2354V2.23535C1.5 2.10274 1.55268 1.97557 1.64645 1.8818C1.74021 1.78803 1.86739 1.73535 2 1.73535H16C16.1326 1.73535 16.2598 1.78803 16.3536 1.8818C16.4473 1.97557 16.5 2.10274 16.5 2.23535V10.0687" stroke="black" stroke-width="1.5" stroke-linecap="round" stroke-linejoin="round"/>
<path d="M1.5 12.5684L7.33333 10.0684L11.9167 12.1517" stroke="black" stroke-width="1.5" stroke-linecap="round" stroke-linejoin="round"/>
<path d="M12.3333 7.56868C11.8913 7.56868 11.4673 7.39309 11.1548 7.08053C10.8422 6.76797 10.6666 6.34405 10.6666 5.90202C10.6666 5.45999 10.8422 5.03607 11.1548 4.72351C11.4673 4.41095 11.8913 4.23535 12.3333 4.23535C12.7753 4.23535 13.1992 4.41095 13.5118 4.72351C13.8244 5.03607 14 5.45999 14 5.90202C14 6.34405 13.8244 6.76797 13.5118 7.08053C13.1992 7.39309 12.7753 7.56868 12.3333 7.56868V7.56868Z" stroke="black" stroke-width="1.5" stroke-linecap="round" stroke-linejoin="round"/>
<path d="M14.8334 15.0684V17.5684M12.3334 15.0684H14.8334H12.3334ZM17.3334 15.0684H14.8334H17.3334ZM14.8334 15.0684V12.5684V15.0684Z" stroke="black" stroke-width="1.5" stroke-linecap="round" stroke-linejoin="round"/>
</svg>
