<svg width="12" height="10" viewBox="0 0 12 10" fill="none" xmlns="http://www.w3.org/2000/svg">
<path fill-rule="evenodd" clip-rule="evenodd" d="M11.4 0.199219H0.6C0.44087 0.199219 0.288258 0.262433 0.175736 0.374955C0.0632141 0.487476 0 0.640089 0 0.799219L0 9.19922C0 9.35835 0.0632141 9.51096 0.175736 9.62348C0.288258 9.736 0.44087 9.79922 0.6 9.79922H11.4C11.5591 9.79922 11.7117 9.736 11.8243 9.62348C11.9368 9.51096 12 9.35835 12 9.19922V0.799219C12 0.640089 11.9368 0.487476 11.8243 0.374955C11.7117 0.262433 11.5591 0.199219 11.4 0.199219ZM10.8 8.59922H1.2V1.39922H10.8V8.59922ZM8.589 5.52542L6.6504 6.48842L4.3884 2.82782L2.4 7.39922H9.6L8.589 5.52542ZM7.95 4.39922C8.14891 4.39922 8.33968 4.3202 8.48033 4.17955C8.62098 4.0389 8.7 3.84813 8.7 3.64922C8.7 3.45031 8.62098 3.25954 8.48033 3.11889C8.33968 2.97824 8.14891 2.89922 7.95 2.89922C7.75109 2.89922 7.56032 2.97824 7.41967 3.11889C7.27902 3.25954 7.2 3.45031 7.2 3.64922C7.2 3.84813 7.27902 4.0389 7.41967 4.17955C7.56032 4.3202 7.75109 4.39922 7.95 4.39922Z" fill="black"/>
</svg>
