<svg width="14" height="25" viewBox="0 0 14 25" fill="none" xmlns="http://www.w3.org/2000/svg">
<path d="M13.4679 8.20591C13.2627 7.80512 12.8504 7.55313 12.3999 7.55313H9.91313L11.7279 2.56314C11.8615 2.19512 11.8075 1.78516 11.5831 1.46472C11.3583 1.14391 10.9915 0.953125 10.5999 0.953125H3.99994C3.44916 0.953125 2.96916 1.32794 2.83594 1.86194L0.435943 11.4619C0.346365 11.8203 0.426755 12.2004 0.654333 12.4915C0.881536 12.7827 1.23033 12.9531 1.59994 12.9531H4.10874L0.467536 23.3568C0.270333 23.9195 0.516755 24.5419 1.04555 24.8176C1.22194 24.9092 1.41155 24.9532 1.59915 24.9532C1.97475 24.9532 2.34155 24.7768 2.57354 24.4544L13.3735 9.45438C13.6371 9.08875 13.6735 8.60673 13.4679 8.20591ZM1.59994 23.7531L5.79994 11.7531H1.59994L3.99994 2.15313H10.5999L8.19994 8.75312H12.3999L1.59994 23.7531Z" fill="#747474"/>
</svg>
