<svg width="15" height="15" viewBox="0 0 15 15" fill="none" xmlns="http://www.w3.org/2000/svg">
<path d="M7.5 0C5.51088 0 3.60327 0.790141 2.19667 2.19666C0.790147 3.60317 0 5.51092 0 7.49994C0 9.48895 0.790147 11.3966 2.19667 12.8032C3.6032 14.2097 5.51097 14.9999 7.5 14.9999C9.48903 14.9999 11.3967 14.2097 12.8033 12.8032C14.2099 11.3967 15 9.48895 15 7.49994C15 6.18345 14.6535 4.89008 13.9953 3.74981C13.337 2.60973 12.3901 1.66289 11.25 1.0046C10.1098 0.346405 8.81656 0 7.5 0ZM11.7571 6.17789L7.257 10.3028C7.11449 10.4335 6.92701 10.5041 6.7338 10.4999C6.54056 10.4957 6.35637 10.4171 6.21976 10.2803L3.96973 8.03032C3.82496 7.89057 3.74247 7.69861 3.74071 7.49745C3.73895 7.29619 3.81818 7.10283 3.96031 6.96057C4.10257 6.81831 4.29605 6.73921 4.4972 6.74084C4.69835 6.7426 4.89044 6.82509 5.0302 6.96986L6.77247 8.71211L10.7431 5.07223C10.9406 4.89118 11.2196 4.82915 11.4753 4.90963C11.7309 4.98999 11.9241 5.20068 11.9823 5.46233C12.0404 5.72387 11.9544 5.9967 11.7571 6.17789Z" fill="#4FC24C"/>
</svg>
