<svg width="16" height="16" viewBox="0 0 16 16" fill="none" xmlns="http://www.w3.org/2000/svg">
<path d="M4.3625 3.33344C4.30909 3.27895 4.24547 3.23551 4.17527 3.20562C4.10506 3.17572 4.02966 3.15995 3.95336 3.15921C3.87706 3.15846 3.80136 3.17276 3.73059 3.20129C3.65982 3.22981 3.59536 3.272 3.5409 3.32544C2.92486 3.93791 2.43619 4.66629 2.10309 5.46857C1.76998 6.27086 1.59903 7.13116 1.6001 7.99984C1.5991 8.90186 1.78351 9.79446 2.14186 10.6222C2.50022 11.45 3.02489 12.1953 3.6833 12.8118C3.79412 12.9143 3.9405 12.9695 4.09136 12.9658C4.24222 12.962 4.38569 12.8996 4.4913 12.7918C4.7441 12.539 4.7129 12.1366 4.4697 11.9038C3.9413 11.4003 3.52081 10.7945 3.2338 10.1234C2.94678 9.45225 2.79922 8.72977 2.8001 7.99984C2.8001 6.52304 3.3929 5.18384 4.3545 4.20944C4.5865 3.97344 4.6105 3.58144 4.3625 3.33344Z" fill="white"/>
<path d="M5.7713 4.74342C5.66594 4.63501 5.5219 4.57278 5.37075 4.57038C5.21959 4.56799 5.07365 4.6256 4.9649 4.73062C4.53196 5.15788 4.18834 5.66698 3.95403 6.22831C3.71972 6.78963 3.59941 7.39195 3.6001 8.00022C3.6001 9.35382 4.1841 10.5706 5.1145 11.4114C5.2243 11.5084 5.36721 11.5595 5.51362 11.554C5.66003 11.5484 5.79871 11.4868 5.9009 11.3818C6.1633 11.1194 6.1145 10.7066 5.8681 10.4746C5.53035 10.1571 5.26131 9.77372 5.07761 9.34812C4.89391 8.92252 4.79946 8.46377 4.8001 8.00022C4.8001 7.08022 5.1657 6.24502 5.7601 5.63222C5.9889 5.39702 6.0265 4.99782 5.7713 4.74342Z" fill="white"/>
<path d="M10.2305 4.74342C10.3359 4.63501 10.4799 4.57278 10.6311 4.57038C10.7822 4.56799 10.9282 4.6256 11.0369 4.73062C11.4698 5.15788 11.8135 5.66698 12.0478 6.22831C12.2821 6.78963 12.4024 7.39195 12.4017 8.00022C12.4017 9.35382 11.8177 10.5706 10.8873 11.4114C10.7775 11.5084 10.6346 11.5595 10.4882 11.554C10.3418 11.5484 10.2031 11.4868 10.1009 11.3818C9.83851 11.1194 9.88731 10.7066 10.1337 10.4746C10.4715 10.1571 10.7405 9.77372 10.9242 9.34812C11.1079 8.92252 11.2024 8.46377 11.2017 8.00022C11.2017 7.08022 10.8361 6.24502 10.2417 5.63222C10.0129 5.39702 9.97531 4.99782 10.2305 4.74342Z" fill="white"/>
<path d="M11.6389 3.33344C11.6923 3.27895 11.7559 3.23551 11.8261 3.20562C11.8964 3.17572 11.9718 3.15995 12.0481 3.15921C12.1244 3.15846 12.2001 3.17276 12.2708 3.20129C12.3416 3.22981 12.4061 3.272 12.4605 3.32544C13.0766 3.93791 13.5652 4.66629 13.8983 5.46857C14.2314 6.27086 14.4024 7.13116 14.4013 7.99984C14.4023 8.90186 14.2179 9.79446 13.8596 10.6222C13.5012 11.45 12.9765 12.1953 12.3181 12.8118C12.2073 12.9143 12.0609 12.9695 11.9101 12.9658C11.7592 12.962 11.6157 12.8996 11.5101 12.7918C11.2573 12.539 11.2885 12.1366 11.5325 11.9038C12.0608 11.4002 12.4811 10.7944 12.768 10.1233C13.0549 9.45216 13.2023 8.72971 13.2013 7.99984C13.2013 6.52304 12.6085 5.18384 11.6469 4.20944C11.4149 3.97344 11.3909 3.58144 11.6389 3.33344Z" fill="white"/>
<path d="M8.00029 6.7998C7.68203 6.7998 7.37681 6.92623 7.15176 7.15128C6.92672 7.37632 6.80029 7.68154 6.80029 7.9998C6.80029 8.31806 6.92672 8.62329 7.15176 8.84833C7.37681 9.07338 7.68203 9.1998 8.00029 9.1998C8.31855 9.1998 8.62378 9.07338 8.84882 8.84833C9.07386 8.62329 9.20029 8.31806 9.20029 7.9998C9.20029 7.68154 9.07386 7.37632 8.84882 7.15128C8.62378 6.92623 8.31855 6.7998 8.00029 6.7998Z" fill="white"/>
</svg>
