<svg width="14" height="19" viewBox="0 0 14 19" fill="none" xmlns="http://www.w3.org/2000/svg">
<path d="M6.99996 17.569L6.44338 18.0717L6.99996 18.6879L7.55654 18.0717L6.99996 17.569ZM6.99996 0.152344C3.36075 0.152344 0.416626 3.09646 0.416626 6.73568H1.91663C1.91663 3.92489 4.18917 1.65234 6.99996 1.65234V0.152344ZM0.416626 6.73568C0.416626 7.98118 0.827505 9.31705 1.39363 10.5807C1.96416 11.8542 2.71824 13.1107 3.46157 14.2124C4.20634 15.3163 4.94962 16.2784 5.50616 16.9642C5.78476 17.3074 6.01739 17.5825 6.1811 17.7725C6.26298 17.8675 6.32767 17.9414 6.37233 17.9919C6.39466 18.0172 6.41198 18.0367 6.42394 18.0501C6.42992 18.0567 6.43456 18.0619 6.43782 18.0655C6.43944 18.0674 6.44073 18.0688 6.44166 18.0698C6.44212 18.0703 6.4425 18.0707 6.44278 18.0711C6.44293 18.0712 6.44308 18.0714 6.44315 18.0715C6.44328 18.0716 6.44338 18.0717 6.99996 17.569C7.55654 17.0663 7.5566 17.0664 7.55664 17.0664C7.55662 17.0664 7.55664 17.0664 7.5566 17.0664C7.55654 17.0663 7.55638 17.0661 7.55614 17.0659C7.55566 17.0653 7.55482 17.0644 7.55365 17.0631C7.55129 17.0605 7.54757 17.0563 7.54251 17.0506C7.5324 17.0393 7.51696 17.022 7.49657 16.9989C7.45577 16.9527 7.39514 16.8835 7.31752 16.7934C7.16222 16.6132 6.93912 16.3495 6.67085 16.0189C6.13363 15.357 5.41858 14.4311 4.70502 13.3735C3.99001 12.3138 3.28576 11.1354 2.76254 9.96745C2.23491 8.78972 1.91663 7.67768 1.91663 6.73568H0.416626ZM6.99996 17.569C7.55654 18.0717 7.55664 18.0716 7.55677 18.0715C7.55684 18.0714 7.55699 18.0712 7.55714 18.0711C7.55742 18.0707 7.5578 18.0703 7.55826 18.0698C7.55919 18.0688 7.56048 18.0674 7.5621 18.0655C7.56536 18.0619 7.57 18.0567 7.57598 18.0501C7.58794 18.0367 7.60526 18.0172 7.62759 17.9919C7.67225 17.9414 7.73694 17.8675 7.81882 17.7725C7.98253 17.5825 8.21516 17.3074 8.49376 16.9642C9.0503 16.2784 9.79358 15.3163 10.5384 14.2124C11.2817 13.1107 12.0358 11.8542 12.6063 10.5807C13.1724 9.31705 13.5833 7.98118 13.5833 6.73568H12.0833C12.0833 7.67768 11.765 8.78972 11.2374 9.96745C10.7142 11.1354 10.0099 12.3138 9.2949 13.3735C8.58134 14.4311 7.86629 15.357 7.32907 16.0189C7.0608 16.3495 6.8377 16.6132 6.6824 16.7934C6.60478 16.8835 6.54415 16.9527 6.50335 16.9989C6.48296 17.022 6.46752 17.0393 6.45741 17.0506C6.45235 17.0563 6.44863 17.0605 6.44627 17.0631C6.4451 17.0644 6.44426 17.0653 6.44378 17.0659C6.44354 17.0661 6.44338 17.0663 6.44332 17.0664C6.44328 17.0664 6.4433 17.0664 6.44328 17.0664C6.44332 17.0664 6.44338 17.0663 6.99996 17.569ZM13.5833 6.73568C13.5833 3.09646 10.6392 0.152344 6.99996 0.152344V1.65234C9.81075 1.65234 12.0833 3.92489 12.0833 6.73568H13.5833ZM6.99996 8.06901C6.26417 8.06901 5.66663 7.47146 5.66663 6.73568H4.16663C4.16663 8.29989 5.43575 9.56901 6.99996 9.56901V8.06901ZM5.66663 6.73568C5.66663 5.99989 6.26417 5.40234 6.99996 5.40234V3.90234C5.43575 3.90234 4.16663 5.17146 4.16663 6.73568H5.66663ZM6.99996 5.40234C7.73575 5.40234 8.33329 5.99989 8.33329 6.73568H9.83329C9.83329 5.17146 8.56417 3.90234 6.99996 3.90234V5.40234ZM8.33329 6.73568C8.33329 7.47146 7.73575 8.06901 6.99996 8.06901V9.56901C8.56417 9.56901 9.83329 8.29989 9.83329 6.73568H8.33329Z" fill="black"/>
</svg>
