<svg width="16" height="19" viewBox="0 0 16 19" fill="none" xmlns="http://www.w3.org/2000/svg">
<path d="M7.748 0.6325L8 0.625C9.05043 0.624948 10.0613 1.02564 10.8264 1.74534C11.5916 2.46504 12.0533 3.44953 12.1175 4.498L12.125 4.75V5.5H13.25C13.8467 5.5 14.419 5.73705 14.841 6.15901C15.2629 6.58097 15.5 7.15326 15.5 7.75V16.75C15.5 17.3467 15.2629 17.919 14.841 18.341C14.419 18.7629 13.8467 19 13.25 19H2.75C2.15326 19 1.58097 18.7629 1.15901 18.341C0.737053 17.919 0.5 17.3467 0.5 16.75V7.75C0.5 7.15326 0.737053 6.58097 1.15901 6.15901C1.58097 5.73705 2.15326 5.5 2.75 5.5H3.875V4.75C3.87495 3.69957 4.27564 2.68869 4.99534 1.92355C5.71504 1.15842 6.69953 0.696672 7.748 0.6325L8 0.625L7.748 0.6325ZM8 10.75C7.60218 10.75 7.22064 10.908 6.93934 11.1893C6.65804 11.4706 6.5 11.8522 6.5 12.25C6.5 12.6478 6.65804 13.0294 6.93934 13.3107C7.22064 13.592 7.60218 13.75 8 13.75C8.39782 13.75 8.77936 13.592 9.06066 13.3107C9.34196 13.0294 9.5 12.6478 9.5 12.25C9.5 11.8522 9.34196 11.4706 9.06066 11.1893C8.77936 10.908 8.39782 10.75 8 10.75ZM8.192 2.884L8 2.875C7.53581 2.87479 7.08805 3.04677 6.74335 3.35766C6.39865 3.66855 6.18153 4.09625 6.134 4.558L6.125 4.75V5.5H9.875V4.75C9.87521 4.28581 9.70323 3.83805 9.39234 3.49335C9.08145 3.14865 8.65375 2.93153 8.192 2.884L8 2.875L8.192 2.884Z" fill="#B7B7B7"/>
</svg>
