<svg width="15" height="17" viewBox="0 0 15 17" fill="none" xmlns="http://www.w3.org/2000/svg">
<path d="M13.6663 14.0424L3.53301 3.58411L1.39134 1.37578L0.333008 2.43411L2.66634 4.76745V4.77578C2.23301 5.60078 1.99967 6.57578 1.99967 7.62578V11.7924L0.333008 13.4591V14.2924H11.7747L13.4413 15.9591L14.4997 14.9008L13.6663 14.0424ZM6.99967 16.8008C7.92467 16.8008 8.66634 16.0591 8.66634 15.1341H5.33301C5.33301 16.0591 6.07467 16.8008 6.99967 16.8008ZM11.9997 10.7008V7.63411C11.9997 5.06745 10.633 2.93411 8.24967 2.36745V1.80078C8.24967 1.10911 7.69134 0.550781 6.99967 0.550781C6.30801 0.550781 5.74967 1.10911 5.74967 1.80078V2.36745C5.62467 2.39245 5.50801 2.43411 5.39967 2.46745C5.31634 2.49245 5.23301 2.52578 5.14967 2.55911H5.14134C5.13301 2.55911 5.13301 2.55911 5.12467 2.56745C4.93301 2.64245 4.74134 2.73411 4.55801 2.82578C4.55801 2.82578 4.54967 2.82578 4.54967 2.83411L11.9997 10.7008Z" fill="white"/>
</svg>
