<svg width="24" height="24" viewBox="0 0 24 24" fill="none" xmlns="http://www.w3.org/2000/svg">
<path fill-rule="evenodd" clip-rule="evenodd" d="M4.5 7.5C4.5 5.84315 5.84315 4.5 7.5 4.5H19.5C21.1569 4.5 22.5 5.84315 22.5 7.5V19.5C22.5 21.1569 21.1569 22.5 19.5 22.5H7.5C5.84315 22.5 4.5 21.1569 4.5 19.5V7.5ZM7.5 6.5C6.94772 6.5 6.5 6.94772 6.5 7.5V19.5C6.5 20.0523 6.94772 20.5 7.5 20.5H19.5C20.0523 20.5 20.5 20.0523 20.5 19.5V7.5C20.5 6.94772 20.0523 6.5 19.5 6.5H7.5Z" fill="white"/>
<path fill-rule="evenodd" clip-rule="evenodd" d="M13.0004 13.6966L18.4528 14.4176L19.1738 8.96532L17.191 8.70312L16.9392 10.6073C16.8163 10.4734 16.6859 10.3458 16.5483 10.2254C15.9078 9.66471 15.1347 9.2768 14.3023 9.09846C13.4699 8.92013 12.6058 8.95727 11.7918 9.20637C10.9778 9.45548 10.2408 9.90829 9.65077 10.5219C9.06072 11.1355 8.63712 11.8897 8.4201 12.7128C8.20307 13.536 8.19981 14.4009 8.41061 15.2257C8.62142 16.0505 9.03932 16.8077 9.62471 17.4258C10.2101 18.0439 10.9436 18.5022 11.7557 18.7575L12.3554 16.8495C11.8681 16.6963 11.428 16.4213 11.0768 16.0505C10.7255 15.6797 10.4748 15.2253 10.3483 14.7304C10.2218 14.2356 10.2238 13.7166 10.354 13.2227C10.4842 12.7288 10.7384 12.2763 11.0924 11.9082C11.4464 11.54 11.8886 11.2683 12.377 11.1188C12.8654 10.9694 13.3839 10.9471 13.8834 11.0541C14.3828 11.1611 14.8466 11.3938 15.231 11.7303C15.3311 11.8179 15.4249 11.9119 15.512 12.0113L13.2626 11.7139L13.0004 13.6966Z" fill="white"/>
<path fill-rule="evenodd" clip-rule="evenodd" d="M4.5 1.5C2.84315 1.5 1.5 2.84314 1.5 4.5V15.3323C1.5 16.9891 2.84314 18.3323 4.5 18.3323H5.38999V16.3323H4.5C3.94771 16.3323 3.5 15.8846 3.5 15.3323V4.5C3.5 3.94771 3.94771 3.5 4.5 3.5H15.3323C15.8846 3.5 16.3323 3.94771 16.3323 4.5V4.64677H18.3323V4.5C18.3323 2.84315 16.9891 1.5 15.3323 1.5H4.5Z" fill="white"/>
</svg>
