<svg width="24" height="24" viewBox="0 0 24 24" fill="none" xmlns="http://www.w3.org/2000/svg">
<rect width="24" height="24" fill="white"/>
<path fill-rule="evenodd" clip-rule="evenodd" d="M4.5 7.5C4.5 5.84315 5.84315 4.5 7.5 4.5H19.5C21.1569 4.5 22.5 5.84315 22.5 7.5V19.5C22.5 21.1569 21.1569 22.5 19.5 22.5H7.5C5.84315 22.5 4.5 21.1569 4.5 19.5V7.5ZM7.5 6.5C6.94772 6.5 6.5 6.94772 6.5 7.5V19.5C6.5 20.0523 6.94772 20.5 7.5 20.5H19.5C20.0523 20.5 20.5 20.0523 20.5 19.5V7.5C20.5 6.94772 20.0523 6.5 19.5 6.5H7.5Z" fill="black"/>
<path fill-rule="evenodd" clip-rule="evenodd" d="M13 13.6986L18.4523 14.4196L19.1733 8.96727L17.1905 8.70508L16.9387 10.6093C16.8158 10.4753 16.6854 10.3478 16.5478 10.2274C15.9073 9.66667 15.1343 9.27875 14.3019 9.10042C13.4695 8.92208 12.6053 8.95922 11.7913 9.20833C10.9773 9.45743 10.2403 9.91025 9.65028 10.5239C9.06024 11.1375 8.63664 11.8916 8.41961 12.7148C8.20258 13.5379 8.19932 14.4029 8.41013 15.2276C8.62093 16.0524 9.03883 16.8097 9.62423 17.4278C10.2096 18.0458 10.9431 18.5042 11.7552 18.7594L12.3549 16.8514C11.8676 16.6983 11.4275 16.4233 11.0763 16.0524C10.7251 15.6816 10.4743 15.2272 10.3478 14.7324C10.2213 14.2375 10.2233 13.7185 10.3535 13.2247C10.4837 12.7308 10.7379 12.2783 11.0919 11.9101C11.446 11.5419 11.8881 11.2702 12.3765 11.1208C12.8649 10.9713 13.3834 10.949 13.8829 11.056C14.3823 11.163 14.8462 11.3958 15.2305 11.7322C15.3306 11.8199 15.4244 11.9138 15.5115 12.0133L13.2621 11.7158L13 13.6986Z" fill="black"/>
<path fill-rule="evenodd" clip-rule="evenodd" d="M4.5 1.5C2.84315 1.5 1.5 2.84314 1.5 4.5V15.3323C1.5 16.9891 2.84314 18.3323 4.5 18.3323H5.38999V16.3323H4.5C3.94771 16.3323 3.5 15.8846 3.5 15.3323V4.5C3.5 3.94771 3.94771 3.5 4.5 3.5H15.3323C15.8846 3.5 16.3323 3.94771 16.3323 4.5V4.64677H18.3323V4.5C18.3323 2.84315 16.9891 1.5 15.3323 1.5H4.5Z" fill="black"/>
</svg>
