<svg width="24" height="24" viewBox="0 0 24 24" fill="none" xmlns="http://www.w3.org/2000/svg">
<path d="M11.5 21.5769C5.85 21.5769 1.25 17.0136 1.25 11.4086C1.25 5.80359 5.85 1.24023 11.5 1.24023C11.91 1.24023 12.25 1.57753 12.25 1.98426C12.25 2.39099 11.91 2.72829 11.5 2.72829C6.67 2.72829 2.75 6.62698 2.75 11.4086C2.75 16.1902 6.67 20.0889 11.5 20.0889C16.33 20.0889 20.25 16.1902 20.25 11.4086C20.25 11.0019 20.59 10.6646 21 10.6646C21.41 10.6646 21.75 11.0019 21.75 11.4086C21.75 17.0136 17.15 21.5769 11.5 21.5769Z" fill="#292D32"/>
<path d="M21.9999 22.5693C21.8099 22.5693 21.6199 22.4998 21.4699 22.351L19.4699 20.3669C19.1799 20.0792 19.1799 19.6031 19.4699 19.3154C19.7599 19.0277 20.2399 19.0277 20.5299 19.3154L22.5299 21.2994C22.8199 21.5871 22.8199 22.0633 22.5299 22.351C22.3799 22.4998 22.1899 22.5693 21.9999 22.5693Z" fill="#292D32"/>
<path d="M17.5 9.4632C16.58 9.4632 14.44 8.35212 13.78 6.30853C13.33 4.90976 13.85 3.0745 15.48 2.54872C16.18 2.32055 16.91 2.42968 17.49 2.79673C18.06 2.42968 18.81 2.33047 19.51 2.54872C21.14 3.0745 21.67 4.90976 21.21 6.30853C20.56 8.3918 18.31 9.4632 17.5 9.4632ZM15.21 5.86211C15.67 7.30056 17.23 7.95531 17.51 7.98507C17.83 7.95531 19.36 7.2212 19.78 5.87204C20.01 5.14785 19.78 4.21534 19.05 3.97725C18.74 3.87805 18.32 3.93757 18.12 4.22526C17.98 4.43359 17.76 4.55263 17.51 4.56255C17.29 4.57247 17.03 4.45343 16.89 4.25502C16.66 3.92765 16.24 3.87805 15.94 3.96733C15.22 4.20542 14.98 5.13793 15.21 5.86211Z" fill="#FF5A5A"/>
</svg>
