<svg width="24" height="24" viewBox="0 0 24 24" fill="none" xmlns="http://www.w3.org/2000/svg">
<path d="M11.5 21.5769C5.85 21.5769 1.25 17.0136 1.25 11.4086C1.25 5.80359 5.85 1.24023 11.5 1.24023C11.91 1.24023 12.25 1.57753 12.25 1.98426C12.25 2.39099 11.91 2.72829 11.5 2.72829C6.67 2.72829 2.75 6.62698 2.75 11.4086C2.75 16.1902 6.67 20.0889 11.5 20.0889C16.33 20.0889 20.25 16.1902 20.25 11.4086C20.25 11.0019 20.59 10.6646 21 10.6646C21.41 10.6646 21.75 11.0019 21.75 11.4086C21.75 17.0136 17.15 21.5769 11.5 21.5769Z" fill="white"/>
<path d="M22.0004 22.5693C21.8104 22.5693 21.6204 22.4998 21.4704 22.351L19.4704 20.3669C19.1804 20.0792 19.1804 19.6031 19.4704 19.3154C19.7604 19.0277 20.2404 19.0277 20.5304 19.3154L22.5304 21.2994C22.8204 21.5871 22.8204 22.0633 22.5304 22.351C22.3804 22.4998 22.1904 22.5693 22.0004 22.5693Z" fill="white"/>
<path d="M17.4999 9.46418C16.5799 9.46418 14.4399 8.3531 13.7799 6.30951C13.3299 4.91074 13.8499 3.07547 15.4799 2.5497C16.1799 2.32153 16.9099 2.43065 17.4899 2.7977C18.0599 2.43065 18.8099 2.33145 19.5099 2.5497C21.1399 3.07547 21.6699 4.91074 21.2099 6.30951C20.5599 8.39278 18.3099 9.46418 17.4999 9.46418ZM15.2099 5.86309C15.6699 7.30154 17.2299 7.95628 17.5099 7.98605C17.8299 7.95628 19.3599 7.22218 19.7799 5.87301C20.0099 5.14883 19.7799 4.21631 19.0499 3.97823C18.7399 3.87902 18.3199 3.93854 18.1199 4.22623C17.9799 4.43456 17.7599 4.55361 17.5099 4.56353C17.2899 4.57345 17.0299 4.4544 16.8899 4.256C16.6599 3.92862 16.2399 3.87902 15.9399 3.96831C15.2199 4.20639 14.9799 5.13891 15.2099 5.86309Z" fill="#FF5A5A"/>
</svg>
