<svg width="44" height="42" viewBox="0 0 44 42" fill="none" xmlns="http://www.w3.org/2000/svg">
<path d="M29.1002 12.9916L29.1657 13.1245L29.3124 13.1458L42.4468 15.0547C42.4469 15.0547 42.447 15.0547 42.4471 15.0547C43.2011 15.1669 43.7219 15.8634 43.6065 16.6109L43.6061 16.614C43.5633 16.9136 43.4221 17.1882 43.207 17.3991C43.2069 17.3992 43.2068 17.3993 43.2067 17.3994L33.7036 26.6645L33.5975 26.7679L33.6226 26.9139L35.8679 39.9975L35.8679 39.9977C35.9965 40.7439 35.495 41.4523 34.7475 41.5812L34.7471 41.5812C34.4505 41.6328 34.1418 41.5852 33.8775 41.4446L33.8763 41.4439L22.1274 35.2668L21.9963 35.1979L21.8651 35.2668L10.1163 41.4439L10.1158 41.4441C9.88925 41.5638 9.63369 41.6175 9.37812 41.5993C9.12255 41.5811 8.8772 41.4916 8.6699 41.341C8.46259 41.1905 8.30161 40.9848 8.20523 40.7474C8.10885 40.51 8.08091 40.2504 8.12459 39.9979L8.12465 39.9975L10.3699 26.9139L10.395 26.7679L10.2889 26.6645L0.785309 17.3989L0.785291 17.3989C0.524073 17.1442 0.37463 16.7963 0.369798 16.4315C0.364969 16.067 0.505012 15.7154 0.759171 15.4539C0.970106 15.2389 1.24468 15.0977 1.54415 15.0549L1.54482 15.0548L14.6802 13.1458L14.8268 13.1245L14.8924 12.9916L20.7635 1.0889C20.7637 1.08861 20.7638 1.08831 20.764 1.08802C21.104 0.4091 21.9289 0.131092 22.6061 0.465409L22.6065 0.46557C22.8766 0.598485 23.0953 0.817175 23.2282 1.08729L23.2283 1.08754L29.1002 12.9916Z" fill="url(#paint0_linear_5617_12810)" stroke="#6BFF7A" stroke-width="0.563574"/>
<defs>
<linearGradient id="paint0_linear_5617_12810" x1="21.9962" y1="0.0419922" x2="21.9962" y2="41.8845" gradientUnits="userSpaceOnUse">
<stop stop-color="#69F172"/>
<stop offset="0.0001" stop-color="#5DDE66"/>
<stop offset="1" stop-color="#49AE50"/>
</linearGradient>
</defs>
</svg>
