<svg width="44" height="42" viewBox="0 0 44 42" fill="none" xmlns="http://www.w3.org/2000/svg">
<path d="M29.0806 12.9916L29.1462 13.1245L29.2928 13.1458L42.4273 15.0547C42.4274 15.0547 42.4275 15.0547 42.4276 15.0547C43.1815 15.1669 43.7024 15.8634 43.587 16.6109L43.5866 16.614C43.5438 16.9136 43.4026 17.1882 43.1875 17.3991C43.1874 17.3992 43.1873 17.3993 43.1872 17.3994L33.6841 26.6645L33.578 26.7679L33.6031 26.9139L35.8483 39.9975L35.8484 39.9977C35.977 40.7439 35.4754 41.4523 34.7279 41.5812L34.7275 41.5812C34.431 41.6328 34.1222 41.5852 33.858 41.4446L33.8567 41.4439L22.1079 35.2668L21.9767 35.1979L21.8456 35.2668L10.0967 41.4439L10.0963 41.4441C9.86972 41.5638 9.61416 41.6175 9.35859 41.5993C9.10302 41.5811 8.85767 41.4916 8.65037 41.341C8.44306 41.1905 8.28208 40.9848 8.1857 40.7474C8.08932 40.51 8.06138 40.2504 8.10505 39.9979L8.10512 39.9975L10.3504 26.9139L10.3754 26.7679L10.2694 26.6645L0.765778 17.3989L0.76576 17.3989C0.504542 17.1442 0.355098 16.7963 0.350267 16.4315C0.345438 16.067 0.485481 15.7154 0.73964 15.4539C0.950575 15.2389 1.22514 15.0977 1.52462 15.0549L1.52529 15.0548L14.6606 13.1458L14.8073 13.1245L14.8728 12.9916L20.744 1.0889C20.7441 1.08861 20.7443 1.08831 20.7444 1.08802C21.0845 0.4091 21.9094 0.131092 22.5866 0.465409L22.5869 0.46557C22.8571 0.598485 23.0758 0.817175 23.2087 1.08729L23.2088 1.08754L29.0806 12.9916Z" fill="#2A2A2A" stroke="#292929" stroke-width="0.563574"/>
</svg>
