<svg width="18" height="18" viewBox="0 0 18 18" fill="none" xmlns="http://www.w3.org/2000/svg">
<path d="M4.41663 3.40234C4.1694 3.40234 3.92773 3.47566 3.72216 3.61301C3.5166 3.75036 3.35639 3.94558 3.26178 4.17399C3.16717 4.4024 3.14241 4.65373 3.19065 4.89621C3.23888 5.13868 3.35793 5.36141 3.53274 5.53623C3.70756 5.71104 3.93029 5.83009 4.17276 5.87833C4.41524 5.92656 4.66657 5.9018 4.89498 5.80719C5.12339 5.71258 5.31861 5.55237 5.45596 5.34681C5.59332 5.14125 5.66663 4.89957 5.66663 4.65234C5.66663 4.32082 5.53493 4.00288 5.30051 3.76846C5.06609 3.53404 4.74815 3.40234 4.41663 3.40234ZM4.41663 3.40234C4.1694 3.40234 3.92773 3.47566 3.72216 3.61301C3.5166 3.75036 3.35639 3.94558 3.26178 4.17399C3.16717 4.4024 3.14241 4.65373 3.19065 4.89621C3.23888 5.13868 3.35793 5.36141 3.53274 5.53623C3.70756 5.71104 3.93029 5.83009 4.17276 5.87833C4.41524 5.92656 4.66657 5.9018 4.89498 5.80719C5.12339 5.71258 5.31861 5.55237 5.45596 5.34681C5.59332 5.14125 5.66663 4.89957 5.66663 4.65234C5.66663 4.32082 5.53493 4.00288 5.30051 3.76846C5.06609 3.53404 4.74815 3.40234 4.41663 3.40234ZM16.8416 8.88568L9.34163 1.38568C9.02914 1.07574 8.60675 0.901993 8.16663 0.902344H2.33329C1.89127 0.902344 1.46734 1.07794 1.15478 1.3905C0.842221 1.70306 0.666626 2.12698 0.666626 2.56901V8.40234C0.666452 8.62227 0.709807 8.84006 0.794191 9.04315C0.878575 9.24624 1.00232 9.43063 1.15829 9.58568L1.49996 9.91901C2.03128 9.60088 2.62043 9.39128 3.23329 9.30234L2.33329 8.40234V2.56901H8.16663L15.6666 10.069L9.83329 15.9023L8.93329 15.0023C8.84545 15.6155 8.63578 16.2048 8.31663 16.7357L8.65829 17.0773C8.96942 17.3903 9.39198 17.5672 9.83329 17.569C10.2746 17.5672 10.6972 17.3903 11.0083 17.0773L16.8416 11.244C17.1546 10.9329 17.3314 10.5103 17.3333 10.069C17.3335 9.84908 17.2901 9.6313 17.2057 9.4282C17.1213 9.22511 16.9976 9.04073 16.8416 8.88568ZM4.41663 3.40234C4.1694 3.40234 3.92773 3.47566 3.72216 3.61301C3.5166 3.75036 3.35639 3.94558 3.26178 4.17399C3.16717 4.4024 3.14241 4.65373 3.19065 4.89621C3.23888 5.13868 3.35793 5.36141 3.53274 5.53623C3.70756 5.71104 3.93029 5.83009 4.17276 5.87833C4.41524 5.92656 4.66657 5.9018 4.89498 5.80719C5.12339 5.71258 5.31861 5.55237 5.45596 5.34681C5.59332 5.14125 5.66663 4.89957 5.66663 4.65234C5.66663 4.32082 5.53493 4.00288 5.30051 3.76846C5.06609 3.53404 4.74815 3.40234 4.41663 3.40234ZM7.33329 15.069H4.83329V17.569H3.16663V15.069H0.666626V13.4023H3.16663V10.9023H4.83329V13.4023H7.33329V15.069Z" fill="black"/>
</svg>
