<svg width="14" height="13" viewBox="0 0 14 13" fill="none" xmlns="http://www.w3.org/2000/svg">
<path d="M0.333374 12.6753H1.66671C2.03337 12.6753 2.33337 12.3753 2.33337 12.0086V6.00863C2.33337 5.64196 2.03337 5.34196 1.66671 5.34196H0.333374V12.6753ZM13.5534 7.92863C13.6267 7.76196 13.6667 7.58196 13.6667 7.39529V6.67529C13.6667 5.94196 13.0667 5.34196 12.3334 5.34196H8.66671L9.28004 2.24196C9.31337 2.09529 9.29337 1.93529 9.22671 1.80196C9.07337 1.50196 8.88004 1.22863 8.64004 0.988626L8.33337 0.675293L4.06004 4.94863C3.80671 5.20196 3.66671 5.54196 3.66671 5.89529V11.122C3.66671 11.9753 4.36671 12.6753 5.22671 12.6753H10.6334C11.1 12.6753 11.54 12.4286 11.78 12.0286L13.5534 7.92863Z" fill="#222222"/>
</svg>
