<svg width="22" height="16" viewBox="0 0 22 16" fill="none" xmlns="http://www.w3.org/2000/svg">
<path d="M20.5333 2.23333L16.3333 4.6V1.33333C16.3333 0.979711 16.1928 0.640573 15.9427 0.390524C15.6927 0.140476 15.3535 0 14.9999 0H2.99992C2.29267 0 1.6144 0.280951 1.1143 0.781048C0.614204 1.28115 0.333252 1.95942 0.333252 2.66667V13.3333C0.333252 14.0406 0.614204 14.7189 1.1143 15.219C1.6144 15.719 2.29267 16 2.99992 16H14.9999C15.3535 16 15.6927 15.8595 15.9427 15.6095C16.1928 15.3594 16.3333 15.0203 16.3333 14.6667V11.3867L20.5333 13.7533C20.641 13.8237 20.7654 13.8645 20.8939 13.8716C21.0224 13.8787 21.1506 13.8519 21.2654 13.7938C21.3803 13.7357 21.4778 13.6484 21.5482 13.5406C21.6186 13.4329 21.6595 13.3085 21.6666 13.18V2.8C21.6584 2.67205 21.6168 2.5485 21.5459 2.44165C21.475 2.33481 21.3774 2.24841 21.2627 2.19107C21.148 2.13374 21.0203 2.10747 20.8923 2.11488C20.7644 2.1223 20.6405 2.16314 20.5333 2.23333Z" fill="black"/>
</svg>
