<svg width="24" height="24" viewBox="0 0 24 24" fill="none" xmlns="http://www.w3.org/2000/svg">
<path fill-rule="evenodd" clip-rule="evenodd" d="M18.1711 6.74062C16.3753 5.63671 14.2624 5 12 5C7 5 2.73 8.11 1 12.5C2.02229 15.0941 3.9315 17.2413 6.35416 18.5639L8.67951 16.2373C7.64932 15.3212 7 13.986 7 12.5C7 9.74 9.24 7.5 12 7.5C13.485 7.5 14.8195 8.14847 15.7355 9.17749L18.1711 6.74062ZM16.5824 10.4974L19.4395 7.64024C21.0091 8.91587 22.2459 10.5863 23 12.5C21.27 16.89 17 20 12 20C10.5339 20 9.13066 19.7326 7.83576 19.244L9.99742 17.0824C10.6107 17.3509 11.288 17.5 12 17.5C14.76 17.5 17 15.26 17 12.5C17 11.788 16.8509 11.1107 16.5824 10.4974ZM14.3193 10.5945C13.7696 9.9257 12.9356 9.5 12 9.5C10.34 9.5 9 10.84 9 12.5C9 13.4362 9.42624 14.2707 10.0957 14.8203L14.3193 10.5945ZM11.6054 15.4744L14.9744 12.1054C14.9913 12.2345 15 12.3662 15 12.5C15 14.16 13.66 15.5 12 15.5C11.8662 15.5 11.7345 15.4913 11.6054 15.4744Z" fill="#B7B7B7"/>
<path d="M21.7699 2.22988C21.4699 1.92988 20.9799 1.92988 20.6799 2.22988L2.22988 20.6899C1.92988 20.9899 1.92988 21.4799 2.22988 21.7799C2.37988 21.9199 2.56988 21.9999 2.76988 21.9999C2.96988 21.9999 3.15988 21.9199 3.30988 21.7699L21.7699 3.30988C22.0799 3.00988 22.0799 2.52988 21.7699 2.22988Z" fill="#B7B7B7"/>
</svg>
