<svg width="11" height="12" viewBox="0 0 11 12" fill="none" xmlns="http://www.w3.org/2000/svg">
<path fill-rule="evenodd" clip-rule="evenodd" d="M6.31199 9.2652C5.87175 9.70544 5.13799 9.70544 4.68443 9.2652C4.24419 8.82495 3.35036 8.45142 2.72335 8.45142H2.68334L1.74951 11.1596L3.55055 10.5993L4.67114 12.0001L5.36479 9.77217L6.60552 12.0001L7.57936 10.4525L9.23363 10.5993L8.0196 8.47813C7.4193 8.54485 6.69885 8.87837 6.312 9.2652L6.31199 9.2652Z" fill="#FFB548"/>
<path d="M9.74065 3.8088C9.34041 3.40856 9.0203 2.62148 9.0203 2.04779C9.0203 1.48748 8.55333 1.02053 7.99305 1.02053C7.43276 1.02053 6.63227 0.687015 6.23203 0.300183C5.83179 -0.100061 5.17816 -0.100061 4.77792 0.300183C4.37768 0.700427 3.5906 1.02053 3.0169 1.02053C2.4566 1.02053 1.98965 1.4875 1.98965 2.04779C1.98965 2.60807 1.65613 3.40856 1.2693 3.8088C0.869055 4.20905 0.869055 4.86267 1.2693 5.26291C1.66954 5.66316 1.98965 6.45023 1.98965 7.02393C1.98965 7.58424 2.45662 8.05119 3.0169 8.05119C3.57721 8.05119 4.37768 8.3847 4.77792 8.77153C5.17816 9.17178 5.83179 9.17178 6.23203 8.77153C6.63227 8.37129 7.41935 8.05119 7.99305 8.05119C8.55335 8.05119 9.0203 7.58421 9.0203 7.02393C9.0203 6.46362 9.35382 5.66316 9.74065 5.26291C10.1276 4.86267 10.1276 4.19564 9.74065 3.8088ZM6.89909 6.38355L5.49829 5.6765L4.0975 6.38355L4.35099 4.84942L3.2304 3.75554L4.79126 3.51545L5.49832 2.14127L6.20537 3.52865L7.76623 3.75552L6.64564 4.84951L6.89909 6.38355Z" fill="#FFB548"/>
</svg>
