<svg width="20" height="19" viewBox="0 0 20 19" fill="none" xmlns="http://www.w3.org/2000/svg">
<path d="M2.50524 1.94455V1.11122C2.50524 0.963897 2.56603 0.822526 2.6742 0.718362C2.78237 0.614197 2.92918 0.555664 3.08216 0.555664H10.0052C10.1582 0.555664 10.305 0.614197 10.4132 0.718362C10.5213 0.822526 10.5821 0.963897 10.5821 1.11122V1.94455C10.5821 2.09187 10.5213 2.23324 10.4132 2.3374C10.305 2.44157 10.1582 2.5001 10.0052 2.5001H3.08216C2.92918 2.5001 2.78237 2.44157 2.6742 2.3374C2.56603 2.23324 2.50524 2.09187 2.50524 1.94455ZM9.42829 3.88898V3.05565H3.65908V3.88898H9.42829ZM4.52447 17.2223C4.52434 17.517 4.6459 17.7996 4.86238 18.008C5.07872 18.2164 5.37221 18.3335 5.67831 18.3334H6.54369V16.1111H5.67831C5.3722 16.111 5.0787 16.2281 4.86238 16.4365C4.6459 16.6449 4.52433 16.9275 4.52447 17.2223ZM7.98599 16.1111H7.12061V18.3334H7.98599C8.39821 18.3334 8.77914 18.1216 8.98528 17.7778C9.19133 17.4341 9.19133 17.0104 8.98528 16.6667C8.77911 16.323 8.39817 16.1111 7.98599 16.1111ZM5.67831 15.5556H5.96677V13.8889H5.10139C4.75846 13.8888 4.43315 14.0356 4.21398 14.2896C3.99481 14.5436 3.90428 14.8783 3.96699 15.2029C4.02983 15.5277 4.23935 15.8086 4.5389 15.9695C4.85311 15.7015 5.25863 15.5542 5.6783 15.5556H5.67831ZM8.37823 15.6C8.49915 15.4217 8.56328 15.2131 8.5629 15.0001C8.56303 14.7053 8.44146 14.4227 8.22499 14.2143C8.00864 14.0059 7.71515 13.8888 7.40906 13.8889H6.54367V15.5556H7.98598C8.1181 15.5549 8.24997 15.5697 8.37822 15.6L8.37823 15.6ZM6.54369 9.44446H2.50524V10H6.54369V9.44446ZM6.54369 7.22225H2.50524V7.7778H6.54369V7.22225ZM0.81503 17.5C0.878775 17.7379 1.02262 17.9488 1.22415 18.0996C1.42556 18.2504 1.67332 18.3326 1.92842 18.3333H4.39194C4.17134 18.1006 4.02594 17.811 3.97365 17.5L0.81503 17.5ZM11.7103 17.9861L11.6987 17.9695C11.5891 17.8111 11.4852 17.6556 11.39 17.5H9.69091C9.63863 17.811 9.49324 18.1005 9.27263 18.3333H11.1592C11.4 18.334 11.6348 18.26 11.8285 18.1222C11.791 18.0833 11.7592 18.0445 11.7247 18.0028L11.7103 17.9861ZM10.8708 4.44455H2.21695C1.88444 4.44455 1.56226 4.55516 1.30482 4.75767C1.04727 4.96017 0.870184 5.24205 0.803755 5.55566H12.2838C12.2174 5.24205 12.0403 4.96017 11.7828 4.75767C11.5253 4.55516 11.2031 4.44455 10.8706 4.44455H10.8708ZM9.69091 16.9445C9.61106 16.4807 9.32995 16.0716 8.91786 15.8195C9.2192 15.3031 9.21367 14.6715 8.90331 14.1601C8.59296 13.6487 8.02428 13.3341 7.40925 13.3334H5.10157C4.59909 13.333 4.12146 13.5431 3.79255 13.9089C3.46378 14.2747 3.31648 14.7602 3.38884 15.239C3.46134 15.7178 3.74633 16.1425 4.16986 16.4028C4.07173 16.5708 4.00528 16.7541 3.97373 16.9444H0.774658V6.11114H12.3131V10.3613C11.2833 10.6001 10.516 11.3279 10.1092 12.4807C9.8784 13.2112 9.98219 14.9585 11.0639 16.9445H9.69091ZM1.92852 8.05564C1.92903 8.20891 2.05781 8.33292 2.21698 8.33342H6.83235C6.99151 8.33292 7.12029 8.20891 7.12081 8.05564V6.94454C7.12029 6.79126 6.99151 6.66725 6.83235 6.66676H2.21698C2.05781 6.66726 1.92903 6.79126 1.92852 6.94454V8.05564ZM1.92852 10.2779C1.92903 10.4311 2.05781 10.5551 2.21698 10.5556H6.83235C6.99151 10.5551 7.12029 10.4311 7.12081 10.2779V9.16675C7.12029 9.01348 6.99151 8.88947 6.83235 8.88897H2.21698C2.05781 8.88947 1.92903 9.01348 1.92852 9.16675V10.2779ZM8.85157 12.5001C8.85105 12.3468 8.72228 12.2228 8.56311 12.2223H2.21698C2.05768 12.2223 1.92852 12.3467 1.92852 12.5001C1.92852 12.6535 2.05768 12.7778 2.21698 12.7778H8.56311C8.72228 12.7773 8.85105 12.6533 8.85157 12.5001ZM8.85157 11.389C8.85105 11.2357 8.72228 11.1117 8.56311 11.1112H2.21698C2.05768 11.1112 1.92852 11.2356 1.92852 11.389C1.92852 11.5424 2.05768 11.6667 2.21698 11.6667H8.56311C8.72228 11.6662 8.85105 11.5422 8.85157 11.389ZM17.6409 17.6585C17.2601 18.1251 16.9168 18.3334 16.5447 18.3334C16.2259 18.3053 15.9169 18.2114 15.6389 18.0584L15.5812 18.0333V18.0335C15.1503 17.8598 14.6651 17.8598 14.2341 18.0335L14.1822 18.0585V18.0584C13.903 18.2112 13.5933 18.3049 13.2735 18.3334C12.9014 18.3334 12.5524 18.1195 12.1774 17.6585C10.5592 15.339 10.4582 13.2807 10.663 12.6445C11.0784 11.4584 11.9177 10.8334 13.089 10.8334C13.3647 10.8336 13.6396 10.8644 13.9082 10.925C14.0216 11.3247 14.0684 11.7391 14.0466 12.1528C14.0411 12.2266 14.0662 12.2994 14.1165 12.3552C14.1669 12.411 14.2383 12.4451 14.315 12.4501C14.3214 12.4523 14.3282 12.4533 14.3351 12.4528C14.4838 12.4514 14.6075 12.3424 14.6221 12.1998L14.6218 12.1978C14.6233 12.181 14.7627 10.48 13.7136 9.47004C13.601 9.36153 13.601 9.18569 13.7136 9.07718C13.8262 8.96867 14.0088 8.96867 14.1215 9.07718C14.2345 9.18767 14.3383 9.30635 14.4323 9.43223C14.5601 9.04769 14.8137 8.71325 15.1551 8.47874C15.7743 8.14728 16.9315 8.48395 17.0619 8.52326C17.2042 8.56654 17.2887 8.70716 17.2569 8.84741C17.2287 8.97278 16.962 10.08 16.3379 10.4126C16.1148 10.5172 15.8681 10.5668 15.6201 10.557C15.4052 10.5548 15.1908 10.5342 14.9796 10.4955C15.0355 10.6695 15.0807 10.8467 15.1149 11.0259C15.3494 11.0194 15.5828 10.9923 15.812 10.9445C16.1123 10.8736 16.4201 10.8363 16.7293 10.8334C17.9004 10.8334 18.7399 11.4611 19.1552 12.6445C19.363 13.2862 19.2563 15.3446 17.6409 17.6585L17.6409 17.6585ZM16.862 12.6001V12.5999C16.7594 12.4831 16.5783 12.4671 16.4552 12.5639C16.3947 12.6138 16.3427 12.6583 16.2937 12.7C16.0081 12.9444 15.8783 13.0555 14.9496 13.0555C13.9948 13.0555 13.8015 12.8833 13.5592 12.6667C13.5217 12.6333 13.4842 12.5999 13.4466 12.5694C13.3896 12.5201 13.3144 12.4949 13.2379 12.4996C13.1612 12.5043 13.0899 12.5384 13.0399 12.5945C12.936 12.7099 12.9475 12.8843 13.0658 12.9861C13.1005 13.0166 13.1351 13.0444 13.1668 13.075C13.5187 13.3889 13.8534 13.6111 14.9496 13.6111C16.0485 13.6111 16.2967 13.4417 16.6775 13.1138C16.7236 13.0778 16.7698 13.0332 16.8246 12.9916V12.9917C16.8834 12.9446 16.9205 12.8767 16.9276 12.8033C16.9345 12.7299 16.911 12.6567 16.862 12.6L16.862 12.6001Z" fill="#4FC24C"/>
</svg>
