<svg width="20" height="16" viewBox="0 0 20 16" fill="none" xmlns="http://www.w3.org/2000/svg">
<path d="M0.617018 15.8589V7.23246C1.71621 7.82523 2.98291 8.17316 4.39124 8.26147C4.39549 8.26161 4.40003 8.26189 4.40429 8.26189C4.51065 8.26189 4.60027 8.1799 4.60694 8.07316C4.61403 7.96192 4.5288 7.86629 4.41691 7.85912C4.04123 7.83549 3.67648 7.7926 3.32265 7.73128C3.98365 7.34905 4.77371 7.13923 5.59524 7.13923C7.40989 7.13923 8.97454 8.13576 9.39996 9.5626C9.42619 9.65049 9.50717 9.70717 9.59495 9.70717C9.6141 9.70717 9.63338 9.7045 9.65253 9.69887C9.76031 9.66737 9.82186 9.55514 9.78995 9.4484C9.71025 9.1812 9.59268 8.92904 9.44775 8.69193C9.83875 8.48351 10.282 8.37396 10.7428 8.37396C11.9583 8.37396 12.9987 9.14167 13.2166 10.1994C13.2363 10.295 13.3211 10.3607 13.4156 10.3607C13.4291 10.3607 13.4428 10.3593 13.4564 10.3565C13.5665 10.3342 13.6375 10.2276 13.6148 10.1185C13.6114 10.1023 13.6061 10.0869 13.6025 10.0707C13.6397 10.1269 13.6785 10.1828 13.724 10.2362C13.8104 10.3379 13.8928 10.4394 13.9745 10.5403C14.3346 10.9834 14.7068 11.4419 15.3404 11.8112C15.3728 11.8302 15.4084 11.839 15.4433 11.839C15.513 11.839 15.581 11.8033 15.6187 11.7396C15.6754 11.6434 15.6431 11.5201 15.5465 11.4635C14.9767 11.1316 14.6439 10.7216 14.2913 10.2876C14.2075 10.1843 14.1231 10.0807 14.0348 9.97648C13.8687 9.78086 13.7792 9.57102 13.7538 9.31635C13.7162 8.94113 13.7877 8.7676 13.8703 8.56678C13.9963 8.26035 14.1257 7.9428 13.9078 7.08437C13.9074 7.0831 13.9078 7.08197 13.9077 7.08071C13.9034 7.06341 13.8964 7.03711 13.8878 7.00533C13.8869 7.00195 13.8863 6.99886 13.8852 6.99548C13.8852 6.99534 13.885 6.99506 13.885 6.99492C13.7384 6.45547 13.0551 4.15865 11.88 3.4839C11.6334 3.29235 11.2884 3.35972 10.8899 3.4396C10.6197 3.49388 10.3118 3.55435 10.0033 3.54282C9.68176 3.52201 9.30029 3.41259 8.9615 3.24229C8.71545 3.11811 8.45705 3.09687 8.19384 3.18013C8.1079 3.20713 8.03713 3.22935 7.9078 3.25902C7.87958 3.26549 7.85703 3.26605 7.82895 3.26169C7.63154 3.23005 7.37612 3.18885 7.31005 3.0814C7.27686 3.02754 7.29218 2.94105 7.31274 2.87369L7.44647 2.60072C7.51455 2.46107 7.4971 2.29836 7.40067 2.17586C7.35486 2.11806 7.34593 2.04184 7.37684 1.97208C7.47385 1.7534 7.61722 1.50193 7.75579 1.25881C7.84698 1.09989 7.93604 0.943653 8.01163 0.798093C8.2676 0.306161 8.80637 0.0528871 9.35221 0.16903C12.5204 0.841547 13.3043 1.97954 14.2969 3.42044C14.4042 3.57612 14.5134 3.7349 14.628 3.89607C14.9531 4.35398 15.247 4.66421 15.5312 4.96417C16.0905 5.55454 16.6687 6.16477 17.6115 7.98215L17.7396 8.22826C18.6951 10.0666 19.5978 11.8026 19.3376 12.8362C19.2509 13.1797 18.8106 13.5742 18.1293 13.9187C16.2276 14.8802 11.8007 15.6723 7.39878 13.9131C7.12154 13.8024 6.80669 13.9051 6.65044 14.1575L5.59634 15.8588L0.617018 15.8589Z" fill="#D05252"/>
</svg>
