<svg width="19" height="18" viewBox="0 0 19 18" fill="none" xmlns="http://www.w3.org/2000/svg">
<path fill-rule="evenodd" clip-rule="evenodd" d="M17.5561 0.391699H1.55463C1.06574 0.391699 0.666626 0.790546 0.666626 1.27971V7.83257C0.666626 7.90493 0.706668 7.96657 0.772491 7.99614C0.838311 8.02558 0.911069 8.01446 0.964983 7.96643L2.8017 6.32968H17.5559C18.0451 6.32968 18.4439 5.93083 18.4439 5.44167V1.27934C18.4439 0.790448 18.0448 0.391602 17.5559 0.391602L17.5561 0.391699ZM3.31805 2.75108C3.15971 2.75108 3.03134 2.62271 3.03134 2.46437C3.03134 2.30603 3.15971 2.17766 3.31805 2.17766H7.22344C7.38178 2.17766 7.51015 2.30603 7.51015 2.46437C7.51015 2.62271 7.38178 2.75108 7.22344 2.75108H3.31805ZM3.31805 4.54331C3.15971 4.54331 3.03134 4.41494 3.03134 4.2566C3.03134 4.09826 3.15971 3.96989 3.31805 3.96989H15.7926C15.951 3.96989 16.0793 4.09826 16.0793 4.2566C16.0793 4.41494 15.951 4.54331 15.7926 4.54331H3.31805ZM13.6828 2.75108C13.5245 2.75108 13.3961 2.62271 13.3961 2.46437C13.3961 2.30603 13.5245 2.17766 13.6828 2.17766H15.7928C15.9511 2.17766 16.0795 2.30603 16.0795 2.46437C16.0795 2.62271 15.9511 2.75108 15.7928 2.75108H13.6828ZM9.14531 2.75108C8.98697 2.75108 8.8586 2.62271 8.8586 2.46437C8.8586 2.30603 8.98697 2.17766 9.14531 2.17766H11.9624C12.1208 2.17766 12.2491 2.30603 12.2491 2.46437C12.2491 2.62271 12.1208 2.75108 11.9624 2.75108H9.14531ZM1.55497 9.98867H17.5564C18.0453 9.98867 18.4444 10.3875 18.4444 10.8767V17.4295C18.4444 17.5019 18.4044 17.5635 18.3385 17.5931C18.2727 17.6226 18.2 17.6114 18.146 17.5634L16.3093 15.9266H1.55509C1.0662 15.9266 0.667353 15.5278 0.667353 15.0386V10.8763C0.667091 10.3874 1.0662 9.98857 1.55509 9.98857L1.55497 9.98867ZM15.793 11.7747H11.8873C11.7289 11.7747 11.6005 11.9031 11.6005 12.0614C11.6005 12.2198 11.7289 12.3482 11.8873 12.3482H15.7926C15.951 12.3482 16.0793 12.2198 16.0793 12.0614C16.0795 11.9031 15.9511 11.7747 15.7929 11.7747H15.793ZM15.793 13.5667H3.31805C3.15971 13.5667 3.03134 13.6951 3.03134 13.8534C3.03134 14.0117 3.15971 14.1401 3.31805 14.1401H15.7926C15.951 14.1401 16.0793 14.0117 16.0793 13.8534C16.0795 13.6951 15.9511 13.5667 15.7929 13.5667H15.793ZM5.42819 11.7747H3.31812C3.15978 11.7747 3.03141 11.9031 3.03141 12.0614C3.03141 12.2198 3.15978 12.3482 3.31812 12.3482H5.42806C5.5864 12.3482 5.71477 12.2198 5.71477 12.0614C5.7149 11.9031 5.58653 11.7747 5.42819 11.7747H5.42819ZM9.96572 11.7747H7.1486C6.99026 11.7747 6.86189 11.9031 6.86189 12.0614C6.86189 12.2198 6.99026 12.3482 7.1486 12.3482H9.96572C10.1241 12.3482 10.2524 12.2198 10.2524 12.0614C10.2526 11.9031 10.1242 11.7747 9.96572 11.7747Z" fill="#2C86F0"/>
</svg>
