<svg width="40" height="40" viewBox="0 0 40 40" fill="none" xmlns="http://www.w3.org/2000/svg">
<g clip-path="url(#clip0_2480_27236)">
<circle cx="20" cy="20" r="20" fill="#343126"/>
<path d="M19.5449 40.0003C19.4525 40.0003 19.3638 39.9636 19.2984 39.8982C19.233 39.8328 19.1963 39.7441 19.1963 39.6517V5.45019C19.1963 5.35773 19.233 5.26906 19.2984 5.20367C19.3638 5.13829 19.4525 5.10156 19.5449 5.10156C19.6374 5.10156 19.7261 5.13829 19.7914 5.20367C19.8568 5.26906 19.8936 5.35773 19.8936 5.45019V39.6517C19.8936 39.7441 19.8568 39.8328 19.7914 39.8982C19.7261 39.9636 19.6374 40.0003 19.5449 40.0003Z" fill="#E0A42D"/>
<path d="M16.7207 5.29881C16.7207 6.03895 17.0147 6.74878 17.5381 7.27213C18.0614 7.79549 18.7713 8.08951 19.5114 8.08951C20.2515 8.08951 20.9614 7.79549 21.4847 7.27213C22.0081 6.74878 22.3021 6.03895 22.3021 5.29881C22.3021 4.22098 20.9366 1.73918 20.1159 0.34582C20.054 0.240519 19.9657 0.15322 19.8596 0.0925637C19.7536 0.0319079 19.6336 0 19.5114 0C19.3892 0 19.2692 0.0319079 19.1632 0.0925637C19.0571 0.15322 18.9688 0.240519 18.9069 0.34582C18.0862 1.73918 16.7207 4.22098 16.7207 5.29881Z" fill="#F5D272"/>
<path d="M14.9115 13.8269C15.4169 14.3323 16.1023 14.6162 16.817 14.6162C17.5316 14.6162 18.217 14.3323 18.7224 13.8269C19.2277 13.3216 19.5116 12.6362 19.5116 11.9215C19.5116 11.2068 19.2277 10.5214 18.7224 10.0161C17.9863 9.28 15.3596 8.51707 13.8478 8.12536C13.7334 8.09559 13.6133 8.09626 13.4993 8.12729C13.3853 8.15831 13.2814 8.21862 13.198 8.30223C13.1145 8.38583 13.0543 8.48981 13.0235 8.60385C12.9926 8.71789 12.9922 8.83802 13.0221 8.9523C13.4125 10.4641 14.1755 13.0908 14.9115 13.8269Z" fill="#F5BA35"/>
<path d="M24.3846 13.826C23.8793 14.3313 23.1938 14.6151 22.4791 14.6151C21.7643 14.6151 21.0789 14.3313 20.5735 13.826C20.0681 13.3206 19.7842 12.6353 19.7842 11.9207C19.7842 11.2061 20.0681 10.5207 20.5735 10.0154C21.3096 9.27941 23.9366 8.51653 25.4485 8.12485C25.5628 8.09549 25.6827 8.09645 25.7966 8.12762C25.9104 8.15879 26.0141 8.21909 26.0975 8.30259C26.1808 8.38608 26.241 8.48987 26.272 8.60371C26.303 8.71755 26.3037 8.8375 26.2742 8.95173C25.8825 10.4634 25.1208 13.09 24.3846 13.826Z" fill="#F5D272"/>
<path d="M14.911 21.27C15.4167 21.7753 16.1023 22.059 16.8172 22.0588C17.532 22.0586 18.2175 21.7744 18.7228 21.2687C19.2281 20.7631 19.5119 20.0774 19.5116 19.3625C19.5114 18.6477 19.2272 17.9622 18.7215 17.4569C17.9855 16.7209 15.359 15.9593 13.8473 15.5676C13.7332 15.538 13.6132 15.5387 13.4994 15.5696C13.3855 15.6006 13.2817 15.6608 13.1983 15.7442C13.1149 15.8276 13.0547 15.9314 13.0237 16.0453C12.9928 16.1591 12.9921 16.279 13.0217 16.3932C13.4121 17.9075 14.175 20.5289 14.911 21.27Z" fill="#F5C652"/>
<path d="M24.3848 21.2689C23.8792 21.7741 23.1935 22.0578 22.4786 22.0575C21.7638 22.0573 21.0783 21.7731 20.573 21.2676C20.0677 20.762 19.7839 20.0765 19.7842 19.3618C19.7844 18.6471 20.0686 17.9617 20.5743 17.4565C21.3103 16.7207 23.9368 15.9592 25.4485 15.5676C25.5627 15.538 25.6826 15.5387 25.7965 15.5696C25.9103 15.6006 26.0141 15.6608 26.0975 15.7442C26.1809 15.8276 26.2411 15.9313 26.2721 16.0452C26.303 16.159 26.3037 16.2789 26.2741 16.3931C25.8824 17.907 25.1208 20.5279 24.3848 21.2689Z" fill="#F5BA35"/>
<path d="M14.9113 28.7116C15.4167 29.217 16.1021 29.5009 16.8168 29.5009C17.5315 29.5009 18.217 29.217 18.7223 28.7116C19.2277 28.2062 19.5116 27.5208 19.5116 26.8061C19.5116 26.0914 19.2277 25.4059 18.7223 24.9005C17.9862 24.1644 15.3593 23.4027 13.8475 23.011C13.7333 22.9813 13.6133 22.982 13.4994 23.013C13.3856 23.044 13.2818 23.1042 13.1984 23.1876C13.1149 23.271 13.0547 23.3748 13.0238 23.4887C12.9928 23.6025 12.9921 23.7225 13.0217 23.8367C13.4122 25.3486 14.1752 27.9755 14.9113 28.7116Z" fill="#F5BA35"/>
<path d="M24.3845 28.7096C23.8792 29.215 23.1937 29.4989 22.479 29.4989C21.7643 29.4989 21.0789 29.215 20.5735 28.7096C20.0681 28.2043 19.7842 27.5188 19.7842 26.8041C19.7842 26.0894 20.0681 25.404 20.5735 24.8986C21.3096 24.1625 23.9365 23.4008 25.4484 23.0091C25.5626 22.9794 25.6825 22.9801 25.7964 23.0111C25.9102 23.042 26.014 23.1022 26.0975 23.1857C26.1809 23.2691 26.2411 23.3729 26.2721 23.4867C26.303 23.6006 26.3037 23.7206 26.2741 23.8348C25.8823 25.3466 25.1206 27.9735 24.3845 28.7096Z" fill="#F5D272"/>
</g>
<defs>
<clipPath id="clip0_2480_27236">
<rect width="40" height="40" fill="white"/>
</clipPath>
</defs>
</svg>
