<svg width="40" height="40" viewBox="0 0 40 40" fill="none" xmlns="http://www.w3.org/2000/svg">
<g clip-path="url(#clip0_1618_2565)">
<rect width="40" height="40" fill="white"/>
<circle cx="20" cy="20" r="20" fill="#F7F2E1"/>
<path d="M19.545 40.0003C19.4526 40.0003 19.3639 39.9636 19.2985 39.8982C19.2331 39.8328 19.1964 39.7441 19.1964 39.6517V5.45019C19.1964 5.35773 19.2331 5.26906 19.2985 5.20367C19.3639 5.13829 19.4526 5.10156 19.545 5.10156C19.6375 5.10156 19.7262 5.13829 19.7916 5.20367C19.8569 5.26906 19.8937 5.35773 19.8937 5.45019V39.6517C19.8937 39.7441 19.8569 39.8328 19.7916 39.8982C19.7262 39.9636 19.6375 40.0003 19.545 40.0003Z" fill="#E0A42D"/>
<path d="M16.7209 5.29881C16.7209 6.03895 17.015 6.74878 17.5383 7.27213C18.0617 7.79549 18.7715 8.08951 19.5116 8.08951C20.2518 8.08951 20.9616 7.79549 21.485 7.27213C22.0083 6.74878 22.3023 6.03895 22.3023 5.29881C22.3023 4.22098 20.9368 1.73918 20.1162 0.34582C20.0543 0.240519 19.9659 0.15322 19.8599 0.0925637C19.7538 0.0319079 19.6338 0 19.5116 0C19.3895 0 19.2694 0.0319079 19.1634 0.0925637C19.0574 0.15322 18.969 0.240519 18.9071 0.34582C18.0865 1.73918 16.7209 4.22098 16.7209 5.29881Z" fill="#F5D272"/>
<path d="M14.9115 13.8269C15.4169 14.3323 16.1023 14.6162 16.817 14.6162C17.5316 14.6162 18.217 14.3323 18.7224 13.8269C19.2277 13.3216 19.5116 12.6362 19.5116 11.9215C19.5116 11.2068 19.2277 10.5214 18.7224 10.0161C17.9863 9.28 15.3596 8.51707 13.8478 8.12536C13.7334 8.09559 13.6133 8.09626 13.4993 8.12729C13.3853 8.15831 13.2814 8.21862 13.198 8.30223C13.1145 8.38583 13.0543 8.48981 13.0235 8.60385C12.9926 8.71789 12.9922 8.83802 13.0221 8.9523C13.4125 10.4641 14.1755 13.0908 14.9115 13.8269Z" fill="#F5BA35"/>
<path d="M24.3851 13.826C23.8797 14.3313 23.1943 14.6151 22.4796 14.6151C21.7648 14.6151 21.0794 14.3313 20.574 13.826C20.0686 13.3206 19.7847 12.6353 19.7847 11.9207C19.7847 11.2061 20.0686 10.5207 20.574 10.0154C21.3101 9.27941 23.9371 8.51653 25.449 8.12485C25.5633 8.09549 25.6832 8.09645 25.797 8.12762C25.9109 8.15879 26.0146 8.21909 26.0979 8.30259C26.1813 8.38608 26.2415 8.48987 26.2725 8.60371C26.3035 8.71755 26.3042 8.8375 26.2747 8.95173C25.883 10.4634 25.1212 13.09 24.3851 13.826Z" fill="#F5D272"/>
<path d="M14.911 21.271C15.4167 21.7763 16.1023 22.06 16.8172 22.0598C17.532 22.0595 18.2175 21.7753 18.7228 21.2697C19.2281 20.764 19.5119 20.0784 19.5116 19.3635C19.5114 18.6487 19.2272 17.9632 18.7215 17.4579C17.9855 16.7219 15.359 15.9603 13.8473 15.5686C13.7332 15.539 13.6132 15.5397 13.4994 15.5706C13.3855 15.6016 13.2817 15.6618 13.1983 15.7452C13.1149 15.8286 13.0547 15.9324 13.0237 16.0462C12.9928 16.1601 12.9921 16.28 13.0217 16.3942C13.4121 17.9084 14.175 20.5299 14.911 21.271Z" fill="#F5C652"/>
<path d="M24.3848 21.2679C23.8792 21.7731 23.1935 22.0568 22.4786 22.0566C21.7638 22.0563 21.0783 21.7722 20.573 21.2666C20.0677 20.7611 19.7839 20.0755 19.7842 19.3608C19.7844 18.6461 20.0686 17.9608 20.5743 17.4556C21.3103 16.7197 23.9368 15.9583 25.4485 15.5667C25.5627 15.537 25.6826 15.5377 25.7965 15.5687C25.9103 15.5996 26.0141 15.6598 26.0975 15.7432C26.1809 15.8266 26.2411 15.9304 26.2721 16.0442C26.303 16.158 26.3037 16.2779 26.2741 16.3921C25.8824 17.906 25.1208 20.5269 24.3848 21.2679Z" fill="#F5BA35"/>
<path d="M14.9113 28.7126C15.4167 29.2179 16.1021 29.5019 16.8168 29.5019C17.5315 29.5019 18.217 29.2179 18.7223 28.7126C19.2277 28.2072 19.5116 27.5218 19.5116 26.807C19.5116 26.0923 19.2277 25.4069 18.7223 24.9015C17.9862 24.1654 15.3593 23.4037 13.8475 23.012C13.7333 22.9823 13.6133 22.983 13.4994 23.014C13.3856 23.045 13.2818 23.1052 13.1984 23.1886C13.1149 23.272 13.0547 23.3758 13.0238 23.4897C12.9928 23.6035 12.9921 23.7235 13.0217 23.8377C13.4122 25.3496 14.1752 27.9765 14.9113 28.7126Z" fill="#F5BA35"/>
<path d="M24.385 28.7106C23.8796 29.216 23.1942 29.4999 22.4795 29.4999C21.7648 29.4999 21.0793 29.216 20.574 28.7106C20.0686 28.2052 19.7847 27.5198 19.7847 26.8051C19.7847 26.0904 20.0686 25.4049 20.574 24.8996C21.3101 24.1635 23.937 23.4018 25.4488 23.01C25.563 22.9804 25.683 22.9811 25.7969 23.012C25.9107 23.043 26.0145 23.1032 26.0979 23.1866C26.1814 23.2701 26.2416 23.3739 26.2725 23.4877C26.3035 23.6016 26.3042 23.7215 26.2746 23.8357C25.8828 25.3476 25.1211 27.9745 24.385 28.7106Z" fill="#F5D272"/>
</g>
<defs>
<clipPath id="clip0_1618_2565">
<rect width="40" height="40" fill="white"/>
</clipPath>
</defs>
</svg>
