<svg width="40" height="40" viewBox="0 0 40 40" fill="none" xmlns="http://www.w3.org/2000/svg">
<g clip-path="url(#clip0_1936_8631)">
<rect width="40" height="40" fill="white"/>
<circle cx="20" cy="20" r="20" fill="#F7F6E1"/>
<path d="M7.66504 20.1321H33.0129C33.4735 20.1321 33.9152 20.3151 34.2409 20.6408C34.5666 20.9665 34.7496 21.4082 34.7496 21.8688V27.5663C34.7496 28.0269 34.5666 28.4687 34.2409 28.7944C33.9152 29.1201 33.4735 29.3031 33.0129 29.3031H7.66504V20.1321Z" fill="#F5D272"/>
<path d="M34.7339 27.7954C34.6787 28.2127 34.4737 28.5957 34.1571 28.8731C33.8405 29.1504 33.4339 29.3033 33.0129 29.3032H7.66406V20.1333H9.55412V21.6748C9.55412 23.298 10.199 24.8549 11.3468 26.0027C12.4947 27.1505 14.0515 27.7954 15.6748 27.7954H34.7339Z" fill="#F5C652"/>
<path d="M1.73676 20.1321H7.66525V29.302H1.73676C1.27632 29.302 0.834731 29.1192 0.509056 28.7937C0.183381 28.4682 0.000278376 28.0268 0 27.5663V21.8688C0 21.4082 0.182979 20.9665 0.508684 20.6408C0.834389 20.3151 1.27614 20.1321 1.73676 20.1321Z" fill="#F5C652"/>
<path d="M7.66417 20.1333V29.3032H1.73568C1.30314 29.3033 0.88617 29.1418 0.566466 28.8504C0.246762 28.5591 0.04736 28.1589 0.00732422 27.7282H1.14031C2.3935 27.7282 3.59536 27.2304 4.4815 26.3442C5.36764 25.4581 5.86546 24.2562 5.86546 23.003V20.1333H7.66417Z" fill="#F5BA35"/>
<path d="M32.9513 23.867C33.5655 23.867 34.0633 23.3692 34.0633 22.7551C34.0633 22.1409 33.5655 21.6431 32.9513 21.6431C32.3372 21.6431 31.8394 22.1409 31.8394 22.7551C31.8394 23.3692 32.3372 23.867 32.9513 23.867Z" fill="#F9DF9D"/>
<path d="M30.6347 23.5426C31.0696 23.5426 31.4222 23.19 31.4222 22.7551C31.4222 22.3201 31.0696 21.9675 30.6347 21.9675C30.1998 21.9675 29.8472 22.3201 29.8472 22.7551C29.8472 23.19 30.1998 23.5426 30.6347 23.5426Z" fill="#F9DF9D"/>
<path d="M12.9155 11H38.2634C38.4914 11 38.7173 11.0449 38.928 11.1322C39.1387 11.2195 39.3302 11.3474 39.4914 11.5087C39.6527 11.67 39.7806 11.8614 39.8679 12.0721C39.9552 12.2828 40.0001 12.5087 40.0001 12.7368V18.4311C40.0001 18.6592 39.9552 18.885 39.8679 19.0957C39.7806 19.3064 39.6527 19.4979 39.4914 19.6592C39.3302 19.8204 39.1387 19.9484 38.928 20.0356C38.7173 20.1229 38.4914 20.1678 38.2634 20.1678H12.9155V11Z" fill="#F5D272"/>
<path d="M39.9844 18.6631C39.9292 19.0804 39.7242 19.4633 39.4076 19.7407C39.091 20.0181 38.6843 20.171 38.2634 20.1709H12.9146V11.001H14.8046V12.5424C14.8046 13.3462 14.9629 14.1421 15.2705 14.8847C15.5781 15.6273 16.029 16.302 16.5973 16.8704C17.7452 18.0182 19.302 18.6631 20.9253 18.6631H39.9844Z" fill="#F5C652"/>
<path d="M6.98676 11H12.9153V20.1699H6.98676C6.75851 20.1699 6.53249 20.125 6.32164 20.0375C6.11079 19.9501 5.91924 19.822 5.75794 19.6605C5.59664 19.499 5.46876 19.3073 5.3816 19.0964C5.29444 18.8854 5.24973 18.6593 5.25 18.4311V12.7368C5.25 12.2761 5.43298 11.8344 5.75869 11.5087C6.08439 11.183 6.52614 11 6.98676 11Z" fill="#F5C652"/>
<path d="M12.9142 11.001V20.1709H6.98568C6.55314 20.1709 6.13617 20.0095 5.81647 19.7181C5.49676 19.4268 5.29736 19.0266 5.25732 18.5959H6.39031C7.6435 18.5959 8.84536 18.098 9.7315 17.2119C10.6176 16.3258 11.1155 15.1239 11.1155 13.8707V11.001H12.9142Z" fill="#F5BA35"/>
<path d="M38.2013 14.735C38.8155 14.735 39.3133 14.2371 39.3133 13.623C39.3133 13.0088 38.8155 12.511 38.2013 12.511C37.5872 12.511 37.0894 13.0088 37.0894 13.623C37.0894 14.2371 37.5872 14.735 38.2013 14.735Z" fill="#F9DF9D"/>
<path d="M35.8847 14.4105C36.3196 14.4105 36.6722 14.0579 36.6722 13.623C36.6722 13.188 36.3196 12.8354 35.8847 12.8354C35.4498 12.8354 35.0972 13.188 35.0972 13.623C35.0972 14.0579 35.4498 14.4105 35.8847 14.4105Z" fill="#F9DF9D"/>
</g>
<defs>
<clipPath id="clip0_1936_8631">
<rect width="40" height="40" fill="white"/>
</clipPath>
</defs>
</svg>
