<svg width="40" height="40" viewBox="0 0 40 40" fill="none" xmlns="http://www.w3.org/2000/svg">
<g clip-path="url(#clip0_2480_27277)">
<circle cx="20" cy="20" r="20" fill="#3D3C2D"/>
<path d="M7.66504 20.1318H33.0129C33.4735 20.1318 33.9152 20.3148 34.2409 20.6405C34.5666 20.9662 34.7496 21.408 34.7496 21.8686V27.5661C34.7496 28.0267 34.5666 28.4684 34.2409 28.7941C33.9152 29.1199 33.4735 29.3028 33.0129 29.3028H7.66504V20.1318Z" fill="#F5D272"/>
<path d="M34.7339 27.7949C34.6787 28.2122 34.4737 28.5952 34.1571 28.8726C33.8405 29.15 33.4339 29.3028 33.0129 29.3028H7.66406V20.1328H9.55412V21.6743C9.55412 23.2976 10.199 24.8544 11.3468 26.0022C12.4947 27.1501 14.0515 27.7949 15.6748 27.7949H34.7339Z" fill="#F5C652"/>
<path d="M1.73676 20.1318H7.66525V29.3018H1.73676C1.27632 29.3018 0.834731 29.1189 0.509056 28.7935C0.183381 28.468 0.000278376 28.0265 0 27.5661V21.8686C0 21.408 0.182979 20.9662 0.508684 20.6405C0.834389 20.3148 1.27614 20.1318 1.73676 20.1318Z" fill="#F5C652"/>
<path d="M7.66466 20.1328V29.3028H1.73617C1.30363 29.3028 0.886659 29.1413 0.566955 28.85C0.24725 28.5586 0.0478482 28.1584 0.0078125 27.7277H1.1408C2.39399 27.7277 3.59585 27.2299 4.48199 26.3437C5.36813 25.4576 5.86595 24.2557 5.86595 23.0026V20.1328H7.66466Z" fill="#F5BA35"/>
<path d="M32.9518 23.8666C33.566 23.8666 34.0638 23.3687 34.0638 22.7546C34.0638 22.1404 33.566 21.6426 32.9518 21.6426C32.3377 21.6426 31.8398 22.1404 31.8398 22.7546C31.8398 23.3687 32.3377 23.8666 32.9518 23.8666Z" fill="#F9DF9D"/>
<path d="M30.6352 23.5418C31.0701 23.5418 31.4227 23.1893 31.4227 22.7543C31.4227 22.3194 31.0701 21.9668 30.6352 21.9668C30.2002 21.9668 29.8477 22.3194 29.8477 22.7543C29.8477 23.1893 30.2002 23.5418 30.6352 23.5418Z" fill="#F9DF9D"/>
<path d="M12.915 11H38.2629C38.4909 11 38.7168 11.0449 38.9275 11.1322C39.1382 11.2195 39.3297 11.3474 39.4909 11.5087C39.6522 11.67 39.7801 11.8614 39.8674 12.0721C39.9547 12.2828 39.9996 12.5087 39.9996 12.7368V18.4311C39.9996 18.6592 39.9547 18.885 39.8674 19.0957C39.7801 19.3064 39.6522 19.4979 39.4909 19.6592C39.3297 19.8204 39.1382 19.9484 38.9275 20.0356C38.7168 20.1229 38.4909 20.1678 38.2629 20.1678H12.915V11Z" fill="#F5D272"/>
<path d="M39.9839 18.6631C39.9287 19.0804 39.7237 19.4633 39.4071 19.7407C39.0905 20.0181 38.6839 20.171 38.2629 20.1709H12.9141V11.001H14.8041V12.5424C14.8041 13.3462 14.9624 14.1421 15.27 14.8847C15.5776 15.6273 16.0285 16.302 16.5968 16.8704C17.7447 18.0182 19.3015 18.6631 20.9248 18.6631H39.9839Z" fill="#F5C652"/>
<path d="M6.98676 11H12.9153V20.1699H6.98676C6.75851 20.1699 6.53249 20.125 6.32164 20.0375C6.11079 19.9501 5.91924 19.822 5.75794 19.6605C5.59664 19.499 5.46876 19.3073 5.3816 19.0964C5.29444 18.8854 5.24973 18.6593 5.25 18.4311V12.7368C5.25 12.2761 5.43298 11.8344 5.75869 11.5087C6.08439 11.183 6.52614 11 6.98676 11Z" fill="#F5C652"/>
<path d="M12.9147 11.001V20.1709H6.98617C6.55363 20.1709 6.13666 20.0095 5.81695 19.7181C5.49725 19.4268 5.29785 19.0266 5.25781 18.5959H6.3908C7.64399 18.5959 8.84585 18.098 9.73199 17.2119C10.6181 16.3258 11.116 15.1239 11.116 13.8707V11.001H12.9147Z" fill="#F5BA35"/>
<path d="M38.2018 14.7347C38.816 14.7347 39.3138 14.2369 39.3138 13.6227C39.3138 13.0086 38.816 12.5107 38.2018 12.5107C37.5877 12.5107 37.0898 13.0086 37.0898 13.6227C37.0898 14.2369 37.5877 14.7347 38.2018 14.7347Z" fill="#F9DF9D"/>
<path d="M35.8852 14.411C36.3201 14.411 36.6727 14.0584 36.6727 13.6235C36.6727 13.1885 36.3201 12.8359 35.8852 12.8359C35.4502 12.8359 35.0977 13.1885 35.0977 13.6235C35.0977 14.0584 35.4502 14.411 35.8852 14.411Z" fill="#F9DF9D"/>
</g>
<defs>
<clipPath id="clip0_2480_27277">
<rect width="40" height="40" fill="white"/>
</clipPath>
</defs>
</svg>
