<svg width="30" height="30" viewBox="0 0 30 30" fill="none" xmlns="http://www.w3.org/2000/svg">
<path d="M16.5856 2.51416C16.5856 3.70335 15.5946 4.69434 14.4054 4.69434C13.2162 4.69434 12.2252 3.70335 12.2252 2.51416C12.2252 1.32498 13.2162 0.333984 14.4054 0.333984C15.5946 0.333984 16.5856 1.32498 16.5856 2.51416ZM14.4054 6.47813C13.1171 6.47813 12.1261 7.46912 12.1261 8.75741C12.1261 10.0457 13.1171 11.0367 14.4054 11.0367C15.6937 11.0367 16.6847 10.0457 16.6847 8.75741C16.6847 7.46912 15.6937 6.47813 14.4054 6.47813ZM14.4054 12.6223C13.1171 12.6223 12.027 13.7124 12.027 15.0007C12.027 16.2889 13.1171 17.379 14.4054 17.379C15.6937 17.379 16.7838 16.2889 16.7838 15.0007C16.7838 13.7124 15.6937 12.6223 14.4054 12.6223ZM14.4054 18.8655C13.1171 18.8655 12.1261 19.8565 12.1261 21.1448C12.1261 22.4331 13.1171 23.4241 14.4054 23.4241C15.6937 23.4241 16.6847 22.4331 16.6847 21.1448C16.6847 19.9556 15.6937 18.8655 14.4054 18.8655ZM14.4054 25.2079C13.2162 25.2079 12.2252 26.1988 12.2252 27.388C12.2252 28.5772 13.2162 29.5682 14.4054 29.5682C15.5946 29.5682 16.5856 28.5772 16.5856 27.388C16.5856 26.1988 15.5946 25.2079 14.4054 25.2079ZM20.4505 6.18083C19.0631 6.18083 17.8739 7.37002 17.8739 8.75741C17.8739 10.1448 19.0631 11.334 20.4505 11.334C21.8378 11.334 23.027 10.1448 23.027 8.75741C23.027 7.37002 21.8378 6.18083 20.4505 6.18083ZM20.4505 12.325C18.964 12.325 17.7748 13.5142 17.7748 15.0007C17.7748 16.4871 18.964 17.6763 20.4505 17.6763C21.9369 17.6763 23.1261 16.4871 23.1261 15.0007C23.1261 13.5142 21.9369 12.325 20.4505 12.325ZM20.4505 18.5682C19.0631 18.5682 17.8739 19.7574 17.8739 21.1448C17.8739 22.5322 19.0631 23.7214 20.4505 23.7214C21.8378 23.7214 23.027 22.5322 23.027 21.1448C23.027 19.7574 21.8378 18.5682 20.4505 18.5682ZM26.6937 12.0277C25.1081 12.0277 23.7207 13.316 23.7207 15.0007C23.7207 16.5862 25.009 17.9736 26.6937 17.9736C28.3784 17.9736 29.6667 16.6853 29.6667 15.0007C29.5676 13.316 28.2793 12.0277 26.6937 12.0277ZM8.26127 6.77543C7.17118 6.77543 6.27929 7.66732 6.27929 8.75741C6.27929 9.8475 7.17118 10.7394 8.26127 10.7394C9.35136 10.7394 10.2433 9.8475 10.2433 8.75741C10.2433 7.66732 9.35136 6.77543 8.26127 6.77543ZM8.26127 12.9196C7.07208 12.9196 6.18019 13.8115 6.18019 15.0007C6.18019 16.1898 7.07208 17.0817 8.26127 17.0817C9.45046 17.0817 10.3424 16.1898 10.3424 15.0007C10.3424 13.8115 9.45046 12.9196 8.26127 12.9196ZM8.26127 19.1628C7.17118 19.1628 6.27929 20.0547 6.27929 21.1448C6.27929 22.2349 7.17118 23.1268 8.26127 23.1268C9.35136 23.1268 10.2433 22.2349 10.2433 21.1448C10.2433 20.0547 9.35136 19.1628 8.26127 19.1628ZM2.11713 13.2169C1.12614 13.2169 0.333344 14.0097 0.333344 15.0007C0.333344 15.9916 1.12614 16.7844 2.11713 16.7844C3.10812 16.7844 3.90091 15.9916 3.90091 15.0007C3.90091 14.0097 3.10812 13.2169 2.11713 13.2169Z" fill="#00B0B9"/>
</svg>
