<svg width="30" height="25" viewBox="0 0 30 25" fill="none" xmlns="http://www.w3.org/2000/svg">
<g clip-path="url(#clip0_1523_2762)">
<path d="M3.14 13.1392L4.61785 14.617L7.80949 11.4378L6.34407 9.95993L5.67345 9.28931C5.13944 8.7553 4.85381 8.05984 4.85381 7.30229C4.85381 6.64409 5.07735 6.04799 5.46233 5.57607C5.98392 4.91787 6.77873 4.49563 7.67289 4.49563C8.43044 4.49563 9.12589 4.79368 9.67232 5.32769L10.3305 5.96105L11.8084 7.45132L15.0124 4.27209L13.5222 2.79424L12.8515 2.14846C11.5227 0.819645 9.69716 0 7.67289 0C3.61192 0 0.333344 3.27858 0.333344 7.31471C0.333344 8.32064 0.532045 9.27689 0.904611 10.1586C1.27718 11.0404 1.81119 11.8228 2.48181 12.481L3.14 13.1392Z" fill="#EA4335"/>
<path d="M10.4547 15.1757L15.0124 10.6428L11.8084 7.45117L7.8095 11.4376L4.61786 14.6169L6.33166 16.3431L7.8095 17.8085L9.34944 16.2686" fill="#FBBC04"/>
<path d="M18.1916 21.8072L25.3946 14.6167L22.1905 11.4375L15 18.6156L11.0011 14.6291L7.80948 17.8084L11.8084 21.8072L11.7959 21.8197L15 24.8374L18.2041 21.8072H18.1916Z" fill="#34A853"/>
<path d="M27.5182 12.4811C29.0085 10.9908 29.8654 8.70574 29.6294 6.39583C29.2817 2.89371 26.3757 0.260915 22.8487 0.024957C20.6257 -0.124069 18.589 0.707994 17.1485 2.14858L11.8083 7.45143L15 10.6431L20.3401 5.32781C20.9859 4.69445 21.88 4.3964 22.799 4.54542C23.9912 4.7317 24.9599 5.71279 25.1214 6.905C25.2455 7.79916 24.9475 8.66848 24.3141 9.30184L22.1905 11.4379L25.3946 14.6171L27.5182 12.4811Z" fill="#4285F4"/>
</g>
<defs>
<clipPath id="clip0_1523_2762">
<rect width="29.3333" height="24.8377" fill="white" transform="translate(0.333344)"/>
</clipPath>
</defs>
</svg>
