<svg width="40" height="40" viewBox="0 0 40 40" fill="none" xmlns="http://www.w3.org/2000/svg">
<circle cx="20" cy="20" r="20" fill="#323D31"/>
<path d="M26.9692 24.0645C29.0663 24.5027 31.2313 24.5027 33.3284 24.0645C33.811 23.968 34.3091 23.98 34.7866 24.0996C35.264 24.2193 35.7089 24.4437 36.0889 24.7564C36.469 25.0692 36.7748 25.4626 36.984 25.9081C37.1933 26.3536 37.3009 26.8401 37.299 27.3323C37.2973 28.0687 37.0521 28.7838 36.6017 29.3663C36.1513 29.9488 35.5208 30.3661 34.8086 30.553C31.7564 31.3745 28.5412 31.3745 25.4889 30.553C24.7769 30.366 24.1466 29.9487 23.6964 29.3662C23.2463 28.7837 23.0014 28.0686 23 27.3323C22.9979 26.8402 23.1053 26.3537 23.3144 25.9082C23.5235 25.4627 23.8291 25.0693 24.2091 24.7565C24.589 24.4436 25.0338 24.2193 25.5112 24.0996C25.9886 23.9799 26.4866 23.9679 26.9692 24.0645Z" fill="#11B264"/>
<path d="M35.4374 24.334C36.047 24.6343 36.5503 25.1137 36.8798 25.7081C37.2092 26.3024 37.3492 26.9833 37.2808 27.6594C37.2125 28.3356 36.9391 28.9747 36.4973 29.491C36.0555 30.0074 35.4665 30.3764 34.8091 30.5486C31.7568 31.3702 28.5416 31.3702 25.4894 30.5486C24.7034 30.3409 24.0198 29.8542 23.5664 29.1794C23.768 29.2792 23.979 29.3587 24.1962 29.4168C27.248 30.2383 30.4627 30.2383 33.5144 29.4168C34.2268 29.2289 34.8572 28.8113 35.3081 28.2286C35.7365 27.6755 35.9797 27.0014 36.0029 26.3022C36.0261 25.603 35.8282 24.9142 35.4374 24.334Z" fill="#10A055"/>
<path d="M28.8772 27.4175C29.5855 27.4175 30.1597 26.8433 30.1597 26.135C30.1597 25.4267 29.5855 24.8525 28.8772 24.8525C28.1689 24.8525 27.5947 25.4267 27.5947 26.135C27.5947 26.8433 28.1689 27.4175 28.8772 27.4175Z" fill="#5BBE92"/>
<path d="M26.2061 27.044C26.7077 27.044 27.1143 26.6374 27.1143 26.1358C27.1143 25.6342 26.7077 25.2275 26.2061 25.2275C25.7045 25.2275 25.2979 25.6342 25.2979 26.1358C25.2979 26.6374 25.7045 27.044 26.2061 27.044Z" fill="#5BBE92"/>
<path d="M16.2638 8.97706C17.8612 10.4049 19.7363 11.4874 21.7716 12.157C22.2373 12.3146 22.6621 12.5737 23.0154 12.9156C23.3687 13.2575 23.6416 13.6736 23.8144 14.1339C23.9872 14.5942 24.0555 15.0871 24.0144 15.5771C23.9734 16.067 23.8239 16.5417 23.5769 16.9668C23.2076 17.6037 22.6378 18.1005 21.9564 18.3797C21.2751 18.6588 20.5205 18.7046 19.8104 18.5099C16.7564 17.6964 13.9722 16.0889 11.7407 13.8509C11.2168 13.3331 10.8791 12.6565 10.7801 11.9266C10.6811 11.1967 10.8264 10.4545 11.1934 9.81591C11.4383 9.38928 11.7749 9.02243 12.1789 8.7419C12.583 8.46137 13.0444 8.27419 13.5297 8.1939C14.015 8.11361 14.512 8.14223 14.9849 8.27768C15.4578 8.41313 15.8946 8.65201 16.2638 8.97706Z" fill="#11B264"/>
<path d="M23.4631 13.4447C23.8428 14.0095 24.0404 14.6769 24.0295 15.3574C24.0186 16.0378 23.7997 16.6986 23.4022 17.251C23.0048 17.8034 22.4477 18.2208 21.806 18.4473C21.1642 18.6738 20.4686 18.6984 19.8124 18.5179C16.7589 17.7033 13.9749 16.096 11.7427 13.8588C11.1652 13.2859 10.8161 12.5222 10.7608 11.7106C10.8845 11.8969 11.0275 12.0698 11.1872 12.2264C13.4187 14.4644 16.2029 16.0718 19.2569 16.8854C19.7699 17.0267 20.3093 17.043 20.8299 16.933C21.3505 16.8229 21.8371 16.5898 22.2491 16.253C22.661 15.9162 22.9863 15.4855 23.1976 14.9972C23.4089 14.5089 23.5001 13.977 23.4635 13.4461L23.4631 13.4447Z" fill="#10A055"/>
<path d="M18.1183 11.3923C17.935 10.7081 17.2317 10.3021 16.5476 10.4854C15.8634 10.6687 15.4574 11.372 15.6407 12.0561C15.824 12.7403 16.5273 13.1463 17.2114 12.963C17.8956 12.7797 18.3016 12.0764 18.1183 11.3923Z" fill="#5BBE92"/>
<path d="M15.4424 10.1536C15.3125 9.66904 14.8145 9.38151 14.33 9.51133C13.8455 9.64116 13.558 10.1392 13.6878 10.6237C13.8176 11.1082 14.3156 11.3957 14.8001 11.2659C15.2847 11.1361 15.5722 10.6381 15.4424 10.1536Z" fill="#5BBE92"/>
<path d="M11.5317 24.6715C10.5655 26.5842 10.0051 28.6759 9.88539 30.8154C9.8538 31.3062 9.71353 31.7838 9.47471 32.2137C9.23589 32.6435 8.9045 33.015 8.50452 33.3011C8.10453 33.5871 7.64595 33.7807 7.16196 33.8679C6.67797 33.955 6.18066 33.9334 5.70603 33.8047C4.99516 33.6129 4.36779 33.1912 3.92188 32.6052C3.47597 32.0193 3.2366 31.3023 3.24115 30.566C3.23592 27.4054 4.06805 24.2999 5.65287 21.5653C6.01707 20.9254 6.5829 20.4241 7.26202 20.1397C7.94115 19.8552 8.69535 19.8036 9.40688 19.993C9.88226 20.1188 10.3237 20.3488 10.6993 20.6663C11.0749 20.9837 11.3753 21.3806 11.5786 21.8284C11.782 22.2762 11.8832 22.7635 11.8751 23.2552C11.867 23.7469 11.7497 24.2307 11.5317 24.6715Z" fill="#11B264"/>
<path d="M9.07991 32.7827C8.63196 33.2938 8.03848 33.6558 7.37903 33.8201C6.71957 33.9844 6.02565 33.9432 5.39027 33.702C4.7549 33.4608 4.20843 33.0311 3.82412 32.4706C3.4398 31.9101 3.23601 31.2455 3.24004 30.5659C3.23633 27.4055 4.06836 24.3004 5.65176 21.5653C6.05564 20.8592 6.70285 20.3243 7.4724 20.0607C7.32373 20.2301 7.19221 20.4138 7.07975 20.6091C5.49635 23.3442 4.66433 26.4494 4.66803 29.6098C4.6658 30.3464 4.90596 31.0632 5.35148 31.6498C5.77539 32.2061 6.36362 32.6149 7.0328 32.8182C7.70198 33.0215 8.41818 33.0091 9.07991 32.7827Z" fill="#10A055"/>
<path d="M8.70578 27.2167C9.38994 27.4 10.0932 26.994 10.2765 26.3099C10.4598 25.6257 10.0538 24.9225 9.36965 24.7392C8.68549 24.5558 7.98225 24.9618 7.79893 25.646C7.61561 26.3302 8.02162 27.0334 8.70578 27.2167Z" fill="#5BBE92"/>
<path d="M9.49407 24.2758C9.97858 24.4056 10.4766 24.1181 10.6064 23.6336C10.7362 23.149 10.4487 22.651 9.9642 22.5212C9.47969 22.3914 8.98167 22.6789 8.85185 23.1634C8.72202 23.6479 9.00955 24.146 9.49407 24.2758Z" fill="#5BBE92"/>
</svg>
