<svg width="40" height="40" viewBox="0 0 40 40" fill="none" xmlns="http://www.w3.org/2000/svg">
<rect width="40" height="40" fill="white"/>
<circle cx="20" cy="20" r="20" fill="#EBF7EB"/>
<path d="M26.9697 24.0645C29.0668 24.5027 31.2318 24.5027 33.3288 24.0645C33.8115 23.968 34.3096 23.98 34.7871 24.0996C35.2645 24.2193 35.7094 24.4437 36.0894 24.7564C36.4695 25.0692 36.7752 25.4626 36.9845 25.9081C37.1938 26.3536 37.3014 26.8401 37.2995 27.3323C37.2978 28.0687 37.0526 28.7838 36.6022 29.3663C36.1518 29.9488 35.5213 30.3661 34.8091 30.553C31.7569 31.3745 28.5417 31.3745 25.4894 30.553C24.7773 30.366 24.1471 29.9487 23.6969 29.3662C23.2467 28.7837 23.0019 28.0686 23.0005 27.3323C22.9984 26.8402 23.1058 26.3537 23.3149 25.9082C23.524 25.4627 23.8296 25.0693 24.2096 24.7565C24.5895 24.4436 25.0343 24.2193 25.5117 24.0996C25.9891 23.9799 26.4871 23.9679 26.9697 24.0645Z" fill="#11B264"/>
<path d="M35.4374 24.334C36.047 24.6343 36.5503 25.1137 36.8798 25.7081C37.2092 26.3024 37.3492 26.9833 37.2808 27.6594C37.2125 28.3356 36.9391 28.9747 36.4973 29.491C36.0555 30.0074 35.4665 30.3764 34.8091 30.5486C31.7568 31.3702 28.5416 31.3702 25.4894 30.5486C24.7034 30.3409 24.0198 29.8542 23.5664 29.1794C23.768 29.2792 23.979 29.3587 24.1962 29.4168C27.248 30.2383 30.4627 30.2383 33.5144 29.4168C34.2268 29.2289 34.8572 28.8113 35.3081 28.2286C35.7365 27.6755 35.9797 27.0014 36.0029 26.3022C36.0261 25.603 35.8282 24.9142 35.4374 24.334Z" fill="#10A055"/>
<path d="M28.8782 27.4177C29.5865 27.4177 30.1607 26.8436 30.1607 26.1353C30.1607 25.427 29.5865 24.8528 28.8782 24.8528C28.1699 24.8528 27.5957 25.427 27.5957 26.1353C27.5957 26.8436 28.1699 27.4177 28.8782 27.4177Z" fill="#5BBE92"/>
<path d="M26.2061 27.0435C26.7077 27.0435 27.1143 26.6369 27.1143 26.1353C27.1143 25.6337 26.7077 25.2271 26.2061 25.2271C25.7045 25.2271 25.2979 25.6337 25.2979 26.1353C25.2979 26.6369 25.7045 27.0435 26.2061 27.0435Z" fill="#5BBE92"/>
<path d="M16.2633 8.97657C17.8608 10.4044 19.7358 11.487 21.7711 12.1565C22.2368 12.3141 22.6616 12.5732 23.0149 12.9151C23.3682 13.257 23.6411 13.6731 23.8139 14.1334C23.9867 14.5937 24.055 15.0866 24.0139 15.5766C23.9729 16.0665 23.8234 16.5412 23.5765 16.9663C23.2071 17.6033 22.6373 18.1001 21.9559 18.3792C21.2746 18.6584 20.52 18.7042 19.8099 18.5095C16.7559 17.6959 13.9717 16.0884 11.7402 13.8504C11.2164 13.3326 10.8786 12.656 10.7796 11.9261C10.6806 11.1962 10.8259 10.4541 11.1929 9.81542C11.4378 9.3888 11.7744 9.02194 12.1785 8.74141C12.5825 8.46088 13.0439 8.2737 13.5292 8.19341C14.0145 8.11312 14.5115 8.14174 14.9844 8.27719C15.4573 8.41264 15.8941 8.65153 16.2633 8.97657Z" fill="#11B264"/>
<path d="M23.4626 13.4437C23.8423 14.0085 24.0399 14.676 24.029 15.3564C24.0181 16.0368 23.7993 16.6976 23.4018 17.25C23.0043 17.8024 22.4472 18.2199 21.8055 18.4463C21.1638 18.6728 20.4681 18.6974 19.8119 18.5169C16.7584 17.7023 13.9744 16.095 11.7422 13.8578C11.1647 13.2849 10.8156 12.5212 10.7603 11.7096C10.884 11.8959 11.027 12.0688 11.1867 12.2254C13.4182 14.4634 16.2024 16.0709 19.2564 16.8844C19.7694 17.0257 20.3088 17.042 20.8294 16.932C21.35 16.822 21.8366 16.5888 22.2486 16.252C22.6605 15.9152 22.9858 15.4846 23.1971 14.9962C23.4084 14.5079 23.4996 13.976 23.463 13.4452L23.4626 13.4437Z" fill="#10A055"/>
<path d="M18.1183 11.3913C17.935 10.7071 17.2317 10.3011 16.5476 10.4844C15.8634 10.6678 15.4574 11.371 15.6407 12.0552C15.824 12.7393 16.5273 13.1453 17.2114 12.962C17.8956 12.7787 18.3016 12.0755 18.1183 11.3913Z" fill="#5BBE92"/>
<path d="M15.4428 10.1526C15.313 9.66806 14.815 9.38053 14.3305 9.51036C13.846 9.64018 13.5584 10.1382 13.6883 10.6227C13.8181 11.1072 14.3161 11.3948 14.8006 11.2649C15.2851 11.1351 15.5727 10.6371 15.4428 10.1526Z" fill="#5BBE92"/>
<path d="M11.5312 24.6715C10.565 26.5842 10.0046 28.6759 9.8849 30.8154C9.85331 31.3062 9.71304 31.7838 9.47422 32.2137C9.2354 32.6435 8.90401 33.015 8.50403 33.3011C8.10404 33.5871 7.64546 33.7807 7.16147 33.8679C6.67748 33.955 6.18018 33.9334 5.70554 33.8047C4.99467 33.6129 4.36731 33.1912 3.92139 32.6052C3.47548 32.0193 3.23612 31.3023 3.24066 30.566C3.23543 27.4054 4.06756 24.2999 5.65238 21.5653C6.01658 20.9254 6.58241 20.4241 7.26153 20.1397C7.94066 19.8552 8.69486 19.8036 9.40639 19.993C9.88178 20.1188 10.3232 20.3488 10.6988 20.6663C11.0744 20.9837 11.3748 21.3806 11.5781 21.8284C11.7815 22.2762 11.8827 22.7635 11.8746 23.2552C11.8665 23.7469 11.7492 24.2307 11.5312 24.6715Z" fill="#11B264"/>
<path d="M9.07943 32.7825C8.63147 33.2936 8.03799 33.6555 7.37854 33.8198C6.71908 33.9841 6.02516 33.9429 5.38979 33.7017C4.75441 33.4605 4.20794 33.0309 3.82363 32.4704C3.43931 31.9099 3.23552 31.2453 3.23955 30.5657C3.23585 27.4053 4.06787 24.3001 5.65127 21.565C6.05515 20.8589 6.70236 20.3241 7.47191 20.0605C7.32325 20.2299 7.19172 20.4136 7.07926 20.6089C5.49586 23.344 4.66384 26.4492 4.66755 29.6095C4.66531 30.3461 4.90547 31.063 5.35099 31.6496C5.77491 32.2059 6.36313 32.6146 7.03231 32.818C7.70149 33.0213 8.41769 33.0089 9.07943 32.7825Z" fill="#10A055"/>
<path d="M8.70578 27.2172C9.38994 27.4005 10.0932 26.9945 10.2765 26.3104C10.4598 25.6262 10.0538 24.923 9.36965 24.7396C8.68549 24.5563 7.98225 24.9623 7.79893 25.6465C7.61561 26.3307 8.02162 27.0339 8.70578 27.2172Z" fill="#5BBE92"/>
<path d="M9.49358 24.2753C9.97809 24.4051 10.4761 24.1176 10.6059 23.6331C10.7358 23.1486 10.4482 22.6505 9.96371 22.5207C9.4792 22.3909 8.98118 22.6784 8.85136 23.1629C8.72153 23.6474 9.00906 24.1455 9.49358 24.2753Z" fill="#5BBE92"/>
</svg>
