<svg width="40" height="40" viewBox="0 0 40 40" fill="none" xmlns="http://www.w3.org/2000/svg">
<circle cx="20" cy="20" r="20" fill="#323D31"/>
<path d="M20.0001 14.5557C13.0001 14.5557 6.77783 17.2476 6.77783 21.5557C6.77783 24.7866 9.88894 27.4784 14.5556 27.4784C17.2421 27.4784 20.0864 25.8568 22.1211 25.8568C22.1934 25.8568 22.2642 25.8591 22.3334 25.863C25.3737 26.0458 25.4445 28.5557 29.3334 28.5557C31.1542 28.5557 33.2223 26.9402 33.2223 23.1711C33.2223 18.3248 27.7778 14.5557 20.0001 14.5557Z" fill="#FFD983"/>
<path d="M31.6667 19.9999H33.2223V23.111H31.6667V19.9999ZM6.77783 18.4443H8.33339V21.5554H6.77783V18.4443Z" fill="#FFD983"/>
<path d="M29.3334 24.9065C27.5671 24.9065 26.7807 24.3192 25.8684 23.6402C25.037 23.0204 24.0943 22.3188 22.4011 22.2161C22.3078 22.2105 22.2145 22.2077 22.1211 22.2076C21.0065 22.2076 19.8048 22.5832 18.5332 22.9822C17.2016 23.3984 15.825 23.8292 14.5564 23.8292C10.5003 23.8292 7.5564 21.5644 7.5564 18.4447C7.5564 14.2478 13.9684 11.9829 20.0008 11.9829C27.2116 11.9829 32.4453 15.3795 32.4453 20.0601C32.4445 23.6154 30.5833 24.9065 29.3334 24.9065Z" fill="#A0041E"/>
<path d="M20.0001 12.5216C26.7597 12.5216 31.6667 15.6918 31.6667 20.0598C31.6667 23.2829 30.0645 24.3671 29.3334 24.3671C27.9069 24.3671 27.3228 23.9323 26.4377 23.2728C25.5565 22.6163 24.4598 21.7989 22.4679 21.6791C22.3525 21.6719 22.2368 21.6683 22.1211 21.6682C20.8393 21.6682 19.5629 22.068 18.2127 22.4903C16.9558 22.8839 15.6569 23.2899 14.5556 23.2899C11.4632 23.2899 8.33339 21.6247 8.33339 18.4443C8.33339 14.5974 14.3448 12.5216 20.0001 12.5216ZM20.0001 11.4443C13.0001 11.4443 6.77783 14.1362 6.77783 18.4443C6.77783 21.6752 9.88894 24.3671 14.5556 24.3671C17.2421 24.3671 20.0864 22.7454 22.1211 22.7454C22.1934 22.7454 22.2642 22.7478 22.3334 22.7517C25.3737 22.9344 25.4445 25.4443 29.3334 25.4443C31.1542 25.4443 33.2223 23.8289 33.2223 20.0598C33.2223 15.2134 27.7778 11.4443 20.0001 11.4443Z" fill="#FFE8B6"/>
<path d="M18.5696 12.567C18.5696 12.567 20.7777 12.5219 22.3332 13.5983C23.111 14.1365 22.5938 15.3483 22.5938 15.3483L23.8888 15.7527C23.8888 15.7527 23.8406 15.1033 26.2221 14.6755C27.9729 14.3613 29.7548 15.7527 29.7548 15.7527C29.7548 15.7527 27.7777 13.0601 23.8888 12.5219C19.9999 11.9829 18.5696 12.567 18.5696 12.567Z" fill="#FFE8B6"/>
<path d="M25.4444 16.829C25.4444 18.0182 24.0514 18.9826 22.3333 18.9826C20.6152 18.9826 19.2222 18.0182 19.2222 16.829C19.2222 15.6397 20.6152 14.6753 22.3333 14.6753C24.0514 14.6753 25.4444 15.6397 25.4444 16.829Z" fill="#E6E7E8"/>
<path d="M23.8889 16.8289C23.8889 17.4239 23.1921 17.9061 22.3334 17.9061C21.4747 17.9061 20.7778 17.4239 20.7778 16.8289C20.7778 16.2339 21.4747 15.7524 22.3334 15.7524C23.1921 15.7524 23.8889 16.2339 23.8889 16.8289Z" fill="#A7A9AC"/>
</svg>
