<svg width="220" height="168" viewBox="0 0 220 168" fill="none" xmlns="http://www.w3.org/2000/svg">
<g clip-path="url(#clip0_2189_11281)">
<rect width="220" height="168" fill="white"/>
<path d="M192.742 166.679C192.842 167.08 192.92 167.395 192.973 167.61L193.001 167.721H193.014C193.014 167.713 193.014 167.709 193.014 167.721H194.393C194.393 167.705 194.393 167.684 194.393 167.664C194.388 167.617 194.381 167.57 194.371 167.523C194.352 167.448 194.327 167.353 194.295 167.248L194.024 166.336C193.803 165.564 193.5 164.441 193.239 163.078C192.939 161.525 192.751 159.952 192.676 158.372C192.591 156.557 192.681 154.738 192.946 152.941C193.085 152.027 193.273 151.122 193.511 150.229C193.743 149.363 194.027 148.511 194.359 147.678C194.67 146.897 195.025 146.135 195.421 145.394C195.776 144.727 196.166 144.08 196.59 143.455C196.781 143.161 196.984 142.892 197.168 142.631C197.352 142.369 197.543 142.13 197.726 141.911C197.909 141.691 198.072 141.479 198.238 141.295C198.403 141.111 198.547 140.934 198.688 140.785L199.06 140.381L199.344 140.091L199.581 139.85L199.333 140.08L199.036 140.357L198.645 140.744C198.496 140.887 198.341 141.054 198.171 141.235C198 141.416 197.82 141.615 197.628 141.829C197.436 142.043 197.244 142.281 197.035 142.527C196.825 142.773 196.62 143.043 196.413 143.331C195.957 143.943 195.532 144.579 195.142 145.236C194.705 145.97 194.309 146.729 193.957 147.507C193.579 148.342 193.25 149.198 192.972 150.071C192.686 150.976 192.45 151.896 192.265 152.827C191.908 154.662 191.73 156.528 191.733 158.397C191.735 160.03 191.854 161.66 192.09 163.276C192.291 164.696 192.547 165.866 192.742 166.679Z" fill="#84B8FF"/>
<path d="M179.666 167.724C179.666 167.687 179.673 167.65 179.674 167.613C179.674 167.613 179.674 167.545 179.674 167.412C179.674 167.345 179.674 167.263 179.674 167.164C179.674 167.064 179.674 166.943 179.683 166.833C179.701 166.361 179.748 165.628 179.849 164.695C179.951 163.762 180.111 162.624 180.334 161.317C180.557 160.009 180.84 158.535 181.173 156.925C181.835 153.706 182.699 149.952 183.58 145.915C184.021 143.896 184.462 141.806 184.887 139.674C185.311 137.543 185.706 135.374 186.059 133.189C186.412 131.004 186.71 128.817 186.941 126.652C187.171 124.487 187.323 122.352 187.371 120.275C187.429 118.281 187.379 116.286 187.221 114.298C187.083 112.517 186.82 110.749 186.433 109.005C186.104 107.531 185.656 106.087 185.093 104.686C184.657 103.608 184.138 102.567 183.54 101.57C183.15 100.934 182.726 100.319 182.269 99.7284C181.946 99.326 181.773 99.1121 181.773 99.1121L182.249 99.7427C182.687 100.346 183.091 100.971 183.462 101.617C184.024 102.626 184.507 103.676 184.907 104.759C185.421 106.161 185.821 107.601 186.102 109.067C186.431 110.804 186.637 112.562 186.718 114.327C186.814 116.298 186.801 118.272 186.682 120.242C186.571 122.292 186.351 124.404 186.06 126.542C185.769 128.68 185.398 130.842 184.986 132.994C184.574 135.146 184.104 137.294 183.621 139.397C183.138 141.499 182.629 143.569 182.127 145.571C181.124 149.569 180.142 153.289 179.371 156.52C178.985 158.134 178.651 159.621 178.378 160.951C178.106 162.28 177.905 163.453 177.769 164.431C177.632 165.409 177.557 166.184 177.517 166.747C177.497 167.019 177.493 167.205 177.484 167.342C177.475 167.479 177.474 167.544 177.474 167.544C177.474 167.544 177.474 167.568 177.474 167.578C177.474 167.629 177.477 167.681 177.483 167.731L179.666 167.724Z" fill="#84B8FF"/>
<path d="M176.295 167.724C176.295 167.724 176.295 167.666 176.295 167.558C176.295 167.45 176.295 167.283 176.295 167.075C176.295 166.673 176.295 166.097 176.295 165.407C176.289 163.735 176.386 162.065 176.587 160.405C176.647 159.954 176.713 159.502 176.795 159.062C176.878 158.622 176.968 158.189 177.069 157.773C177.169 157.357 177.28 156.959 177.399 156.587C177.429 156.493 177.459 156.4 177.489 156.31C177.519 156.219 177.552 156.131 177.582 156.044C177.643 155.87 177.708 155.703 177.773 155.545C177.838 155.386 177.9 155.234 177.965 155.09C178.03 154.947 178.089 154.811 178.153 154.688C178.274 154.434 178.393 154.222 178.491 154.046C178.589 153.871 178.677 153.739 178.732 153.646L178.82 153.505L178.718 153.636C178.654 153.723 178.549 153.843 178.436 154.011C178.322 154.179 178.177 154.377 178.029 154.618C177.951 154.738 177.876 154.867 177.797 155.005C177.719 155.144 177.634 155.288 177.555 155.446C177.476 155.605 177.388 155.762 177.31 155.933L177.186 156.193C177.146 156.281 177.106 156.372 177.066 156.463C176.902 156.829 176.75 157.224 176.6 157.636C176.45 158.049 176.311 158.479 176.183 158.921C176.055 159.363 175.937 159.815 175.827 160.269C175.446 161.941 175.169 163.635 174.996 165.341C174.926 166.032 174.868 166.608 174.827 167.011C174.806 167.205 174.789 167.359 174.778 167.463C174.767 167.568 174.758 167.628 174.758 167.628C174.758 167.653 174.758 167.679 174.752 167.707C174.752 167.715 174.752 167.721 174.752 167.729L176.295 167.724Z" fill="#84B8FF"/>
<path d="M168.53 161.573C168.658 163.419 168.751 164.953 168.785 166.018C168.794 166.282 168.802 166.518 168.808 166.725C168.808 166.934 168.815 167.112 168.817 167.256L168.824 167.697C168.823 167.704 168.823 167.712 168.824 167.719H170.359C170.359 167.694 170.359 167.667 170.359 167.641C170.359 167.641 170.351 167.488 170.335 167.2C170.327 167.055 170.318 166.877 170.305 166.667C170.293 166.458 170.273 166.209 170.254 165.934C170.172 164.841 170.021 163.299 169.821 161.455C169.622 159.612 169.38 157.472 169.203 155.171C169.108 154.022 169.035 152.834 168.982 151.628C168.929 150.422 168.921 149.195 168.938 147.968C168.956 146.741 169.031 145.518 169.133 144.315C169.2 143.716 169.25 143.119 169.34 142.534C169.381 142.241 169.415 141.949 169.464 141.661C169.514 141.373 169.562 141.088 169.612 140.804C169.661 140.521 169.722 140.242 169.776 139.965C169.83 139.689 169.886 139.414 169.951 139.145C170.017 138.876 170.084 138.61 170.149 138.348C170.182 138.217 170.214 138.087 170.247 137.956C170.28 137.826 170.321 137.701 170.357 137.574L170.578 136.825C170.648 136.578 170.738 136.342 170.815 136.105L171.05 135.412C171.136 135.191 171.222 134.971 171.304 134.75C171.387 134.53 171.468 134.325 171.551 134.121L171.813 133.529L172.061 132.966C172.147 132.787 172.235 132.615 172.319 132.446L172.561 131.958C172.638 131.801 172.716 131.651 172.797 131.511C172.957 131.228 173.103 130.966 173.238 130.731C173.374 130.496 173.498 130.29 173.61 130.115L173.894 129.664L174.13 129.288L173.88 129.654L173.578 130.095C173.46 130.269 173.319 130.466 173.182 130.698L172.713 131.462C172.625 131.599 172.543 131.748 172.459 131.903C172.375 132.059 172.287 132.218 172.195 132.383C172.104 132.548 172.009 132.714 171.916 132.896L171.645 133.447C171.552 133.637 171.456 133.832 171.359 134.032C171.262 134.233 171.179 134.444 171.086 134.656C170.993 134.869 170.899 135.088 170.803 135.31C170.707 135.533 170.628 135.766 170.538 136.001C170.448 136.235 170.353 136.471 170.271 136.717C170.19 136.963 170.106 137.212 170.021 137.465C169.979 137.592 169.936 137.718 169.894 137.847C169.852 137.976 169.818 138.108 169.784 138.239L169.552 139.037C169.477 139.307 169.413 139.588 169.343 139.859C169.272 140.131 169.2 140.417 169.143 140.703C169.087 140.989 169.022 141.275 168.96 141.564C168.899 141.853 168.85 142.148 168.799 142.446C168.689 143.036 168.612 143.638 168.52 144.243C168.369 145.456 168.245 146.695 168.179 147.937C168.112 149.178 168.068 150.421 168.079 151.644C168.09 152.866 168.107 154.069 168.156 155.23C168.246 157.567 168.407 159.727 168.53 161.573Z" fill="#84B8FF"/>
<path d="M165.877 167.172C165.885 167.289 165.89 167.377 165.894 167.438V167.52C165.894 167.533 165.894 167.548 165.894 167.56C165.902 167.618 165.916 167.674 165.936 167.728H167.378C167.421 167.611 167.436 167.485 167.42 167.361L167.41 167.279C167.41 167.231 167.396 167.158 167.386 167.059C167.365 166.86 167.339 166.56 167.316 166.177C167.268 165.405 167.224 164.295 167.226 162.958C167.226 160.288 167.421 156.706 168.108 153.201C168.43 151.483 168.897 149.796 169.503 148.156C170.03 146.724 170.73 145.362 171.586 144.099C172.2 143.206 172.93 142.398 173.757 141.699L173.971 141.521L174.168 141.373C174.289 141.28 174.388 141.203 174.482 141.145L174.749 140.962L174.473 141.131C174.381 141.184 174.271 141.254 174.142 141.341L173.946 141.483L173.725 141.649C172.852 142.314 172.071 143.093 171.403 143.964C170.563 145.037 169.75 146.419 169.063 147.98C168.357 149.616 167.79 151.309 167.367 153.041C166.485 156.569 166.091 160.207 165.942 162.929C165.867 164.292 165.851 165.433 165.859 166.236C165.858 166.63 165.867 166.952 165.877 167.172Z" fill="#84B8FF"/>
<path d="M91.462 167.704C91.462 167.704 89.1951 165.499 91.1257 164.649C93.2757 163.703 95.7443 166.158 97.8238 166.021C100.491 165.847 95.7532 156.65 102.391 155.259C109.949 153.673 118.275 161.213 121.796 161.12C117.898 152.814 129.491 154.872 135.877 165.23C136.943 165.594 138.833 164.81 140.707 167.704H91.462Z" fill="white"/>
<path d="M108.205 167.871C108.205 167.871 141.024 167.761 144.23 167.871C144.23 167.871 139.104 165.122 137.561 165.145C136.019 165.168 135.996 166.396 135.996 166.396C135.996 166.396 131.475 163.155 127.332 164.138C125.03 164.689 125.99 166.687 125.99 166.687C125.99 166.687 120.103 162.893 116.728 163.931C113.99 164.77 114.113 166.726 114.113 166.726C114.113 166.726 111.467 164.852 109.215 165.251C106.964 165.65 108.205 167.871 108.205 167.871Z" fill="#84B8FF"/>
<path d="M84.838 167.8H90.1766C90.1766 167.8 87.3441 165.805 85.3253 166.199C83.849 166.488 84.838 167.8 84.838 167.8Z" fill="white"/>
<path d="M70.877 159.823C70.877 159.664 70.8301 159.51 70.7421 159.378C70.6542 159.246 70.5292 159.144 70.3829 159.083C70.2366 159.023 70.0757 159.007 69.9204 159.038C69.7652 159.068 69.6225 159.145 69.5106 159.257C69.3986 159.369 69.3224 159.511 69.2915 159.667C69.2606 159.822 69.2765 159.983 69.3371 160.129C69.3976 160.275 69.5002 160.4 69.6319 160.488C69.7635 160.576 69.9183 160.623 70.0766 160.623C70.2889 160.623 70.4925 160.539 70.6426 160.389C70.7927 160.239 70.877 160.035 70.877 159.823Z" fill="#2E353D"/>
<path d="M92.3154 156.007C93.1624 156.007 93.8491 155.32 93.8491 154.473C93.8491 153.626 93.1624 152.939 92.3154 152.939C91.4684 152.939 90.7817 153.626 90.7817 154.473C90.7817 155.32 91.4684 156.007 92.3154 156.007Z" fill="#2E353D"/>
<path d="M19.5879 161.942C20.4349 161.942 21.1215 161.255 21.1215 160.408C21.1215 159.561 20.4349 158.874 19.5879 158.874C18.7408 158.874 18.0542 159.561 18.0542 160.408C18.0542 161.255 18.7408 161.942 19.5879 161.942Z" fill="#2E353D"/>
<path d="M53.6938 149.381C54.1627 148.913 54.1627 148.152 53.6938 147.683C53.2249 147.215 52.4646 147.215 51.9957 147.683C51.5268 148.152 51.5268 148.913 51.9957 149.381C52.4646 149.85 53.2249 149.85 53.6938 149.381Z" fill="#2E353D"/>
<path d="M118.091 145.763C118.091 145.654 118.059 145.547 117.998 145.456C117.938 145.366 117.851 145.295 117.751 145.253C117.65 145.212 117.539 145.201 117.432 145.222C117.325 145.243 117.227 145.296 117.15 145.373C117.073 145.45 117.02 145.548 116.999 145.655C116.978 145.762 116.989 145.873 117.03 145.974C117.072 146.074 117.143 146.161 117.234 146.221C117.324 146.282 117.431 146.314 117.54 146.314C117.686 146.314 117.826 146.256 117.93 146.153C118.033 146.049 118.091 145.909 118.091 145.763Z" fill="#2E353D"/>
<path d="M103.316 160.166C103.68 160.166 103.976 159.87 103.976 159.505C103.976 159.14 103.68 158.845 103.316 158.845C102.951 158.845 102.655 159.14 102.655 159.505C102.655 159.87 102.951 160.166 103.316 160.166Z" fill="#2E353D"/>
<path d="M70.7071 135.117C70.7071 134.992 70.6702 134.87 70.6009 134.766C70.5316 134.662 70.4331 134.582 70.3178 134.534C70.2026 134.486 70.0758 134.474 69.9534 134.498C69.8311 134.522 69.7187 134.582 69.6305 134.671C69.5423 134.759 69.4823 134.871 69.4579 134.993C69.4336 135.116 69.4461 135.243 69.4938 135.358C69.5415 135.473 69.6224 135.572 69.7261 135.641C69.8298 135.71 69.9517 135.747 70.0765 135.747C70.2437 135.747 70.4041 135.681 70.5224 135.562C70.6407 135.444 70.7071 135.284 70.7071 135.117Z" fill="#2E353D"/>
<path d="M146.006 164.961C146.006 164.836 145.969 164.714 145.899 164.61C145.83 164.507 145.732 164.426 145.616 164.378C145.501 164.33 145.374 164.318 145.252 164.342C145.13 164.367 145.017 164.427 144.929 164.515C144.841 164.603 144.781 164.715 144.757 164.838C144.732 164.96 144.745 165.087 144.792 165.202C144.84 165.317 144.921 165.416 145.025 165.485C145.128 165.554 145.25 165.591 145.375 165.591C145.542 165.591 145.703 165.525 145.821 165.407C145.939 165.288 146.006 165.128 146.006 164.961Z" fill="#2E353D"/>
<path d="M208.535 168.045H155.323C155.279 168.047 155.236 168.041 155.195 168.026C155.154 168.011 155.117 167.988 155.085 167.958C155.054 167.929 155.029 167.893 155.011 167.853C154.994 167.813 154.985 167.77 154.985 167.727C154.985 167.683 154.994 167.64 155.011 167.6C155.029 167.56 155.054 167.525 155.085 167.495C155.117 167.465 155.154 167.442 155.195 167.427C155.236 167.412 155.279 167.406 155.323 167.409H208.535C208.616 167.413 208.692 167.449 208.748 167.508C208.804 167.567 208.835 167.645 208.835 167.727C208.835 167.808 208.804 167.886 208.748 167.945C208.692 168.004 208.616 168.04 208.535 168.045Z" fill="#84B8FF"/>
<path d="M82.1894 168.045H65.6333C65.5899 168.047 65.5465 168.041 65.5057 168.026C65.4649 168.011 65.4275 167.988 65.396 167.958C65.3644 167.929 65.3392 167.893 65.322 167.853C65.3048 167.813 65.2959 167.77 65.2959 167.727C65.2959 167.683 65.3048 167.64 65.322 167.6C65.3392 167.56 65.3644 167.525 65.396 167.495C65.4275 167.465 65.4649 167.442 65.5057 167.427C65.5465 167.412 65.5899 167.406 65.6333 167.409H82.1894C82.2705 167.413 82.3468 167.449 82.4025 167.508C82.4583 167.567 82.4893 167.645 82.4893 167.727C82.4893 167.808 82.4583 167.886 82.4025 167.945C82.3468 168.004 82.2705 168.04 82.1894 168.045Z" fill="#84B8FF"/>
<path d="M57.6849 168.045H12.7961C12.7528 168.047 12.7094 168.041 12.6685 168.026C12.6277 168.011 12.5904 167.988 12.5588 167.958C12.5272 167.929 12.502 167.893 12.4848 167.853C12.4676 167.813 12.4587 167.77 12.4587 167.727C12.4587 167.683 12.4676 167.64 12.4848 167.6C12.502 167.56 12.5272 167.525 12.5588 167.495C12.5904 167.465 12.6277 167.442 12.6685 167.427C12.7094 167.412 12.7528 167.406 12.7961 167.409H57.6849C57.7282 167.406 57.7716 167.412 57.8125 167.427C57.8533 167.442 57.8906 167.465 57.9222 167.495C57.9538 167.525 57.979 167.56 57.9962 167.6C58.0134 167.64 58.0223 167.683 58.0223 167.727C58.0223 167.77 58.0134 167.813 57.9962 167.853C57.979 167.893 57.9538 167.929 57.9222 167.958C57.8906 167.988 57.8533 168.011 57.8125 168.026C57.7716 168.041 57.7282 168.047 57.6849 168.045Z" fill="#84B8FF"/>
<path d="M57.4885 167.871C57.4885 167.871 52.3627 165.122 50.8202 165.145C49.2777 165.168 49.2557 166.401 49.2557 166.401C49.2557 166.401 44.7351 163.159 40.5906 164.143C38.2884 164.694 39.2488 166.692 39.2488 166.692C39.2488 166.692 33.3633 162.898 29.9872 163.935C27.2473 164.774 27.3697 167.881 27.3697 167.881C27.3697 167.881 54.2834 167.759 57.4885 167.871Z" fill="#84B8FF"/>
<path d="M220 45.7556C214.232 52.414 212.875 63.271 213.13 67.0021C209.058 67.0021 205.029 61.7439 205.029 61.7439C204.98 59.5443 205.375 57.3574 206.19 55.3138C206.19 55.3138 206.397 57.6192 207.495 58.5112C206.938 56.5387 206.811 54.9334 207.145 53.5331C207.4 52.4658 208.067 51.1802 209.055 50.3721C209.055 50.3721 208.289 52.9609 209.768 55.9191C209.594 52.8175 209.939 51.0755 210.981 49.5892C212.157 47.9034 213.296 47.3224 214.412 46.8593C214.412 46.8593 212.648 49.6587 212.306 54.005C213.225 50.7271 214.737 48.5197 216.594 46.9971C217.387 46.3444 219.041 45.7556 220 45.7556Z" fill="#2E353D"/>
<path d="M186.889 71.5028C195.529 76.8282 201.43 77.4622 204.222 76.966C212.07 75.5713 213.19 65.7474 218.727 64.1277C217.504 62.679 217.56 59.4628 214.978 59.261C211.25 58.971 211.404 64.1278 205.742 65.6956C201.023 69.1543 195.655 72.4179 186.889 71.5028Z" fill="#84B8FF"/>
<path d="M193.137 71.4199C190.354 71.6526 187.876 72.1388 182.222 70.2512C182.222 71.0175 185.392 73.9724 191.689 74.1312C190.098 74.6824 186.287 74.216 186.287 74.216C189.515 76.4697 195.813 77.8115 200.536 75.495C200.536 75.495 196.464 75.7045 195.51 74.1146C196.037 71.5059 193.137 71.4199 193.137 71.4199Z" fill="#0B61DD"/>
<path d="M205.996 75.4951H178.495V89.8009H205.996V75.4951Z" fill="#FCD738"/>
<path d="M205.997 89.8008H178.495V78.9075L192.581 85.3476L205.997 78.9075V89.8008Z" fill="#E5BC0E"/>
<path d="M205.998 89.8008V78.9075L183.306 89.8008H205.998Z" fill="#FCD738"/>
<path d="M202.061 77.6266C201.976 77.6263 201.894 77.5979 201.827 77.5458C201.761 77.4937 201.713 77.4209 201.692 77.3388L201.251 75.589C201.238 75.5405 201.236 75.4899 201.243 75.4403C201.25 75.3907 201.267 75.343 201.293 75.2999C201.318 75.2568 201.352 75.2191 201.392 75.1891C201.432 75.1591 201.478 75.1372 201.526 75.1249C201.575 75.1125 201.626 75.1098 201.675 75.1169C201.725 75.1241 201.773 75.1409 201.816 75.1665C201.859 75.1921 201.896 75.226 201.926 75.2661C201.956 75.3063 201.978 75.3519 201.991 75.4005L202.432 77.1503C202.456 77.2484 202.441 77.3523 202.39 77.4393C202.338 77.5263 202.254 77.5892 202.156 77.6145C202.125 77.6223 202.093 77.6264 202.061 77.6266Z" fill="#FA6142"/>
<path d="M201.297 77.6266C201.212 77.6263 201.13 77.5979 201.063 77.5458C200.996 77.4937 200.949 77.4209 200.928 77.3388L200.487 75.589C200.462 75.4909 200.477 75.3869 200.528 75.2999C200.58 75.2128 200.664 75.1499 200.762 75.1249C200.86 75.0999 200.964 75.1149 201.051 75.1665C201.139 75.2182 201.201 75.3024 201.226 75.4005L201.668 77.1503C201.692 77.2484 201.677 77.3523 201.626 77.4393C201.574 77.5263 201.49 77.5892 201.392 77.6145C201.361 77.6222 201.329 77.6263 201.297 77.6266Z" fill="#FA6142"/>
<path d="M200.534 77.6266C200.449 77.6264 200.367 77.598 200.3 77.5459C200.233 77.4938 200.185 77.421 200.164 77.3388L199.723 75.589C199.698 75.4909 199.713 75.3869 199.764 75.2999C199.816 75.2128 199.9 75.1499 199.998 75.1249C200.097 75.0999 200.201 75.1149 200.288 75.1665C200.375 75.2182 200.438 75.3024 200.463 75.4005L200.904 77.1503C200.916 77.1989 200.919 77.2494 200.912 77.2991C200.905 77.3488 200.888 77.3966 200.862 77.4397C200.837 77.4829 200.803 77.5205 200.763 77.5505C200.722 77.5805 200.677 77.6022 200.628 77.6145C200.597 77.6223 200.566 77.6264 200.534 77.6266Z" fill="#FA6142"/>
<path d="M204.852 78.7687C204.776 78.7686 204.703 78.7461 204.64 78.7041C204.577 78.6621 204.528 78.6025 204.5 78.5327C204.471 78.463 204.463 78.3863 204.478 78.3123C204.493 78.2383 204.529 78.1703 204.583 78.117L205.819 76.88C205.89 76.8083 205.988 76.7681 206.089 76.7681C206.19 76.7681 206.287 76.8083 206.359 76.88C206.431 76.9516 206.471 77.0488 206.471 77.1501C206.471 77.2514 206.431 77.3486 206.359 77.4202L205.122 78.6573C205.05 78.7286 204.953 78.7686 204.852 78.7687Z" fill="#FA6142"/>
<path d="M204.76 77.9661C204.684 77.9672 204.61 77.9454 204.546 77.9037C204.482 77.862 204.433 77.8023 204.403 77.7321C204.374 77.6619 204.366 77.5846 204.381 77.51C204.396 77.4354 204.433 77.3669 204.487 77.3134L205.724 76.0763C205.796 76.0048 205.893 75.9647 205.994 75.9648C206.095 75.9649 206.192 76.0052 206.264 76.0769C206.335 76.1485 206.375 76.2456 206.375 76.3469C206.375 76.4481 206.335 76.5451 206.263 76.6166L205.026 77.8537C204.956 77.9246 204.86 77.965 204.76 77.9661Z" fill="#FA6142"/>
<path d="M204.76 77.1137C204.685 77.1133 204.611 77.0907 204.549 77.0487C204.486 77.0068 204.438 76.9472 204.409 76.8777C204.38 76.8081 204.372 76.7315 204.387 76.6576C204.401 76.5837 204.437 76.5157 204.49 76.4621L205.727 75.225C205.799 75.1535 205.896 75.1134 205.997 75.1135C206.098 75.1136 206.195 75.1539 206.267 75.2256C206.338 75.2972 206.379 75.3943 206.378 75.4955C206.378 75.5968 206.338 75.6938 206.266 75.7653L205.029 77.0013C204.994 77.0369 204.952 77.0652 204.906 77.0846C204.86 77.1039 204.81 77.1138 204.76 77.1137Z" fill="#FA6142"/>
<path d="M209.186 66.8754C207.659 64.1609 206.09 59.6238 205.199 58.3514C204.308 57.0791 195.828 53.305 193.453 39.5339C192.498 39.8559 191.68 40.5163 191.305 42.2407C191.019 43.5638 191.507 46.3445 193.289 49.3821C190.815 47.7117 189.46 43.1338 189.46 43.1338C189.068 43.7259 188.688 44.093 188.554 45.5826C188.423 47.0027 189.747 51.5949 192.005 53.8519C190.589 52.8496 187.822 49.2078 187.822 49.2078C187.631 50.3214 187.663 51.1164 187.982 52.3722C188.148 53.0338 189.628 56.1022 191.305 57.7803C189.835 56.8299 188.067 55.3624 188.067 55.3624C187.191 57.0956 188.433 58.4992 189.491 59.4948C190.653 60.5896 191.476 60.9689 192.116 61.6128C191.278 61.5963 190.366 61.2468 190.366 61.2468C190.256 61.4673 190.293 63.1553 192.668 64.0771C192.305 64.1267 191.363 63.9922 191.363 63.9922C190.812 65.4927 193.921 66.9018 195.981 66.7486C195.851 66.9239 195.233 67.2491 195.233 67.2491C195.21 68.4465 198.445 69.6748 200.768 69.484L209.186 66.8754Z" fill="#84B8FF"/>
<path d="M197.417 66.5357C197.417 65.11 196.205 64.4154 195.53 64.3735C196.213 63.6888 195.861 62.422 194.767 61.8288C196.103 61.3415 195.679 60.0471 194.916 59.6865C196.092 58.9235 196.459 57.6622 194.916 56.2686C196.14 56.2686 197.099 55.4416 196.187 53.7448C198.086 53.607 197.65 51.1582 197.56 50.5683C195.837 47.8836 194.277 44.3101 193.454 39.5305C192.499 39.8525 191.681 40.5129 191.306 42.2373C191.02 43.5604 191.508 46.3411 193.29 49.3786C190.815 47.7116 189.46 43.1337 189.46 43.1337C189.068 43.7258 188.688 44.0929 188.554 45.5825C188.423 47.0026 189.747 51.5948 192.005 53.8517C190.589 52.8495 187.822 49.2077 187.822 49.2077C187.631 50.3213 187.663 51.1163 187.982 52.3721C188.148 53.0336 189.628 56.1021 191.305 57.7802C189.835 56.8298 188.067 55.3623 188.067 55.3623C187.191 57.0955 188.433 58.4991 189.491 59.4947C190.653 60.5895 191.476 60.9688 192.116 61.6127C191.278 61.5962 190.366 61.2467 190.366 61.2467C190.256 61.4672 190.293 63.1552 192.668 64.0769C192.305 64.1266 191.363 63.992 191.363 63.992C190.812 65.4926 193.921 66.9017 195.981 66.7485C195.851 66.9238 195.233 67.249 195.233 67.249C195.21 68.4464 198.445 69.6747 200.768 69.4839C200.768 69.485 199.018 66.1652 197.417 66.5357Z" fill="#0B61DD"/>
<path d="M196.287 90.1185H123.11C123.026 90.1185 122.945 90.085 122.885 90.0255C122.826 89.9659 122.792 89.8852 122.792 89.8009C122.792 89.7167 122.826 89.636 122.885 89.5764C122.945 89.5169 123.026 89.4834 123.11 89.4834H196.287C196.371 89.4834 196.452 89.5169 196.512 89.5764C196.571 89.636 196.605 89.7167 196.605 89.8009C196.605 89.8852 196.571 89.9659 196.512 90.0255C196.452 90.085 196.371 90.1185 196.287 90.1185Z" fill="#84B8FF"/>
<path d="M201.04 83.6904H162.241C162.16 83.6857 162.083 83.6501 162.028 83.5909C161.972 83.5318 161.941 83.4536 161.941 83.3724C161.941 83.2911 161.972 83.2129 162.028 83.1538C162.083 83.0946 162.16 83.059 162.241 83.0543H201.04C201.083 83.0517 201.127 83.058 201.168 83.0729C201.208 83.0877 201.246 83.1107 201.277 83.1405C201.309 83.1703 201.334 83.2062 201.351 83.2461C201.369 83.286 201.377 83.3289 201.377 83.3724C201.377 83.4158 201.369 83.4587 201.351 83.4986C201.334 83.5385 201.309 83.5744 201.277 83.6042C201.246 83.634 201.208 83.657 201.168 83.6718C201.127 83.6867 201.083 83.693 201.04 83.6904Z" fill="#84B8FF"/>
<path d="M217.507 64.6437L216.478 63.6999L218.033 62.895L219.267 63.9733L217.507 64.6437Z" fill="#FA6142"/>
<path d="M216.478 63.6999L217.659 61.9424L218.033 62.895L216.478 63.6999Z" fill="white"/>
<path d="M87.2952 62.5898L87.2864 65.7872L87.2941 67.2856C87.2941 67.7861 87.2941 68.2856 87.3118 68.8005L87.3515 70.3375C87.3603 70.8513 87.3912 71.3596 87.411 71.8723C87.4309 72.3849 87.4496 72.8987 87.4816 73.4092L87.5742 74.9429C87.6017 75.4567 87.6492 75.9628 87.6844 76.4744L87.744 77.2462L87.8134 78.0091C87.8642 78.5163 87.9039 79.0312 87.9634 79.5362C88.0229 80.0412 88.0736 80.5539 88.1354 81.0588C88.1971 81.5638 88.2578 82.0721 88.3316 82.5727C88.4055 83.0732 88.4717 83.5804 88.5522 84.0766C88.6326 84.5727 88.7142 85.0689 88.8002 85.5595L88.9182 86.1946C88.9182 86.1946 89.625 86.7227 90.0208 87.016C90.822 87.6004 91.6305 88.1752 92.4464 88.7404C94.0826 89.8672 95.7475 90.9455 97.441 91.9621C99.1151 92.9711 100.84 93.8927 102.61 94.7229C103.483 95.1276 104.362 95.4947 105.241 95.8112L104.107 99.4959C101.056 99.0935 90.8764 95.5488 88.9888 94.5939C88.0457 94.1154 87.1089 93.6244 86.1783 93.1209C85.713 92.8688 85.2485 92.6115 84.7847 92.3491L84.0868 91.9566L83.7395 91.757L83.5619 91.6468L83.3701 91.5365C82.9437 91.3001 82.5943 90.9461 82.3635 90.5166L82.0106 89.8551L81.5586 89.0194C81.4175 88.7558 81.2885 88.5056 81.1528 88.2476C80.8915 87.7382 80.6324 87.2288 80.3877 86.7216C80.1429 86.2144 79.8981 85.7039 79.6578 85.1935C79.4174 84.683 79.1936 84.1736 78.9598 83.6609C78.7261 83.1482 78.5122 82.6355 78.2884 82.1173C78.0645 81.5991 77.8573 81.0875 77.6401 80.5737L77.3203 79.8019L77.0127 79.0235C76.8109 78.5042 76.5959 77.9838 76.4041 77.4623L75.8175 75.8922C75.6202 75.3685 75.4404 74.8437 75.2508 74.3177C75.0612 73.7918 74.8704 73.2648 74.6995 72.7367L74.1637 71.149C73.9829 70.6242 73.8142 70.0773 73.6444 69.5337L73.1328 67.8986L72.1923 64.8114C71.8715 63.7511 71.7827 62.6342 71.9319 61.5365C72.0812 60.4388 72.465 59.3861 73.0573 58.45C73.6495 57.5138 74.4364 56.7161 75.3644 56.1111C76.2923 55.5061 77.3397 55.108 78.4352 54.9437C79.5307 54.7795 80.6488 54.853 81.7134 55.1592C82.778 55.4655 83.7642 55.9974 84.6049 56.7187C85.4457 57.44 86.1213 58.3338 86.5859 59.3395C87.0505 60.3451 87.2932 61.439 87.2974 62.5468L87.2952 62.5898Z" fill="#FFAD94"/>
<path d="M92.4574 88.7346C92.4574 88.7346 90.6647 87.4754 90.0318 87.0102C89.6316 86.7169 88.9292 86.1888 88.9292 86.1888L88.9215 86.1458L84.2676 92.0522L84.7968 92.3521C85.2614 92.6123 85.7259 92.8696 86.1905 93.1239C86.6315 93.3643 87.9215 94.039 88.3669 94.2728C88.3581 94.2695 91.3692 91.2264 92.4574 88.7346Z" fill="white"/>
<path d="M90.0274 87.0158C89.6271 86.7225 88.9248 86.1944 88.9248 86.1944L88.8068 85.5593C88.7208 85.0686 88.6348 84.5769 88.5588 84.0763C88.4827 83.5758 88.4088 83.0741 88.3383 82.5724C88.2677 82.0708 88.207 81.5614 88.142 81.0586C88.0769 80.5558 88.0317 80.042 87.97 79.536C87.9082 79.0299 87.8708 78.5161 87.82 78.0089L87.7506 77.2459L87.691 76.4741C87.6535 75.9625 87.6061 75.4565 87.5808 74.9427L87.4882 73.409C87.4562 72.8985 87.4419 72.3836 87.4176 71.872C87.3933 71.3604 87.3669 70.851 87.3581 70.3372L87.3184 68.8003C87.3007 68.2854 87.3029 67.7859 87.3007 67.2853L87.293 65.787L87.3018 62.5895V62.5465C87.2957 61.0337 86.8478 59.5556 86.0129 58.2939L73.436 57.8904C72.6951 58.8629 72.1961 59.9976 71.9803 61.201C71.7644 62.4044 71.8378 63.6418 72.1945 64.8112L73.135 67.8984L73.6466 69.5335C73.8164 70.077 73.985 70.6239 74.1659 71.1487L74.7006 72.7364C74.8737 73.2646 75.0689 73.7916 75.2519 74.3175C75.4349 74.8434 75.6213 75.3683 75.8186 75.892L76.4063 77.4609C76.5981 77.9824 76.8131 78.5029 77.0149 79.0222L77.3225 79.8006L77.6423 80.5724C77.8628 81.0895 78.0634 81.6055 78.2906 82.116C78.5177 82.6264 78.7316 83.1436 78.962 83.6596C79.1925 84.1756 79.4185 84.6816 79.6599 85.1921C79.9014 85.7026 80.1374 86.2109 80.3898 86.7203C80.6423 87.2297 80.8937 87.7368 81.155 88.2462C81.2906 88.5042 81.4197 88.7545 81.5608 89.018L82.0128 89.8538L82.3657 90.5153C82.5957 90.9449 82.9444 91.2992 83.3701 91.5363L83.5619 91.6465L83.7394 91.7568L84.0901 91.9597L84.788 92.3555C84.9291 92.4349 85.0702 92.511 85.2114 92.5892L90.1421 87.0962C90.1046 87.0643 90.066 87.0378 90.0274 87.0158Z" fill="#6F8137"/>
<path d="M31.9586 110.902C29.6575 110.902 26.8416 109.846 24.2296 105.993C24.204 105.959 24.1856 105.919 24.1755 105.877C24.1655 105.836 24.164 105.792 24.1712 105.75C24.1784 105.707 24.1941 105.667 24.2174 105.631C24.2407 105.595 24.271 105.563 24.3066 105.539C24.3422 105.515 24.3823 105.499 24.4245 105.49C24.4667 105.482 24.5102 105.483 24.5522 105.492C24.5943 105.501 24.6341 105.518 24.6692 105.543C24.7043 105.568 24.7341 105.599 24.7566 105.636C27.91 110.287 31.3268 110.612 33.6389 110.066C35.2079 109.696 36.7922 108.799 38.0999 107.542C39.187 106.497 39.9588 105.301 40.0658 104.495C40.0811 104.415 40.1264 104.344 40.1924 104.296C40.2584 104.249 40.34 104.228 40.4206 104.239C40.5012 104.25 40.5747 104.291 40.626 104.354C40.6772 104.417 40.7024 104.497 40.6964 104.579C40.4528 106.417 37.5718 109.79 33.7855 110.685C33.1871 110.828 32.574 110.901 31.9586 110.902Z" fill="#84B8FF"/>
<path d="M44.7427 98.5065L44.0957 99.9189L44.3563 100.038L45.0033 98.6259L44.7427 98.5065Z" fill="#D83A21"/>
<path d="M37.4128 93.1999C37.5054 92.9972 37.6402 92.8166 37.8081 92.6701C37.976 92.5236 38.1733 92.4147 38.3867 92.3505C38.6001 92.2863 38.8247 92.2684 39.0456 92.2979C39.2665 92.3275 39.4785 92.4038 39.6675 92.5218L44.5188 95.545C44.5909 95.59 44.651 95.6518 44.6938 95.7251C44.7367 95.7985 44.7611 95.8811 44.7649 95.966C44.7687 96.0509 44.7518 96.1354 44.7156 96.2122C44.6795 96.2891 44.6252 96.356 44.5574 96.4073L39.4492 100.254L43.1583 101.952L45.628 96.5594C45.8313 96.1137 45.865 95.6091 45.723 95.1402C45.5809 94.6714 45.2727 94.2704 44.8562 94.0125L40.4272 91.2561C40.1075 91.0569 39.7489 90.9282 39.3755 90.8784C39.0021 90.8287 38.6224 90.8591 38.2617 90.9676C37.9009 91.0761 37.5675 91.2602 37.2834 91.5076C36.9994 91.7551 36.7714 92.0602 36.6145 92.4027L34.1404 97.8207L35.0952 98.2618L37.4128 93.1999Z" fill="#FCD738"/>
<path d="M43.6092 100.032C43.6895 97.2939 41.5347 95.0088 38.7963 94.9285C36.0579 94.8482 33.7729 97.003 33.6925 99.7414C33.6122 102.48 35.767 104.765 38.5054 104.845C41.2438 104.925 43.5289 102.771 43.6092 100.032Z" fill="#D83A21"/>
<path d="M40.1017 103.132L39.335 104.806L40.6622 105.414L41.4289 103.74L40.1017 103.132Z" fill="#D83A21"/>
<path d="M78.9246 97.8661C78.9952 98.5762 77.8684 99.8508 75.9278 100.326C73.9873 100.801 75.156 95.9014 75.156 95.9014L78.9246 97.8661Z" fill="#2E353D"/>
<path d="M48.5698 98.1329C50.0825 100.581 64.2108 100.007 69.4491 98.4902C74.6874 96.973 56.4851 93.9553 56.4851 93.9553L48.5698 98.1329Z" fill="#2E353D"/>
<path d="M70.5033 47.9066C75.5111 46.7269 81.0273 50.6311 82.3007 52.694L83.1938 56.9719L69.3489 50.6719L70.5033 47.9066Z" fill="#6F8137"/>
<path d="M82.3436 46.9187C82.5872 48.4347 81.9985 50.813 80.5166 53.2496L86.5631 58.4692C86.5631 58.4692 89.3956 55.7414 89.8807 53.3632L82.3436 46.9187Z" fill="#FFAD94"/>
<path d="M88.0022 56.8564C87.3406 54.391 86.4178 52.2256 84.8323 50.3303L85.786 49.8628L89.8809 53.3634C89.6351 54.573 88.7817 55.8707 88.0022 56.8564Z" fill="#CE5F49"/>
<path d="M81.7647 47.7545C78.8859 45.674 74.8781 37.6539 79.6588 35.1742C83.5376 33.1632 84.6666 28.4387 88.9876 29.055C92.9723 29.6239 91.9645 34.1202 91.9645 34.1202C92.5627 33.8084 93.2283 33.6479 93.9028 33.6527C97.6802 33.763 97.9437 38.558 95.1278 39.8414L83.2851 45.008L81.7647 47.7545Z" fill="#2E353D"/>
<path d="M94.1324 45.9561C94.1324 45.9561 95.3242 48.578 95.2867 48.8547C95.2118 49.3961 93.6406 49.9374 93.6406 49.9374L94.1324 45.9561Z" fill="#CE5F49"/>
<path d="M92.4875 52.7823C90.2217 55.2245 82.8036 50.6676 81.0947 44.0996C78.9722 35.9406 87.6086 31.6825 92.5305 37.9087C94.976 41.0014 94.2813 44.7358 94.17 45.598C94.0355 46.6289 93.8998 51.2641 92.4875 52.7823Z" fill="#FFAD94"/>
<path d="M92.9999 38.5701C93.8632 39.9229 94.1697 41.0112 94.2723 42.2339C91.5269 42.3276 89.6415 39.6506 89.54 39.1114C90.7027 38.997 91.8579 38.8163 92.9999 38.5701Z" fill="#CE5F49"/>
<path d="M80.1297 44.126C77.6401 34.5547 87.7705 29.56 93.5435 36.8634C94.2464 37.753 94.7845 38.7612 95.1323 39.8404C92.5181 40.8591 91.2733 37.7168 90.2127 38.3861C89.152 39.0553 88.034 44.2297 84.4495 45.0423L80.1297 44.126Z" fill="#2E353D"/>
<path d="M91.2359 37.5359L91.4299 37.8292C91.4553 37.8656 91.4795 37.9064 91.5137 37.9527C91.5479 37.999 91.5887 38.053 91.6306 38.1092L91.7706 38.2812C91.8213 38.3408 91.8809 38.4014 91.936 38.4665C92.0637 38.602 92.1988 38.7305 92.3407 38.8513C92.4997 38.9866 92.6677 39.1112 92.8434 39.2239C93.0319 39.3444 93.2299 39.4491 93.4355 39.5371C93.6483 39.6294 93.8699 39.6996 94.097 39.7465C94.3269 39.7967 94.5619 39.82 94.7972 39.816C95.0315 39.813 95.2648 39.7842 95.4929 39.73C95.7135 39.6765 95.9281 39.6008 96.1335 39.504C96.3256 39.4164 96.51 39.3127 96.6848 39.1942C96.8358 39.0928 96.9805 38.9824 97.1181 38.8634C97.2471 38.7597 97.3386 38.6528 97.4323 38.5723C97.526 38.4918 97.5778 38.4158 97.623 38.3694L97.6903 38.2967L97.6451 38.3849C97.6153 38.4422 97.5734 38.5271 97.515 38.6341C97.4566 38.741 97.3838 38.87 97.2846 39.01C97.1781 39.1715 97.0622 39.3265 96.9373 39.4742C96.7861 39.6532 96.6205 39.8195 96.4422 39.9715C96.2382 40.1485 96.0166 40.3041 95.7807 40.4357C95.522 40.5806 95.248 40.6964 94.9637 40.7808C94.6642 40.8715 94.3553 40.9277 94.043 40.9483C93.7277 40.9723 93.4107 40.9642 93.097 40.9241C92.792 40.8865 92.4907 40.8234 92.1962 40.7355C91.9204 40.6546 91.6507 40.554 91.3891 40.4345C91.1538 40.3286 90.9244 40.2097 90.7022 40.0784C90.6008 40.0145 90.5016 39.9549 90.4101 39.8943C90.3185 39.8336 90.2325 39.7741 90.1532 39.7168L89.9327 39.5514C89.8643 39.4974 89.7992 39.4411 89.7408 39.3926L89.4332 39.1291C89.1886 38.9196 89.0372 38.6215 89.0124 38.3004C88.9876 37.9793 89.0914 37.6614 89.3009 37.4168C89.5104 37.1722 89.8085 37.0209 90.1296 36.996C90.4507 36.9712 90.7685 37.075 91.0132 37.2845C91.0973 37.3558 91.1715 37.4382 91.2337 37.5293L91.2359 37.5359Z" fill="#2E353D"/>
<path d="M80.9358 35.1544L80.8917 35.1235L80.8145 35.0728L80.7307 35.0122C80.6117 34.9229 80.4573 34.7916 80.282 34.6373C79.8597 34.2561 79.4726 33.8376 79.1254 33.387C79.0328 33.2635 78.9424 33.1378 78.8586 33.0099C78.7748 32.882 78.6976 32.7541 78.6281 32.6273C78.5587 32.5005 78.4969 32.3737 78.4451 32.2524C78.3967 32.138 78.3547 32.021 78.3194 31.9018C78.2905 31.8022 78.2673 31.7009 78.25 31.5986C78.2433 31.5534 78.2367 31.5104 78.2312 31.4718C78.2257 31.4332 78.2312 31.3957 78.2246 31.3616C78.222 31.3116 78.222 31.2616 78.2246 31.2116V31.1587L78.2411 31.2094C78.2553 31.2562 78.2719 31.3022 78.2908 31.3472L78.3304 31.4432L78.3867 31.5534C78.4324 31.6382 78.4836 31.72 78.5399 31.7982C78.6052 31.8901 78.6759 31.9781 78.7516 32.0617C78.8321 32.151 78.9203 32.2403 79.0173 32.3285C79.1144 32.4167 79.2158 32.5027 79.325 32.5854C79.4341 32.6681 79.5455 32.7497 79.6623 32.8269C80.0857 33.1048 80.5334 33.3439 80.9998 33.5413C81.1883 33.6207 81.3449 33.6792 81.4485 33.7111C81.4728 33.7177 81.4981 33.7266 81.5136 33.7299H81.5466L81.5973 33.7453C81.7912 33.8078 81.9533 33.9431 82.0494 34.1227C82.1455 34.3023 82.1682 34.5122 82.1126 34.7082C82.057 34.9041 81.9275 35.0709 81.7514 35.1732C81.5752 35.2756 81.3663 35.3056 81.1685 35.2569C81.0859 35.2354 81.0074 35.2007 80.9358 35.1544Z" fill="#2E353D"/>
<path d="M81.3303 35.9823L81.2321 35.9503L81.1219 35.9151L81.0348 35.8853C80.926 35.8558 80.8155 35.8326 80.704 35.8158C80.5498 35.7942 80.3944 35.7828 80.2387 35.7816C80.0481 35.7802 79.8575 35.7928 79.6687 35.8191C79.4549 35.8503 79.244 35.8986 79.038 35.9636C78.8159 36.034 78.6013 36.1263 78.3974 36.2392C78.1848 36.3562 77.9864 36.4975 77.8065 36.6604C77.6206 36.8253 77.4568 37.0136 77.3191 37.2205C77.2486 37.3237 77.1835 37.4304 77.124 37.5402L77.0446 37.7089L77.0049 37.7927L76.9718 37.8798L76.9068 38.0518C76.8869 38.1103 76.8715 38.1687 76.8549 38.2271C76.8204 38.3412 76.7924 38.4572 76.7712 38.5744C76.7425 38.6847 76.7337 38.8027 76.7171 38.9129C76.7006 39.0232 76.6962 39.1334 76.6885 39.236C76.6885 39.2889 76.6818 39.3396 76.6785 39.3903C76.6752 39.4411 76.6785 39.4896 76.6785 39.537C76.6785 39.6329 76.6785 39.7255 76.6785 39.8115C76.6907 39.9824 76.6962 40.1346 76.7105 40.2581L76.759 40.6495C76.759 40.6495 76.7083 40.5139 76.6212 40.2779C76.5782 40.1588 76.5385 40.0111 76.4856 39.8369C76.4613 39.7509 76.4415 39.6594 76.4183 39.5612C76.4062 39.5127 76.3952 39.4631 76.3831 39.4113C76.3709 39.3595 76.3643 39.3066 76.3555 39.2514C76.3378 39.1412 76.3147 39.0309 76.3059 38.9085C76.2971 38.7861 76.2772 38.6638 76.2783 38.5337C76.2712 38.4003 76.2712 38.2667 76.2783 38.1334C76.2783 38.064 76.2783 37.9934 76.2904 37.9228C76.3026 37.8523 76.3081 37.7817 76.318 37.7089L76.3323 37.5987L76.3544 37.4884C76.3709 37.4156 76.3864 37.3418 76.4018 37.2679C76.447 37.1235 76.4834 36.9713 76.5451 36.8269C76.6584 36.5241 76.8092 36.2366 76.9939 35.9713C77.179 35.6998 77.3955 35.4511 77.6389 35.2304C77.8762 35.0128 78.1347 34.8196 78.4107 34.6537C78.9026 34.3561 79.4384 34.138 79.9984 34.0076C80.2281 33.9529 80.4613 33.9138 80.6963 33.8907C80.8854 33.8727 81.0753 33.8654 81.2652 33.8687L81.5078 33.883L81.6401 33.8941L81.7437 33.9029C81.8853 33.9115 82.0236 33.9483 82.1508 34.0111C82.2779 34.074 82.3912 34.1615 82.484 34.2687C82.5768 34.3759 82.6473 34.5006 82.6913 34.6353C82.7353 34.7701 82.752 34.9123 82.7403 35.0537C82.7286 35.195 82.6889 35.3325 82.6233 35.4583C82.5578 35.584 82.4678 35.6954 82.3587 35.7859C82.2495 35.8764 82.1234 35.9442 81.9877 35.9853C81.852 36.0264 81.7094 36.04 81.5684 36.0253C81.4882 36.0192 81.409 36.0036 81.3325 35.979L81.3303 35.9823Z" fill="#2E353D"/>
<path d="M16.6937 111.632C15.8921 111.494 14.6859 116.497 16.9087 117.495C19.1314 118.493 17.5074 111.772 16.6937 111.632Z" fill="#2E353D"/>
<path d="M26.3257 114.274C18.5834 112.644 11.8688 111.493 11.8688 111.493L11.2393 114.01C11.2393 114.01 18.5702 117.163 26.3246 120.099L26.3257 114.274Z" fill="#FF9688"/>
<path d="M108.35 158.737C108.912 159.534 115.751 155.241 113.442 154.412C111.132 153.583 107.351 157.322 108.35 158.737Z" fill="#002454"/>
<path d="M105.944 145.763H99.1963L113.809 162.671L116.046 160.433L105.944 145.763Z" fill="#FF9688"/>
<path d="M113.888 165.656C113.888 165.656 115.291 166.911 115.616 166.832C116.718 166.56 121.296 162.104 121.928 161.737C123.132 161.037 128.255 155.905 128.154 154.828C128.054 153.751 126.857 153.305 126.857 153.305L113.888 165.656Z" fill="white"/>
<path d="M114.092 165.711C113.661 165.896 111.352 162.69 111.362 162.2C111.372 161.709 114.178 161.318 114.757 159.796C115.336 158.275 114.977 156.768 115.155 156.477C115.332 156.186 121.329 156.353 121.329 156.353C121.329 156.353 126.978 152.731 126.842 153.366C125.984 157.438 115.821 164.974 114.092 165.711Z" fill="#6F8137"/>
<path d="M116.819 158.766H116.79C116.74 158.763 116.691 158.749 116.646 158.727C116.602 158.704 116.562 158.673 116.529 158.635C116.496 158.597 116.471 158.553 116.456 158.505C116.44 158.458 116.434 158.407 116.438 158.357L116.596 156.244C116.603 156.143 116.651 156.049 116.728 155.983C116.804 155.917 116.904 155.884 117.005 155.891C117.106 155.899 117.2 155.946 117.266 156.023C117.332 156.1 117.365 156.2 117.358 156.301L117.199 158.414C117.191 158.509 117.148 158.599 117.078 158.664C117.007 158.73 116.915 158.766 116.819 158.766Z" fill="white"/>
<path d="M119.114 158.793H119.086C119.036 158.789 118.987 158.776 118.942 158.753C118.897 158.73 118.857 158.699 118.825 158.661C118.792 158.623 118.767 158.579 118.752 158.531C118.736 158.484 118.73 158.434 118.734 158.384L118.891 156.271C118.895 156.221 118.909 156.172 118.931 156.127C118.954 156.083 118.985 156.043 119.023 156.01C119.061 155.977 119.105 155.952 119.153 155.937C119.2 155.921 119.251 155.915 119.301 155.918C119.351 155.922 119.399 155.935 119.444 155.958C119.489 155.981 119.529 156.012 119.562 156.05C119.594 156.088 119.619 156.132 119.635 156.179C119.651 156.227 119.657 156.277 119.653 156.327L119.495 158.441C119.487 158.537 119.444 158.626 119.373 158.691C119.303 158.756 119.21 158.793 119.114 158.793Z" fill="white"/>
<path d="M12.0826 108.053C12.0826 108.053 10.4773 107.072 10.1719 107.209C9.13768 107.677 5.44188 112.887 4.88729 113.364C3.82993 114.271 -0.279334 120.245 0.0150508 121.286C0.309436 122.326 1.56636 122.548 1.56636 122.548L12.0826 108.053Z" fill="white"/>
<path d="M11.8688 108.036C12.2591 107.776 15.1104 110.51 15.1898 110.994C15.2691 111.478 12.5811 112.373 12.2856 113.971C11.9901 115.57 12.6164 116.989 12.4962 117.308C12.376 117.626 6.44971 118.549 6.44971 118.549C6.44971 118.549 1.55101 123.134 1.56865 122.485C1.67891 118.329 10.3065 109.074 11.8688 108.036Z" fill="#6F8137"/>
<path d="M10.7451 118.218C10.6511 118.218 10.5605 118.184 10.4906 118.121C10.4208 118.058 10.3767 117.971 10.3669 117.878L10.1398 115.772C10.1339 115.722 10.138 115.671 10.1519 115.623C10.1657 115.574 10.1891 115.529 10.2205 115.49C10.2519 115.45 10.2909 115.417 10.3351 115.393C10.3792 115.369 10.4278 115.354 10.4779 115.348C10.528 115.343 10.5787 115.347 10.627 115.362C10.6754 115.376 10.7204 115.4 10.7595 115.432C10.7986 115.463 10.831 115.503 10.8548 115.547C10.8787 115.591 10.8935 115.64 10.8984 115.69L11.1255 117.796C11.1363 117.897 11.1067 117.998 11.0432 118.076C10.9798 118.155 10.8876 118.205 10.787 118.216C10.7731 118.218 10.7591 118.219 10.7451 118.218Z" fill="white"/>
<path d="M8.48384 118.616C8.38973 118.616 8.29894 118.582 8.22893 118.519C8.15892 118.456 8.11462 118.369 8.10456 118.276L7.87743 116.169C7.87207 116.119 7.87659 116.068 7.89073 116.02C7.90487 115.972 7.92835 115.927 7.95983 115.888C7.99132 115.849 8.03018 115.817 8.07422 115.793C8.11825 115.769 8.16659 115.753 8.21647 115.748C8.26635 115.743 8.31679 115.747 8.36493 115.761C8.41306 115.775 8.45794 115.799 8.497 115.83C8.53606 115.862 8.56853 115.901 8.59257 115.945C8.61661 115.989 8.63174 116.037 8.6371 116.087L8.86312 118.193C8.87395 118.294 8.8444 118.395 8.78094 118.474C8.71749 118.552 8.62532 118.603 8.52464 118.614L8.48384 118.616Z" fill="white"/>
<path d="M16.6936 111.632C16.6936 111.632 17.3055 115.478 16.9086 117.495C17.5757 118.157 42.0736 131.069 47.9469 128.901C53.8203 126.734 66.5803 108.019 66.5803 108.019L57.4455 91.9775L43.5422 118.549C36.4108 111.981 20.9594 112.846 16.6936 111.632Z" fill="#0B61DD"/>
<path d="M63.493 102.603L54.7585 97.4902C53.6813 100.832 52.1587 110.897 58.2636 119.139C62.7146 113.681 66.5747 108.019 66.5747 108.019L63.493 102.603Z" fill="#2E353D"/>
<path d="M58.4346 90.3774L73.5398 94.5672C81.5179 103.43 115.374 154.753 113.867 154.928C112.36 155.104 108.354 158.733 108.354 158.733C102.527 150.977 88.474 137.474 81.5808 127.778C77.8254 122.494 71.7933 112.397 68.157 111.418C64.5208 110.439 46.9679 104.5 58.4346 90.3774Z" fill="#0B61DD"/>
<path d="M54.9175 96.7945C56.0498 96.81 70.9929 101.749 77.573 99.638C76.0294 97.5729 74.7229 95.9224 73.7526 94.8176L54.9175 96.7945Z" fill="#2E353D"/>
<path d="M80.9997 52.2652C80.9997 52.2652 69.3125 52.0215 70.5055 47.9067C69.3136 47.9067 65.8945 49.9377 67.286 53.8022C68.1339 56.1605 79.8696 54.5045 80.9997 52.2652Z" fill="#ABBD43"/>
<path d="M78.9246 97.8663C74.1549 100.967 56.1919 94.0558 48.5699 98.1331C47.3924 95.6248 59.9748 62.3273 80.9975 52.2664C82.6745 53.1815 86.862 55.4417 88.9635 58.4121C88.9635 58.411 79.4307 74.4787 78.9246 97.8663Z" fill="#ABBD43"/>
<path d="M65.6883 87.137C65.6306 87.1369 65.574 87.1212 65.5244 87.0915C65.4749 87.0618 65.4344 87.0192 65.4071 86.9684C63.653 83.6673 69.91 78.7542 76.5364 73.5545C83.5929 68.0108 90.8996 62.2797 88.357 58.714C88.3301 58.6802 88.3103 58.6412 88.2989 58.5994C88.2875 58.5577 88.2847 58.514 88.2907 58.4712C88.2967 58.4283 88.3114 58.3871 88.3338 58.3501C88.3563 58.3131 88.3861 58.2811 88.4213 58.2559C88.4565 58.2308 88.4965 58.2131 88.5388 58.204C88.5811 58.1948 88.6249 58.1944 88.6673 58.2027C88.7098 58.211 88.7502 58.2279 88.7859 58.2523C88.8217 58.2767 88.8521 58.3081 88.8753 58.3446C91.7706 62.4054 84.2257 68.3273 76.929 74.0551C70.8009 78.8645 64.4611 83.8382 65.9683 86.6696C65.988 86.7064 66.0002 86.7468 66.0043 86.7883C66.0083 86.8299 66.0041 86.8718 65.9919 86.9118C65.9797 86.9517 65.9598 86.9889 65.9332 87.0211C65.9067 87.0533 65.874 87.08 65.8371 87.0996C65.7914 87.1242 65.7402 87.137 65.6883 87.137Z" fill="#6F8137"/>
<path d="M66.9079 89.0512C66.7452 89.0511 66.5882 88.9911 66.4669 88.8825C66.0931 88.5444 65.7482 88.1756 65.436 87.7799C65.0391 87.2761 64.7745 86.9431 64.995 86.5219C65.053 86.4064 65.1435 86.3105 65.2554 86.2459C65.3672 86.1813 65.4956 86.1508 65.6246 86.1583C65.7536 86.1658 65.8775 86.211 65.9812 86.2881C66.0848 86.3653 66.1636 86.4711 66.2078 86.5925C66.5372 87.0697 66.9201 87.5077 67.349 87.8979C67.4483 87.9873 67.5183 88.1048 67.5496 88.2347C67.5809 88.3647 67.5721 88.5011 67.5243 88.6259C67.4766 88.7508 67.3921 88.8583 67.2821 88.9342C67.1721 89.0101 67.0416 89.0509 66.9079 89.0512Z" fill="#6F8137"/>
<path d="M58.7441 74.2151C76.3367 72.0739 80.4537 66.6283 83.6522 61.3459L66.7929 63.2589C63.9328 66.6339 60.8511 70.5369 58.7441 74.2151Z" fill="#2E353D"/>
<path d="M76.8761 52.9335C72.0722 52.3877 56.5062 55.6899 51.076 60.9822C40.5168 71.2857 38.6909 88.6313 38.6909 88.6313C38.6909 88.6313 40.6259 91.6082 40.9787 90.854C42.8685 86.8131 53.1489 70.3254 56.5404 68.2272C58.9969 66.7067 70.0424 68.2658 75.3634 67.3606C80.6843 66.4554 85.3769 62.1399 83.5984 57.2578C81.82 52.3756 76.8761 52.9335 76.8761 52.9335Z" fill="#FFAD94"/>
<path d="M49.2314 62.9568C47.8889 64.531 46.6835 66.2171 45.6282 67.9966C46.7704 69.5071 49.2799 72.2051 52.0231 73.3033C53.2149 71.6902 54.3241 70.3131 55.2326 69.3748L49.2314 62.9568Z" fill="white"/>
<path d="M75.3646 67.3647C80.6855 66.4595 85.3781 62.1441 83.5996 57.2619C81.8212 52.3797 76.874 52.9332 76.874 52.9332C72.0701 52.3875 56.03 55.199 50.602 60.4957C49.4267 61.6424 47.3914 64.1651 47.3914 64.1651C51.1963 69.6669 54.1997 71.034 54.1997 71.034C55.2251 69.797 56.1082 68.8918 56.7466 68.4981C59.2043 66.9766 70.0436 68.2721 75.3646 67.3647Z" fill="#ABBD43"/>
<path d="M53.9029 71.7056C53.7779 71.7059 53.6545 71.6772 53.5424 71.6218C50.4552 70.1201 47.7804 66.1961 46.9016 64.9061C46.8245 64.7958 46.7638 64.7043 46.7197 64.6426C46.593 64.4639 46.5424 64.2422 46.5791 64.0262C46.6158 63.8103 46.7368 63.6177 46.9154 63.491C47.0941 63.3642 47.3158 63.3136 47.5318 63.3503C47.7477 63.387 47.9403 63.508 48.0671 63.6867C48.1156 63.755 48.1773 63.8521 48.2655 63.9755C49.0836 65.1762 51.5732 68.8268 54.2646 70.1367C54.4329 70.2182 54.5685 70.3545 54.6493 70.5232C54.73 70.6919 54.7511 70.883 54.7091 71.0653C54.6671 71.2475 54.5645 71.4101 54.418 71.5265C54.2716 71.6428 54.09 71.706 53.9029 71.7056Z" fill="#ABBD43"/>
<path d="M48.4132 94.6996C46.4562 93.3765 46.0493 91.8759 45.4892 90.9035C44.9291 89.931 42.3579 87.942 42.7405 85.803C43.1231 83.664 39.3876 85.3763 39.3876 85.3763C39.3876 85.3763 36.962 92.07 38.0215 93.3953C38.3303 93.7834 38.8198 93.6411 39.3777 94.0954C39.5982 94.2707 39.8033 94.6246 40.144 94.7878C40.585 94.9995 40.9963 94.8804 41.3392 95.0668C41.9423 95.3975 42.1187 95.9775 42.8662 96.0304C44.2996 96.1307 44.5046 92.8782 44.5046 92.8782C44.5046 92.8782 45.3679 95.3832 46.9645 95.671C48.1806 95.8882 48.4132 94.6996 48.4132 94.6996Z" fill="#FFAD94"/>
<path d="M64.3696 71.3516C64.2999 71.3516 64.2322 71.3288 64.1768 71.2865C64.1214 71.2443 64.0815 71.185 64.0631 71.1178C63.6364 69.5742 63.7919 68.2038 64.5262 67.0383C66.6045 63.7494 73.006 62.6204 78.6533 61.6247C83.2003 60.8232 87.4937 60.0668 88.3317 58.3854C88.3716 58.3139 88.4374 58.2604 88.5157 58.2362C88.5939 58.212 88.6785 58.2188 88.7518 58.2552C88.8252 58.2917 88.8816 58.355 88.9095 58.432C88.9375 58.509 88.9347 58.5938 88.9017 58.6688C87.9204 60.6368 83.6777 61.3855 78.7581 62.251C73.2453 63.2246 66.986 64.3271 65.0587 67.3779C64.4148 68.3967 64.2869 69.5643 64.6706 70.9469C64.6927 71.0281 64.6819 71.1146 64.6407 71.1879C64.5994 71.2612 64.5309 71.3152 64.4501 71.3383C64.4239 71.3461 64.3969 71.3505 64.3696 71.3516Z" fill="#6F8137"/>
<path d="M64.8316 73.807C64.684 73.807 64.5407 73.7576 64.4244 73.6667C64.3081 73.5757 64.2256 73.4486 64.1899 73.3054C64.0797 72.8379 63.8591 71.9139 63.7191 70.9778C63.7029 70.8905 63.7044 70.8008 63.7236 70.7141C63.7428 70.6274 63.7793 70.5455 63.8308 70.4732C63.8823 70.4009 63.9479 70.3397 64.0236 70.2932C64.0993 70.2468 64.1835 70.2161 64.2714 70.2029C64.3592 70.1897 64.4487 70.1943 64.5347 70.2165C64.6207 70.2387 64.7014 70.2779 64.7719 70.3319C64.8423 70.3859 64.9012 70.4536 64.945 70.5308C64.9888 70.6081 65.0166 70.6934 65.0268 70.7816C65.1591 71.6636 65.3575 72.5457 65.4678 72.9867C65.4917 73.084 65.4931 73.1855 65.4721 73.2835C65.451 73.3815 65.4079 73.4734 65.3461 73.5523C65.2843 73.6312 65.2054 73.695 65.1153 73.739C65.0252 73.7829 64.9263 73.8058 64.8261 73.8059L64.8316 73.807Z" fill="#6F8137"/>
<path d="M94.1554 42.4987C94.142 42.4961 94.1287 42.4928 94.1157 42.4888C94.1046 42.4888 94.098 42.4822 94.0793 42.4789L94.0098 42.4722C93.9591 42.4645 93.8996 42.4546 93.818 42.448C93.7364 42.4414 93.6548 42.4337 93.5578 42.4314C93.4607 42.4292 93.3549 42.4314 93.2413 42.4314C93.1278 42.4314 93.0087 42.4414 92.8852 42.4568C92.7617 42.4722 92.6305 42.4844 92.5015 42.5108C92.3725 42.5373 92.238 42.5649 92.1046 42.5979C91.9712 42.631 91.8433 42.6773 91.7121 42.7159C91.5809 42.7545 91.4596 42.8151 91.3361 42.8625C91.2126 42.91 91.1035 42.9728 90.9932 43.0268C90.8899 43.0775 90.7894 43.1338 90.6922 43.1955C90.6018 43.2529 90.5114 43.2992 90.4419 43.3521L90.2567 43.4855L90.0935 43.6035L90.2038 43.4403L90.3394 43.2507C90.3901 43.1746 90.4607 43.1018 90.5312 43.0147C90.6073 42.9205 90.6883 42.8304 90.7738 42.7446C90.8664 42.6542 90.959 42.5505 91.066 42.4579C91.1729 42.3653 91.2865 42.2628 91.4056 42.1723C91.5246 42.0819 91.6481 41.9838 91.7815 41.9044C91.915 41.825 92.044 41.7335 92.1818 41.6619C92.3196 41.5902 92.4541 41.5174 92.5897 41.4535C92.7253 41.3895 92.8598 41.3377 92.9888 41.2859C93.1178 41.2341 93.2424 41.1922 93.3604 41.1591C93.4784 41.126 93.5875 41.094 93.6912 41.0698C93.7948 41.0455 93.8786 41.029 93.9536 41.0146L94.055 40.9981C94.0837 40.9926 94.119 40.9904 94.1432 40.9871L94.2072 40.9805C94.3074 40.9841 94.4059 41.0074 94.4971 41.0491C94.5883 41.0908 94.6703 41.15 94.7386 41.2234C94.8069 41.2968 94.8601 41.383 94.8951 41.4769C94.9301 41.5709 94.9462 41.6708 94.9426 41.771C94.939 41.8712 94.9156 41.9697 94.874 42.0609C94.8323 42.1521 94.773 42.2342 94.6996 42.3024C94.6262 42.3707 94.5401 42.4239 94.4461 42.4589C94.3522 42.4939 94.2523 42.51 94.1521 42.5064L94.1554 42.4987Z" fill="#2E353D"/>
<path d="M94.7817 44.9133H84.4739C84.4305 44.9159 84.3871 44.9096 84.3463 44.8947C84.3055 44.8799 84.2681 44.8569 84.2365 44.8271C84.2049 44.7973 84.1798 44.7614 84.1626 44.7215C84.1454 44.6816 84.1365 44.6387 84.1365 44.5953C84.1365 44.5518 84.1454 44.5089 84.1626 44.469C84.1798 44.4291 84.2049 44.3932 84.2365 44.3634C84.2681 44.3336 84.3055 44.3106 84.3463 44.2958C84.3871 44.2809 84.4305 44.2746 84.4739 44.2772H94.7817C94.8629 44.2819 94.9391 44.3175 94.9949 44.3767C95.0506 44.4358 95.0816 44.514 95.0816 44.5953C95.0816 44.6765 95.0506 44.7547 94.9949 44.8138C94.9391 44.873 94.8629 44.9086 94.7817 44.9133Z" fill="#6F8137"/>
<path d="M94.1831 47.7733C94.1609 47.7735 94.1386 47.7709 94.117 47.7656C94.0761 47.7571 94.0372 47.7405 94.0027 47.7169C93.9682 47.6933 93.9388 47.6631 93.916 47.6281C93.8932 47.593 93.8777 47.5538 93.8701 47.5127C93.8626 47.4716 93.8633 47.4294 93.8722 47.3885L94.8204 42.9408C94.8399 42.86 94.8902 42.79 94.9605 42.7457C95.0308 42.7015 95.1157 42.6864 95.1969 42.7038C95.2782 42.7212 95.3494 42.7697 95.3955 42.8389C95.4415 42.9081 95.4587 42.9925 95.4434 43.0742L94.4941 47.5208C94.4789 47.5921 94.4398 47.6561 94.3832 47.702C94.3267 47.748 94.256 47.7731 94.1831 47.7733Z" fill="#6F8137"/>
<path d="M85.2853 45.5593C85.2963 44.9868 85.1155 44.4271 84.7715 43.9694C84.1442 43.1347 83.0504 41.9737 81.9787 42.2637C78.0525 43.3299 81.6799 48.9673 84.0174 49.1922C84.7671 49.2639 85.2225 48.6464 85.2225 48.6464L85.2853 45.5593Z" fill="#E27960"/>
<path d="M84.3502 49.8593C84.681 49.6995 85.3877 48.8251 85.5332 48.555L83.7691 48.3665L83.2961 48.5991C83.6242 49.0381 83.9761 49.4588 84.3502 49.8593Z" fill="#CE5F49"/>
<path d="M84.3007 45.2287C83.4991 44.2507 82.6115 44.5142 82.5189 45.2574C82.4009 46.21 84.0559 48.124 85.1232 47.2111L84.3007 45.2287Z" fill="#CE5F49"/>
<path d="M82.3336 43.2097C81.5012 42.848 80.5838 43.3596 80.2817 43.9043C80.4218 43.159 80.897 42.3695 82.0238 42.1711C83.1109 41.9803 84.1727 43.1358 84.7802 43.9638C85.1193 44.4269 85.2968 44.9887 85.2852 45.5625L85.2422 47.6574C84.767 46.331 84.1429 44.2229 82.3336 43.2097Z" fill="#FFAD94"/>
<path d="M84.0174 49.1978C83.0648 49.1063 81.8972 48.115 81.1155 46.9011C82.7528 49.3576 84.7253 48.1724 85.2424 47.6619L85.5335 48.5627C85.5335 48.5627 84.7672 49.265 84.0174 49.1978Z" fill="#FFAD94"/>
<path d="M67.3796 54.0767H42.2301C42.149 54.0719 42.0727 54.0363 42.017 53.9772C41.9612 53.918 41.9302 53.8398 41.9302 53.7586C41.9302 53.6773 41.9612 53.5991 42.017 53.54C42.0727 53.4809 42.149 53.4453 42.2301 53.4405H67.3796C67.423 53.4379 67.4664 53.4443 67.5072 53.4591C67.548 53.4739 67.5853 53.497 67.6169 53.5267C67.6485 53.5565 67.6737 53.5925 67.6909 53.6323C67.7081 53.6722 67.717 53.7152 67.717 53.7586C67.717 53.802 67.7081 53.845 67.6909 53.8848C67.6737 53.9247 67.6485 53.9606 67.6169 53.9904C67.5853 54.0202 67.548 54.0432 67.5072 54.0581C67.4664 54.0729 67.423 54.0792 67.3796 54.0767Z" fill="#84B8FF"/>
<path d="M85.2113 93.4106C85.0519 93.4105 84.8959 93.3642 84.7622 93.2774C84.6285 93.1905 84.5228 93.0668 84.4578 92.9212C84.3929 92.7756 84.3715 92.6143 84.3962 92.4567C84.421 92.2992 84.4907 92.1523 84.5972 92.0335L89.5279 86.5395C89.6753 86.3811 89.879 86.2869 90.0951 86.2772C90.3112 86.2675 90.5226 86.343 90.6836 86.4874C90.8447 86.6319 90.9427 86.8338 90.9564 87.0497C90.9702 87.2656 90.8986 87.4783 90.7572 87.642L85.8265 93.135C85.7493 93.2218 85.6545 93.2912 85.5485 93.3388C85.4424 93.3863 85.3275 93.4108 85.2113 93.4106Z" fill="#6F8137"/>
<path d="M88.1938 85.5407C88.9921 85.2099 89.5169 85.2529 89.6272 86.6146C89.7374 87.9762 88.1938 85.5407 88.1938 85.5407Z" fill="#6F8137"/>
<path d="M92.7639 49.8594L94.0043 50.1361C94.08 50.1464 94.1511 50.1785 94.2088 50.2286C94.2666 50.2787 94.3084 50.3445 94.3292 50.418C94.3501 50.4916 94.349 50.5696 94.3261 50.6425C94.3033 50.7154 94.2596 50.7801 94.2006 50.8285L93.1167 51.5882C93.1167 51.5882 94.1851 52.4394 93.8191 52.9113C93.453 53.3832 92.0461 52.6246 92.0461 52.6246L92.7639 49.8594Z" fill="#FFAD94"/>
<path d="M164.345 144.004C164.318 144.004 164.292 144.001 164.266 143.994C163.597 143.826 162.577 142.979 162.539 142.157C162.527 141.898 162.609 141.427 163.294 141.185C163.373 141.157 163.461 141.161 163.537 141.198C163.613 141.234 163.672 141.299 163.7 141.379C163.728 141.458 163.723 141.546 163.687 141.622C163.65 141.698 163.585 141.757 163.506 141.785C163.164 141.906 163.175 142.061 163.175 142.128C163.196 142.575 163.937 143.254 164.424 143.378C164.5 143.396 164.567 143.442 164.611 143.506C164.655 143.57 164.675 143.649 164.665 143.726C164.655 143.803 164.617 143.875 164.558 143.926C164.5 143.977 164.424 144.005 164.346 144.004H164.345Z" fill="#2E353D"/>
<path d="M104.737 99.0812L108.706 97.8948C108.706 97.8948 108.927 97.9169 109.048 97.9257C109.297 97.9434 109.545 97.9511 109.794 97.95C110.29 97.95 110.906 98.0834 111.405 97.993C111.654 97.9467 113.488 97.6754 114.063 96.4417C114.274 95.9918 114.334 95.7515 114.072 95.4857C113.969 95.3799 113.833 95.3111 113.687 95.2898C113.541 95.2684 113.391 95.2958 113.262 95.3678L113.171 95.4174C113.1 95.4628 113.027 95.5044 112.951 95.542C112.876 95.5828 112.794 95.6125 112.717 95.6456C112.64 95.6787 112.556 95.704 112.47 95.725C112.384 95.7459 112.301 95.7669 112.218 95.7856C112.043 95.8174 111.866 95.8381 111.688 95.8474C111.505 95.8556 111.321 95.8537 111.137 95.8419C110.762 95.8159 110.39 95.758 110.025 95.6688C109.841 95.6235 109.656 95.5717 109.473 95.5133C109.383 95.4846 109.295 95.4538 109.209 95.4218L109.083 95.3722C109.05 95.3603 109.017 95.3455 108.986 95.3281L108.461 95.2851L104.134 95.7658C103.957 95.786 103.785 95.841 103.629 95.9276C103.473 96.0142 103.336 96.1307 103.225 96.2703C103.115 96.41 103.032 96.5702 102.984 96.7417C102.935 96.9131 102.92 97.0926 102.941 97.2697C103.018 98.0095 104.663 99.6292 104.737 99.0812Z" fill="#FFAD94"/>
<path d="M102.926 99.2708C102.926 99.2708 104.139 100.662 105.242 100.594C106.344 100.526 110.854 98.2785 110.854 98.2785L110.134 96.8849C105.64 96.7603 102.926 99.2708 102.926 99.2708Z" fill="#CE5F49"/>
<path d="M163.744 139.071L152.563 141.307C152.563 141.307 149.463 142.816 148.908 147.094C148.908 147.094 142.072 155.426 141.925 155.683C141.335 156.711 140.987 159.419 142.774 160.774C142.774 160.774 148.229 154.559 149.838 152.946C151.966 150.821 161.002 145.271 163.744 139.071Z" fill="#2E353D"/>
<path d="M141.614 132.993C134.596 133.772 131.058 140.783 131.058 140.783C131.058 140.783 137.528 145.832 133.021 150.522C133.021 150.522 143.285 160.278 146.48 160.987C149.146 161.579 150.535 159.949 150.535 159.949C150.535 159.949 139.889 152.421 141.486 149.756C142.556 147.972 146.795 147.441 146.53 141.51C146.177 133.626 141.614 132.993 141.614 132.993Z" fill="#2E353D"/>
<path d="M151.53 128.774L164.43 136.69C164.43 136.69 163.462 146.974 150.049 147.777C141.473 148.29 131.078 136.79 131.078 136.79L126.609 133.964C130.302 128.774 142.412 133.883 151.53 128.774Z" fill="#FA6142"/>
<path d="M128.596 132.349C122.046 134.983 119.939 142.687 119.939 142.687C119.939 142.687 127.839 145.648 124.756 151.376C124.756 151.376 136.431 158.432 140.243 158.176C143.538 157.956 143.983 156.214 143.983 156.214C143.983 156.214 134.598 153.12 135.195 151.129C135.793 149.138 138.822 147.401 136.973 141.757C134.516 134.252 128.596 132.349 128.596 132.349Z" fill="#FA6142"/>
<path d="M91.7023 129.105C90.807 131.246 96.4918 131.407 100.523 133.725L94.2382 128.975L91.7023 129.105Z" fill="#FA6142"/>
<path d="M129.098 132.826C121.941 135.472 95.2085 118.713 83.8774 127.399C90.312 124.16 111.7 146.372 125.224 136.353L129.098 132.826Z" fill="#FA6142"/>
<path d="M118.568 138.634C117.819 139.113 115.535 140.799 116.349 140.979C118.089 141.364 123.846 138.874 125.948 136.024L118.568 138.634Z" fill="#FA6142"/>
<path d="M111.392 138.77L111.192 138.746C111.116 138.735 111.011 138.722 110.909 138.703C110.806 138.684 110.688 138.662 110.559 138.635C109.878 138.478 109.206 138.284 108.546 138.053C106.941 137.513 104.897 136.679 102.824 135.959C101.816 135.603 100.792 135.3 99.7532 135.049C98.7608 134.82 97.8215 134.691 97.0243 134.718C96.6638 134.727 96.3056 134.778 95.957 134.87C95.6924 134.943 95.4393 135.052 95.2051 135.195C95.0551 135.29 94.9157 135.4 94.7894 135.525L94.6615 135.663L94.6538 135.671C94.6316 135.695 94.6009 135.71 94.5682 135.712C94.5354 135.714 94.5032 135.703 94.4782 135.682C94.4532 135.66 94.4374 135.63 94.4342 135.598C94.431 135.565 94.4405 135.532 94.4608 135.507L94.5898 135.342C94.7196 135.192 94.8652 135.056 95.0242 134.937C95.2721 134.752 95.5445 134.604 95.8335 134.495C96.2059 134.363 96.592 134.273 96.9846 134.228C97.8413 134.124 98.8413 134.176 99.8866 134.325C100.973 134.49 102.049 134.71 103.113 134.986C104.197 135.258 105.266 135.561 106.265 135.841C107.264 136.121 108.189 136.381 108.977 136.574C109.595 136.732 110.22 136.856 110.852 136.945C110.962 136.96 111.057 136.97 111.139 136.976C111.222 136.983 111.277 136.984 111.33 136.988L111.526 136.995C111.646 136.995 111.764 137.019 111.874 137.066C111.985 137.113 112.084 137.181 112.167 137.267C112.25 137.353 112.315 137.455 112.358 137.567C112.401 137.679 112.421 137.798 112.416 137.917C112.412 138.037 112.384 138.154 112.333 138.263C112.283 138.371 112.211 138.468 112.122 138.548C112.033 138.628 111.929 138.689 111.816 138.728C111.703 138.767 111.583 138.783 111.464 138.775C111.444 138.776 111.416 138.773 111.392 138.77Z" fill="#FA6142"/>
<path d="M100.569 137.403L100.599 137.414C100.626 137.426 100.654 137.435 100.683 137.442C100.718 137.448 100.753 137.458 100.809 137.467C100.866 137.476 100.927 137.487 101 137.495C101.146 137.512 101.325 137.529 101.532 137.541C101.738 137.553 101.973 137.563 102.228 137.57C103.252 137.594 104.621 137.559 105.977 137.45C106.317 137.423 106.654 137.392 106.986 137.356C107.318 137.319 107.648 137.278 107.953 137.231C108.258 137.184 108.563 137.135 108.842 137.08C109.121 137.025 109.38 136.97 109.613 136.906L109.944 136.812L110.226 136.716L110.458 136.622L110.633 136.536C110.699 136.502 110.761 136.461 110.819 136.414C110.849 136.388 110.867 136.375 110.867 136.375L110.964 136.308C111.051 136.243 111.15 136.195 111.255 136.169C111.36 136.143 111.47 136.138 111.577 136.155C111.685 136.172 111.787 136.211 111.879 136.269C111.971 136.326 112.05 136.402 112.112 136.491C112.174 136.581 112.218 136.681 112.24 136.788C112.262 136.894 112.262 137.004 112.24 137.11C112.219 137.217 112.176 137.318 112.115 137.407C112.053 137.497 111.974 137.573 111.882 137.631L111.844 137.657L111.685 137.753C111.548 137.833 111.405 137.902 111.256 137.958L110.968 138.055L110.638 138.141L110.274 138.213C110.149 138.233 110.016 138.255 109.879 138.274C109.607 138.309 109.314 138.339 109.007 138.36C108.7 138.381 108.38 138.395 108.049 138.401C107.718 138.406 107.379 138.407 107.033 138.401C106.688 138.394 106.341 138.384 105.993 138.369C104.6 138.304 103.22 138.166 102.19 138.011C101.932 137.972 101.696 137.933 101.488 137.893C101.279 137.852 101.096 137.813 100.946 137.776C100.871 137.759 100.804 137.736 100.745 137.721C100.687 137.705 100.629 137.68 100.587 137.664C100.557 137.653 100.528 137.639 100.501 137.624L100.472 137.609C100.458 137.603 100.446 137.594 100.435 137.583C100.425 137.573 100.417 137.56 100.411 137.546C100.406 137.532 100.403 137.517 100.403 137.501C100.404 137.486 100.407 137.471 100.413 137.458C100.419 137.444 100.428 137.431 100.439 137.421C100.45 137.41 100.463 137.402 100.477 137.397C100.491 137.391 100.506 137.389 100.521 137.389C100.536 137.389 100.551 137.393 100.565 137.399L100.569 137.403Z" fill="#FA6142"/>
<path d="M111.413 141.361L111.486 141.286L111.584 141.194L111.713 141.077C111.907 140.906 112.191 140.674 112.542 140.409C113.407 139.756 114.32 139.169 115.273 138.652C115.537 138.513 115.805 138.376 116.077 138.25C116.348 138.124 116.619 138.007 116.889 137.902C117.024 137.847 117.16 137.801 117.293 137.753C117.425 137.704 117.56 137.664 117.69 137.624C117.953 137.548 118.209 137.483 118.453 137.434C118.696 137.386 118.928 137.355 119.138 137.334L119.438 137.315C119.532 137.315 119.62 137.315 119.7 137.315C119.826 137.315 119.951 137.322 120.077 137.336L120.212 137.347C120.366 137.356 120.515 137.395 120.653 137.463C120.791 137.531 120.913 137.626 121.014 137.742C121.114 137.858 121.19 137.994 121.237 138.14C121.284 138.286 121.301 138.44 121.288 138.593C121.274 138.745 121.23 138.894 121.158 139.03C121.086 139.165 120.988 139.285 120.869 139.382C120.75 139.478 120.612 139.55 120.465 139.593C120.317 139.636 120.163 139.648 120.011 139.63C119.93 139.624 119.851 139.608 119.774 139.584L119.754 139.577L119.685 139.556C119.62 139.532 119.553 139.513 119.485 139.498C119.439 139.488 119.39 139.474 119.332 139.464L119.142 139.433C118.98 139.413 118.818 139.402 118.656 139.399C118.47 139.399 118.264 139.399 118.042 139.416L117.698 139.451C117.58 139.467 117.459 139.48 117.335 139.501C117.087 139.543 116.829 139.591 116.563 139.652C116.297 139.714 116.033 139.784 115.765 139.859C114.772 140.15 113.802 140.515 112.864 140.95C112.478 141.13 112.161 141.293 111.946 141.413L111.804 141.494L111.707 141.553L111.621 141.611C111.588 141.635 111.546 141.645 111.505 141.64C111.464 141.635 111.427 141.615 111.4 141.584C111.374 141.552 111.36 141.511 111.362 141.47C111.364 141.429 111.382 141.39 111.412 141.361H111.413Z" fill="#FA6142"/>
<path d="M113.021 138.763L112.951 138.781L112.841 138.811C112.789 138.826 112.747 138.833 112.695 138.844C112.49 138.886 112.225 138.92 111.923 138.955C111.621 138.989 111.277 139.032 110.922 139.092C110.563 139.148 110.211 139.241 109.871 139.371C109.541 139.507 109.264 139.702 109.112 139.964C109.039 140.082 109.008 140.22 109.022 140.357C109.035 140.494 109.086 140.624 109.168 140.734C109.243 140.834 109.338 140.917 109.448 140.978C109.538 141.027 109.634 141.065 109.734 141.088C109.8 141.105 109.867 141.117 109.934 141.123L110.007 141.13L109.934 141.142C109.865 141.153 109.796 141.159 109.726 141.16C109.614 141.161 109.503 141.148 109.395 141.12C109.246 141.082 109.107 141.013 108.986 140.917C108.836 140.795 108.722 140.635 108.655 140.454C108.573 140.236 108.563 139.998 108.627 139.774C108.694 139.545 108.806 139.333 108.957 139.15C109.106 138.967 109.277 138.805 109.467 138.666C109.822 138.414 110.204 138.201 110.605 138.032C110.975 137.87 111.32 137.739 111.605 137.63C111.889 137.521 112.115 137.432 112.249 137.366C112.276 137.354 112.302 137.34 112.327 137.325C112.346 137.314 112.352 137.309 112.379 137.296L112.443 137.261C112.537 137.202 112.642 137.163 112.752 137.147C112.861 137.13 112.973 137.137 113.08 137.165C113.188 137.193 113.288 137.243 113.375 137.312C113.462 137.381 113.534 137.466 113.587 137.564C113.64 137.661 113.672 137.769 113.682 137.879C113.692 137.99 113.679 138.101 113.644 138.206C113.609 138.312 113.553 138.409 113.479 138.491C113.405 138.574 113.315 138.641 113.214 138.688C113.154 138.721 113.089 138.746 113.021 138.763Z" fill="#FA6142"/>
<path d="M106.334 139.277L106.502 139.167L106.696 139.045C106.769 138.995 106.858 138.95 106.954 138.895C107.05 138.84 107.157 138.785 107.267 138.723L107.623 138.547C107.747 138.485 107.877 138.426 108.009 138.369C108.141 138.312 108.276 138.248 108.413 138.192L108.823 138.029C108.957 137.972 109.093 137.928 109.224 137.88C109.355 137.833 109.481 137.785 109.603 137.747L109.947 137.637C110.16 137.565 110.343 137.527 110.47 137.485L110.671 137.429C110.745 137.405 110.824 137.397 110.902 137.404C110.98 137.411 111.056 137.434 111.125 137.472C111.194 137.509 111.255 137.56 111.304 137.621C111.353 137.682 111.389 137.753 111.41 137.829C111.431 137.904 111.436 137.983 111.426 138.061C111.415 138.139 111.389 138.214 111.349 138.281C111.309 138.349 111.256 138.407 111.192 138.454C111.129 138.5 111.057 138.533 110.98 138.551C110.935 138.563 110.888 138.57 110.842 138.572H110.821H110.629C110.507 138.572 110.332 138.572 110.122 138.588L109.78 138.609C109.658 138.609 109.531 138.631 109.398 138.643C109.266 138.656 109.128 138.667 108.989 138.686L108.568 138.743C108.426 138.762 108.287 138.789 108.147 138.812C108.007 138.835 107.871 138.858 107.74 138.888L107.361 138.969L107.03 139.056C106.926 139.084 106.829 139.105 106.745 139.136L106.525 139.208L106.334 139.277Z" fill="#FA6142"/>
<path d="M149.765 129.768C149.57 129.187 146.966 127.963 147.245 129.683C147.524 131.403 149.765 129.768 149.765 129.768Z" fill="#FA6142"/>
<path d="M164.435 141.646C164.306 141.646 164.18 141.606 164.074 141.532C163.968 141.458 163.888 141.353 163.844 141.231C163.8 141.109 163.795 140.977 163.829 140.852C163.863 140.728 163.935 140.617 164.035 140.534C165.291 139.499 165.767 138.083 165.45 136.325C164.757 132.487 160.219 127.643 155.928 126.162C154.575 125.696 152.686 125.391 151.371 126.556C151.309 126.611 151.238 126.653 151.16 126.68C151.082 126.707 151 126.719 150.917 126.714C150.835 126.709 150.755 126.688 150.68 126.652C150.606 126.616 150.54 126.566 150.485 126.505C150.43 126.443 150.388 126.371 150.361 126.294C150.334 126.216 150.322 126.133 150.327 126.051C150.332 125.969 150.353 125.888 150.389 125.814C150.425 125.74 150.475 125.674 150.536 125.619C151.937 124.372 153.942 124.149 156.338 124.976C161.079 126.61 165.911 131.812 166.686 136.102C167.084 138.307 166.443 140.181 164.833 141.505C164.721 141.596 164.58 141.646 164.435 141.646Z" fill="#2E353D"/>
<path d="M170.981 138.775L170.833 138.759H170.794L170.736 138.751L170.604 138.733C170.494 138.717 170.424 138.702 170.321 138.684C170.122 138.649 169.896 138.601 169.642 138.547L168.809 138.361C167.608 138.088 166.046 137.736 164.497 137.531C164.11 137.482 163.725 137.435 163.347 137.406C162.969 137.378 162.602 137.356 162.244 137.345C161.887 137.333 161.552 137.345 161.238 137.357C161.08 137.363 160.927 137.371 160.781 137.386L160.561 137.404L160.358 137.429L160.163 137.454L159.981 137.485C159.863 137.504 159.75 137.521 159.65 137.546C159.55 137.572 159.451 137.588 159.364 137.609L159.13 137.674C159.058 137.692 158.996 137.712 158.943 137.729L158.81 137.775L158.7 137.811L158.626 137.835C158.428 137.905 158.219 137.936 158.009 137.924C157.8 137.912 157.595 137.858 157.407 137.765C157.219 137.673 157.051 137.544 156.914 137.386C156.776 137.227 156.672 137.043 156.607 136.844C156.542 136.645 156.517 136.435 156.534 136.226C156.552 136.017 156.611 135.814 156.708 135.628C156.805 135.442 156.939 135.278 157.1 135.144C157.262 135.011 157.449 134.912 157.65 134.852L157.713 134.833L157.884 134.784L158.088 134.728C158.169 134.704 158.262 134.68 158.365 134.659L158.708 134.584C158.833 134.559 158.967 134.538 159.111 134.514C159.254 134.49 159.405 134.471 159.565 134.452L159.811 134.424L160.066 134.404L160.331 134.384L160.605 134.374C160.791 134.365 160.981 134.363 161.176 134.364C161.566 134.364 161.972 134.382 162.389 134.409C162.805 134.437 163.229 134.483 163.654 134.541C164.08 134.598 164.508 134.666 164.933 134.741C166.628 135.05 168.255 135.502 169.441 135.832L170.238 136.052C170.471 136.114 170.669 136.163 170.823 136.2L171.011 136.243L171.069 136.255L171.096 136.262L171.131 136.267L171.276 136.288H171.283C171.607 136.337 171.898 136.51 172.096 136.771C172.294 137.032 172.382 137.359 172.342 137.684C172.302 138.009 172.136 138.305 171.881 138.509C171.626 138.714 171.301 138.811 170.975 138.78L170.981 138.775Z" fill="#FA6142"/>
<path d="M163.4 137.183C161.674 138.065 155.572 140.27 153.367 139.585C151.162 138.9 149.137 129.283 149.137 129.283C149.137 129.283 150.631 125.988 153.8 128.707C156.969 131.426 159.357 130.239 159.357 130.239L163.4 137.183Z" fill="#FA6142"/>
<path d="M162.686 142.169C161.499 142.169 160.127 141.694 158.616 140.75C156.566 139.469 154.379 137.378 152.615 135.017C150.116 131.666 148.265 127.434 150.563 125.602C150.627 125.55 150.701 125.51 150.781 125.486C150.861 125.462 150.944 125.455 151.027 125.463C151.11 125.472 151.19 125.497 151.263 125.537C151.335 125.577 151.4 125.631 151.451 125.696C151.503 125.761 151.542 125.836 151.564 125.916C151.587 125.996 151.594 126.08 151.584 126.162C151.574 126.245 151.547 126.325 151.506 126.397C151.465 126.469 151.41 126.533 151.345 126.584C150.069 127.6 151.005 130.76 153.62 134.266C156.818 138.547 161.719 142.152 164.076 140.509C164.144 140.462 164.22 140.428 164.3 140.411C164.381 140.393 164.464 140.391 164.545 140.406C164.626 140.42 164.704 140.451 164.773 140.495C164.843 140.54 164.903 140.597 164.95 140.665C164.997 140.733 165.03 140.809 165.048 140.889C165.066 140.97 165.067 141.053 165.053 141.134C165.038 141.215 165.008 141.293 164.963 141.362C164.919 141.432 164.861 141.492 164.794 141.539C164.174 141.963 163.437 142.184 162.686 142.169Z" fill="#FCD738"/>
<path d="M166.38 135.616L166.331 135.648L166.304 135.665H166.296L166.28 135.674L166.217 135.707C166.173 135.73 166.124 135.754 166.073 135.777L165.991 135.812L165.948 135.83L165.911 135.844C165.572 135.962 165.22 136.036 164.862 136.065C164.118 136.141 163.262 136.113 162.27 136.055C161.278 135.996 160.168 135.897 158.994 135.809C157.82 135.721 156.584 135.64 155.371 135.614C154.216 135.578 153.06 135.612 151.909 135.716C151.001 135.794 150.104 135.97 149.234 136.242C148.938 136.339 148.651 136.458 148.373 136.599C148.19 136.694 148.013 136.802 147.846 136.923C147.752 136.992 147.663 137.065 147.578 137.144C147.525 137.197 147.497 137.223 147.497 137.223L147.459 137.256C147.181 137.504 146.856 137.693 146.503 137.811C146.15 137.929 145.776 137.974 145.405 137.943C145.034 137.913 144.673 137.806 144.344 137.631C144.016 137.456 143.726 137.216 143.493 136.926C143.26 136.635 143.089 136.3 142.99 135.941C142.891 135.582 142.866 135.207 142.916 134.838C142.967 134.469 143.092 134.114 143.285 133.795C143.477 133.476 143.732 133.2 144.035 132.983L144.312 132.784C144.572 132.606 144.84 132.443 145.117 132.294C145.525 132.077 145.948 131.889 146.382 131.733C146.906 131.547 147.444 131.4 147.989 131.292C149.228 131.058 150.489 130.957 151.749 130.993C153.082 131.028 154.411 131.143 155.729 131.336C157.045 131.52 158.327 131.756 159.509 131.985C160.691 132.214 161.774 132.436 162.675 132.598C163.124 132.679 163.529 132.744 163.87 132.788C164.21 132.832 164.486 132.853 164.667 132.858C164.848 132.864 164.927 132.852 164.887 132.874H164.876L164.858 132.881L164.822 132.897C164.8 132.908 164.78 132.92 164.763 132.931L164.739 132.949C164.732 132.949 164.739 132.949 164.739 132.949H164.747L164.776 132.934L164.828 132.909H164.839C165.195 132.733 165.604 132.699 165.984 132.815C166.364 132.931 166.685 133.188 166.882 133.532C167.079 133.877 167.137 134.284 167.044 134.67C166.951 135.056 166.715 135.392 166.382 135.609L166.38 135.616Z" fill="#FF9688"/>
<path d="M144.708 107.819C143.983 110.692 148.034 117.558 156.713 122.555L165.877 119.682C165.417 114.086 147.026 110.137 144.708 107.819Z" fill="#D83A21"/>
<path d="M152.777 129.636C152.673 128.485 153.375 121.092 160.646 119.837C167.916 118.582 168.387 121.059 168.387 121.059C168.387 121.059 170.57 126.25 171.407 126.721C172.244 127.191 178.623 126.93 178.623 126.93C178.623 126.93 179.934 129.346 178.337 131.323C175.381 134.983 172.494 135.41 168.452 135.253C164.41 135.097 152.777 129.636 152.777 129.636Z" fill="#FA6142"/>
<path d="M162.356 119.594C158.849 116.075 139.018 110.847 137.555 114.932C137.199 115.924 141.239 117.274 144.867 119.836C149.252 122.933 153.895 126.708 157.261 125.781C160.303 123.722 165.031 122.269 162.356 119.594Z" fill="#FA6142"/>
<path d="M161.168 123.166C159.369 122.84 148.032 111.29 137.654 114.722C137.615 114.789 137.581 114.859 137.555 114.932C137.199 115.924 141.239 117.274 144.867 119.836C149.252 122.933 153.895 126.708 157.261 125.781C158.546 124.911 160.055 124.061 161.168 123.166Z" fill="#FF9688"/>
<path d="M159.156 124.916L159.097 124.857L159.046 124.805C159.032 124.789 158.996 124.759 158.966 124.729C158.832 124.61 158.622 124.435 158.356 124.232C157.697 123.732 157.007 123.273 156.291 122.859C156.094 122.749 155.896 122.639 155.697 122.535C155.499 122.431 155.302 122.337 155.108 122.251C154.914 122.165 154.725 122.083 154.542 122.017C154.359 121.951 154.184 121.891 154.021 121.844C153.857 121.796 153.704 121.762 153.567 121.734C153.449 121.711 153.33 121.696 153.21 121.686C153.132 121.678 153.054 121.675 152.975 121.676H152.893L152.973 121.657C153.05 121.637 153.128 121.622 153.207 121.61C153.329 121.59 153.453 121.577 153.577 121.57C153.722 121.563 153.885 121.56 154.062 121.57C154.24 121.58 154.435 121.591 154.638 121.617C154.841 121.642 155.055 121.673 155.274 121.714C155.494 121.754 155.715 121.802 155.949 121.857C156.183 121.912 156.408 121.967 156.636 122.04C157.479 122.285 158.307 122.584 159.112 122.934C159.443 123.079 159.723 123.212 159.924 123.32C159.975 123.348 160.016 123.368 160.065 123.397L160.175 123.463L160.247 123.506C160.353 123.564 160.447 123.642 160.523 123.737C160.598 123.832 160.654 123.941 160.686 124.058C160.719 124.174 160.727 124.297 160.711 124.417C160.695 124.537 160.655 124.652 160.593 124.757C160.531 124.861 160.449 124.951 160.351 125.023C160.253 125.094 160.142 125.145 160.024 125.173C159.906 125.2 159.783 125.203 159.664 125.182C159.545 125.161 159.431 125.116 159.329 125.05C159.269 125.015 159.213 124.972 159.163 124.922L159.156 124.916Z" fill="#FA6142"/>
<path d="M158.763 126.339L158.521 126.176C158.447 126.127 158.361 126.065 158.254 125.999C158.147 125.933 158.034 125.853 157.896 125.772C157.248 125.367 156.577 124.999 155.887 124.67C155.699 124.576 155.508 124.496 155.319 124.41C155.131 124.324 154.941 124.254 154.758 124.19C154.575 124.126 154.394 124.057 154.222 124.009L153.97 123.933C153.888 123.912 153.809 123.894 153.732 123.876L153.511 123.824L153.309 123.791C153.2 123.77 153.09 123.756 152.979 123.749L152.685 123.729L152.975 123.672C153.087 123.65 153.201 123.635 153.315 123.627L153.525 123.606L153.76 123.598C153.842 123.598 153.928 123.598 154.017 123.598L154.291 123.607C154.48 123.607 154.677 123.629 154.883 123.645C155.089 123.662 155.298 123.694 155.514 123.72C155.731 123.747 155.947 123.785 156.161 123.831C156.955 123.981 157.74 124.175 158.512 124.412C158.672 124.459 158.817 124.506 158.946 124.547C159.075 124.588 159.19 124.63 159.285 124.657L159.566 124.756C159.679 124.793 159.784 124.853 159.873 124.932C159.963 125.01 160.036 125.106 160.088 125.212C160.141 125.319 160.171 125.436 160.178 125.554C160.186 125.673 160.169 125.792 160.13 125.905C160.091 126.017 160.03 126.121 159.95 126.209C159.871 126.298 159.775 126.37 159.667 126.421C159.56 126.472 159.443 126.501 159.324 126.507C159.205 126.513 159.086 126.495 158.974 126.455C158.902 126.429 158.833 126.395 158.769 126.352L158.763 126.339Z" fill="#FA6142"/>
<path d="M124.532 143.818C124.532 143.818 124.581 143.915 124.665 144.087L124.735 144.228C124.762 144.285 124.792 144.362 124.824 144.435C124.897 144.598 124.959 144.765 125.009 144.936C125.035 145.026 125.063 145.12 125.091 145.216C125.12 145.312 125.132 145.418 125.154 145.522C125.195 145.741 125.222 145.962 125.236 146.184C125.236 146.294 125.236 146.416 125.236 146.534C125.236 146.593 125.236 146.652 125.236 146.711C125.236 146.769 125.224 146.83 125.218 146.889C125.194 147.127 125.155 147.362 125.1 147.594C125.041 147.819 124.967 148.04 124.88 148.256C124.84 148.362 124.794 148.465 124.742 148.565C124.691 148.665 124.643 148.764 124.591 148.858C124.49 149.035 124.38 149.206 124.26 149.371L124.092 149.597L123.92 149.795C123.822 149.91 123.717 150.021 123.607 150.125L123.473 150.257L123.351 150.36L123.122 150.554L123.299 150.312C123.327 150.274 123.358 150.232 123.391 150.186C123.422 150.138 123.454 150.085 123.489 150.03C123.57 149.907 123.643 149.781 123.71 149.65L123.82 149.43C123.854 149.351 123.888 149.27 123.93 149.186C124.003 149.012 124.066 148.835 124.12 148.655C124.145 148.561 124.166 148.465 124.189 148.369C124.214 148.273 124.232 148.175 124.243 148.076C124.274 147.878 124.291 147.679 124.296 147.479C124.295 147.284 124.281 147.089 124.253 146.895C124.247 146.848 124.241 146.801 124.235 146.755C124.228 146.709 124.214 146.662 124.204 146.617C124.181 146.527 124.164 146.438 124.139 146.352C124.089 146.19 124.028 146.031 123.957 145.876C123.923 145.802 123.894 145.731 123.858 145.664L123.747 145.476C123.688 145.372 123.621 145.272 123.547 145.178C123.516 145.136 123.493 145.101 123.462 145.06L123.36 144.939L123.168 144.709C123.096 144.626 123.041 144.529 123.006 144.424C122.971 144.32 122.958 144.209 122.966 144.099C122.975 143.989 123.006 143.882 123.056 143.784C123.107 143.686 123.177 143.599 123.261 143.529C123.346 143.458 123.444 143.405 123.55 143.373C123.655 143.341 123.766 143.33 123.876 143.342C123.985 143.353 124.092 143.386 124.188 143.439C124.285 143.492 124.37 143.564 124.439 143.65C124.482 143.698 124.519 143.752 124.549 143.809L124.532 143.818Z" fill="#FA6142"/>
<path d="M161.046 124.037L160.889 123.9C160.839 123.854 160.779 123.813 160.715 123.759C160.651 123.705 160.571 123.649 160.48 123.581C160.303 123.45 160.086 123.305 159.851 123.15C159.616 122.996 159.36 122.837 159.103 122.678C158.588 122.362 158.066 122.052 157.681 121.807C157.585 121.745 157.497 121.691 157.421 121.636C157.345 121.582 157.277 121.538 157.224 121.496L157.155 121.442L157.108 121.396L157.068 121.359L157.113 121.391L157.165 121.428L157.242 121.471C157.298 121.504 157.371 121.539 157.454 121.581C157.536 121.623 157.631 121.664 157.734 121.711C158.147 121.896 158.707 122.125 159.266 122.364C159.546 122.483 159.825 122.606 160.087 122.726C160.348 122.846 160.589 122.962 160.797 123.072C160.9 123.125 160.995 123.176 161.082 123.227C161.169 123.279 161.249 123.322 161.303 123.358L161.478 123.468C161.558 123.519 161.614 123.6 161.634 123.692C161.655 123.785 161.637 123.882 161.586 123.962C161.535 124.042 161.454 124.098 161.362 124.118C161.269 124.138 161.172 124.121 161.092 124.07C161.078 124.061 161.064 124.051 161.051 124.04L161.046 124.037Z" fill="#FA6142"/>
<path d="M178.624 126.929C178.624 126.929 176.088 127.032 173.993 126.992C173.914 127.844 172.901 131.526 176.036 133.556C181.234 130.655 178.624 126.929 178.624 126.929Z" fill="#2E353D"/>
<path d="M56.8634 162.26C56.8426 162.26 56.8219 162.258 56.8016 162.254C51.3042 161.186 46.7947 159.242 43.3977 156.477C40.4208 154.052 38.3645 151.075 37.273 147.614C36.2852 144.441 36.1517 141.063 36.886 137.822C37.5596 134.81 38.9268 132.119 40.735 130.248C42.9953 127.909 46.1806 126.397 49.947 125.877C52.1075 125.587 54.2987 125.612 56.4521 125.95C55.2503 123.434 54.5557 120.378 55.5226 117.948C56.5028 115.485 58.9549 114.089 62.8106 113.813C71.2364 113.199 78.176 117.468 84.8884 121.598C90.4211 125.001 96.0728 128.478 102.694 129.375C102.473 129.138 102.263 128.906 102.064 128.682C99.1005 125.34 97.1599 121.001 96.5998 116.464C96.0563 112.054 96.8203 107.731 98.7609 104.283C100.304 101.537 102.557 99.4316 105.28 98.1857C108.307 96.8031 111.851 96.4635 115.812 97.1768C118.876 97.7281 121.573 99.3919 123.613 101.987C125.508 104.4 126.724 107.524 127.031 110.786C127.374 114.367 126.649 117.842 124.936 120.832C123.029 124.164 119.938 126.732 115.994 128.256C111.747 129.898 107.906 130.422 104.351 130.193C113.38 139.278 131.364 150.885 146.122 150.26C153.201 149.96 158.928 146.944 163.141 141.296C163.166 141.263 163.197 141.234 163.233 141.213C163.269 141.192 163.309 141.178 163.35 141.172C163.391 141.166 163.433 141.168 163.474 141.178C163.514 141.188 163.552 141.207 163.586 141.231C163.619 141.256 163.647 141.288 163.669 141.324C163.69 141.36 163.704 141.399 163.71 141.441C163.716 141.482 163.714 141.524 163.704 141.564C163.693 141.605 163.675 141.643 163.65 141.676C159.317 147.486 153.429 150.587 146.148 150.896C136.849 151.289 127.271 147.043 120.875 143.411C113.305 139.111 107.125 133.967 103.385 130.113C96.3253 129.379 90.3714 125.716 84.5499 122.139C77.6192 117.876 71.0765 113.85 62.8525 114.447C59.2603 114.709 56.9924 115.966 56.1092 118.183C55.1908 120.492 55.9582 123.592 57.2283 126.085C58.2126 126.272 59.1832 126.524 60.1336 126.841C63.0973 127.834 64.8911 129.201 64.9319 130.499C64.9485 131.05 64.6243 131.51 64.0642 131.737C62.9242 132.2 60.7753 131.692 58.752 129.478C57.9942 128.622 57.342 127.678 56.8093 126.666C51.517 125.753 45.1486 126.597 41.1926 130.69C37.9753 134.02 35.8043 140.834 37.8849 147.422C40.1595 154.64 46.9259 159.686 56.9273 161.63C57.0042 161.645 57.0725 161.689 57.1191 161.752C57.1658 161.815 57.1875 161.893 57.1801 161.972C57.1727 162.05 57.1368 162.122 57.0792 162.176C57.0215 162.229 56.9462 162.259 56.8678 162.26H56.8634ZM57.6252 126.818C58.0764 127.615 58.6109 128.361 59.2195 129.044C61.1612 131.168 63.0366 131.463 63.8228 131.139C64.0433 131.05 64.3046 130.867 64.2935 130.51C64.2704 129.759 63.1127 128.502 59.9285 127.436C59.1732 127.186 58.4042 126.98 57.6252 126.818ZM103.666 129.484C107.349 129.834 111.336 129.374 115.767 127.658C124.468 124.294 126.962 116.766 126.397 110.842C125.749 104.077 121.448 98.8351 115.692 97.7987C108.438 96.4921 102.461 98.9674 99.3088 104.589C95.3176 111.695 96.6737 121.648 102.533 128.255C102.891 128.661 103.27 129.072 103.668 129.489L103.666 129.484Z" fill="#84B8FF"/>
<path d="M148.492 131.081L148.39 131.106L148.262 131.137L148.041 131.181C148 131.189 147.955 131.199 147.912 131.205L147.79 131.221C147.705 131.232 147.613 131.244 147.516 131.254C147.324 131.268 147.107 131.291 146.874 131.296C146.642 131.3 146.392 131.305 146.127 131.302C145.996 131.302 145.86 131.291 145.723 131.287C145.587 131.283 145.446 131.275 145.303 131.259L144.871 131.221L144.43 131.164C144.135 131.13 143.839 131.065 143.548 131.015C143.401 130.985 143.255 130.949 143.107 130.915C142.959 130.882 142.816 130.853 142.675 130.805L142.255 130.684C142.185 130.663 142.117 130.645 142.049 130.622L141.849 130.553C141.585 130.459 141.33 130.377 141.097 130.273L140.755 130.129C140.7 130.106 140.645 130.084 140.593 130.06L140.441 129.985L139.902 129.717C139.745 129.631 139.612 129.549 139.501 129.487L139.154 129.284L139.532 129.417C139.654 129.458 139.797 129.512 139.965 129.566L140.536 129.724L140.696 129.768C140.75 129.781 140.806 129.792 140.863 129.804L141.216 129.877C141.455 129.934 141.714 129.965 141.979 130.005L142.179 130.035C142.246 130.043 142.314 130.048 142.383 130.054L142.797 130.092C142.936 130.107 143.077 130.106 143.218 130.114C143.359 130.122 143.501 130.126 143.642 130.127C143.925 130.121 144.206 130.127 144.483 130.106L144.892 130.082L145.289 130.041C145.42 130.03 145.547 130.01 145.67 129.992C145.794 129.973 145.916 129.958 146.033 129.936C146.267 129.892 146.487 129.853 146.686 129.803C146.884 129.753 147.062 129.706 147.22 129.664L147.43 129.596L147.524 129.565L147.589 129.537L147.699 129.494C147.733 129.481 147.78 129.458 147.809 129.446L147.904 129.402H147.915C148.131 129.303 148.377 129.293 148.599 129.376C148.822 129.458 149.002 129.626 149.101 129.841C149.2 130.057 149.209 130.303 149.127 130.525C149.045 130.747 148.877 130.928 148.662 131.027C148.607 131.051 148.55 131.069 148.492 131.081Z" fill="#FA6142"/>
<path d="M170.055 127L170.032 126.93C170.024 126.904 170.014 126.872 170.002 126.835L169.96 126.693C169.932 126.591 169.907 126.485 169.876 126.362C169.845 126.238 169.814 126.091 169.786 125.935C169.757 125.78 169.722 125.604 169.692 125.431C169.662 125.258 169.635 125.063 169.605 124.868C169.575 124.673 169.555 124.47 169.532 124.264C169.509 124.057 169.49 123.849 169.483 123.638L169.466 123.324C169.466 123.214 169.466 123.115 169.466 123.012C169.466 122.91 169.466 122.806 169.466 122.705C169.466 122.603 169.474 122.504 169.477 122.405C169.477 122.21 169.506 122.019 169.52 121.84C169.527 121.753 169.538 121.666 169.554 121.58C169.568 121.496 169.581 121.416 169.594 121.339C169.601 121.3 169.607 121.262 169.613 121.228C169.618 121.194 169.631 121.155 169.64 121.118L169.69 120.922C169.706 120.861 169.719 120.803 169.736 120.751L169.788 120.61L169.887 120.344C169.887 120.344 169.87 120.445 169.84 120.623C169.832 120.667 169.823 120.716 169.814 120.768C169.806 120.821 169.807 120.879 169.802 120.942C169.798 121.004 169.795 121.069 169.79 121.138C169.79 121.172 169.788 121.208 169.784 121.248C169.784 121.284 169.784 121.322 169.784 121.358C169.784 121.433 169.784 121.513 169.784 121.594C169.784 121.679 169.788 121.763 169.798 121.847C169.817 122.02 169.824 122.201 169.859 122.388C169.873 122.481 169.887 122.576 169.903 122.672C169.918 122.767 169.94 122.864 169.959 122.961C169.978 123.059 169.996 123.156 170.02 123.254C170.043 123.352 170.067 123.449 170.091 123.547C170.136 123.742 170.201 123.935 170.25 124.125C170.299 124.314 170.36 124.5 170.425 124.676C170.49 124.852 170.544 125.027 170.607 125.186C170.67 125.346 170.725 125.5 170.781 125.637C170.838 125.775 170.892 125.901 170.939 126.012C170.987 126.124 171.032 126.22 171.065 126.287L171.107 126.367L171.124 126.401L171.143 126.437L171.178 126.502L171.187 126.516C171.259 126.66 171.273 126.825 171.225 126.979C171.178 127.132 171.072 127.261 170.932 127.338C170.791 127.415 170.626 127.435 170.471 127.393C170.316 127.35 170.183 127.25 170.101 127.112C170.083 127.076 170.067 127.039 170.055 127Z" fill="#FA6142"/>
<path d="M107.43 102.411C105.566 102.216 105.821 99.3535 105.821 99.3535L107.575 99.9368L107.43 102.411Z" fill="#CE5F49"/>
<path d="M110.603 101.932C108.349 102.906 106.791 98.8353 106.791 98.8353L108.76 98.6379L110.603 101.932Z" fill="#CE5F49"/>
<path d="M109.878 97.6797C109.897 97.485 109.98 97.302 110.115 97.1597C110.249 97.0174 110.427 96.9238 110.62 96.8936C110.813 96.8634 111.011 96.8984 111.182 96.993C111.354 97.0876 111.489 97.2365 111.566 97.4162L112.365 99.1958C112.413 99.3019 112.439 99.4164 112.443 99.5327C112.446 99.6489 112.427 99.7647 112.385 99.8735C112.344 99.9822 112.282 100.082 112.202 100.166C112.122 100.251 112.026 100.319 111.92 100.367C111.814 100.414 111.699 100.441 111.583 100.444C111.467 100.447 111.351 100.428 111.242 100.386C111.134 100.345 111.034 100.283 110.949 100.203C110.865 100.123 110.797 100.027 110.749 99.9212L109.951 98.1417C109.886 97.9969 109.861 97.8375 109.878 97.6797Z" fill="#FFAD94"/>
<path d="M108.978 101.254L107.847 97.52C107.778 97.2956 107.801 97.053 107.911 96.8455C108.021 96.638 108.209 96.4826 108.433 96.4136C108.658 96.3446 108.9 96.3676 109.108 96.4775C109.315 96.5874 109.471 96.7752 109.54 96.9996L111.094 100.605C111.143 100.743 111.163 100.888 111.155 101.034C111.147 101.179 111.111 101.322 111.048 101.454C110.985 101.585 110.896 101.703 110.788 101.8C110.679 101.897 110.553 101.972 110.415 102.021C110.278 102.069 110.132 102.09 109.986 102.082C109.841 102.074 109.698 102.037 109.567 101.974C109.435 101.911 109.317 101.823 109.22 101.714C109.123 101.606 109.048 101.479 108.999 101.342C108.995 101.314 108.986 101.283 108.978 101.254Z" fill="#FFAD94"/>
<path d="M106.411 101.42L106.238 98.1593C106.221 98.0444 106.226 97.9272 106.253 97.8143C106.281 97.7014 106.331 97.595 106.399 97.5013C106.468 97.4076 106.555 97.3283 106.654 97.268C106.753 97.2077 106.864 97.1676 106.979 97.1499C107.094 97.1323 107.211 97.1374 107.324 97.165C107.437 97.1927 107.543 97.2423 107.637 97.3111C107.73 97.3798 107.81 97.4664 107.87 97.5657C107.93 97.6651 107.97 97.7754 107.988 97.8903L108.599 101.088C108.628 101.23 108.628 101.377 108.601 101.52C108.573 101.663 108.517 101.799 108.437 101.92C108.356 102.042 108.253 102.146 108.132 102.227C108.012 102.309 107.876 102.365 107.733 102.394C107.591 102.423 107.444 102.424 107.301 102.396C107.158 102.368 107.022 102.312 106.901 102.232C106.78 102.152 106.675 102.048 106.594 101.928C106.513 101.807 106.456 101.671 106.427 101.529C106.42 101.488 106.415 101.453 106.411 101.42Z" fill="#FFAD94"/>
<path d="M106.306 98.4594L106.342 100.361C106.382 100.617 106.319 100.879 106.167 101.088C106.014 101.298 105.785 101.438 105.529 101.479C105.273 101.519 105.011 101.456 104.802 101.304C104.592 101.151 104.452 100.922 104.411 100.666C104.406 100.625 104.402 100.585 104.4 100.544L104.752 98.606C104.746 98.4072 104.815 98.2134 104.947 98.0642C105.078 97.915 105.262 97.8215 105.46 97.8028C105.658 97.7841 105.856 97.8416 106.013 97.9636C106.17 98.0856 106.275 98.2629 106.306 98.4594Z" fill="#FFAD94"/>
<path d="M158.006 145.654L146.847 142.884C146.847 142.884 143.475 143.604 141.91 147.625C142.487 147.209 134.219 152.858 132.603 154.388C131.742 155.203 131.261 157.688 132.671 159.432C132.671 159.432 139.458 154.709 141.407 153.533C143.984 151.977 155.264 147.796 158.006 145.654Z" fill="#FA6142"/>
<path d="M166.131 143.67C166.837 144.411 167.057 145.346 166.624 145.765C166.191 146.184 165.268 145.913 164.562 145.173C163.856 144.433 163.635 143.498 164.068 143.085C164.501 142.671 165.425 142.93 166.131 143.67Z" fill="#FCD738"/>
<path d="M164.672 144.004C164.614 144.004 164.558 143.989 164.508 143.959C164.458 143.929 164.418 143.887 164.391 143.836C164.27 143.608 164.226 143.295 164.179 142.962C164.048 142.035 163.923 141.737 163.442 141.8C163.399 141.808 163.355 141.808 163.313 141.798C163.27 141.789 163.23 141.771 163.195 141.746C163.16 141.72 163.13 141.688 163.108 141.651C163.086 141.614 163.071 141.572 163.066 141.529C163.06 141.486 163.063 141.442 163.075 141.401C163.087 141.359 163.107 141.32 163.134 141.286C163.161 141.253 163.195 141.225 163.234 141.205C163.272 141.185 163.315 141.173 163.358 141.17C164.546 141.012 164.711 142.177 164.809 142.874C164.846 143.136 164.884 143.408 164.952 143.536C164.978 143.584 164.991 143.638 164.99 143.693C164.988 143.748 164.973 143.802 164.945 143.849C164.916 143.896 164.876 143.935 164.829 143.962C164.781 143.989 164.727 144.003 164.672 144.003V144.004Z" fill="#FCD738"/>
<path d="M132.024 155.352L134.891 157.777L135.302 157.62L135.999 157.141C134.728 156.64 133.357 156.01 132.024 155.352Z" fill="#2E353D"/>
<path d="M157.305 135.262C157.525 135.685 157.8 136.195 158.07 136.805C158.14 136.957 158.213 137.112 158.291 137.272C158.364 137.432 158.429 137.603 158.502 137.772C158.575 137.942 158.648 138.12 158.723 138.3L158.833 138.574L158.943 138.857C159.084 139.241 159.243 139.629 159.384 140.051C159.525 140.474 159.678 140.897 159.818 141.342C159.958 141.788 160.103 142.247 160.237 142.72C160.37 143.193 160.512 143.672 160.635 144.167C160.757 144.662 160.895 145.16 161.009 145.674C161.124 146.189 161.25 146.702 161.357 147.227C161.413 147.488 161.467 147.752 161.524 148.015C161.582 148.279 161.627 148.546 161.678 148.811C161.788 149.342 161.875 149.879 161.97 150.413C162.065 150.948 162.145 151.487 162.233 152.021C162.321 152.554 162.39 153.09 162.467 153.62C162.61 154.68 162.744 155.725 162.851 156.739C162.958 157.752 163.055 158.733 163.137 159.664C163.22 160.594 163.282 161.475 163.334 162.289C163.444 163.915 163.498 165.266 163.533 166.223C163.55 166.7 163.563 167.075 163.573 167.331C163.581 167.48 163.586 167.595 163.589 167.672V167.729H165.133C165.135 167.692 165.135 167.656 165.133 167.619V167.578C165.133 167.578 165.133 167.544 165.121 167.479C165.109 167.414 165.11 167.343 165.1 167.236C165.08 166.982 165.05 166.608 165.012 166.134C164.935 165.177 164.814 163.809 164.636 162.173C164.548 161.355 164.44 160.47 164.32 159.535C164.201 158.6 164.062 157.615 163.904 156.6C163.745 155.584 163.573 154.536 163.378 153.473C163.276 152.943 163.174 152.409 163.071 151.872C162.961 151.337 162.851 150.799 162.74 150.264C162.63 149.73 162.506 149.193 162.374 148.662C162.31 148.397 162.248 148.132 162.184 147.867C162.12 147.603 162.049 147.342 161.981 147.08C161.851 146.558 161.705 146.042 161.562 145.537C161.418 145.032 161.264 144.528 161.121 144.036C160.977 143.544 160.807 143.066 160.655 142.596C160.504 142.126 160.325 141.673 160.174 141.229C160.023 140.785 159.843 140.362 159.68 139.949C159.517 139.535 159.341 139.146 159.182 138.768L159.062 138.488L158.935 138.218L158.691 137.696C158.61 137.528 158.537 137.366 158.456 137.203L158.218 136.746C157.921 136.148 157.621 135.643 157.384 135.234C157.274 135.025 157.149 134.847 157.053 134.691L156.799 134.295L156.586 133.964C156.586 133.964 156.655 134.082 156.783 134.304L157.021 134.711C157.089 134.867 157.199 135.047 157.305 135.262Z" fill="#84B8FF"/>
<path d="M157.951 154.052C158.05 154.227 158.172 154.44 158.289 154.693C158.353 154.817 158.415 154.952 158.477 155.096C158.539 155.239 158.608 155.389 158.669 155.55C158.729 155.711 158.799 155.881 158.86 156.049L158.954 156.315L159.043 156.592C159.165 156.965 159.273 157.364 159.373 157.778C159.474 158.193 159.567 158.625 159.647 159.067C159.726 159.509 159.796 159.959 159.856 160.41C160.056 162.07 160.153 163.741 160.147 165.412C160.147 166.103 160.147 166.678 160.147 167.081C160.147 167.288 160.147 167.452 160.147 167.564C160.147 167.675 160.147 167.729 160.147 167.729H161.685C161.688 167.695 161.688 167.661 161.685 167.626C161.685 167.626 161.679 167.569 161.666 167.462C161.652 167.355 161.638 167.204 161.617 167.01C161.576 166.607 161.518 166.031 161.447 165.34C161.275 163.634 160.997 161.94 160.616 160.268C160.506 159.814 160.395 159.36 160.26 158.919C160.124 158.478 159.991 158.046 159.844 157.635C159.697 157.224 159.541 156.828 159.378 156.462L159.258 156.192L159.134 155.932C159.055 155.761 158.971 155.601 158.888 155.445C158.805 155.29 158.727 155.144 158.647 155.004C158.566 154.864 158.492 154.736 158.414 154.617C158.267 154.376 158.125 154.176 158.008 154.01C157.891 153.843 157.788 153.722 157.725 153.635L157.624 153.504L157.711 153.645C157.765 153.741 157.855 153.871 157.951 154.052Z" fill="#84B8FF"/>
<path d="M115.519 78.16C115.254 77.9371 114.949 77.7672 114.62 77.6594C114.049 77.4641 113.439 77.4148 112.844 77.5161C112.352 77.5952 111.871 77.7302 111.411 77.9185C110.917 78.121 110.456 78.3948 110.042 78.7311C109.248 79.358 108.55 80.0976 107.969 80.9263C107.796 81.1902 107.608 81.4438 107.406 81.686C107.093 82.0572 106.709 82.3633 106.278 82.5868L106.211 82.6188C106.211 82.6217 106.211 82.6247 106.211 82.6276C106.321 82.664 106.438 82.7026 106.554 82.7379C107.065 82.8801 107.575 83.0278 108.09 83.159C108.41 83.2417 108.737 83.3123 109.064 83.3652C109.446 83.4338 109.84 83.355 110.167 83.1447C110.372 83.0076 110.553 82.8377 110.704 82.6419C110.855 82.4758 110.993 82.2977 111.116 82.1094C111.267 81.8412 111.391 81.5587 111.485 81.2659C111.537 81.1138 111.58 80.9572 111.628 80.8029C111.631 80.7902 111.639 80.7792 111.65 80.772C111.678 81.2516 111.708 81.7312 111.738 82.2208C111.805 82.1612 111.865 82.1105 111.928 82.0532C112.412 81.6485 112.975 81.3482 113.581 81.1711C114.103 81.0278 114.606 80.8227 115.079 80.5603C115.287 80.4469 115.476 80.3006 115.638 80.127C115.763 79.9923 115.859 79.8336 115.921 79.6606C115.983 79.4875 116.01 79.3037 115.998 79.1202C115.987 78.9367 115.939 78.7574 115.857 78.5931C115.774 78.4288 115.659 78.283 115.519 78.1644V78.16Z" fill="#84B8FF"/>
<path d="M109.656 81.5031L109.937 81.2473C110.025 81.1657 110.137 81.0709 110.267 80.9584C110.397 80.8459 110.543 80.7291 110.702 80.5957C110.86 80.4623 111.041 80.3277 111.24 80.1965C111.339 80.1293 111.437 80.0554 111.544 79.9904L111.875 79.7897C112.108 79.6555 112.348 79.5337 112.594 79.4247C112.719 79.3657 112.848 79.313 112.979 79.2671C113.11 79.2208 113.241 79.1689 113.374 79.1281L113.78 79.0179C113.848 78.999 113.916 78.9839 113.985 78.9727L114.19 78.9352L114.393 78.8977C114.461 78.8845 114.53 78.8823 114.597 78.8735L114.997 78.8338C115.13 78.8249 115.259 78.8271 115.387 78.8238C115.514 78.8205 115.639 78.8128 115.759 78.8238L116.111 78.8459C116.221 78.8547 116.331 78.8547 116.442 78.8735L117.013 78.9528C117.183 78.9804 117.327 79.0168 117.454 79.041L117.832 79.1215C117.862 79.1279 117.89 79.1401 117.915 79.1574C117.941 79.1748 117.962 79.1969 117.979 79.2225C117.995 79.2482 118.007 79.2768 118.012 79.3069C118.018 79.337 118.018 79.3678 118.011 79.3977C118.005 79.4276 117.993 79.456 117.975 79.4812C117.958 79.5063 117.936 79.5279 117.91 79.5445C117.885 79.5611 117.856 79.5726 117.826 79.5781C117.796 79.5837 117.765 79.5833 117.735 79.5769H117.724H117.709L117.35 79.481C117.24 79.4512 117.098 79.4082 116.937 79.3707L116.394 79.2604C116.295 79.2373 116.19 79.2329 116.082 79.2186L115.751 79.1789C115.641 79.1623 115.517 79.1678 115.395 79.1601C115.274 79.1524 115.149 79.1491 115.023 79.1502L114.638 79.1689C114.573 79.1689 114.507 79.1689 114.442 79.1811L114.245 79.2064L114.046 79.2329C113.979 79.2395 113.913 79.2506 113.847 79.266L113.45 79.3509C113.319 79.3839 113.19 79.428 113.06 79.4611C112.931 79.499 112.804 79.5439 112.68 79.5956C112.434 79.6889 112.193 79.7953 111.959 79.9143L111.628 80.0951C111.518 80.1535 111.418 80.2208 111.317 80.2814C111.114 80.4016 110.935 80.5361 110.766 80.6497C110.596 80.7632 110.446 80.8834 110.315 80.9871C110.184 81.0907 110.067 81.1811 109.974 81.2583L109.656 81.5031Z" fill="#3984FF"/>
</g>
<defs>
<clipPath id="clip0_2189_11281">
<rect width="220" height="168" fill="white"/>
</clipPath>
</defs>
</svg>
