<svg width="220" height="139" viewBox="0 0 220 139" fill="none" xmlns="http://www.w3.org/2000/svg">
<path d="M192.741 137.679C192.842 138.08 192.92 138.395 192.973 138.61L193 138.721H193.014C193.014 138.713 193.014 138.709 193.014 138.721H194.393C194.393 138.705 194.393 138.684 194.393 138.664C194.388 138.617 194.381 138.57 194.371 138.523C194.352 138.448 194.327 138.353 194.295 138.248L194.024 137.336C193.803 136.564 193.5 135.441 193.239 134.078C192.939 132.525 192.751 130.952 192.676 129.372C192.591 127.557 192.681 125.738 192.945 123.941C193.084 123.027 193.273 122.122 193.511 121.229C193.743 120.363 194.026 119.511 194.359 118.678C194.67 117.897 195.024 117.135 195.421 116.394C195.776 115.727 196.166 115.08 196.589 114.455C196.781 114.161 196.984 113.892 197.168 113.631C197.352 113.369 197.543 113.13 197.726 112.911C197.909 112.691 198.072 112.479 198.238 112.295C198.403 112.111 198.546 111.934 198.687 111.785L199.06 111.381L199.343 111.091L199.581 110.85L199.332 111.08L199.036 111.357L198.644 111.744C198.496 111.887 198.341 112.054 198.17 112.235C197.999 112.416 197.82 112.615 197.628 112.829C197.436 113.043 197.244 113.281 197.035 113.527C196.825 113.773 196.62 114.043 196.413 114.331C195.956 114.943 195.532 115.579 195.142 116.236C194.705 116.97 194.309 117.729 193.956 118.507C193.579 119.342 193.25 120.198 192.972 121.071C192.686 121.976 192.45 122.896 192.265 123.827C191.908 125.662 191.73 127.528 191.732 129.397C191.734 131.03 191.854 132.66 192.09 134.276C192.29 135.696 192.547 136.866 192.741 137.679Z" fill="#84B8FF"/>
<path d="M179.667 138.724C179.667 138.687 179.673 138.65 179.674 138.613C179.674 138.613 179.674 138.545 179.674 138.412C179.674 138.345 179.674 138.263 179.674 138.164C179.674 138.064 179.674 137.943 179.683 137.833C179.702 137.361 179.748 136.628 179.85 135.695C179.951 134.762 180.112 133.624 180.335 132.317C180.557 131.009 180.841 129.535 181.174 127.925C181.835 124.706 182.7 120.952 183.581 116.915C184.022 114.896 184.463 112.806 184.887 110.674C185.312 108.543 185.706 106.374 186.059 104.189C186.412 102.004 186.711 99.8174 186.941 97.652C187.172 95.4865 187.324 93.3519 187.371 91.2747C187.43 89.2811 187.38 87.2858 187.221 85.2977C187.084 83.5172 186.82 81.7487 186.433 80.0054C186.104 78.5315 185.656 77.0867 185.093 75.6855C184.657 74.6083 184.138 73.5666 183.541 72.5697C183.151 71.9335 182.726 71.3189 182.27 70.7284C181.947 70.326 181.774 70.1121 181.774 70.1121L182.25 70.7427C182.687 71.3456 183.092 71.9712 183.463 72.6171C184.024 73.6257 184.507 74.6763 184.907 75.7594C185.422 77.1605 185.821 78.6012 186.102 80.0671C186.432 81.8038 186.638 83.5617 186.719 85.3275C186.814 87.2981 186.802 89.2724 186.682 91.2416C186.572 93.2924 186.351 95.4038 186.06 97.5417C185.769 99.6796 185.399 101.842 184.986 103.994C184.574 106.146 184.104 108.294 183.621 110.397C183.139 112.499 182.629 114.569 182.127 116.571C181.124 120.569 180.143 124.289 179.371 127.52C178.985 129.134 178.651 130.621 178.379 131.951C178.106 133.28 177.906 134.453 177.769 135.431C177.632 136.409 177.557 137.184 177.518 137.747C177.498 138.019 177.493 138.205 177.485 138.342C177.476 138.479 177.475 138.544 177.475 138.544C177.475 138.544 177.475 138.568 177.475 138.578C177.474 138.629 177.477 138.681 177.483 138.731L179.667 138.724Z" fill="#84B8FF"/>
<path d="M176.294 138.724C176.294 138.724 176.294 138.666 176.294 138.558C176.294 138.45 176.294 138.283 176.294 138.075C176.294 137.673 176.294 137.097 176.294 136.407C176.289 134.735 176.386 133.065 176.587 131.405C176.647 130.954 176.712 130.502 176.795 130.062C176.878 129.622 176.968 129.189 177.068 128.773C177.169 128.357 177.28 127.959 177.399 127.587C177.429 127.493 177.459 127.4 177.489 127.31C177.518 127.219 177.551 127.131 177.582 127.044C177.643 126.87 177.708 126.703 177.773 126.545C177.838 126.386 177.9 126.234 177.965 126.09C178.03 125.947 178.088 125.811 178.152 125.688C178.274 125.434 178.393 125.222 178.491 125.046C178.589 124.871 178.677 124.739 178.732 124.646L178.819 124.505L178.718 124.636C178.654 124.723 178.549 124.843 178.436 125.011C178.322 125.179 178.177 125.377 178.029 125.618C177.95 125.738 177.876 125.867 177.797 126.005C177.719 126.144 177.634 126.288 177.555 126.446C177.475 126.605 177.388 126.762 177.31 126.933L177.185 127.193C177.146 127.281 177.106 127.372 177.066 127.463C176.902 127.829 176.75 128.224 176.6 128.636C176.45 129.049 176.311 129.479 176.183 129.921C176.055 130.363 175.937 130.815 175.827 131.269C175.446 132.941 175.168 134.635 174.996 136.341C174.926 137.032 174.868 137.608 174.827 138.011C174.806 138.205 174.788 138.359 174.777 138.463C174.766 138.568 174.757 138.628 174.757 138.628C174.757 138.653 174.757 138.679 174.752 138.707C174.752 138.715 174.752 138.721 174.752 138.729L176.294 138.724Z" fill="#84B8FF"/>
<path d="M168.531 132.573C168.659 134.419 168.751 135.953 168.785 137.018C168.794 137.282 168.802 137.518 168.809 137.725C168.809 137.934 168.815 138.112 168.817 138.256L168.824 138.697C168.823 138.704 168.823 138.712 168.824 138.719H170.36C170.36 138.694 170.36 138.667 170.36 138.641C170.36 138.641 170.351 138.488 170.336 138.2C170.328 138.055 170.318 137.877 170.306 137.667C170.294 137.458 170.274 137.209 170.254 136.934C170.172 135.841 170.021 134.299 169.822 132.455C169.622 130.612 169.381 128.472 169.203 126.171C169.109 125.022 169.036 123.834 168.983 122.628C168.93 121.422 168.921 120.195 168.939 118.968C168.956 117.741 169.031 116.518 169.134 115.315C169.2 114.716 169.251 114.119 169.34 113.534C169.382 113.241 169.415 112.949 169.465 112.661C169.514 112.373 169.563 112.088 169.612 111.804C169.662 111.521 169.723 111.242 169.777 110.965C169.831 110.689 169.887 110.414 169.952 110.145C170.017 109.876 170.084 109.61 170.149 109.348C170.182 109.217 170.214 109.087 170.247 108.956C170.281 108.826 170.321 108.701 170.358 108.574L170.578 107.825C170.649 107.578 170.738 107.342 170.815 107.105L171.05 106.412C171.136 106.191 171.222 105.971 171.305 105.75C171.388 105.53 171.468 105.325 171.552 105.121L171.813 104.529L172.061 103.966C172.147 103.787 172.235 103.615 172.319 103.446L172.562 102.958C172.639 102.801 172.716 102.651 172.798 102.511C172.958 102.228 173.103 101.966 173.239 101.731C173.374 101.496 173.499 101.29 173.61 101.115L173.895 100.664L174.131 100.288L173.88 100.654L173.578 101.095C173.46 101.269 173.319 101.466 173.182 101.698L172.714 102.462C172.626 102.599 172.543 102.748 172.459 102.903C172.375 103.059 172.287 103.218 172.196 103.383C172.104 103.548 172.009 103.714 171.917 103.896L171.646 104.447C171.553 104.637 171.457 104.832 171.36 105.032C171.263 105.233 171.179 105.444 171.087 105.656C170.994 105.869 170.899 106.088 170.803 106.31C170.707 106.533 170.629 106.766 170.539 107.001C170.448 107.235 170.353 107.471 170.272 107.717C170.19 107.963 170.106 108.212 170.021 108.465C169.98 108.592 169.937 108.718 169.895 108.847C169.853 108.976 169.819 109.108 169.784 109.239L169.553 110.037C169.478 110.307 169.414 110.588 169.343 110.859C169.273 111.131 169.2 111.417 169.144 111.703C169.088 111.989 169.023 112.275 168.961 112.564C168.899 112.853 168.85 113.148 168.8 113.446C168.69 114.036 168.612 114.638 168.521 115.243C168.37 116.456 168.245 117.695 168.179 118.937C168.113 120.178 168.069 121.421 168.08 122.644C168.091 123.866 168.107 125.069 168.157 126.23C168.246 128.567 168.407 130.727 168.531 132.573Z" fill="#84B8FF"/>
<path d="M165.878 138.172C165.886 138.289 165.89 138.377 165.894 138.438V138.52C165.894 138.533 165.894 138.548 165.894 138.56C165.902 138.618 165.916 138.674 165.936 138.728H167.378C167.422 138.611 167.436 138.485 167.42 138.361L167.41 138.279C167.41 138.231 167.396 138.158 167.386 138.059C167.365 137.86 167.34 137.56 167.317 137.177C167.268 136.405 167.224 135.295 167.226 133.958C167.226 131.288 167.421 127.706 168.108 124.201C168.431 122.483 168.897 120.796 169.503 119.156C170.03 117.724 170.73 116.362 171.587 115.099C172.2 114.206 172.931 113.398 173.758 112.699L173.972 112.521L174.168 112.373C174.289 112.28 174.389 112.203 174.482 112.145L174.749 111.962L174.473 112.131C174.382 112.184 174.272 112.254 174.143 112.341L173.946 112.483L173.726 112.649C172.852 113.314 172.071 114.093 171.404 114.964C170.564 116.037 169.75 117.419 169.063 118.98C168.357 120.616 167.79 122.309 167.367 124.041C166.485 127.569 166.092 131.207 165.943 133.929C165.868 135.292 165.851 136.433 165.859 137.236C165.858 137.63 165.868 137.952 165.878 138.172Z" fill="#84B8FF"/>
<path d="M91.4627 138.704C91.4627 138.704 89.1958 136.499 91.1264 135.649C93.2764 134.703 95.7451 137.158 97.8245 137.021C100.492 136.847 95.7539 127.65 102.391 126.259C109.949 124.673 118.276 132.213 121.797 132.12C117.899 123.814 129.491 125.872 135.877 136.23C136.944 136.594 138.833 135.81 140.708 138.704H91.4627Z" fill="white"/>
<path d="M108.206 138.871C108.206 138.871 141.025 138.761 144.23 138.871C144.23 138.871 139.104 136.122 137.562 136.145C136.019 136.168 135.996 137.396 135.996 137.396C135.996 137.396 131.475 134.155 127.332 135.138C125.03 135.689 125.99 137.687 125.99 137.687C125.99 137.687 120.104 133.893 116.729 134.931C113.99 135.77 114.113 137.726 114.113 137.726C114.113 137.726 111.467 135.852 109.216 136.251C106.964 136.65 108.206 138.871 108.206 138.871Z" fill="#84B8FF"/>
<path d="M84.838 138.8H90.1766C90.1766 138.8 87.3441 136.805 85.3253 137.199C83.849 137.488 84.838 138.8 84.838 138.8Z" fill="white"/>
<path d="M70.8773 130.823C70.8773 130.664 70.8303 130.51 70.7424 130.378C70.6544 130.246 70.5294 130.144 70.3831 130.083C70.2369 130.023 70.0759 130.007 69.9207 130.038C69.7654 130.068 69.6228 130.145 69.5108 130.257C69.3989 130.369 69.3226 130.511 69.2917 130.667C69.2609 130.822 69.2767 130.983 69.3373 131.129C69.3979 131.275 69.5005 131.4 69.6321 131.488C69.7637 131.576 69.9185 131.623 70.0768 131.623C70.2891 131.623 70.4927 131.539 70.6428 131.389C70.793 131.239 70.8773 131.035 70.8773 130.823Z" fill="#2E353D"/>
<path d="M92.3159 127.007C93.1629 127.007 93.8496 126.32 93.8496 125.473C93.8496 124.626 93.1629 123.939 92.3159 123.939C91.4689 123.939 90.7822 124.626 90.7822 125.473C90.7822 126.32 91.4689 127.007 92.3159 127.007Z" fill="#2E353D"/>
<path d="M19.5884 132.942C20.4354 132.942 21.122 132.255 21.122 131.408C21.122 130.561 20.4354 129.874 19.5884 129.874C18.7413 129.874 18.0547 130.561 18.0547 131.408C18.0547 132.255 18.7413 132.942 19.5884 132.942Z" fill="#2E353D"/>
<path d="M53.6935 120.381C54.1624 119.913 54.1624 119.152 53.6935 118.683C53.2246 118.215 52.4644 118.215 51.9955 118.683C51.5266 119.152 51.5266 119.913 51.9955 120.381C52.4644 120.85 53.2246 120.85 53.6935 120.381Z" fill="#2E353D"/>
<path d="M118.092 116.763C118.092 116.654 118.059 116.547 117.999 116.456C117.938 116.366 117.852 116.295 117.751 116.253C117.651 116.212 117.54 116.201 117.433 116.222C117.326 116.243 117.228 116.296 117.151 116.373C117.074 116.45 117.021 116.548 117 116.655C116.979 116.762 116.989 116.873 117.031 116.974C117.073 117.074 117.144 117.161 117.234 117.221C117.325 117.282 117.432 117.314 117.541 117.314C117.687 117.314 117.827 117.256 117.93 117.153C118.034 117.049 118.092 116.909 118.092 116.763Z" fill="#2E353D"/>
<path d="M103.316 131.166C103.68 131.166 103.976 130.87 103.976 130.505C103.976 130.14 103.68 129.845 103.316 129.845C102.951 129.845 102.655 130.14 102.655 130.505C102.655 130.87 102.951 131.166 103.316 131.166Z" fill="#2E353D"/>
<path d="M70.7076 106.117C70.7076 105.992 70.6706 105.87 70.6013 105.766C70.532 105.662 70.4335 105.582 70.3183 105.534C70.2031 105.486 70.0763 105.474 69.9539 105.498C69.8316 105.522 69.7192 105.582 69.631 105.671C69.5428 105.759 69.4827 105.871 69.4584 105.993C69.4341 106.116 69.4466 106.243 69.4943 106.358C69.542 106.473 69.6229 106.572 69.7266 106.641C69.8303 106.71 69.9522 106.747 70.077 106.747C70.2442 106.747 70.4046 106.681 70.5229 106.562C70.6412 106.444 70.7076 106.284 70.7076 106.117Z" fill="#2E353D"/>
<path d="M146.006 135.961C146.006 135.836 145.969 135.714 145.9 135.61C145.831 135.507 145.732 135.426 145.617 135.378C145.502 135.33 145.375 135.318 145.253 135.342C145.13 135.367 145.018 135.427 144.93 135.515C144.842 135.603 144.782 135.715 144.757 135.838C144.733 135.96 144.745 136.087 144.793 136.202C144.841 136.317 144.922 136.416 145.025 136.485C145.129 136.554 145.251 136.591 145.376 136.591C145.543 136.591 145.703 136.525 145.822 136.407C145.94 136.288 146.006 136.128 146.006 135.961Z" fill="#2E353D"/>
<path d="M208.535 139.045H155.323C155.279 139.047 155.236 139.041 155.195 139.026C155.154 139.011 155.117 138.988 155.085 138.958C155.054 138.929 155.029 138.893 155.011 138.853C154.994 138.813 154.985 138.77 154.985 138.727C154.985 138.683 154.994 138.64 155.011 138.6C155.029 138.56 155.054 138.525 155.085 138.495C155.117 138.465 155.154 138.442 155.195 138.427C155.236 138.412 155.279 138.406 155.323 138.409H208.535C208.616 138.413 208.692 138.449 208.748 138.508C208.804 138.567 208.835 138.645 208.835 138.727C208.835 138.808 208.804 138.886 208.748 138.945C208.692 139.004 208.616 139.04 208.535 139.045Z" fill="#84B8FF"/>
<path d="M82.1894 139.045H65.6333C65.5899 139.047 65.5465 139.041 65.5057 139.026C65.4649 139.011 65.4275 138.988 65.396 138.958C65.3644 138.929 65.3392 138.893 65.322 138.853C65.3048 138.813 65.2959 138.77 65.2959 138.727C65.2959 138.683 65.3048 138.64 65.322 138.6C65.3392 138.56 65.3644 138.525 65.396 138.495C65.4275 138.465 65.4649 138.442 65.5057 138.427C65.5465 138.412 65.5899 138.406 65.6333 138.409H82.1894C82.2705 138.413 82.3468 138.449 82.4025 138.508C82.4583 138.567 82.4893 138.645 82.4893 138.727C82.4893 138.808 82.4583 138.886 82.4025 138.945C82.3468 139.004 82.2705 139.04 82.1894 139.045Z" fill="#84B8FF"/>
<path d="M57.6851 139.045H12.7964C12.753 139.047 12.7096 139.041 12.6688 139.026C12.628 139.011 12.5906 138.988 12.559 138.958C12.5274 138.929 12.5023 138.893 12.4851 138.853C12.4679 138.813 12.459 138.77 12.459 138.727C12.459 138.683 12.4679 138.64 12.4851 138.6C12.5023 138.56 12.5274 138.525 12.559 138.495C12.5906 138.465 12.628 138.442 12.6688 138.427C12.7096 138.412 12.753 138.406 12.7964 138.409H57.6851C57.7285 138.406 57.7719 138.412 57.8127 138.427C57.8535 138.442 57.8909 138.465 57.9225 138.495C57.9541 138.525 57.9792 138.56 57.9964 138.6C58.0136 138.64 58.0225 138.683 58.0225 138.727C58.0225 138.77 58.0136 138.813 57.9964 138.853C57.9792 138.893 57.9541 138.929 57.9225 138.958C57.8909 138.988 57.8535 139.011 57.8127 139.026C57.7719 139.041 57.7285 139.047 57.6851 139.045Z" fill="#84B8FF"/>
<path d="M57.4888 138.871C57.4888 138.871 52.3629 136.122 50.8204 136.145C49.278 136.168 49.2559 137.401 49.2559 137.401C49.2559 137.401 44.7354 134.159 40.5908 135.143C38.2887 135.694 39.249 137.692 39.249 137.692C39.249 137.692 33.3635 133.898 29.9875 134.935C27.2476 135.774 27.37 138.881 27.37 138.881C27.37 138.881 54.2836 138.759 57.4888 138.871Z" fill="#84B8FF"/>
<path d="M220 16.7556C214.233 23.414 212.875 34.271 213.13 38.0021C209.058 38.0021 205.029 32.7439 205.029 32.7439C204.981 30.5443 205.375 28.3574 206.19 26.3138C206.19 26.3138 206.398 28.6192 207.495 29.5112C206.938 27.5387 206.811 25.9334 207.145 24.5331C207.4 23.4658 208.067 22.1802 209.055 21.3721C209.055 21.3721 208.29 23.9609 209.768 26.9191C209.594 23.8175 209.939 22.0755 210.981 20.5892C212.158 18.9034 213.296 18.3224 214.412 17.8593C214.412 17.8593 212.648 20.6587 212.306 25.005C213.225 21.7271 214.738 19.5197 216.594 17.9971C217.387 17.3444 219.041 16.7556 220 16.7556Z" fill="#2E353D"/>
<path d="M186.889 42.5028C195.528 47.8282 201.429 48.4622 204.222 47.966C212.07 46.5713 213.189 36.7474 218.726 35.1277C217.504 33.679 217.56 30.4628 214.978 30.261C211.25 29.971 211.404 35.1278 205.741 36.6956C201.022 40.1543 195.655 43.4179 186.889 42.5028Z" fill="#84B8FF"/>
<path d="M193.137 42.4199C190.354 42.6526 187.876 43.1388 182.222 41.2512C182.222 42.0175 185.392 44.9724 191.689 45.1312C190.098 45.6824 186.287 45.216 186.287 45.216C189.515 47.4697 195.813 48.8115 200.536 46.495C200.536 46.495 196.464 46.7045 195.51 45.1146C196.037 42.5059 193.137 42.4199 193.137 42.4199Z" fill="#0B61DD"/>
<path d="M205.995 46.4951H178.494V60.8009H205.995V46.4951Z" fill="#FCD738"/>
<path d="M205.997 60.8008H178.494V49.9075L192.581 56.3476L205.997 49.9075V60.8008Z" fill="#E5BC0E"/>
<path d="M205.998 60.8008V49.9075L183.306 60.8008H205.998Z" fill="#FCD738"/>
<path d="M202.06 48.6266C201.976 48.6263 201.894 48.5979 201.827 48.5458C201.76 48.4937 201.712 48.4209 201.691 48.3388L201.25 46.589C201.238 46.5405 201.235 46.4899 201.242 46.4403C201.249 46.3907 201.266 46.343 201.292 46.2999C201.317 46.2568 201.351 46.2191 201.391 46.1891C201.432 46.1591 201.477 46.1372 201.526 46.1249C201.574 46.1125 201.625 46.1098 201.674 46.1169C201.724 46.1241 201.772 46.1409 201.815 46.1665C201.858 46.1921 201.896 46.226 201.926 46.2661C201.956 46.3063 201.978 46.3519 201.99 46.4005L202.431 48.1503C202.456 48.2484 202.441 48.3523 202.389 48.4393C202.337 48.5263 202.253 48.5892 202.155 48.6145C202.124 48.6223 202.092 48.6264 202.06 48.6266Z" fill="#FA6142"/>
<path d="M201.297 48.6266C201.212 48.6263 201.13 48.5979 201.063 48.5458C200.996 48.4937 200.948 48.4209 200.927 48.3388L200.486 46.589C200.461 46.4909 200.476 46.3869 200.528 46.2999C200.58 46.2128 200.664 46.1499 200.762 46.1249C200.86 46.0999 200.964 46.1149 201.051 46.1665C201.138 46.2182 201.201 46.3024 201.226 46.4005L201.667 48.1503C201.692 48.2484 201.677 48.3523 201.625 48.4393C201.574 48.5263 201.49 48.5892 201.392 48.6145C201.361 48.6222 201.329 48.6263 201.297 48.6266Z" fill="#FA6142"/>
<path d="M200.534 48.6266C200.449 48.6264 200.367 48.598 200.3 48.5459C200.233 48.4938 200.185 48.421 200.164 48.3388L199.723 46.589C199.698 46.4909 199.713 46.3869 199.764 46.2999C199.816 46.2128 199.9 46.1499 199.998 46.1249C200.097 46.0999 200.201 46.1149 200.288 46.1665C200.375 46.2182 200.438 46.3024 200.463 46.4005L200.904 48.1503C200.916 48.1989 200.919 48.2494 200.912 48.2991C200.905 48.3488 200.888 48.3966 200.862 48.4397C200.837 48.4829 200.803 48.5205 200.763 48.5505C200.722 48.5805 200.677 48.6022 200.628 48.6145C200.597 48.6223 200.566 48.6264 200.534 48.6266Z" fill="#FA6142"/>
<path d="M204.852 49.7687C204.776 49.7686 204.703 49.7461 204.64 49.7041C204.577 49.6621 204.528 49.6025 204.5 49.5327C204.471 49.463 204.463 49.3863 204.478 49.3123C204.493 49.2383 204.529 49.1703 204.583 49.117L205.819 47.88C205.89 47.8083 205.988 47.7681 206.089 47.7681C206.19 47.7681 206.287 47.8083 206.359 47.88C206.431 47.9516 206.471 48.0488 206.471 48.1501C206.471 48.2514 206.431 48.3486 206.359 48.4202L205.122 49.6573C205.05 49.7286 204.953 49.7686 204.852 49.7687Z" fill="#FA6142"/>
<path d="M204.76 48.9661C204.684 48.9672 204.609 48.9454 204.545 48.9037C204.482 48.862 204.432 48.8023 204.403 48.7321C204.373 48.6619 204.366 48.5846 204.38 48.51C204.395 48.4354 204.432 48.3669 204.486 48.3134L205.723 47.0763C205.795 47.0048 205.892 46.9647 205.993 46.9648C206.095 46.9649 206.192 47.0052 206.263 47.0769C206.335 47.1485 206.375 47.2456 206.375 47.3469C206.374 47.4481 206.334 47.5451 206.263 47.6166L205.025 48.8537C204.955 48.9246 204.86 48.965 204.76 48.9661Z" fill="#FA6142"/>
<path d="M204.761 48.1137C204.685 48.1133 204.612 48.0907 204.549 48.0487C204.487 48.0068 204.438 47.9472 204.409 47.8777C204.38 47.8081 204.373 47.7315 204.387 47.6576C204.402 47.5837 204.437 47.5157 204.49 47.4621L205.728 46.225C205.799 46.1535 205.896 46.1134 205.997 46.1135C206.099 46.1136 206.196 46.1539 206.267 46.2256C206.339 46.2972 206.379 46.3943 206.379 46.4955C206.379 46.5968 206.338 46.6938 206.267 46.7653L205.03 48.0013C204.994 48.0369 204.953 48.0652 204.906 48.0846C204.86 48.1039 204.811 48.1138 204.761 48.1137Z" fill="#FA6142"/>
<path d="M209.185 37.8754C207.658 35.1609 206.089 30.6238 205.199 29.3514C204.308 28.0791 195.827 24.305 193.452 10.5339C192.497 10.8559 191.679 11.5163 191.304 13.2407C191.018 14.5638 191.506 17.3445 193.289 20.3821C190.814 18.7117 189.459 14.1338 189.459 14.1338C189.067 14.7259 188.688 15.093 188.553 16.5826C188.422 18.0027 189.746 22.5949 192.004 24.8519C190.588 23.8496 187.821 20.2078 187.821 20.2078C187.63 21.3214 187.662 22.1164 187.981 23.3722C188.147 24.0338 189.627 27.1022 191.304 28.7803C189.834 27.8299 188.066 26.3624 188.066 26.3624C187.19 28.0956 188.432 29.4992 189.49 30.4948C190.652 31.5896 191.475 31.9689 192.116 32.6128C191.278 32.5963 190.366 32.2468 190.366 32.2468C190.256 32.4673 190.292 34.1553 192.667 35.0771C192.304 35.1267 191.362 34.9922 191.362 34.9922C190.811 36.4927 193.92 37.9018 195.98 37.7486C195.85 37.9239 195.232 38.2491 195.232 38.2491C195.209 39.4465 198.444 40.6748 200.767 40.484L209.185 37.8754Z" fill="#84B8FF"/>
<path d="M197.417 37.5357C197.417 36.11 196.204 35.4154 195.529 35.3735C196.213 34.6888 195.86 33.422 194.766 32.8288C196.102 32.3415 195.678 31.0471 194.915 30.6865C196.091 29.9235 196.459 28.6622 194.915 27.2686C196.139 27.2686 197.098 26.4416 196.186 24.7448C198.085 24.607 197.649 22.1582 197.559 21.5683C195.837 18.8836 194.277 15.3101 193.453 10.5305C192.498 10.8525 191.68 11.5129 191.305 13.2373C191.02 14.5604 191.507 17.3411 193.29 20.3786C190.814 18.7116 189.459 14.1337 189.459 14.1337C189.067 14.7258 188.688 15.0929 188.553 16.5825C188.422 18.0026 189.746 22.5948 192.004 24.8517C190.588 23.8495 187.821 20.2077 187.821 20.2077C187.63 21.3213 187.662 22.1163 187.981 23.3721C188.147 24.0336 189.627 27.1021 191.304 28.7802C189.834 27.8298 188.066 26.3623 188.066 26.3623C187.19 28.0955 188.432 29.4991 189.49 30.4947C190.652 31.5895 191.475 31.9688 192.116 32.6127C191.278 32.5962 190.366 32.2467 190.366 32.2467C190.256 32.4672 190.292 34.1552 192.667 35.0769C192.304 35.1266 191.362 34.992 191.362 34.992C190.811 36.4926 193.92 37.9017 195.98 37.7485C195.85 37.9238 195.232 38.249 195.232 38.249C195.209 39.4464 198.444 40.6747 200.767 40.4839C200.767 40.485 199.018 37.1652 197.417 37.5357Z" fill="#0B61DD"/>
<path d="M196.287 61.1185H123.11C123.025 61.1185 122.945 61.085 122.885 61.0255C122.825 60.9659 122.792 60.8852 122.792 60.8009C122.792 60.7167 122.825 60.636 122.885 60.5764C122.945 60.5169 123.025 60.4834 123.11 60.4834H196.287C196.371 60.4834 196.452 60.5169 196.511 60.5764C196.571 60.636 196.604 60.7167 196.604 60.8009C196.604 60.8852 196.571 60.9659 196.511 61.0255C196.452 61.085 196.371 61.1185 196.287 61.1185Z" fill="#84B8FF"/>
<path d="M201.04 54.6904H162.24C162.159 54.6857 162.083 54.6501 162.027 54.5909C161.971 54.5318 161.94 54.4536 161.94 54.3724C161.94 54.2911 161.971 54.2129 162.027 54.1538C162.083 54.0946 162.159 54.059 162.24 54.0543H201.04C201.083 54.0517 201.126 54.058 201.167 54.0729C201.208 54.0877 201.245 54.1107 201.277 54.1405C201.309 54.1703 201.334 54.2062 201.351 54.2461C201.368 54.286 201.377 54.3289 201.377 54.3724C201.377 54.4158 201.368 54.4587 201.351 54.4986C201.334 54.5385 201.309 54.5744 201.277 54.6042C201.245 54.634 201.208 54.657 201.167 54.6718C201.126 54.6867 201.083 54.693 201.04 54.6904Z" fill="#84B8FF"/>
<path d="M217.506 35.6437L216.478 34.6999L218.032 33.895L219.266 34.9733L217.506 35.6437Z" fill="#FA6142"/>
<path d="M216.478 34.6999L217.658 32.9424L218.032 33.895L216.478 34.6999Z" fill="white"/>
<path d="M87.295 33.5898L87.2862 36.7872L87.2939 38.2856C87.2939 38.7861 87.2939 39.2856 87.3115 39.8005L87.3512 41.3375C87.36 41.8513 87.3909 42.3596 87.4108 42.8723C87.4306 43.3849 87.4494 43.8987 87.4813 44.4092L87.5739 45.9429C87.6015 46.4567 87.6489 46.9628 87.6842 47.4744L87.7437 48.2462L87.8132 49.0091C87.8639 49.5163 87.9036 50.0312 87.9631 50.5362C88.0227 51.0412 88.0734 51.5539 88.1351 52.0588C88.1969 52.5638 88.2575 53.0721 88.3314 53.5727C88.4053 54.0732 88.4714 54.5804 88.5519 55.0766C88.6324 55.5727 88.714 56.0689 88.8 56.5595L88.918 57.1946C88.918 57.1946 89.6247 57.7227 90.0205 58.016C90.8217 58.6004 91.6303 59.1752 92.4462 59.7404C94.0824 60.8672 95.7473 61.9455 97.4408 62.9621C99.1148 63.9711 100.84 64.8927 102.61 65.7229C103.483 66.1276 104.362 66.4947 105.24 66.8112L104.107 70.4959C101.056 70.0935 90.8761 66.5488 88.9885 65.5939C88.0455 65.1154 87.1087 64.6244 86.1781 64.1209C85.7128 63.8688 85.2483 63.6115 84.7844 63.3491L84.0865 62.9566L83.7392 62.757L83.5617 62.6468L83.3699 62.5365C82.9435 62.3001 82.594 61.9461 82.3632 61.5166L82.0104 60.8551L81.5583 60.0194C81.4172 59.7558 81.2882 59.5056 81.1526 59.2476C80.8913 58.7382 80.6322 58.2288 80.3874 57.7216C80.1426 57.2144 79.8979 56.7039 79.6575 56.1935C79.4172 55.683 79.1933 55.1736 78.9596 54.6609C78.7258 54.1482 78.5119 53.6355 78.2881 53.1173C78.0643 52.5991 77.857 52.0875 77.6398 51.5737L77.3201 50.8019L77.0125 50.0235C76.8107 49.5042 76.5957 48.9838 76.4038 48.4623L75.8173 46.8922C75.6199 46.3685 75.4402 45.8437 75.2506 45.3177C75.0609 44.7918 74.8702 44.2648 74.6993 43.7367L74.1634 42.149C73.9826 41.6242 73.8139 41.0773 73.6441 40.5337L73.1325 38.8986L72.192 35.8114C71.8712 34.7511 71.7824 33.6342 71.9317 32.5365C72.081 31.4388 72.4648 30.3861 73.057 29.45C73.6493 28.5138 74.4361 27.7161 75.3641 27.1111C76.2921 26.5061 77.3394 26.108 78.435 25.9437C79.5305 25.7795 80.6485 25.853 81.7131 26.1592C82.7777 26.4655 83.7639 26.9974 84.6047 27.7187C85.4454 28.44 86.1211 29.3338 86.5857 30.3395C87.0503 31.3451 87.2929 32.439 87.2972 33.5468L87.295 33.5898Z" fill="#FFAD94"/>
<path d="M92.4574 59.7346C92.4574 59.7346 90.6647 58.4754 90.0318 58.0102C89.6316 57.7169 88.9292 57.1888 88.9292 57.1888L88.9215 57.1458L84.2676 63.0522L84.7968 63.3521C85.2614 63.6123 85.7259 63.8696 86.1905 64.1239C86.6315 64.3643 87.9215 65.039 88.3669 65.2728C88.3581 65.2695 91.3692 62.2264 92.4574 59.7346Z" fill="white"/>
<path d="M90.0276 58.0158C89.6274 57.7225 88.9251 57.1944 88.9251 57.1944L88.8071 56.5593C88.7211 56.0686 88.6351 55.5769 88.559 55.0763C88.4829 54.5758 88.4091 54.0741 88.3385 53.5724C88.2679 53.0708 88.2073 52.5614 88.1422 52.0586C88.0772 51.5558 88.032 51.042 87.9702 50.536C87.9085 50.0299 87.871 49.5161 87.8203 49.0089L87.7508 48.2459L87.6913 47.4741C87.6538 46.9625 87.6064 46.4565 87.581 45.9427L87.4884 44.409C87.4564 43.8985 87.4421 43.3836 87.4178 42.872C87.3936 42.3604 87.3671 41.851 87.3583 41.3372L87.3186 39.8003C87.301 39.2854 87.3032 38.7859 87.301 38.2853L87.2933 36.787L87.3021 33.5895V33.5465C87.296 32.0337 86.848 30.5556 86.0132 29.2939L73.4362 28.8904C72.6953 29.8629 72.1964 30.9976 71.9805 32.201C71.7646 33.4044 71.8381 34.6418 72.1947 35.8112L73.1352 38.8984L73.6468 40.5335C73.8166 41.077 73.9853 41.6239 74.1661 42.1487L74.7009 43.7364C74.874 44.2646 75.0691 44.7916 75.2521 45.3175C75.4352 45.8434 75.6215 46.3683 75.8189 46.892L76.4065 48.4609C76.5984 48.9824 76.8134 49.5029 77.0151 50.0222L77.3228 50.8006L77.6425 51.5724C77.863 52.0895 78.0637 52.6055 78.2908 53.116C78.5179 53.6264 78.7318 54.1436 78.9623 54.6596C79.1927 55.1756 79.4187 55.6816 79.6602 56.1921C79.9017 56.7026 80.1376 57.2109 80.3901 57.7203C80.6426 58.2297 80.894 58.7368 81.1553 59.2462C81.2909 59.5042 81.4199 59.7545 81.561 60.018L82.0131 60.8538L82.3659 61.5153C82.596 61.9449 82.9446 62.2992 83.3703 62.5363L83.5622 62.6465L83.7397 62.7568L84.0903 62.9597L84.7882 63.3555C84.9294 63.4349 85.0705 63.511 85.2116 63.5892L90.1423 58.0962C90.1048 58.0643 90.0662 58.0378 90.0276 58.0158Z" fill="#6F8137"/>
<path d="M31.9588 81.9018C29.6578 81.9018 26.8418 80.8455 24.2298 76.9931C24.2042 76.9586 24.1858 76.9193 24.1758 76.8774C24.1658 76.8356 24.1643 76.7922 24.1715 76.7498C24.1787 76.7074 24.1944 76.6669 24.2176 76.6307C24.2409 76.5946 24.2713 76.5635 24.3069 76.5394C24.3424 76.5152 24.3826 76.4986 24.4248 76.4903C24.467 76.4821 24.5104 76.4826 24.5525 76.4916C24.5945 76.5006 24.6343 76.518 24.6694 76.5428C24.7046 76.5676 24.7343 76.5993 24.7569 76.6359C27.9102 81.2865 31.3271 81.6118 33.6391 81.066C35.2081 80.6956 36.7925 79.7992 38.1001 78.5422C39.1873 77.497 39.9591 76.3007 40.066 75.4948C40.0814 75.4149 40.1267 75.344 40.1927 75.2964C40.2586 75.2489 40.3403 75.2284 40.4209 75.2391C40.5015 75.2498 40.5749 75.2909 40.6262 75.354C40.6775 75.4171 40.7027 75.4975 40.6967 75.5785C40.453 77.4165 37.572 80.7904 33.7858 81.6846C33.1874 81.8279 32.5742 81.9008 31.9588 81.9018Z" fill="#84B8FF"/>
<path d="M44.7427 69.5065L44.0957 70.9189L44.3563 71.0383L45.0033 69.6259L44.7427 69.5065Z" fill="#D83A21"/>
<path d="M37.413 64.1999C37.5056 63.9972 37.6404 63.8166 37.8083 63.6701C37.9763 63.5236 38.1735 63.4147 38.3869 63.3505C38.6003 63.2863 38.825 63.2684 39.0458 63.2979C39.2667 63.3275 39.4788 63.4038 39.6678 63.5218L44.5191 66.545C44.5912 66.59 44.6512 66.6518 44.6941 66.7251C44.7369 66.7985 44.7613 66.8811 44.7651 66.966C44.7689 67.0509 44.752 67.1354 44.7159 67.2122C44.6797 67.2891 44.6254 67.356 44.5577 67.4073L39.4495 71.2541L43.1585 72.9521L45.6283 67.5594C45.8315 67.1137 45.8653 66.6091 45.7232 66.1402C45.5811 65.6714 45.273 65.2704 44.8565 65.0125L40.4275 62.2561C40.1077 62.0569 39.7492 61.9282 39.3758 61.8784C39.0024 61.8287 38.6227 61.8591 38.2619 61.9676C37.9012 62.0761 37.5677 62.2602 37.2837 62.5076C36.9997 62.7551 36.7716 63.0602 36.6148 63.4027L34.1406 68.8207L35.0954 69.2618L37.413 64.1999Z" fill="#FCD738"/>
<path d="M43.6089 71.0323C43.6892 68.2939 41.5344 66.0088 38.796 65.9285C36.0576 65.8482 33.7726 68.003 33.6923 70.7414C33.612 73.4798 35.7668 75.7648 38.5052 75.8451C41.2436 75.9255 43.5286 73.7707 43.6089 71.0323Z" fill="#D83A21"/>
<path d="M40.1017 74.1324L39.335 75.8064L40.6622 76.4143L41.4289 74.7403L40.1017 74.1324Z" fill="#D83A21"/>
<path d="M78.9251 68.8661C78.9957 69.5762 77.8688 70.8508 75.9283 71.326C73.9878 71.8012 75.1565 66.9014 75.1565 66.9014L78.9251 68.8661Z" fill="#2E353D"/>
<path d="M48.5693 69.1329C50.0821 71.5806 64.2103 71.0073 69.4486 69.4902C74.6869 67.973 56.4847 64.9553 56.4847 64.9553L48.5693 69.1329Z" fill="#2E353D"/>
<path d="M70.503 18.9066C75.5109 17.7269 81.027 21.6311 82.3005 23.694L83.1936 27.9719L69.3486 21.6719L70.503 18.9066Z" fill="#6F8137"/>
<path d="M82.3436 17.9187C82.5872 19.4347 81.9985 21.813 80.5166 24.2496L86.5631 29.4692C86.5631 29.4692 89.3956 26.7414 89.8807 24.3632L82.3436 17.9187Z" fill="#FFAD94"/>
<path d="M88.0019 27.8564C87.3404 25.391 86.4175 23.2256 84.832 21.3303L85.7857 20.8628L89.8807 24.3634C89.6348 25.573 88.7814 26.8707 88.0019 27.8564Z" fill="#CE5F49"/>
<path d="M81.7649 18.7545C78.8861 16.674 74.8783 8.65391 79.659 6.17424C83.5379 4.16316 84.6669 -0.561332 88.9878 0.055002C92.9725 0.623926 91.9648 5.12019 91.9648 5.12019C92.563 4.8084 93.2285 4.6479 93.9031 4.6527C97.6805 4.76296 97.944 9.55802 95.128 10.8414L83.2854 16.008L81.7649 18.7545Z" fill="#2E353D"/>
<path d="M94.1324 16.9561C94.1324 16.9561 95.3242 19.578 95.2867 19.8547C95.2118 20.3961 93.6406 20.9374 93.6406 20.9374L94.1324 16.9561Z" fill="#CE5F49"/>
<path d="M92.487 23.7823C90.2212 26.2245 82.8031 21.6676 81.0942 15.0996C78.9717 6.94062 87.6081 2.6825 92.53 8.90869C94.9755 12.0014 94.2808 15.7358 94.1695 16.598C94.035 17.6289 93.8994 22.2641 92.487 23.7823Z" fill="#FFAD94"/>
<path d="M92.9999 9.57007C93.8632 10.9229 94.1697 12.0112 94.2723 13.2339C91.5269 13.3276 89.6415 10.6506 89.54 10.1114C90.7027 9.99701 91.8579 9.81626 92.9999 9.57007Z" fill="#CE5F49"/>
<path d="M80.1297 15.126C77.6401 5.55465 87.7705 0.560032 93.5435 7.86343C94.2464 8.75303 94.7845 9.76122 95.1323 10.8404C92.5181 11.8591 91.2733 8.71681 90.2127 9.38607C89.152 10.0553 88.034 15.2297 84.4495 16.0423L80.1297 15.126Z" fill="#2E353D"/>
<path d="M91.2359 8.5359L91.4299 8.82919C91.4553 8.86557 91.4795 8.90637 91.5137 8.95267C91.5479 8.99898 91.5887 9.053 91.6306 9.10924L91.7706 9.28124C91.8213 9.34077 91.8809 9.40142 91.936 9.46647C92.0637 9.60204 92.1988 9.73049 92.3407 9.85126C92.4997 9.98665 92.6677 10.1112 92.8434 10.2239C93.0319 10.3444 93.2299 10.4491 93.4355 10.5371C93.6483 10.6294 93.8699 10.6996 94.097 10.7465C94.3269 10.7967 94.5619 10.82 94.7972 10.816C95.0315 10.813 95.2648 10.7842 95.4929 10.73C95.7135 10.6765 95.9281 10.6008 96.1335 10.504C96.3256 10.4164 96.51 10.3127 96.6848 10.1942C96.8358 10.0928 96.9805 9.98236 97.1181 9.86339C97.2471 9.75975 97.3386 9.6528 97.4323 9.57231C97.526 9.49183 97.5778 9.41575 97.623 9.36944L97.6903 9.29667L97.6451 9.38488C97.6153 9.44221 97.5734 9.52711 97.515 9.63406C97.4566 9.74101 97.3838 9.87001 97.2846 10.01C97.1781 10.1715 97.0622 10.3265 96.9373 10.4742C96.7861 10.6532 96.6205 10.8195 96.4422 10.9715C96.2382 11.1485 96.0166 11.3041 95.7807 11.4357C95.522 11.5806 95.248 11.6964 94.9637 11.7808C94.6642 11.8715 94.3553 11.9277 94.043 11.9483C93.7277 11.9723 93.4107 11.9642 93.097 11.9241C92.792 11.8865 92.4907 11.8234 92.1962 11.7355C91.9204 11.6546 91.6507 11.554 91.3891 11.4345C91.1538 11.3286 90.9244 11.2097 90.7022 11.0784C90.6008 11.0145 90.5016 10.9549 90.4101 10.8943C90.3185 10.8336 90.2325 10.7741 90.1532 10.7168L89.9327 10.5514C89.8643 10.4974 89.7992 10.4411 89.7408 10.3926L89.4332 10.1291C89.1886 9.91959 89.0372 9.62148 89.0124 9.30037C88.9876 8.97925 89.0914 8.66143 89.3009 8.41682C89.5104 8.17222 89.8085 8.02086 90.1296 7.99604C90.4507 7.97123 90.7685 8.075 91.0132 8.28452C91.0973 8.35583 91.1715 8.43816 91.2337 8.52929L91.2359 8.5359Z" fill="#2E353D"/>
<path d="M80.9358 6.15439L80.8917 6.12352L80.8145 6.0728L80.7307 6.01216C80.6117 5.92285 80.4573 5.79165 80.282 5.63729C79.8597 5.2561 79.4726 4.83763 79.1254 4.38698C79.0328 4.26349 78.9424 4.1378 78.8586 4.0099C78.7748 3.882 78.6976 3.75411 78.6281 3.62731C78.5587 3.50051 78.4969 3.37372 78.4451 3.25244C78.3967 3.13801 78.3547 3.02095 78.3194 2.90182C78.2905 2.80217 78.2673 2.70094 78.25 2.59862C78.2433 2.55341 78.2367 2.51041 78.2312 2.47182C78.2257 2.43323 78.2312 2.39574 78.2246 2.36156C78.222 2.31161 78.222 2.26156 78.2246 2.21161V2.15869L78.2411 2.20941C78.2553 2.25617 78.2719 2.30217 78.2908 2.34723L78.3304 2.44315L78.3867 2.55341C78.4324 2.63824 78.4836 2.72 78.5399 2.79818C78.6052 2.89014 78.6759 2.97813 78.7516 3.06169C78.8321 3.151 78.9203 3.24031 79.0173 3.32851C79.1144 3.41672 79.2158 3.50272 79.325 3.58541C79.4341 3.6681 79.5455 3.74969 79.6623 3.82687C80.0857 4.10481 80.5334 4.34394 80.9998 4.54134C81.1883 4.62072 81.3449 4.67916 81.4485 4.71113C81.4728 4.71775 81.4981 4.72657 81.5136 4.72987H81.5466L81.5973 4.74531C81.7912 4.80777 81.9533 4.94306 82.0494 5.12267C82.1455 5.30228 82.1682 5.51218 82.1126 5.70816C82.057 5.90413 81.9275 6.07087 81.7514 6.17323C81.5752 6.2756 81.3663 6.30561 81.1685 6.25693C81.0859 6.23536 81.0074 6.20075 80.9358 6.15439Z" fill="#2E353D"/>
<path d="M81.3308 6.98232L81.2326 6.95034L81.1224 6.91506L81.0353 6.88529C80.9264 6.85575 80.816 6.83256 80.7045 6.81583C80.5503 6.79418 80.3949 6.78276 80.2392 6.78165C80.0485 6.78022 79.858 6.79275 79.6692 6.81913C79.4554 6.8503 79.2445 6.8986 79.0385 6.96357C78.8164 7.03402 78.6018 7.12635 78.3979 7.23921C78.1852 7.35616 77.9869 7.49751 77.807 7.66039C77.6211 7.82535 77.4573 8.0136 77.3196 8.22049C77.2491 8.32365 77.184 8.43038 77.1245 8.54024L77.0451 8.70893L77.0054 8.79273L76.9723 8.87983L76.9073 9.05183C76.8874 9.11027 76.872 9.1687 76.8554 9.22714C76.8209 9.34121 76.7929 9.45717 76.7716 9.57445C76.743 9.6847 76.7342 9.80268 76.7176 9.91293C76.7011 10.0232 76.6967 10.1334 76.689 10.236C76.689 10.2889 76.6823 10.3396 76.679 10.3903C76.6757 10.4411 76.679 10.4896 76.679 10.537C76.679 10.6329 76.679 10.7255 76.679 10.8115C76.6912 10.9824 76.6967 11.1346 76.711 11.2581L76.7595 11.6495C76.7595 11.6495 76.7088 11.5139 76.6217 11.2779C76.5787 11.1588 76.539 11.0111 76.4861 10.8369C76.4618 10.7509 76.442 10.6594 76.4188 10.5612C76.4067 10.5127 76.3957 10.4631 76.3835 10.4113C76.3714 10.3595 76.3648 10.3066 76.356 10.2514C76.3383 10.1412 76.3152 10.0309 76.3064 9.90852C76.2975 9.78614 76.2777 9.66375 76.2788 9.53365C76.2717 9.40034 76.2717 9.26673 76.2788 9.13342C76.2788 9.06396 76.2788 8.99339 76.2909 8.92283C76.3031 8.85226 76.3086 8.7817 76.3185 8.70893L76.3328 8.59867L76.3549 8.48842C76.3714 8.41565 76.3868 8.34178 76.4023 8.2679C76.4475 8.12347 76.4839 7.97131 76.5456 7.82688C76.6589 7.52407 76.8097 7.23664 76.9944 6.97129C77.1795 6.69984 77.396 6.45115 77.6394 6.23036C77.8767 6.01279 78.1352 5.81961 78.4112 5.65372C78.9031 5.3561 79.4389 5.13805 79.9989 5.00762C80.2286 4.95287 80.4618 4.91382 80.6968 4.89075C80.8859 4.87274 81.0758 4.86537 81.2657 4.86869L81.5083 4.88303L81.6406 4.89405L81.7442 4.90287C81.8857 4.91151 82.0241 4.94832 82.1512 5.01115C82.2784 5.07397 82.3916 5.16154 82.4845 5.26872C82.5773 5.37591 82.6478 5.50055 82.6918 5.63534C82.7358 5.77012 82.7525 5.91234 82.7408 6.05365C82.7291 6.19496 82.6894 6.33252 82.6238 6.45825C82.5583 6.58399 82.4683 6.69537 82.3592 6.78588C82.25 6.87638 82.1239 6.94418 81.9882 6.98529C81.8525 7.02641 81.7099 7.04001 81.5689 7.02531C81.4887 7.01915 81.4095 7.00361 81.333 6.979L81.3308 6.98232Z" fill="#2E353D"/>
<path d="M16.6939 82.6317C15.8924 82.4939 14.6861 87.4973 16.9089 88.4951C19.1317 89.493 17.5076 82.7717 16.6939 82.6317Z" fill="#2E353D"/>
<path d="M26.3257 85.2744C18.5834 83.6438 11.8688 82.4927 11.8688 82.4927L11.2393 85.0098C11.2393 85.0098 18.5702 88.1632 26.3246 91.0993L26.3257 85.2744Z" fill="#FF9688"/>
<path d="M108.35 129.737C108.912 130.534 115.752 126.241 113.442 125.412C111.132 124.583 107.351 128.322 108.35 129.737Z" fill="#002454"/>
<path d="M105.944 116.763H99.1963L113.809 133.671L116.046 131.433L105.944 116.763Z" fill="#FF9688"/>
<path d="M113.888 136.656C113.888 136.656 115.29 137.911 115.615 137.832C116.718 137.56 121.296 133.104 121.928 132.737C123.132 132.037 128.254 126.905 128.154 125.828C128.053 124.751 126.856 124.305 126.856 124.305L113.888 136.656Z" fill="white"/>
<path d="M114.092 136.711C113.661 136.896 111.352 133.69 111.362 133.2C111.372 132.709 114.178 132.318 114.757 130.796C115.336 129.275 114.978 127.768 115.155 127.477C115.333 127.186 121.33 127.353 121.33 127.353C121.33 127.353 126.978 123.731 126.842 124.366C125.985 128.438 115.821 135.974 114.092 136.711Z" fill="#6F8137"/>
<path d="M116.819 129.766H116.79C116.74 129.763 116.692 129.749 116.647 129.727C116.602 129.704 116.562 129.673 116.529 129.635C116.497 129.597 116.472 129.553 116.456 129.505C116.441 129.458 116.435 129.407 116.439 129.357L116.596 127.244C116.604 127.143 116.651 127.049 116.728 126.983C116.805 126.917 116.905 126.884 117.006 126.891C117.107 126.899 117.201 126.946 117.267 127.023C117.333 127.1 117.366 127.2 117.358 127.301L117.199 129.414C117.192 129.509 117.149 129.599 117.078 129.664C117.008 129.73 116.915 129.766 116.819 129.766Z" fill="white"/>
<path d="M119.114 129.793H119.085C119.035 129.789 118.987 129.776 118.942 129.753C118.897 129.73 118.857 129.699 118.824 129.661C118.792 129.623 118.767 129.579 118.751 129.531C118.736 129.484 118.73 129.434 118.734 129.384L118.891 127.271C118.895 127.221 118.908 127.172 118.931 127.127C118.954 127.083 118.985 127.043 119.023 127.01C119.061 126.977 119.105 126.952 119.152 126.937C119.2 126.921 119.25 126.915 119.3 126.918C119.35 126.922 119.399 126.935 119.444 126.958C119.489 126.981 119.529 127.012 119.561 127.05C119.594 127.088 119.619 127.132 119.635 127.179C119.651 127.227 119.657 127.277 119.653 127.327L119.494 129.441C119.487 129.537 119.444 129.626 119.373 129.691C119.303 129.756 119.21 129.793 119.114 129.793Z" fill="white"/>
<path d="M12.0826 79.0526C12.0826 79.0526 10.4773 78.0724 10.1719 78.2091C9.13768 78.6766 5.44188 83.8873 4.88729 84.3636C3.82993 85.2711 -0.279334 91.2448 0.0150508 92.2856C0.309436 93.3264 1.56636 93.548 1.56636 93.548L12.0826 79.0526Z" fill="white"/>
<path d="M11.8686 79.0362C12.2589 78.776 15.1101 81.5104 15.1895 81.9944C15.2689 82.4784 12.5808 83.3726 12.2853 84.9713C11.9899 86.57 12.6161 87.989 12.4959 88.3077C12.3758 88.6263 6.44947 89.5492 6.44947 89.5492C6.44947 89.5492 1.55077 94.1336 1.56841 93.4853C1.67866 89.3287 10.3062 80.0737 11.8686 79.0362Z" fill="#6F8137"/>
<path d="M10.7456 89.2185C10.6516 89.2184 10.561 89.1836 10.4911 89.1207C10.4213 89.0578 10.3772 88.9712 10.3674 88.8778L10.1403 86.7719C10.1344 86.7218 10.1385 86.6711 10.1524 86.6226C10.1662 86.5741 10.1895 86.5289 10.221 86.4895C10.2524 86.4501 10.2914 86.4173 10.3355 86.3931C10.3797 86.3688 10.4283 86.3535 10.4784 86.3481C10.5285 86.3427 10.5792 86.3473 10.6275 86.3617C10.6759 86.376 10.7209 86.3997 10.76 86.4315C10.7991 86.4633 10.8315 86.5026 10.8553 86.547C10.8791 86.5914 10.8939 86.6401 10.8989 86.6903L11.126 88.7962C11.1368 88.8968 11.1072 88.9975 11.0437 89.0763C10.9803 89.1551 10.8881 89.2054 10.7875 89.2163C10.7736 89.2181 10.7596 89.2188 10.7456 89.2185Z" fill="white"/>
<path d="M8.4836 89.6164C8.38948 89.6164 8.2987 89.5816 8.22869 89.5187C8.15867 89.4558 8.11438 89.3692 8.10431 89.2757L7.87718 87.1687C7.87183 87.1188 7.87635 87.0683 7.89049 87.0202C7.90463 86.9721 7.92811 86.9272 7.95959 86.8881C7.99107 86.8491 8.02994 86.8166 8.07397 86.7926C8.11801 86.7685 8.16634 86.7534 8.21622 86.748C8.2661 86.7427 8.31655 86.7472 8.36468 86.7613C8.41282 86.7755 8.4577 86.799 8.49675 86.8304C8.53581 86.8619 8.56829 86.9008 8.59233 86.9448C8.61637 86.9889 8.6315 87.0372 8.63685 87.0871L8.86288 89.193C8.8737 89.2937 8.84415 89.3946 8.7807 89.4735C8.71725 89.5525 8.62508 89.6031 8.52439 89.6142L8.4836 89.6164Z" fill="white"/>
<path d="M16.6934 82.6319C16.6934 82.6319 17.3053 86.4776 16.9084 88.4953C17.5754 89.1569 42.0733 102.069 47.9467 99.9014C53.8201 97.7337 66.5801 79.0188 66.5801 79.0188L57.4453 62.9775L43.5419 89.5494C36.4105 82.9814 20.9592 83.8458 16.6934 82.6319Z" fill="#0B61DD"/>
<path d="M63.4933 73.6028L54.7588 68.4902C53.6815 71.8321 52.1589 81.8974 58.2638 90.1391C62.7149 84.6814 66.575 79.0186 66.575 79.0186L63.4933 73.6028Z" fill="#2E353D"/>
<path d="M58.4346 61.3774L73.5398 65.5672C81.5179 74.4296 115.374 125.753 113.867 125.928C112.36 126.104 108.354 129.733 108.354 129.733C102.527 121.977 88.474 108.474 81.5808 98.7776C77.8254 93.4941 71.7933 83.3968 68.157 82.4177C64.5208 81.4386 46.9679 75.5002 58.4346 61.3774Z" fill="#0B61DD"/>
<path d="M54.917 67.7945C56.0493 67.81 70.9924 72.7495 77.5725 70.638C76.0289 68.5729 74.7224 66.9224 73.7521 65.8176L54.917 67.7945Z" fill="#2E353D"/>
<path d="M80.9992 23.2652C80.9992 23.2652 69.312 23.0215 70.505 18.9067C69.3131 18.9067 65.8941 20.9377 67.2855 24.8022C68.1334 27.1605 79.8691 25.5045 80.9992 23.2652Z" fill="#ABBD43"/>
<path d="M78.9249 68.8663C74.1552 71.9667 56.1922 65.0558 48.5701 69.1331C47.3926 66.6248 59.9751 33.3273 80.9977 23.2664C82.6747 24.1815 86.8623 26.4417 88.9637 29.4121C88.9637 29.411 79.431 45.4787 78.9249 68.8663Z" fill="#ABBD43"/>
<path d="M65.6885 58.137C65.6308 58.1369 65.5742 58.1212 65.5247 58.0915C65.4752 58.0618 65.4347 58.0192 65.4074 57.9684C63.6532 54.6673 69.9103 49.7542 76.5367 44.5545C83.5931 39.0108 90.8998 33.2797 88.3573 29.714C88.3303 29.6802 88.3105 29.6412 88.2991 29.5994C88.2877 29.5577 88.2849 29.514 88.2909 29.4712C88.297 29.4283 88.3116 29.3871 88.3341 29.3501C88.3565 29.3131 88.3863 29.2811 88.4215 29.2559C88.4568 29.2308 88.4968 29.2131 88.5391 29.204C88.5814 29.1948 88.6251 29.1944 88.6676 29.2027C88.7101 29.211 88.7504 29.2279 88.7862 29.2523C88.8219 29.2767 88.8523 29.3081 88.8755 29.3446C91.7708 33.4054 84.226 39.3273 76.9292 45.0551C70.8011 49.8645 64.4614 54.8382 65.9686 57.6696C65.9883 57.7064 66.0005 57.7468 66.0045 57.7883C66.0086 57.8299 66.0044 57.8718 65.9922 57.9118C65.98 57.9517 65.96 57.9889 65.9335 58.0211C65.9069 58.0533 65.8743 58.08 65.8374 58.0996C65.7916 58.1242 65.7405 58.137 65.6885 58.137Z" fill="#6F8137"/>
<path d="M66.9079 60.0512C66.7452 60.0511 66.5882 59.9911 66.4669 59.8825C66.0931 59.5444 65.7482 59.1756 65.436 58.7799C65.0391 58.2761 64.7745 57.9431 64.995 57.5219C65.053 57.4064 65.1435 57.3105 65.2554 57.2459C65.3672 57.1813 65.4956 57.1508 65.6246 57.1583C65.7536 57.1658 65.8775 57.211 65.9812 57.2881C66.0848 57.3653 66.1636 57.4711 66.2078 57.5925C66.5372 58.0697 66.9201 58.5077 67.349 58.8979C67.4483 58.9873 67.5183 59.1048 67.5496 59.2347C67.5809 59.3647 67.5721 59.5011 67.5243 59.6259C67.4766 59.7508 67.3921 59.8583 67.2821 59.9342C67.1721 60.0101 67.0416 60.0509 66.9079 60.0512Z" fill="#6F8137"/>
<path d="M58.7441 45.2151C76.3367 43.0739 80.4537 37.6283 83.6522 32.3459L66.7929 34.2589C63.9328 37.6339 60.8511 41.5369 58.7441 45.2151Z" fill="#2E353D"/>
<path d="M76.8756 23.9335C72.0717 23.3877 56.5057 26.6899 51.0755 31.9822C40.5163 42.2857 38.6904 59.6313 38.6904 59.6313C38.6904 59.6313 40.6254 62.6082 40.9783 61.854C42.8681 57.8131 53.1484 41.3254 56.5399 39.2272C58.9964 37.7067 70.0419 39.2658 75.3629 38.3606C80.6839 37.4554 85.3764 33.1399 83.5979 28.2578C81.8195 23.3756 76.8756 23.9335 76.8756 23.9335Z" fill="#FFAD94"/>
<path d="M49.2311 33.9568C47.8887 35.531 46.6832 37.2171 45.6279 38.9966C46.7702 40.5071 49.2796 43.2051 52.0228 44.3033C53.2147 42.6902 54.3239 41.3131 55.2324 40.3748L49.2311 33.9568Z" fill="white"/>
<path d="M75.3648 38.3647C80.6858 37.4595 85.3783 33.1441 83.5999 28.2619C81.8214 23.3797 76.8742 23.9332 76.8742 23.9332C72.0703 23.3875 56.0302 26.199 50.6023 31.4957C49.4269 32.6424 47.3916 35.1651 47.3916 35.1651C51.1966 40.6669 54.1999 42.034 54.1999 42.034C55.2253 40.797 56.1085 39.8918 56.7469 39.4981C59.2045 37.9766 70.0438 39.2721 75.3648 38.3647Z" fill="#ABBD43"/>
<path d="M53.9029 42.7056C53.7779 42.7059 53.6545 42.6772 53.5424 42.6218C50.4552 41.1201 47.7804 37.1961 46.9016 35.9061C46.8245 35.7958 46.7638 35.7043 46.7197 35.6426C46.593 35.4639 46.5424 35.2422 46.5791 35.0262C46.6158 34.8103 46.7368 34.6177 46.9154 34.491C47.0941 34.3642 47.3158 34.3136 47.5318 34.3503C47.7477 34.387 47.9403 34.508 48.0671 34.6867C48.1156 34.755 48.1773 34.8521 48.2655 34.9755C49.0836 36.1762 51.5732 39.8268 54.2646 41.1367C54.4329 41.2182 54.5685 41.3545 54.6493 41.5232C54.73 41.6919 54.7511 41.883 54.7091 42.0653C54.6671 42.2475 54.5645 42.4101 54.418 42.5265C54.2716 42.6428 54.09 42.706 53.9029 42.7056Z" fill="#ABBD43"/>
<path d="M48.4135 65.6996C46.4564 64.3765 46.0496 62.8759 45.4895 61.9035C44.9294 60.931 42.3582 58.942 42.7408 56.803C43.1234 54.664 39.3879 56.3763 39.3879 56.3763C39.3879 56.3763 36.9622 63.07 38.0218 64.3953C38.3305 64.7834 38.82 64.6411 39.3779 65.0954C39.5985 65.2707 39.8035 65.6246 40.1442 65.7878C40.5853 65.9995 40.9965 65.8804 41.3394 66.0668C41.9425 66.3975 42.1189 66.9775 42.8665 67.0304C44.2998 67.1307 44.5049 63.8782 44.5049 63.8782C44.5049 63.8782 45.3682 66.3832 46.9647 66.671C48.1808 66.8882 48.4135 65.6996 48.4135 65.6996Z" fill="#FFAD94"/>
<path d="M64.3694 42.3516C64.2997 42.3516 64.232 42.3288 64.1766 42.2865C64.1212 42.2443 64.0812 42.185 64.0628 42.1178C63.6362 40.5742 63.7916 39.2038 64.5259 38.0383C66.6043 34.7494 73.0058 33.6204 78.6531 32.6247C83.2001 31.8232 87.4935 31.0668 88.3314 29.3854C88.3713 29.3139 88.4372 29.2604 88.5154 29.2362C88.5937 29.212 88.6782 29.2188 88.7516 29.2552C88.8249 29.2917 88.8814 29.355 88.9093 29.432C88.9372 29.509 88.9344 29.5938 88.9015 29.6688C87.9202 31.6368 83.6775 32.3855 78.7578 33.251C73.245 34.2246 66.9857 35.3271 65.0585 38.3779C64.4146 39.3967 64.2867 40.5643 64.6704 41.9469C64.6925 42.0281 64.6817 42.1146 64.6404 42.1879C64.5992 42.2612 64.5307 42.3152 64.4498 42.3383C64.4237 42.3461 64.3966 42.3505 64.3694 42.3516Z" fill="#6F8137"/>
<path d="M64.8316 44.807C64.684 44.807 64.5407 44.7576 64.4244 44.6667C64.3081 44.5757 64.2256 44.4486 64.1899 44.3054C64.0797 43.8379 63.8591 42.9139 63.7191 41.9778C63.7029 41.8905 63.7044 41.8008 63.7236 41.7141C63.7428 41.6274 63.7793 41.5455 63.8308 41.4732C63.8823 41.4009 63.9479 41.3397 64.0236 41.2932C64.0993 41.2468 64.1835 41.2161 64.2714 41.2029C64.3592 41.1897 64.4487 41.1943 64.5347 41.2165C64.6207 41.2387 64.7014 41.2779 64.7719 41.3319C64.8423 41.3859 64.9012 41.4536 64.945 41.5308C64.9888 41.6081 65.0166 41.6934 65.0268 41.7816C65.1591 42.6636 65.3575 43.5457 65.4678 43.9867C65.4917 44.084 65.4931 44.1855 65.4721 44.2835C65.451 44.3815 65.4079 44.4734 65.3461 44.5523C65.2843 44.6312 65.2054 44.695 65.1153 44.739C65.0252 44.7829 64.9263 44.8058 64.8261 44.8059L64.8316 44.807Z" fill="#6F8137"/>
<path d="M94.1556 13.4987C94.1422 13.4961 94.1289 13.4928 94.1159 13.4888C94.1049 13.4888 94.0983 13.4822 94.0795 13.4789L94.0101 13.4722C93.9593 13.4645 93.8998 13.4546 93.8182 13.448C93.7366 13.4414 93.655 13.4337 93.558 13.4314C93.461 13.4292 93.3551 13.4314 93.2416 13.4314C93.128 13.4314 93.0089 13.4414 92.8855 13.4568C92.762 13.4722 92.6308 13.4844 92.5018 13.5108C92.3728 13.5373 92.2382 13.5649 92.1048 13.5979C91.9714 13.631 91.8435 13.6773 91.7123 13.7159C91.5811 13.7545 91.4598 13.8151 91.3363 13.8625C91.2129 13.91 91.1037 13.9728 90.9934 14.0268C90.8901 14.0775 90.7896 14.1338 90.6924 14.1955C90.602 14.2529 90.5116 14.2992 90.4422 14.3521L90.2569 14.4855L90.0938 14.6035L90.204 14.4403L90.3396 14.2507C90.3903 14.1746 90.4609 14.1018 90.5315 14.0147C90.6076 13.9205 90.6886 13.8304 90.774 13.7446C90.8667 13.6542 90.9593 13.5505 91.0662 13.4579C91.1732 13.3653 91.2867 13.2628 91.4058 13.1723C91.5249 13.0819 91.6484 12.9838 91.7818 12.9044C91.9152 12.825 92.0442 12.7335 92.182 12.6619C92.3198 12.5902 92.4543 12.5174 92.59 12.4535C92.7256 12.3895 92.8601 12.3377 92.9891 12.2859C93.1181 12.2341 93.2427 12.1922 93.3607 12.1591C93.4786 12.126 93.5878 12.094 93.6914 12.0698C93.7951 12.0455 93.8789 12.029 93.9538 12.0146L94.0553 11.9981C94.0839 11.9926 94.1192 11.9904 94.1435 11.9871L94.2074 11.9805C94.3076 11.9841 94.4061 12.0074 94.4973 12.0491C94.5885 12.0908 94.6706 12.15 94.7389 12.2234C94.8071 12.2968 94.8603 12.383 94.8953 12.4769C94.9303 12.5709 94.9465 12.6708 94.9428 12.771C94.9392 12.8712 94.9159 12.9697 94.8742 13.0609C94.8325 13.1521 94.7733 13.2342 94.6999 13.3024C94.6265 13.3707 94.5403 13.4239 94.4464 13.4589C94.3524 13.4939 94.2525 13.51 94.1523 13.5064L94.1556 13.4987Z" fill="#2E353D"/>
<path d="M94.782 15.9133H84.4741C84.4307 15.9159 84.3873 15.9096 84.3465 15.8947C84.3057 15.8799 84.2684 15.8569 84.2368 15.8271C84.2052 15.7973 84.18 15.7614 84.1628 15.7215C84.1456 15.6816 84.1367 15.6387 84.1367 15.5953C84.1367 15.5518 84.1456 15.5089 84.1628 15.469C84.18 15.4291 84.2052 15.3932 84.2368 15.3634C84.2684 15.3336 84.3057 15.3106 84.3465 15.2958C84.3873 15.2809 84.4307 15.2746 84.4741 15.2772H94.782C94.8631 15.2819 94.9393 15.3175 94.9951 15.3767C95.0508 15.4358 95.0819 15.514 95.0819 15.5953C95.0819 15.6765 95.0508 15.7547 94.9951 15.8138C94.9393 15.873 94.8631 15.9086 94.782 15.9133Z" fill="#6F8137"/>
<path d="M94.1834 18.7733C94.1611 18.7735 94.1389 18.7709 94.1172 18.7656C94.0763 18.7571 94.0375 18.7405 94.003 18.7169C93.9685 18.6933 93.939 18.6631 93.9162 18.6281C93.8935 18.593 93.8779 18.5538 93.8704 18.5127C93.8629 18.4716 93.8636 18.4294 93.8725 18.3885L94.8207 13.9408C94.8401 13.86 94.8904 13.79 94.9607 13.7457C95.0311 13.7015 95.1159 13.6864 95.1972 13.7038C95.2784 13.7212 95.3497 13.7697 95.3957 13.8389C95.4417 13.9081 95.4589 13.9925 95.4436 14.0742L94.4943 18.5208C94.4792 18.5921 94.4401 18.6561 94.3835 18.702C94.3269 18.748 94.2563 18.7731 94.1834 18.7733Z" fill="#6F8137"/>
<path d="M85.2853 16.5593C85.2963 15.9868 85.1155 15.4271 84.7715 14.9694C84.1442 14.1347 83.0504 12.9737 81.9787 13.2637C78.0525 14.3299 81.6799 19.9673 84.0174 20.1922C84.7671 20.2639 85.2225 19.6464 85.2225 19.6464L85.2853 16.5593Z" fill="#E27960"/>
<path d="M84.35 20.8593C84.6807 20.6995 85.3875 19.8251 85.533 19.555L83.7689 19.3665L83.2959 19.5991C83.624 20.0381 83.9759 20.4588 84.35 20.8593Z" fill="#CE5F49"/>
<path d="M84.3004 16.2287C83.4989 15.2507 82.6113 15.5142 82.5187 16.2574C82.4007 17.21 84.0556 19.124 85.1229 18.2111L84.3004 16.2287Z" fill="#CE5F49"/>
<path d="M82.3341 14.2097C81.5017 13.848 80.5843 14.3596 80.2822 14.9043C80.4223 14.159 80.8975 13.3695 82.0243 13.1711C83.1114 12.9803 84.1732 14.1358 84.7807 14.9638C85.1198 15.4269 85.2973 15.9887 85.2857 16.5625L85.2427 18.6574C84.7675 17.331 84.1434 15.2229 82.3341 14.2097Z" fill="#FFAD94"/>
<path d="M84.0172 20.1978C83.0646 20.1063 81.897 19.115 81.1152 17.9011C82.7525 20.3576 84.725 19.1724 85.2421 18.6619L85.5332 19.5627C85.5332 19.5627 84.7669 20.265 84.0172 20.1978Z" fill="#FFAD94"/>
<path d="M67.3801 25.0767H42.2306C42.1494 25.0719 42.0732 25.0363 42.0175 24.9772C41.9617 24.918 41.9307 24.8398 41.9307 24.7586C41.9307 24.6773 41.9617 24.5991 42.0175 24.54C42.0732 24.4809 42.1494 24.4453 42.2306 24.4405H67.3801C67.4234 24.4379 67.4669 24.4443 67.5077 24.4591C67.5485 24.4739 67.5858 24.497 67.6174 24.5267C67.649 24.5565 67.6742 24.5925 67.6914 24.6323C67.7086 24.6722 67.7175 24.7152 67.7175 24.7586C67.7175 24.802 67.7086 24.845 67.6914 24.8848C67.6742 24.9247 67.649 24.9606 67.6174 24.9904C67.5858 25.0202 67.5485 25.0432 67.5077 25.0581C67.4669 25.0729 67.4234 25.0792 67.3801 25.0767Z" fill="#84B8FF"/>
<path d="M85.2118 64.4106C85.0524 64.4105 84.8964 64.3642 84.7627 64.2774C84.629 64.1905 84.5233 64.0668 84.4583 63.9212C84.3934 63.7756 84.372 63.6143 84.3967 63.4567C84.4214 63.2992 84.4912 63.1523 84.5977 63.0335L89.5283 57.5395C89.6758 57.3811 89.8795 57.2869 90.0956 57.2772C90.3117 57.2675 90.5231 57.343 90.6841 57.4874C90.8452 57.6319 90.9431 57.8338 90.9569 58.0497C90.9707 58.2656 90.8991 58.4783 90.7577 58.642L85.827 64.135C85.7498 64.2218 85.655 64.2912 85.5489 64.3388C85.4429 64.3863 85.328 64.4108 85.2118 64.4106Z" fill="#6F8137"/>
<path d="M88.1943 56.5407C88.9926 56.2099 89.5174 56.2529 89.6277 57.6146C89.7379 58.9762 88.1943 56.5407 88.1943 56.5407Z" fill="#6F8137"/>
<path d="M92.7637 20.8594L94.0041 21.1361C94.0798 21.1464 94.1509 21.1785 94.2086 21.2286C94.2663 21.2787 94.3081 21.3445 94.329 21.418C94.3498 21.4916 94.3488 21.5696 94.3259 21.6425C94.303 21.7154 94.2594 21.7801 94.2003 21.8285L93.1165 22.5882C93.1165 22.5882 94.1849 23.4394 93.8188 23.9113C93.4528 24.3832 92.0459 23.6246 92.0459 23.6246L92.7637 20.8594Z" fill="#FFAD94"/>
<path d="M164.345 115.004C164.319 115.004 164.292 115.001 164.267 114.994C163.598 114.826 162.578 113.979 162.539 113.157C162.527 112.898 162.61 112.427 163.294 112.185C163.374 112.157 163.461 112.161 163.537 112.198C163.614 112.234 163.672 112.299 163.7 112.379C163.728 112.458 163.724 112.546 163.687 112.622C163.651 112.698 163.586 112.757 163.506 112.785C163.164 112.906 163.175 113.061 163.175 113.128C163.196 113.575 163.937 114.254 164.425 114.378C164.5 114.396 164.567 114.442 164.611 114.506C164.656 114.57 164.675 114.649 164.665 114.726C164.656 114.803 164.618 114.875 164.559 114.926C164.5 114.977 164.424 115.005 164.346 115.004H164.345Z" fill="#2E353D"/>
<path d="M104.737 70.0812L108.706 68.8948C108.706 68.8948 108.927 68.9169 109.048 68.9257C109.297 68.9434 109.545 68.9511 109.794 68.95C110.29 68.95 110.906 69.0834 111.405 68.993C111.654 68.9467 113.488 68.6754 114.063 67.4417C114.274 66.9918 114.334 66.7515 114.072 66.4857C113.969 66.3799 113.833 66.3111 113.687 66.2898C113.541 66.2684 113.391 66.2958 113.262 66.3678L113.171 66.4174C113.1 66.4628 113.027 66.5044 112.951 66.542C112.876 66.5828 112.794 66.6125 112.717 66.6456C112.64 66.6787 112.556 66.704 112.47 66.725C112.384 66.7459 112.301 66.7669 112.218 66.7856C112.043 66.8174 111.866 66.8381 111.688 66.8474C111.505 66.8556 111.321 66.8537 111.137 66.8419C110.762 66.8159 110.39 66.758 110.025 66.6688C109.841 66.6235 109.656 66.5717 109.473 66.5133C109.383 66.4846 109.295 66.4538 109.209 66.4218L109.083 66.3722C109.05 66.3603 109.017 66.3455 108.986 66.3281L108.461 66.2851L104.134 66.7658C103.957 66.786 103.785 66.841 103.629 66.9276C103.473 67.0142 103.336 67.1307 103.225 67.2703C103.115 67.41 103.032 67.5702 102.984 67.7417C102.935 67.9131 102.92 68.0926 102.941 68.2697C103.018 69.0095 104.663 70.6292 104.737 70.0812Z" fill="#FFAD94"/>
<path d="M102.926 70.2708C102.926 70.2708 104.139 71.6623 105.241 71.5939C106.344 71.5255 110.853 69.2785 110.853 69.2785L110.133 67.8849C105.639 67.7603 102.926 70.2708 102.926 70.2708Z" fill="#CE5F49"/>
<path d="M163.744 110.071L152.563 112.307C152.563 112.307 149.463 113.816 148.908 118.094C148.908 118.094 142.072 126.426 141.925 126.683C141.335 127.711 140.987 130.419 142.774 131.774C142.774 131.774 148.229 125.559 149.838 123.946C151.966 121.821 161.002 116.271 163.744 110.071Z" fill="#2E353D"/>
<path d="M141.615 103.993C134.597 104.772 131.059 111.783 131.059 111.783C131.059 111.783 137.528 116.832 133.021 121.522C133.021 121.522 143.285 131.278 146.48 131.987C149.146 132.579 150.535 130.949 150.535 130.949C150.535 130.949 139.889 123.421 141.487 120.756C142.556 118.972 146.796 118.441 146.53 112.51C146.177 104.626 141.615 103.993 141.615 103.993Z" fill="#2E353D"/>
<path d="M151.53 99.7744L164.43 107.69C164.43 107.69 163.462 117.974 150.049 118.777C141.473 119.29 131.078 107.79 131.078 107.79L126.609 104.964C130.302 99.7744 142.412 104.883 151.53 99.7744Z" fill="#FA6142"/>
<path d="M128.597 103.349C122.046 105.983 119.939 113.687 119.939 113.687C119.939 113.687 127.839 116.648 124.757 122.376C124.757 122.376 136.432 129.432 140.243 129.176C143.539 128.956 143.983 127.214 143.983 127.214C143.983 127.214 134.598 124.12 135.196 122.129C135.793 120.138 138.822 118.401 136.973 112.757C134.516 105.252 128.597 103.349 128.597 103.349Z" fill="#FA6142"/>
<path d="M91.7025 100.105C90.8072 102.246 96.4921 102.407 100.523 104.725L94.2384 99.9751L91.7025 100.105Z" fill="#FA6142"/>
<path d="M129.098 103.826C121.941 106.472 95.208 89.7134 83.877 98.3994C90.3115 95.16 111.699 117.372 125.223 107.353L129.098 103.826Z" fill="#FA6142"/>
<path d="M118.568 109.634C117.818 110.113 115.535 111.799 116.349 111.979C118.088 112.364 123.846 109.874 125.948 107.024L118.568 109.634Z" fill="#FA6142"/>
<path d="M111.392 109.77L111.192 109.746C111.116 109.735 111.011 109.722 110.909 109.703C110.806 109.684 110.688 109.662 110.559 109.635C109.878 109.478 109.206 109.284 108.546 109.053C106.941 108.513 104.897 107.679 102.824 106.959C101.816 106.603 100.792 106.3 99.7532 106.049C98.7608 105.82 97.8215 105.691 97.0243 105.718C96.6638 105.727 96.3056 105.778 95.957 105.87C95.6924 105.943 95.4393 106.052 95.2051 106.195C95.0551 106.29 94.9157 106.4 94.7894 106.525L94.6615 106.663L94.6538 106.671C94.6316 106.695 94.6009 106.71 94.5682 106.712C94.5354 106.714 94.5032 106.703 94.4782 106.682C94.4532 106.66 94.4374 106.63 94.4342 106.598C94.431 106.565 94.4405 106.532 94.4608 106.507L94.5898 106.342C94.7196 106.192 94.8652 106.056 95.0242 105.937C95.2721 105.752 95.5445 105.604 95.8335 105.495C96.2059 105.363 96.592 105.273 96.9846 105.228C97.8413 105.124 98.8413 105.176 99.8866 105.325C100.973 105.49 102.049 105.71 103.113 105.986C104.197 106.258 105.266 106.561 106.265 106.841C107.264 107.121 108.189 107.381 108.977 107.574C109.595 107.732 110.22 107.856 110.852 107.945C110.962 107.96 111.057 107.97 111.139 107.976C111.222 107.983 111.277 107.984 111.33 107.988L111.526 107.995C111.646 107.995 111.764 108.019 111.874 108.066C111.985 108.113 112.084 108.181 112.167 108.267C112.25 108.353 112.315 108.455 112.358 108.567C112.401 108.679 112.421 108.798 112.416 108.917C112.412 109.037 112.384 109.154 112.333 109.263C112.283 109.371 112.211 109.468 112.122 109.548C112.033 109.628 111.929 109.689 111.816 109.728C111.703 109.767 111.583 109.783 111.464 109.775C111.444 109.776 111.416 109.773 111.392 109.77Z" fill="#FA6142"/>
<path d="M100.569 108.403L100.599 108.414C100.626 108.426 100.654 108.435 100.683 108.442C100.718 108.448 100.753 108.458 100.809 108.467C100.866 108.476 100.927 108.487 101 108.495C101.146 108.512 101.325 108.529 101.532 108.541C101.738 108.553 101.973 108.563 102.228 108.57C103.252 108.594 104.621 108.559 105.977 108.45C106.317 108.423 106.654 108.392 106.986 108.356C107.318 108.319 107.648 108.278 107.953 108.231C108.258 108.184 108.563 108.135 108.842 108.08C109.121 108.025 109.38 107.97 109.613 107.906L109.944 107.812L110.226 107.716L110.458 107.622L110.633 107.536C110.699 107.502 110.761 107.461 110.819 107.414C110.849 107.388 110.867 107.375 110.867 107.375L110.964 107.308C111.051 107.243 111.15 107.195 111.255 107.169C111.36 107.143 111.47 107.138 111.577 107.155C111.685 107.172 111.787 107.211 111.879 107.269C111.971 107.326 112.05 107.402 112.112 107.491C112.174 107.581 112.218 107.681 112.24 107.788C112.262 107.894 112.262 108.004 112.24 108.11C112.219 108.217 112.176 108.318 112.115 108.407C112.053 108.497 111.974 108.573 111.882 108.631L111.844 108.657L111.685 108.753C111.548 108.833 111.405 108.902 111.256 108.958L110.968 109.055L110.638 109.141L110.274 109.213C110.149 109.233 110.016 109.255 109.879 109.274C109.607 109.309 109.314 109.339 109.007 109.36C108.7 109.381 108.38 109.395 108.049 109.401C107.718 109.406 107.379 109.407 107.033 109.401C106.688 109.394 106.341 109.384 105.993 109.369C104.6 109.304 103.22 109.166 102.19 109.011C101.932 108.972 101.696 108.933 101.488 108.893C101.279 108.852 101.096 108.813 100.946 108.776C100.871 108.759 100.804 108.736 100.745 108.721C100.687 108.705 100.629 108.68 100.587 108.664C100.557 108.653 100.528 108.639 100.501 108.624L100.472 108.609C100.458 108.603 100.446 108.594 100.435 108.583C100.425 108.573 100.417 108.56 100.411 108.546C100.406 108.532 100.403 108.517 100.403 108.501C100.404 108.486 100.407 108.471 100.413 108.458C100.419 108.444 100.428 108.431 100.439 108.421C100.45 108.41 100.463 108.402 100.477 108.397C100.491 108.391 100.506 108.389 100.521 108.389C100.536 108.389 100.551 108.393 100.565 108.399L100.569 108.403Z" fill="#FA6142"/>
<path d="M111.413 112.361L111.486 112.286L111.584 112.194L111.713 112.077C111.907 111.906 112.191 111.674 112.542 111.409C113.408 110.756 114.32 110.169 115.273 109.652C115.538 109.513 115.806 109.376 116.077 109.25C116.348 109.124 116.619 109.007 116.889 108.902C117.024 108.847 117.161 108.801 117.293 108.753C117.425 108.704 117.56 108.664 117.69 108.624C117.953 108.548 118.209 108.483 118.453 108.434C118.697 108.386 118.928 108.355 119.139 108.334L119.439 108.315C119.532 108.315 119.62 108.315 119.7 108.315C119.826 108.315 119.952 108.322 120.077 108.336L120.213 108.347C120.366 108.356 120.516 108.395 120.653 108.463C120.791 108.531 120.913 108.626 121.014 108.742C121.114 108.858 121.19 108.994 121.237 109.14C121.284 109.286 121.302 109.44 121.288 109.593C121.275 109.745 121.231 109.894 121.159 110.03C121.087 110.165 120.988 110.285 120.869 110.382C120.75 110.478 120.612 110.55 120.465 110.593C120.318 110.636 120.163 110.648 120.011 110.63C119.93 110.624 119.851 110.608 119.774 110.584L119.754 110.577L119.686 110.556C119.62 110.532 119.553 110.513 119.485 110.498C119.44 110.488 119.39 110.474 119.333 110.464L119.142 110.433C118.981 110.413 118.818 110.402 118.656 110.399C118.471 110.399 118.264 110.399 118.043 110.416L117.699 110.451C117.581 110.467 117.459 110.48 117.335 110.501C117.087 110.543 116.829 110.591 116.563 110.652C116.297 110.714 116.033 110.784 115.765 110.859C114.772 111.15 113.803 111.515 112.864 111.95C112.478 112.13 112.162 112.293 111.947 112.413L111.804 112.494L111.707 112.553L111.621 112.611C111.588 112.635 111.547 112.645 111.506 112.64C111.465 112.635 111.427 112.615 111.401 112.584C111.374 112.552 111.36 112.511 111.363 112.47C111.365 112.429 111.382 112.39 111.412 112.361H111.413Z" fill="#FA6142"/>
<path d="M113.021 109.763L112.951 109.781L112.84 109.811C112.789 109.826 112.747 109.833 112.695 109.844C112.49 109.886 112.225 109.92 111.923 109.955C111.621 109.989 111.277 110.032 110.922 110.092C110.563 110.148 110.21 110.241 109.871 110.371C109.54 110.507 109.264 110.702 109.112 110.964C109.039 111.082 109.008 111.22 109.022 111.357C109.035 111.494 109.086 111.624 109.168 111.734C109.243 111.834 109.338 111.917 109.448 111.978C109.537 112.027 109.634 112.065 109.733 112.088C109.799 112.105 109.866 112.117 109.934 112.123L110.007 112.13L109.934 112.142C109.865 112.153 109.795 112.159 109.726 112.16C109.614 112.161 109.503 112.148 109.395 112.12C109.246 112.082 109.106 112.013 108.986 111.917C108.836 111.795 108.722 111.635 108.655 111.454C108.573 111.236 108.563 110.998 108.626 110.774C108.693 110.545 108.806 110.333 108.957 110.15C109.106 109.967 109.277 109.805 109.467 109.666C109.822 109.414 110.203 109.201 110.604 109.032C110.975 108.87 111.32 108.739 111.604 108.63C111.889 108.521 112.115 108.432 112.248 108.366C112.275 108.354 112.301 108.34 112.327 108.325C112.345 108.314 112.352 108.309 112.378 108.296L112.442 108.261C112.537 108.202 112.642 108.163 112.751 108.147C112.861 108.13 112.973 108.137 113.08 108.165C113.187 108.193 113.288 108.243 113.375 108.312C113.462 108.381 113.534 108.466 113.587 108.564C113.64 108.661 113.672 108.769 113.682 108.879C113.691 108.99 113.678 109.101 113.644 109.206C113.609 109.312 113.553 109.409 113.479 109.491C113.405 109.574 113.315 109.641 113.214 109.688C113.153 109.721 113.088 109.746 113.021 109.763Z" fill="#FA6142"/>
<path d="M106.334 110.277L106.502 110.167L106.696 110.045C106.768 109.995 106.858 109.95 106.954 109.895C107.05 109.84 107.156 109.785 107.267 109.723L107.623 109.547C107.746 109.485 107.876 109.426 108.009 109.369C108.141 109.312 108.276 109.248 108.412 109.192L108.822 109.029C108.957 108.972 109.093 108.928 109.224 108.88C109.355 108.833 109.481 108.785 109.603 108.747L109.947 108.637C110.16 108.565 110.343 108.527 110.47 108.485L110.67 108.429C110.745 108.405 110.824 108.397 110.902 108.404C110.98 108.411 111.056 108.434 111.125 108.472C111.194 108.509 111.255 108.56 111.304 108.621C111.353 108.682 111.389 108.753 111.409 108.829C111.43 108.904 111.436 108.983 111.425 109.061C111.415 109.139 111.389 109.214 111.349 109.281C111.309 109.349 111.255 109.407 111.192 109.454C111.129 109.5 111.057 109.533 110.98 109.551C110.935 109.563 110.888 109.57 110.841 109.572H110.82H110.628C110.507 109.572 110.332 109.572 110.121 109.588L109.78 109.609C109.658 109.609 109.53 109.631 109.398 109.643C109.266 109.656 109.128 109.667 108.989 109.686L108.568 109.743C108.426 109.762 108.287 109.789 108.147 109.812C108.007 109.835 107.871 109.858 107.74 109.888L107.36 109.969L107.03 110.056C106.926 110.084 106.829 110.105 106.745 110.136L106.525 110.208L106.334 110.277Z" fill="#FA6142"/>
<path d="M149.766 100.768C149.571 100.187 146.967 98.9629 147.245 100.683C147.524 102.403 149.766 100.768 149.766 100.768Z" fill="#FA6142"/>
<path d="M164.435 112.646C164.306 112.646 164.18 112.606 164.074 112.532C163.968 112.458 163.888 112.353 163.844 112.231C163.8 112.109 163.795 111.977 163.829 111.852C163.863 111.728 163.935 111.617 164.035 111.534C165.291 110.499 165.767 109.083 165.45 107.325C164.757 103.487 160.219 98.6431 155.928 97.1624C154.575 96.696 152.686 96.3906 151.371 97.556C151.309 97.6108 151.238 97.6529 151.16 97.68C151.082 97.7071 151 97.7186 150.917 97.7138C150.835 97.7091 150.755 97.6881 150.68 97.6523C150.606 97.6164 150.54 97.5662 150.485 97.5047C150.43 97.4432 150.388 97.3714 150.361 97.2936C150.334 97.2158 150.322 97.1334 150.327 97.0511C150.332 96.9689 150.353 96.8883 150.389 96.8142C150.425 96.74 150.475 96.6736 150.536 96.6188C151.937 95.3718 153.942 95.1491 156.338 95.976C161.079 97.61 165.911 102.812 166.686 107.102C167.084 109.307 166.443 111.181 164.833 112.505C164.721 112.596 164.58 112.646 164.435 112.646Z" fill="#2E353D"/>
<path d="M170.981 109.775L170.834 109.759H170.794L170.736 109.751L170.604 109.733C170.494 109.717 170.424 109.702 170.321 109.684C170.122 109.649 169.896 109.601 169.643 109.547L168.809 109.361C167.609 109.088 166.046 108.736 164.497 108.531C164.11 108.482 163.725 108.435 163.347 108.406C162.969 108.378 162.602 108.356 162.245 108.345C161.887 108.333 161.552 108.345 161.238 108.357C161.08 108.363 160.927 108.371 160.781 108.386L160.561 108.404L160.358 108.429L160.163 108.454L159.981 108.485C159.863 108.504 159.751 108.521 159.65 108.546C159.55 108.572 159.452 108.588 159.365 108.609L159.13 108.674C159.058 108.692 158.996 108.712 158.943 108.729L158.81 108.775L158.7 108.811L158.626 108.835C158.428 108.905 158.219 108.936 158.01 108.924C157.8 108.912 157.596 108.858 157.407 108.765C157.219 108.673 157.052 108.544 156.914 108.386C156.777 108.227 156.672 108.043 156.607 107.844C156.542 107.645 156.517 107.435 156.535 107.226C156.552 107.017 156.611 106.814 156.708 106.628C156.806 106.442 156.939 106.278 157.101 106.144C157.262 106.011 157.449 105.912 157.65 105.852L157.713 105.833L157.884 105.784L158.088 105.728C158.169 105.704 158.262 105.68 158.366 105.659L158.709 105.584C158.833 105.559 158.968 105.538 159.111 105.514C159.254 105.49 159.405 105.471 159.565 105.452L159.811 105.424L160.066 105.404L160.332 105.384L160.605 105.374C160.791 105.365 160.981 105.363 161.176 105.364C161.566 105.364 161.972 105.382 162.389 105.409C162.806 105.437 163.229 105.483 163.655 105.541C164.08 105.598 164.508 105.666 164.934 105.741C166.628 106.05 168.256 106.502 169.441 106.832L170.238 107.052C170.471 107.114 170.669 107.163 170.824 107.2L171.011 107.243L171.069 107.255L171.096 107.262L171.131 107.267L171.277 107.288H171.283C171.607 107.337 171.898 107.51 172.096 107.771C172.294 108.032 172.382 108.359 172.342 108.684C172.302 109.009 172.137 109.305 171.882 109.509C171.626 109.714 171.301 109.811 170.976 109.78L170.981 109.775Z" fill="#FA6142"/>
<path d="M163.4 108.183C161.674 109.065 155.571 111.27 153.366 110.585C151.161 109.9 149.137 100.283 149.137 100.283C149.137 100.283 150.631 96.9883 153.799 99.7072C156.968 102.426 159.356 101.239 159.356 101.239L163.4 108.183Z" fill="#FA6142"/>
<path d="M162.685 113.169C161.499 113.169 160.126 112.694 158.616 111.75C156.566 110.469 154.379 108.378 152.614 106.017C150.116 102.666 148.265 98.4336 150.563 96.6022C150.627 96.5495 150.701 96.5101 150.781 96.4863C150.86 96.4625 150.944 96.4547 151.027 96.4635C151.109 96.4722 151.189 96.4973 151.262 96.5373C151.335 96.5773 151.399 96.6314 151.451 96.6964C151.503 96.7614 151.541 96.8361 151.564 96.9161C151.587 96.9961 151.593 97.0798 151.583 97.1623C151.573 97.2449 151.547 97.3246 151.506 97.3969C151.465 97.4692 151.41 97.5327 151.344 97.5835C150.069 98.6001 151.005 101.76 153.62 105.266C156.817 109.547 161.718 113.152 164.076 111.509C164.143 111.462 164.22 111.428 164.3 111.411C164.381 111.393 164.464 111.391 164.545 111.406C164.626 111.42 164.703 111.451 164.773 111.495C164.842 111.54 164.902 111.597 164.949 111.665C164.997 111.733 165.03 111.809 165.048 111.889C165.065 111.97 165.067 112.053 165.052 112.134C165.038 112.215 165.008 112.293 164.963 112.362C164.919 112.432 164.861 112.492 164.793 112.539C164.174 112.963 163.437 113.184 162.685 113.169Z" fill="#FCD738"/>
<path d="M166.38 106.616L166.33 106.648L166.304 106.665H166.296L166.28 106.674L166.217 106.707C166.173 106.73 166.124 106.754 166.072 106.777L165.991 106.812L165.948 106.83L165.91 106.844C165.572 106.962 165.219 107.036 164.862 107.065C164.118 107.141 163.262 107.113 162.27 107.055C161.277 106.996 160.168 106.897 158.994 106.809C157.82 106.721 156.584 106.64 155.371 106.614C154.216 106.578 153.06 106.612 151.909 106.716C151.001 106.794 150.104 106.97 149.234 107.242C148.938 107.339 148.65 107.458 148.373 107.599C148.189 107.694 148.013 107.802 147.846 107.923C147.752 107.992 147.663 108.065 147.578 108.144C147.525 108.197 147.496 108.223 147.496 108.223L147.459 108.256C147.181 108.504 146.856 108.693 146.503 108.811C146.149 108.929 145.776 108.974 145.405 108.943C145.034 108.913 144.673 108.806 144.344 108.631C144.015 108.456 143.726 108.216 143.493 107.926C143.26 107.635 143.089 107.3 142.99 106.941C142.89 106.582 142.865 106.207 142.916 105.838C142.967 105.469 143.092 105.114 143.284 104.795C143.477 104.476 143.732 104.2 144.034 103.983L144.312 103.784C144.571 103.606 144.84 103.443 145.117 103.294C145.525 103.077 145.947 102.889 146.382 102.733C146.906 102.547 147.443 102.4 147.989 102.292C149.228 102.058 150.489 101.957 151.749 101.993C153.081 102.028 154.41 102.143 155.729 102.336C157.045 102.52 158.327 102.756 159.509 102.985C160.691 103.214 161.773 103.436 162.674 103.598C163.124 103.679 163.529 103.744 163.869 103.788C164.21 103.832 164.486 103.853 164.667 103.858C164.847 103.864 164.927 103.852 164.887 103.874H164.876L164.857 103.881L164.822 103.897C164.8 103.908 164.78 103.92 164.763 103.931L164.738 103.949C164.732 103.949 164.738 103.949 164.738 103.949H164.747L164.776 103.934L164.828 103.909H164.839C165.194 103.733 165.604 103.699 165.984 103.815C166.364 103.931 166.685 104.188 166.882 104.532C167.079 104.877 167.137 105.284 167.044 105.67C166.951 106.056 166.714 106.392 166.382 106.609L166.38 106.616Z" fill="#FF9688"/>
<path d="M144.708 78.8191C143.982 81.6924 148.033 88.5581 156.712 93.5549L165.877 90.6816C165.416 85.0861 147.025 81.1367 144.708 78.8191Z" fill="#D83A21"/>
<path d="M152.776 100.636C152.673 99.4846 153.375 92.0919 160.645 90.8372C167.916 89.5825 168.387 92.0589 168.387 92.0589C168.387 92.0589 170.57 97.2497 171.406 97.7205C172.243 98.1913 178.623 97.93 178.623 97.93C178.623 97.93 179.934 100.346 178.337 102.323C175.381 105.983 172.494 106.41 168.452 106.253C164.41 106.097 152.776 100.636 152.776 100.636Z" fill="#FA6142"/>
<path d="M162.355 90.5945C158.848 87.0751 139.017 81.8467 137.554 85.9317C137.198 86.924 141.239 88.2736 144.866 90.8359C149.251 93.9331 153.894 97.7082 157.26 96.781C160.302 94.7225 165.03 93.2693 162.355 90.5945Z" fill="#FA6142"/>
<path d="M161.168 94.1657C159.368 93.8405 148.032 82.29 137.653 85.7223C137.614 85.789 137.581 85.8591 137.554 85.9318C137.198 86.9241 141.239 88.2736 144.866 90.836C149.251 93.9331 153.894 97.7083 157.26 96.781C158.546 95.9111 160.054 95.061 161.168 94.1657Z" fill="#FF9688"/>
<path d="M159.156 95.9155L159.097 95.8571L159.046 95.8053C159.032 95.7887 158.996 95.759 158.966 95.7292C158.832 95.6101 158.622 95.4348 158.356 95.232C157.697 94.7316 157.007 94.2731 156.291 93.8593C156.094 93.749 155.896 93.6387 155.697 93.5351C155.499 93.4315 155.302 93.3366 155.108 93.2506C154.914 93.1646 154.725 93.083 154.542 93.0169C154.359 92.9507 154.184 92.8912 154.021 92.8438C153.857 92.7964 153.704 92.7622 153.567 92.7335C153.449 92.7115 153.33 92.6957 153.21 92.6861C153.132 92.6782 153.054 92.6749 152.975 92.6762H152.893L152.973 92.6575C153.05 92.6374 153.128 92.6216 153.207 92.6101C153.329 92.5901 153.453 92.5769 153.577 92.5704C153.722 92.5626 153.885 92.5604 154.062 92.5704C154.24 92.5803 154.435 92.5913 154.638 92.6167C154.841 92.642 155.055 92.6729 155.274 92.7137C155.494 92.7545 155.715 92.8019 155.949 92.857C156.183 92.9122 156.408 92.9673 156.636 93.0401C157.479 93.2851 158.307 93.5837 159.112 93.9342C159.443 94.0787 159.723 94.2121 159.924 94.3201C159.975 94.3477 160.016 94.3675 160.065 94.3973L160.175 94.4635L160.247 94.5065C160.353 94.5639 160.447 94.6424 160.523 94.7371C160.598 94.8319 160.654 94.9409 160.686 95.0577C160.719 95.1745 160.727 95.2966 160.711 95.4167C160.695 95.5368 160.655 95.6524 160.593 95.7566C160.531 95.8608 160.449 95.9513 160.351 96.0229C160.253 96.0944 160.142 96.1454 160.024 96.1728C159.906 96.2002 159.783 96.2035 159.664 96.1824C159.545 96.1613 159.431 96.1163 159.329 96.0501C159.269 96.0146 159.213 95.9716 159.163 95.9222L159.156 95.9155Z" fill="#FA6142"/>
<path d="M158.763 97.3389L158.521 97.1757C158.448 97.1272 158.362 97.0654 158.255 96.9993C158.148 96.9331 158.034 96.8526 157.896 96.7722C157.248 96.3674 156.577 95.9993 155.887 95.6696C155.699 95.5759 155.508 95.4965 155.32 95.4105C155.131 95.3245 154.941 95.2539 154.758 95.19C154.575 95.126 154.395 95.0566 154.223 95.0092L153.97 94.9331C153.888 94.9121 153.809 94.8945 153.732 94.8757L153.511 94.8239L153.31 94.7908C153.2 94.7699 153.09 94.7559 152.979 94.749L152.686 94.7291L152.976 94.6718C153.088 94.6498 153.201 94.6347 153.315 94.6266L153.526 94.6056L153.761 94.5979C153.842 94.5979 153.928 94.5979 154.017 94.5979L154.291 94.6067C154.481 94.6067 154.677 94.6288 154.883 94.6453C155.089 94.6618 155.299 94.6938 155.515 94.7203C155.731 94.7467 155.947 94.7853 156.161 94.8305C156.955 94.9807 157.74 95.1747 158.513 95.4116C158.672 95.459 158.817 95.5064 158.946 95.5472C159.075 95.588 159.191 95.6299 159.286 95.6575L159.567 95.7556C159.68 95.7934 159.784 95.8533 159.873 95.9317C159.963 96.0101 160.036 96.1056 160.088 96.2124C160.141 96.3193 160.172 96.4355 160.179 96.5544C160.186 96.6732 160.169 96.7923 160.13 96.9047C160.091 97.0171 160.03 97.1206 159.951 97.2093C159.871 97.2979 159.775 97.3699 159.667 97.421C159.56 97.4722 159.443 97.5015 159.324 97.5073C159.205 97.513 159.087 97.4951 158.975 97.4546C158.902 97.429 158.833 97.3945 158.769 97.3521L158.763 97.3389Z" fill="#FA6142"/>
<path d="M124.532 114.818C124.532 114.818 124.581 114.915 124.665 115.087L124.735 115.228C124.762 115.285 124.792 115.362 124.824 115.435C124.897 115.598 124.959 115.765 125.009 115.936C125.035 116.026 125.063 116.12 125.091 116.216C125.12 116.312 125.132 116.418 125.154 116.522C125.195 116.741 125.222 116.962 125.236 117.184C125.236 117.294 125.236 117.416 125.236 117.534C125.236 117.593 125.236 117.652 125.236 117.711C125.236 117.769 125.224 117.83 125.218 117.889C125.194 118.127 125.155 118.362 125.1 118.594C125.041 118.819 124.967 119.04 124.88 119.256C124.84 119.362 124.794 119.465 124.742 119.565C124.691 119.665 124.643 119.764 124.591 119.858C124.49 120.035 124.38 120.206 124.26 120.371L124.092 120.597L123.92 120.795C123.822 120.91 123.717 121.021 123.607 121.125L123.473 121.257L123.351 121.36L123.122 121.554L123.299 121.312C123.327 121.274 123.358 121.232 123.391 121.186C123.422 121.138 123.454 121.085 123.489 121.03C123.57 120.907 123.643 120.781 123.71 120.65L123.82 120.43C123.854 120.351 123.888 120.27 123.93 120.186C124.003 120.012 124.066 119.835 124.12 119.655C124.145 119.561 124.166 119.465 124.189 119.369C124.214 119.273 124.232 119.175 124.243 119.076C124.274 118.878 124.291 118.679 124.296 118.479C124.295 118.284 124.281 118.089 124.253 117.895C124.247 117.848 124.241 117.801 124.235 117.755C124.228 117.709 124.214 117.662 124.204 117.617C124.181 117.527 124.164 117.438 124.139 117.352C124.089 117.19 124.028 117.031 123.957 116.876C123.923 116.802 123.894 116.731 123.858 116.664L123.747 116.476C123.688 116.372 123.621 116.272 123.547 116.178C123.516 116.136 123.493 116.101 123.462 116.06L123.36 115.939L123.168 115.709C123.096 115.626 123.041 115.529 123.006 115.424C122.971 115.32 122.958 115.209 122.966 115.099C122.975 114.989 123.006 114.882 123.056 114.784C123.107 114.686 123.177 114.599 123.261 114.529C123.346 114.458 123.444 114.405 123.55 114.373C123.655 114.341 123.766 114.33 123.876 114.342C123.985 114.353 124.092 114.386 124.188 114.439C124.285 114.492 124.37 114.564 124.439 114.65C124.482 114.698 124.519 114.752 124.549 114.809L124.532 114.818Z" fill="#FA6142"/>
<path d="M161.046 95.0368L160.89 94.9001C160.839 94.8538 160.78 94.813 160.716 94.7589C160.652 94.7049 160.571 94.6487 160.481 94.5814C160.303 94.4502 160.086 94.3047 159.851 94.1503C159.616 93.996 159.361 93.8372 159.104 93.6784C158.589 93.362 158.066 93.0522 157.681 92.8074C157.585 92.7445 157.497 92.6905 157.421 92.6365C157.345 92.5825 157.278 92.5384 157.225 92.4965L157.155 92.4424L157.108 92.3961L157.068 92.3586L157.114 92.3906L157.165 92.4281L157.243 92.4711C157.299 92.5042 157.372 92.5395 157.454 92.5814C157.537 92.6233 157.632 92.6641 157.734 92.7115C158.148 92.8956 158.708 93.1249 159.267 93.3642C159.547 93.4833 159.826 93.6056 160.087 93.7258C160.348 93.846 160.59 93.9618 160.797 94.072C160.901 94.125 160.996 94.1757 161.083 94.2275C161.17 94.2793 161.249 94.3223 161.303 94.3576L161.479 94.4679C161.558 94.519 161.615 94.5998 161.635 94.6925C161.655 94.7851 161.638 94.882 161.587 94.9618C161.535 95.0416 161.455 95.0979 161.362 95.1181C161.269 95.1384 161.173 95.121 161.093 95.0698C161.078 95.0609 161.065 95.051 161.052 95.0401L161.046 95.0368Z" fill="#FA6142"/>
<path d="M178.625 97.9287C178.625 97.9287 176.089 98.0323 173.994 97.9916C173.914 98.8438 172.901 102.526 176.037 104.556C181.234 101.655 178.625 97.9287 178.625 97.9287Z" fill="#2E353D"/>
<path d="M56.8634 133.26C56.8426 133.26 56.8219 133.258 56.8016 133.254C51.3042 132.186 46.7947 130.242 43.3977 127.477C40.4208 125.052 38.3645 122.075 37.273 118.614C36.2852 115.441 36.1517 112.063 36.886 108.822C37.5596 105.81 38.9268 103.119 40.735 101.248C42.9953 98.9086 46.1806 97.397 49.947 96.8766C52.1075 96.5868 54.2987 96.6117 56.4521 96.9505C55.2503 94.4344 54.5557 91.3781 55.5226 88.9481C56.5028 86.4849 58.9549 85.0891 62.8106 84.8134C71.2364 84.1993 78.176 88.4684 84.8884 92.5976C90.4211 96.0012 96.0728 99.4776 102.694 100.375C102.473 100.138 102.263 99.9065 102.064 99.6815C99.1005 96.3397 97.1599 92.0011 96.5998 87.464C96.0563 83.0537 96.8203 78.7306 98.7609 75.2829C100.304 72.5375 102.557 70.4316 105.28 69.1857C108.307 67.8031 111.851 67.4635 115.812 68.1768C118.876 68.7281 121.573 70.3919 123.613 72.9873C125.508 75.3997 126.724 78.5244 127.031 81.7858C127.374 85.3669 126.649 88.8422 124.936 91.8324C123.029 95.1643 119.938 97.7322 115.994 99.256C111.747 100.898 107.906 101.422 104.351 101.193C113.38 110.278 131.364 121.885 146.122 121.26C153.201 120.96 158.928 117.944 163.141 112.296C163.166 112.263 163.197 112.234 163.233 112.213C163.269 112.192 163.309 112.178 163.35 112.172C163.391 112.166 163.433 112.168 163.474 112.178C163.514 112.188 163.552 112.207 163.586 112.231C163.619 112.256 163.647 112.288 163.669 112.324C163.69 112.36 163.704 112.399 163.71 112.441C163.716 112.482 163.714 112.524 163.704 112.564C163.693 112.605 163.675 112.643 163.65 112.676C159.317 118.486 153.429 121.587 146.148 121.896C136.849 122.289 127.271 118.043 120.875 114.411C113.305 110.111 107.125 104.967 103.385 101.113C96.3253 100.379 90.3714 96.7156 84.5499 93.1389C77.6192 88.8764 71.0765 84.8498 62.8525 85.4474C59.2603 85.7087 56.9924 86.9657 56.1092 89.1829C55.1908 91.4917 55.9582 94.5921 57.2283 97.085C58.2126 97.2717 59.1832 97.5244 60.1336 97.8414C63.0973 98.8337 64.8911 100.201 64.9319 101.499C64.9485 102.05 64.6243 102.51 64.0642 102.737C62.9242 103.2 60.7753 102.692 58.752 100.478C57.9942 99.6216 57.342 98.6777 56.8093 97.6661C51.517 96.7531 45.1486 97.5966 41.1926 101.69C37.9753 105.02 35.8043 111.834 37.8849 118.422C40.1595 125.64 46.9259 130.686 56.9273 132.63C57.0042 132.645 57.0725 132.689 57.1191 132.752C57.1658 132.815 57.1875 132.893 57.1801 132.972C57.1727 133.05 57.1368 133.122 57.0792 133.176C57.0215 133.229 56.9462 133.259 56.8678 133.26H56.8634ZM57.6252 97.8182C58.0764 98.6145 58.6109 99.3607 59.2195 100.044C61.1612 102.168 63.0366 102.463 63.8228 102.139C64.0433 102.05 64.3046 101.867 64.2935 101.51C64.2704 100.759 63.1127 99.5018 59.9285 98.4356C59.1732 98.1858 58.4042 97.9796 57.6252 97.8182ZM103.666 100.484C107.349 100.834 111.336 100.374 115.767 98.6584C124.468 95.2944 126.962 87.7661 126.397 81.842C125.749 75.0767 121.448 69.8351 115.692 68.7987C108.438 67.4921 102.461 69.9674 99.3088 75.5894C95.3176 82.6954 96.6737 92.6483 102.533 99.2549C102.891 99.6606 103.27 100.072 103.668 100.489L103.666 100.484Z" fill="#84B8FF"/>
<path d="M148.492 102.081L148.39 102.106L148.262 102.137L148.041 102.181C148 102.189 147.955 102.199 147.912 102.205L147.79 102.221C147.705 102.232 147.613 102.244 147.516 102.254C147.324 102.268 147.107 102.291 146.874 102.296C146.642 102.3 146.392 102.305 146.127 102.302C145.996 102.302 145.86 102.291 145.723 102.287C145.587 102.283 145.446 102.275 145.303 102.259L144.871 102.221L144.43 102.164C144.135 102.13 143.839 102.065 143.548 102.015C143.401 101.985 143.255 101.949 143.107 101.915C142.959 101.882 142.816 101.853 142.675 101.805L142.255 101.684C142.185 101.663 142.117 101.645 142.049 101.622L141.849 101.553C141.585 101.459 141.33 101.377 141.097 101.273L140.755 101.129C140.7 101.106 140.645 101.084 140.593 101.06L140.441 100.985L139.902 100.717C139.745 100.631 139.612 100.549 139.501 100.487L139.154 100.284L139.532 100.417C139.654 100.458 139.797 100.512 139.965 100.566L140.536 100.724L140.696 100.768C140.75 100.781 140.806 100.792 140.863 100.804L141.216 100.877C141.455 100.934 141.714 100.965 141.979 101.005L142.179 101.035C142.246 101.043 142.314 101.048 142.383 101.054L142.797 101.092C142.936 101.107 143.077 101.106 143.218 101.114C143.359 101.122 143.501 101.126 143.642 101.127C143.925 101.121 144.206 101.127 144.483 101.106L144.892 101.082L145.289 101.041C145.42 101.03 145.547 101.01 145.67 100.992C145.794 100.973 145.916 100.958 146.033 100.936C146.267 100.892 146.487 100.853 146.686 100.803C146.884 100.753 147.062 100.706 147.22 100.664L147.43 100.596L147.524 100.565L147.589 100.537L147.699 100.494C147.733 100.481 147.78 100.458 147.809 100.446L147.904 100.402H147.915C148.131 100.303 148.377 100.293 148.599 100.376C148.822 100.458 149.002 100.626 149.101 100.841C149.2 101.057 149.209 101.303 149.127 101.525C149.045 101.747 148.877 101.928 148.662 102.027C148.607 102.051 148.55 102.069 148.492 102.081Z" fill="#FA6142"/>
<path d="M170.055 98.0002L170.031 97.9296C170.024 97.9043 170.014 97.8723 170.002 97.8348L169.96 97.6926C169.932 97.5911 169.907 97.4853 169.876 97.3618C169.845 97.2383 169.814 97.0906 169.786 96.9351C169.757 96.7796 169.722 96.6043 169.692 96.4312C169.662 96.2581 169.635 96.063 169.605 95.8678C169.575 95.6727 169.555 95.4698 169.532 95.2636C169.509 95.0574 169.49 94.8491 169.482 94.6385L169.466 94.3242C169.466 94.214 169.466 94.1147 169.466 94.0122C169.466 93.9097 169.466 93.806 169.466 93.7046C169.466 93.6031 169.474 93.5039 169.477 93.4047C169.477 93.2095 169.506 93.0188 169.52 92.8402C169.527 92.7529 169.538 92.666 169.554 92.58C169.567 92.4962 169.58 92.4157 169.594 92.3385C169.6 92.2999 169.607 92.2624 169.612 92.2283C169.618 92.1941 169.631 92.1555 169.64 92.118L169.69 91.9217C169.706 91.8611 169.718 91.8027 169.736 91.7508L169.788 91.6097L169.887 91.344C169.887 91.344 169.869 91.4454 169.84 91.6229C169.832 91.667 169.823 91.7156 169.814 91.7685C169.805 91.8214 169.807 91.8787 169.802 91.9416C169.798 92.0044 169.794 92.0695 169.79 92.1378C169.79 92.1716 169.788 92.2084 169.783 92.2481C169.783 92.2845 169.783 92.322 169.783 92.3583C169.783 92.4333 169.783 92.5127 169.783 92.5943C169.783 92.6787 169.788 92.763 169.798 92.8468C169.816 93.0199 169.824 93.2007 169.858 93.3881C169.873 93.4808 169.887 93.5756 169.902 93.6715C169.918 93.7674 169.94 93.8645 169.959 93.9615C169.977 94.0585 169.996 94.1555 170.019 94.2537C170.042 94.3518 170.067 94.4488 170.091 94.5469C170.136 94.7421 170.201 94.935 170.25 95.1247C170.298 95.3143 170.36 95.4996 170.425 95.676C170.49 95.8524 170.544 96.0266 170.607 96.1865C170.67 96.3463 170.725 96.4996 170.781 96.6374C170.837 96.7752 170.891 96.9009 170.939 97.0123C170.986 97.1236 171.031 97.2196 171.065 97.2868L171.106 97.3673L171.124 97.4015L171.143 97.4368L171.178 97.5018L171.187 97.5162C171.259 97.6596 171.273 97.8254 171.225 97.9788C171.177 98.1321 171.072 98.261 170.931 98.3382C170.791 98.4153 170.625 98.4349 170.47 98.3926C170.315 98.3503 170.183 98.2496 170.101 98.1115C170.082 98.0758 170.067 98.0386 170.055 98.0002Z" fill="#FA6142"/>
<path d="M107.43 73.4109C105.566 73.2158 105.82 70.3535 105.82 70.3535L107.575 70.9368L107.43 73.4109Z" fill="#CE5F49"/>
<path d="M110.604 72.9324C108.349 73.906 106.791 69.8353 106.791 69.8353L108.76 69.6379L110.604 72.9324Z" fill="#CE5F49"/>
<path d="M109.878 68.6797C109.897 68.485 109.98 68.302 110.115 68.1597C110.249 68.0174 110.427 67.9238 110.62 67.8936C110.814 67.8634 111.011 67.8984 111.183 67.993C111.354 68.0876 111.489 68.2365 111.566 68.4162L112.366 70.1958C112.413 70.3019 112.44 70.4164 112.443 70.5327C112.446 70.6489 112.427 70.7647 112.386 70.8735C112.344 70.9822 112.282 71.0817 112.202 71.1664C112.122 71.251 112.026 71.3191 111.92 71.3667C111.814 71.4143 111.7 71.4406 111.583 71.444C111.467 71.4474 111.351 71.4278 111.243 71.3865C111.134 71.3451 111.034 71.2827 110.95 71.2029C110.865 71.1231 110.797 71.0274 110.749 70.9212L109.951 69.1417C109.886 68.9969 109.861 68.8375 109.878 68.6797Z" fill="#FFAD94"/>
<path d="M108.979 72.2544L107.848 68.52C107.779 68.2956 107.802 68.053 107.912 67.8455C108.021 67.638 108.209 67.4826 108.434 67.4136C108.658 67.3446 108.901 67.3676 109.108 67.4775C109.316 67.5874 109.471 67.7752 109.54 67.9996L111.095 71.605C111.143 71.7426 111.164 71.8883 111.156 72.0339C111.148 72.1795 111.111 72.3221 111.048 72.4535C110.985 72.585 110.897 72.7027 110.788 72.8001C110.68 72.8974 110.553 72.9724 110.416 73.0207C110.278 73.0691 110.132 73.0899 109.987 73.0819C109.841 73.0739 109.699 73.0374 109.567 72.9743C109.436 72.9113 109.318 72.8229 109.221 72.7143C109.123 72.6058 109.048 72.4791 109 72.3415C108.995 72.314 108.987 72.2831 108.979 72.2544Z" fill="#FFAD94"/>
<path d="M106.412 72.4196L106.239 69.1593C106.221 69.0444 106.226 68.9272 106.254 68.8143C106.282 68.7014 106.331 68.595 106.4 68.5013C106.469 68.4076 106.555 68.3283 106.655 68.268C106.754 68.2077 106.864 68.1676 106.979 68.1499C107.094 68.1323 107.211 68.1374 107.324 68.165C107.437 68.1927 107.543 68.2423 107.637 68.3111C107.731 68.3798 107.81 68.4664 107.87 68.5657C107.931 68.6651 107.971 68.7754 107.989 68.8903L108.599 72.0877C108.628 72.2304 108.629 72.3773 108.601 72.5201C108.573 72.663 108.518 72.7989 108.437 72.9203C108.357 73.0416 108.253 73.1459 108.133 73.2272C108.012 73.3086 107.876 73.3653 107.734 73.3943C107.591 73.4232 107.444 73.4238 107.301 73.396C107.159 73.3682 107.023 73.3125 106.901 73.2321C106.78 73.1518 106.676 73.0483 106.594 72.9276C106.513 72.8069 106.456 72.6714 106.427 72.5288C106.421 72.488 106.415 72.4527 106.412 72.4196Z" fill="#FFAD94"/>
<path d="M106.306 69.4594L106.342 71.3613C106.382 71.6173 106.319 71.8789 106.167 72.0884C106.014 72.298 105.785 72.4384 105.529 72.4788C105.273 72.5191 105.011 72.4561 104.802 72.3036C104.592 72.1511 104.452 71.9216 104.411 71.6656C104.406 71.6254 104.402 71.5849 104.4 71.5443L104.752 69.606C104.746 69.4072 104.815 69.2134 104.947 69.0642C105.078 68.915 105.262 68.8215 105.46 68.8028C105.658 68.7841 105.856 68.8416 106.013 68.9636C106.17 69.0856 106.275 69.2629 106.306 69.4594Z" fill="#FFAD94"/>
<path d="M158.006 116.654L146.847 113.884C146.847 113.884 143.475 114.604 141.91 118.625C142.487 118.209 134.219 123.858 132.603 125.388C131.742 126.203 131.261 128.688 132.671 130.432C132.671 130.432 139.457 125.709 141.407 124.533C143.983 122.977 155.264 118.796 158.006 116.654Z" fill="#FA6142"/>
<path d="M166.131 114.67C166.837 115.411 167.057 116.346 166.624 116.765C166.191 117.184 165.268 116.913 164.562 116.173C163.857 115.433 163.635 114.498 164.068 114.085C164.502 113.671 165.426 113.93 166.131 114.67Z" fill="#FCD738"/>
<path d="M164.672 115.004C164.614 115.004 164.557 114.989 164.508 114.959C164.458 114.929 164.418 114.887 164.391 114.836C164.269 114.608 164.225 114.295 164.179 113.962C164.048 113.035 163.923 112.737 163.441 112.8C163.399 112.808 163.355 112.808 163.313 112.798C163.27 112.789 163.23 112.771 163.195 112.746C163.16 112.72 163.13 112.688 163.108 112.651C163.085 112.614 163.071 112.572 163.065 112.529C163.06 112.486 163.063 112.442 163.074 112.401C163.086 112.359 163.106 112.32 163.134 112.286C163.161 112.253 163.195 112.225 163.234 112.205C163.272 112.185 163.314 112.173 163.358 112.17C164.546 112.012 164.71 113.177 164.809 113.874C164.846 114.136 164.884 114.408 164.952 114.536C164.978 114.584 164.991 114.638 164.989 114.693C164.988 114.748 164.973 114.802 164.944 114.849C164.916 114.896 164.876 114.935 164.828 114.962C164.781 114.989 164.727 115.003 164.672 115.003V115.004Z" fill="#FCD738"/>
<path d="M132.024 126.352L134.891 128.777L135.302 128.62L135.999 128.141C134.728 127.64 133.357 127.01 132.024 126.352Z" fill="#2E353D"/>
<path d="M157.305 106.262C157.525 106.685 157.8 107.195 158.07 107.805C158.14 107.957 158.213 108.112 158.291 108.272C158.364 108.432 158.429 108.603 158.502 108.772C158.575 108.942 158.648 109.12 158.723 109.3L158.833 109.574L158.943 109.857C159.084 110.241 159.243 110.629 159.384 111.051C159.525 111.474 159.678 111.897 159.818 112.342C159.958 112.788 160.103 113.247 160.237 113.72C160.37 114.193 160.512 114.672 160.635 115.167C160.757 115.662 160.895 116.16 161.009 116.674C161.124 117.189 161.25 117.702 161.357 118.227C161.413 118.488 161.467 118.752 161.524 119.015C161.582 119.279 161.627 119.546 161.678 119.811C161.788 120.342 161.875 120.879 161.97 121.413C162.065 121.948 162.145 122.487 162.233 123.021C162.321 123.554 162.39 124.09 162.467 124.62C162.61 125.68 162.744 126.725 162.851 127.739C162.958 128.752 163.055 129.733 163.137 130.664C163.22 131.594 163.282 132.475 163.334 133.289C163.444 134.915 163.498 136.266 163.533 137.223C163.55 137.7 163.563 138.075 163.573 138.331C163.581 138.48 163.586 138.595 163.589 138.672V138.729H165.133C165.135 138.692 165.135 138.656 165.133 138.619V138.578C165.133 138.578 165.133 138.544 165.121 138.479C165.109 138.414 165.11 138.343 165.1 138.236C165.08 137.982 165.05 137.608 165.012 137.134C164.935 136.177 164.814 134.809 164.636 133.173C164.548 132.355 164.44 131.47 164.32 130.535C164.201 129.6 164.062 128.615 163.904 127.6C163.745 126.584 163.573 125.536 163.378 124.473C163.276 123.943 163.174 123.409 163.071 122.872C162.961 122.337 162.851 121.799 162.74 121.264C162.63 120.73 162.506 120.193 162.374 119.662C162.31 119.397 162.248 119.132 162.184 118.867C162.12 118.603 162.049 118.342 161.981 118.08C161.851 117.558 161.705 117.042 161.562 116.537C161.418 116.032 161.264 115.528 161.121 115.036C160.977 114.544 160.807 114.066 160.655 113.596C160.504 113.126 160.325 112.673 160.174 112.229C160.023 111.785 159.843 111.362 159.68 110.949C159.517 110.535 159.341 110.146 159.182 109.768L159.062 109.488L158.935 109.218L158.691 108.696C158.61 108.528 158.537 108.366 158.456 108.203L158.218 107.746C157.921 107.148 157.621 106.643 157.384 106.234C157.274 106.025 157.149 105.847 157.053 105.691L156.799 105.295L156.586 104.964C156.586 104.964 156.655 105.082 156.783 105.304L157.021 105.711C157.089 105.867 157.199 106.047 157.305 106.262Z" fill="#84B8FF"/>
<path d="M157.951 125.052C158.05 125.227 158.171 125.44 158.289 125.693C158.353 125.817 158.415 125.952 158.476 126.096C158.538 126.239 158.608 126.389 158.668 126.55C158.729 126.711 158.798 126.881 158.859 127.049L158.954 127.315L159.042 127.592C159.164 127.965 159.272 128.364 159.373 128.778C159.473 129.193 159.567 129.625 159.646 130.067C159.726 130.509 159.795 130.959 159.856 131.41C160.055 133.07 160.152 134.741 160.147 136.412C160.147 137.103 160.147 137.678 160.147 138.081C160.147 138.288 160.147 138.452 160.147 138.564C160.147 138.675 160.147 138.729 160.147 138.729H161.685C161.688 138.695 161.688 138.661 161.685 138.626C161.685 138.626 161.678 138.569 161.665 138.462C161.652 138.355 161.637 138.204 161.617 138.01C161.576 137.607 161.517 137.031 161.447 136.34C161.275 134.634 160.997 132.94 160.615 131.268C160.505 130.814 160.395 130.36 160.259 129.919C160.124 129.478 159.99 129.046 159.844 128.635C159.697 128.224 159.54 127.828 159.377 127.462L159.257 127.192L159.134 126.932C159.054 126.761 158.97 126.601 158.888 126.445C158.805 126.29 158.727 126.144 158.646 126.004C158.566 125.864 158.492 125.736 158.414 125.617C158.267 125.376 158.125 125.176 158.008 125.01C157.891 124.843 157.787 124.722 157.724 124.635L157.623 124.504L157.71 124.645C157.764 124.741 157.855 124.871 157.951 125.052Z" fill="#84B8FF"/>
<path d="M115.519 49.16C115.254 48.9371 114.949 48.7672 114.62 48.6594C114.05 48.4641 113.439 48.4148 112.844 48.5161C112.353 48.5952 111.872 48.7302 111.411 48.9185C110.917 49.121 110.456 49.3948 110.042 49.7311C109.248 50.358 108.55 51.0976 107.97 51.9263C107.797 52.1902 107.608 52.4438 107.406 52.686C107.093 53.0572 106.71 53.3633 106.278 53.5868L106.211 53.6188C106.211 53.6217 106.211 53.6247 106.211 53.6276C106.321 53.664 106.438 53.7026 106.554 53.7379C107.066 53.8801 107.575 54.0278 108.09 54.159C108.411 54.2417 108.737 54.3123 109.064 54.3652C109.447 54.4338 109.841 54.355 110.167 54.1447C110.372 54.0076 110.554 53.8377 110.704 53.6419C110.856 53.4758 110.993 53.2977 111.116 53.1094C111.267 52.8412 111.391 52.5587 111.486 52.2659C111.538 52.1138 111.581 51.9572 111.628 51.8029C111.631 51.7902 111.639 51.7792 111.65 51.772C111.679 52.2516 111.708 52.7312 111.738 53.2208C111.805 53.1612 111.865 53.1105 111.928 53.0532C112.413 52.6485 112.976 52.3482 113.582 52.1711C114.103 52.0278 114.606 51.8227 115.079 51.5603C115.287 51.4469 115.476 51.3006 115.638 51.127C115.763 50.9923 115.86 50.8336 115.922 50.6606C115.984 50.4875 116.01 50.3037 115.999 50.1202C115.988 49.9367 115.939 49.7574 115.857 49.5931C115.774 49.4288 115.659 49.283 115.519 49.1644V49.16Z" fill="#84B8FF"/>
<path d="M109.656 52.5031L109.936 52.2473C110.024 52.1657 110.137 52.0709 110.267 51.9584C110.397 51.8459 110.543 51.7291 110.701 51.5957C110.86 51.4623 111.041 51.3277 111.24 51.1965C111.339 51.1293 111.437 51.0554 111.544 50.9904L111.875 50.7897C112.108 50.6555 112.348 50.5337 112.593 50.4247C112.719 50.3657 112.847 50.313 112.978 50.2671C113.109 50.2208 113.241 50.1689 113.374 50.1281L113.78 50.0179C113.847 49.999 113.916 49.9839 113.985 49.9727L114.19 49.9352L114.393 49.8977C114.461 49.8845 114.53 49.8823 114.597 49.8735L114.997 49.8338C115.129 49.8249 115.258 49.8271 115.386 49.8238C115.514 49.8205 115.639 49.8128 115.759 49.8238L116.111 49.8459C116.221 49.8547 116.331 49.8547 116.441 49.8735L117.013 49.9528C117.182 49.9804 117.327 50.0168 117.454 50.041L117.832 50.1215C117.862 50.1279 117.89 50.1401 117.915 50.1574C117.94 50.1748 117.962 50.1969 117.979 50.2225C117.995 50.2482 118.007 50.2768 118.012 50.3069C118.018 50.337 118.017 50.3678 118.011 50.3977C118.005 50.4276 117.992 50.456 117.975 50.4812C117.958 50.5063 117.936 50.5279 117.91 50.5445C117.884 50.5611 117.856 50.5726 117.826 50.5781C117.796 50.5837 117.765 50.5833 117.735 50.5769H117.724H117.708L117.35 50.481C117.24 50.4512 117.097 50.4082 116.936 50.3707L116.394 50.2604C116.295 50.2373 116.19 50.2329 116.082 50.2186L115.751 50.1789C115.641 50.1623 115.516 50.1678 115.395 50.1601C115.274 50.1524 115.149 50.1491 115.022 50.1502L114.638 50.1689C114.573 50.1689 114.506 50.1689 114.441 50.1811L114.245 50.2064L114.046 50.2329C113.979 50.2395 113.912 50.2506 113.847 50.266L113.45 50.3509C113.319 50.3839 113.19 50.428 113.06 50.4611C112.931 50.499 112.804 50.5439 112.679 50.5956C112.434 50.6889 112.193 50.7953 111.958 50.9143L111.628 51.0951C111.517 51.1535 111.418 51.2208 111.317 51.2814C111.114 51.4016 110.935 51.5361 110.765 51.6497C110.596 51.7632 110.446 51.8834 110.314 51.9871C110.183 52.0907 110.066 52.1811 109.974 52.2583L109.656 52.5031Z" fill="#3984FF"/>
</svg>
