<svg width="21" height="20" viewBox="0 0 21 20" fill="none" xmlns="http://www.w3.org/2000/svg">
<path fill-rule="evenodd" clip-rule="evenodd" d="M2.6875 1.875C2.60462 1.875 2.52513 1.90792 2.46653 1.96653C2.40792 2.02513 2.375 2.10462 2.375 2.1875V14.0625C2.375 14.235 2.515 14.375 2.6875 14.375H5.1875C5.43614 14.375 5.6746 14.4738 5.85041 14.6496C6.02623 14.8254 6.125 15.0639 6.125 15.3125V18.05L9.525 14.65C9.70065 14.4741 9.93894 14.3752 10.1875 14.375H18.3125C18.3954 14.375 18.4749 14.3421 18.5335 14.2835C18.5921 14.2249 18.625 14.1454 18.625 14.0625V2.1875C18.625 2.10462 18.5921 2.02513 18.5335 1.96653C18.4749 1.90792 18.3954 1.875 18.3125 1.875H2.6875ZM0.5 2.1875C0.5 0.98 1.48 0 2.6875 0H18.3125C19.52 0 20.5 0.98 20.5 2.1875V14.0625C20.5 14.6427 20.2695 15.1991 19.8593 15.6093C19.4491 16.0195 18.8927 16.25 18.3125 16.25H10.575L7.35875 19.4662C7.10405 19.7208 6.77959 19.8942 6.42638 19.9644C6.07318 20.0346 5.70709 19.9986 5.37437 19.8608C5.04166 19.723 4.75727 19.4896 4.55714 19.1903C4.35701 18.8909 4.25013 18.5389 4.25 18.1788V16.25H2.6875C2.10734 16.25 1.55094 16.0195 1.1407 15.6093C0.730468 15.1991 0.5 14.6427 0.5 14.0625L0.5 2.1875ZM11.75 11.25C11.75 11.5815 11.6183 11.8995 11.3839 12.1339C11.1495 12.3683 10.8315 12.5 10.5 12.5C10.1685 12.5 9.85054 12.3683 9.61612 12.1339C9.3817 11.8995 9.25 11.5815 9.25 11.25C9.25 10.9185 9.3817 10.6005 9.61612 10.3661C9.85054 10.1317 10.1685 10 10.5 10C10.8315 10 11.1495 10.1317 11.3839 10.3661C11.6183 10.6005 11.75 10.9185 11.75 11.25ZM11.4375 4.6875C11.4375 4.43886 11.3387 4.2004 11.1629 4.02459C10.9871 3.84877 10.7486 3.75 10.5 3.75C10.2514 3.75 10.0129 3.84877 9.83709 4.02459C9.66127 4.2004 9.5625 4.43886 9.5625 4.6875V7.8125C9.5625 8.06114 9.66127 8.2996 9.83709 8.47541C10.0129 8.65123 10.2514 8.75 10.5 8.75C10.7486 8.75 10.9871 8.65123 11.1629 8.47541C11.3387 8.2996 11.4375 8.06114 11.4375 7.8125V4.6875Z" fill="white"/>
</svg>
