<svg width="20" height="17" viewBox="0 0 20 17" fill="none" xmlns="http://www.w3.org/2000/svg">
<path d="M3.09518 10.143V12.0477C3.1028 13.3868 3.73518 13.1787 4.20375 12.7768L6.9047 10.3382V11.5715C6.9047 12.7287 7.17137 13.0001 8.33328 13.0001H12.619C12.619 13.0001 15.0995 15.9168 15.119 15.8972C15.4761 16.3334 16.4433 16.1849 16.4285 15.381V13.0001H17.8571C19.0238 13.0001 19.2857 12.7101 19.2857 11.5715V4.42866C19.2857 3.28581 19.0047 3.00009 17.8571 3.00009H13.0952V2.04771C13.0952 0.871522 12.8761 0.619141 11.6666 0.619141H1.66661C0.542799 0.619141 0.238037 0.861998 0.238037 2.04771V8.23819C0.238037 9.39962 0.499942 10.143 1.66661 10.143H3.09518ZM14.9999 11.5715V13.8196L13.0952 11.5715H8.80947C8.45232 11.5715 8.33328 11.443 8.33328 11.0953V4.90486C8.33328 4.58581 8.4809 4.42866 8.80947 4.42866H17.3809C17.709 4.42866 17.8571 4.60486 17.8571 4.87628V11.0953C17.8571 11.4387 17.6861 11.5715 17.3809 11.5715H14.9999Z" fill="black"/>
</svg>
