<svg width="15" height="17" viewBox="0 0 15 17" fill="none" xmlns="http://www.w3.org/2000/svg">
<path d="M13.6668 13.5757L3.5335 3.11732L1.39183 0.908984L0.333496 1.96732L2.66683 4.30065V4.30898C2.2335 5.13398 2.00016 6.10898 2.00016 7.15898V11.3257L0.333496 12.9923V13.8257H11.7752L13.4418 15.4923L14.5002 14.434L13.6668 13.5757ZM7.00016 16.334C7.92516 16.334 8.66683 15.5923 8.66683 14.6673H5.3335C5.3335 15.5923 6.07516 16.334 7.00016 16.334ZM12.0002 10.234V7.16732C12.0002 4.60065 10.6335 2.46732 8.25016 1.90065V1.33398C8.25016 0.642318 7.69183 0.0839844 7.00016 0.0839844C6.3085 0.0839844 5.75016 0.642318 5.75016 1.33398V1.90065C5.62516 1.92565 5.5085 1.96732 5.40016 2.00065C5.31683 2.02565 5.2335 2.05898 5.15016 2.09232H5.14183C5.1335 2.09232 5.1335 2.09232 5.12516 2.10065C4.9335 2.17565 4.74183 2.26732 4.5585 2.35898C4.5585 2.35898 4.55016 2.35898 4.55016 2.36732L12.0002 10.234Z" fill="black"/>
</svg>
