<svg width="20" height="26" viewBox="0 0 20 26" fill="none" xmlns="http://www.w3.org/2000/svg">
<path d="M10 16.666C12.2133 16.666 13.9867 14.8793 13.9867 12.666L14 4.66602C14 2.45268 12.2133 0.666016 10 0.666016C7.78667 0.666016 6 2.45268 6 4.66602V12.666C6 14.8793 7.78667 16.666 10 16.666ZM17.0667 12.666C17.0667 16.666 13.68 19.466 10 19.466C6.32 19.466 2.93333 16.666 2.93333 12.666H0.666668C0.666668 17.2127 4.29333 20.9727 8.66667 21.626V25.9993H11.3333V21.626C15.7067 20.986 19.3333 17.226 19.3333 12.666H17.0667Z" fill="white"/>
</svg>
