<svg width="24" height="26" viewBox="0 0 24 26" fill="none" xmlns="http://www.w3.org/2000/svg">
<path d="M21.3333 12.666H19.0667C19.0667 13.6527 18.8533 14.5727 18.4933 15.3993L20.1333 17.0393C20.88 15.7327 21.3333 14.2527 21.3333 12.666ZM15.9733 12.8927C15.9733 12.8127 16 12.746 16 12.666V4.66602C16 2.45268 14.2133 0.666016 12 0.666016C9.78667 0.666016 8 2.45268 8 4.66602V4.90602L15.9733 12.8927ZM1.69333 1.99935L0 3.69268L8.01333 11.706V12.666C8.01333 14.8793 9.78667 16.666 12 16.666C12.2933 16.666 12.5867 16.626 12.8667 16.5593L15.08 18.7727C14.1333 19.2127 13.08 19.466 12 19.466C8.32 19.466 4.93333 16.666 4.93333 12.666H2.66667C2.66667 17.2127 6.29333 20.9727 10.6667 21.626V25.9993H13.3333V21.626C14.5467 21.4527 15.6933 21.026 16.72 20.426L22.3067 25.9993L24 24.306L1.69333 1.99935Z" fill="#222222"/>
</svg>
