<svg width="24" height="24" viewBox="0 0 24 24" fill="none" xmlns="http://www.w3.org/2000/svg">
<path d="M18 12C18 9.64 16.64 7.61333 14.6667 6.62667V9.57333L17.9333 12.84C17.9733 12.5733 18 12.2933 18 12ZM21.3333 12C21.3333 13.2533 21.0667 14.4267 20.6133 15.52L22.6267 17.5333C23.5067 15.88 24 14 24 12C24 6.29333 20.0133 1.52 14.6667 0.306667V3.05333C18.52 4.2 21.3333 7.77333 21.3333 12ZM1.69333 0L0 1.69333L6.30667 8H0V16H5.33333L12 22.6667V13.6933L17.6667 19.36C16.7733 20.0533 15.7733 20.6 14.6667 20.9333V23.68C16.5067 23.2667 18.1733 22.4133 19.5867 21.2667L22.3067 24L24 22.3067L12 10.3067L1.69333 0ZM12 1.33333L9.21333 4.12L12 6.90667V1.33333Z" fill="#222222"/>
</svg>
